<svg width="24" height="24" viewBox="0 0 24 24" fill="none" xmlns="http://www.w3.org/2000/svg">
<path d="M23.6408 14.9029C22.038 21.3315 15.5261 25.2438 9.09601 23.6407C2.66862 22.0381 -1.24414 15.5265 0.359421 9.09837C1.96158 2.66903 8.47344 -1.24361 14.9015 0.359081C21.3312 1.96177 25.2437 8.47405 23.6406 14.903L23.6408 14.9029H23.6408Z" fill="#F7931A"/>
<path d="M17.2923 10.2894C17.5311 8.69242 16.3152 7.83401 14.6525 7.26136L15.1919 5.09816L13.875 4.77005L13.3499 6.87629C13.0037 6.78995 12.6481 6.70859 12.2947 6.62794L12.8236 4.5078L11.5075 4.17969L10.9678 6.34218C10.6813 6.27695 10.3999 6.21249 10.1269 6.14457L10.1284 6.13776L8.31236 5.6843L7.96203 7.09073C7.96203 7.09073 8.93909 7.31467 8.9185 7.32846C9.45179 7.46155 9.54823 7.81453 9.53222 8.09432L8.9178 10.5587C8.95452 10.568 9.00215 10.5815 9.05471 10.6026C9.01078 10.5917 8.96402 10.5798 8.91551 10.5682L8.05431 14.0205C7.98913 14.1825 7.82371 14.4256 7.45086 14.3333C7.46406 14.3524 6.49368 14.0944 6.49368 14.0944L5.83984 15.6017L7.55363 16.0289C7.87246 16.1089 8.18489 16.1925 8.49256 16.2712L7.9476 18.4592L9.26302 18.7873L9.8027 16.6225C10.1621 16.72 10.5108 16.81 10.8522 16.8948L10.3143 19.0494L11.6313 19.3775L12.1763 17.1936C14.4219 17.6186 16.1105 17.4473 16.8212 15.4163C17.3939 13.7811 16.7927 12.8379 15.6113 12.2229C16.4718 12.0244 17.1199 11.4585 17.2927 10.2895L17.2923 10.2892L17.2923 10.2894ZM14.2834 14.5082C13.8764 16.1434 11.1229 15.2594 10.2302 15.0378L10.9534 12.139C11.846 12.3619 14.7087 12.8028 14.2834 14.5082H14.2834ZM14.6906 10.2657C14.3194 11.753 12.0277 10.9974 11.2843 10.8121L11.9399 8.18312C12.6833 8.36841 15.0774 8.71424 14.6908 10.2657H14.6906Z" fill="white"/>
</svg>
