<svg width="120" height="20" viewBox="0 0 120 20" fill="none" xmlns="http://www.w3.org/2000/svg">
<g clip-path="url(#clip0_6397_7675)">
<path d="M15.7589 18.577V1.35938H19.6807V18.577H15.7589ZM91.9945 12.1443C91.9945 7.98336 88.7662 5.40073 84.9879 5.40073C81.1857 5.40073 77.9813 8.00728 77.9813 12.1443C77.9813 16.3052 81.2096 18.9117 84.9879 18.9117C88.7662 18.9117 91.9945 16.2813 91.9945 12.1443ZM88.1206 12.1443C88.1206 14.3204 86.6618 15.54 84.964 15.54C83.2662 15.54 81.8074 14.3204 81.8074 12.1443C81.8074 9.94425 83.2662 8.7725 84.964 8.7725C86.6618 8.7725 88.1206 9.94425 88.1206 12.1443ZM14.1806 13.6269C14.1806 11.6899 13.1762 10.2073 11.3827 9.53773C13.0806 8.60511 13.6784 7.38553 13.6784 5.95073C13.6784 3.43983 11.861 1.35938 7.79574 1.38329H0V18.6009H8.13053C12.2197 18.577 14.1806 16.5443 14.1806 13.6269ZM9.5175 6.45291C9.5175 7.62466 8.77619 8.29424 7.34139 8.29424H4.08918V4.70724H7.34139C8.65662 4.70724 9.5175 5.28116 9.5175 6.45291ZM9.8762 13.3639C9.8762 14.4878 9.08706 15.2291 7.62835 15.2291H4.08918V11.4986H7.62835C9.03923 11.4986 9.8762 12.216 9.8762 13.3639ZM48.3288 8.91598C47.2527 6.66813 45.244 5.42464 42.207 5.42464C38.62 5.42464 35.4156 7.67249 35.4156 12.1443C35.4156 16.4965 38.2374 18.9117 42.1592 18.9117C44.9092 18.9117 47.2288 17.8117 48.3288 15.4443L45.1722 13.8182C44.5983 14.8704 43.7135 15.54 42.3027 15.54C40.4852 15.54 39.3135 14.2487 39.3135 12.1443C39.3135 10.0399 40.6526 8.7725 42.2787 8.7725C43.5461 8.7725 44.5027 9.34642 45.1005 10.5899L48.3288 8.91598ZM106.127 8.91598C105.051 6.66813 103.042 5.42464 100.005 5.42464C96.4185 5.42464 93.2141 7.67249 93.2141 12.1443C93.2141 16.4965 96.0359 18.9117 99.9576 18.9117C102.708 18.9117 105.027 17.8117 106.127 15.4443L102.971 13.8182C102.397 14.8704 101.512 15.54 100.101 15.54C98.2837 15.54 97.112 14.2487 97.112 12.1443C97.112 10.0399 98.4511 8.7725 100.077 8.7725C101.345 8.7725 102.301 9.34642 102.899 10.5899L106.127 8.91598ZM73.2465 18.577L69.9704 12.7899H67.4595V18.577H63.4181V1.35938H70.7117C74.6574 1.35938 77.4074 3.24853 77.4074 6.95509C77.4074 9.32251 76.2356 10.9964 74.1552 12.0247L77.9335 18.577H73.2465ZM67.4834 9.37033H70.4965C72.3617 9.37033 73.2704 8.31815 73.2704 7.07466C73.2704 5.59203 72.4095 4.77898 70.4965 4.77898H67.4834V9.37033ZM34.77 18.3617V15.6595C34.6026 15.7074 34.3634 15.7552 34.1004 15.7552C33.5982 15.7552 33.3352 15.4921 33.3352 15.0378V10.566C33.3352 7.21814 31.0873 5.44855 27.3807 5.44855C24.9655 5.44855 22.909 6.33334 21.6176 7.48118L23.7937 9.92034C24.6546 9.15511 25.8025 8.67685 26.9264 8.67685C28.6482 8.67685 29.4612 9.53773 29.4612 10.9486V11.3551C28.6481 11.1638 27.6199 10.9725 26.3764 10.9725C23.2437 10.9725 21.2111 12.4791 21.2111 14.9661C21.2111 17.5248 22.909 18.8639 25.5394 18.8639C27.3329 18.8639 28.9351 18.1226 29.7721 17.1661C30.2743 18.4335 31.3743 18.7683 32.4504 18.7683C33.1917 18.7922 34.0526 18.6726 34.77 18.3617ZM29.4851 14.3204C29.4851 15.4921 28.3612 16.2574 27.0699 16.2574C25.8503 16.2574 25.2525 15.6356 25.2525 14.7747C25.2525 13.866 25.922 13.1965 27.2851 13.1965C28.1221 13.1965 28.8634 13.3399 29.4851 13.4834V14.3204ZM120.14 18.577L115.525 10.566L119.854 5.85508H115.501L110.934 10.9247V1.38329H107.036V18.6009H110.934V15.4921L112.799 13.5073L115.717 18.6009H120.14V18.577ZM62.3898 18.577L57.7746 10.566L62.1029 5.85508H57.7028L53.1832 10.9247V1.38329H49.2853V18.6009H53.1832V15.4921L55.0484 13.5073L57.9659 18.6009H62.3898V18.577Z" fill="white"/>
</g>
<defs>
<clipPath id="clip0_6397_7675">
<rect width="120" height="19.3548" fill="white" transform="translate(0 0.648438)"/>
</clipPath>
</defs>
</svg>
