<svg width="125" height="64" viewBox="0 0 125 64" fill="none" xmlns="http://www.w3.org/2000/svg">
<path d="M13.7877 37.1043C13.7877 36.1724 13.674 35.8369 12.4232 35.6877L11.2862 35.5386V35.2031C12.5749 35.2031 13.6739 35.2404 15.0006 35.2404C16.2892 35.2404 17.3883 35.2031 18.6769 35.2031V35.5386L17.54 35.6877C16.3272 35.8741 16.1754 36.2096 16.1754 37.1043V47.803C16.1754 48.7349 16.2892 49.0704 17.54 49.2196L18.6769 49.3687V49.7041C17.3883 49.7041 16.2892 49.6669 15.0006 49.6669C13.7119 49.6669 12.6129 49.7041 11.2862 49.7041V49.3687L12.4232 49.2196C13.636 49.0332 13.7877 48.6977 13.7877 47.803V42.5096H6.88919V47.803C6.88919 48.7349 7.00299 49.0704 8.25373 49.2196L9.35276 49.3687V49.7041C8.06408 49.7041 6.96506 49.6669 5.67638 49.6669C4.3877 49.6669 3.28868 49.7041 2 49.7041V49.3687L3.13696 49.2196C4.34978 49.0332 4.50149 48.6977 4.50149 47.803V37.1043C4.50149 36.1724 4.38771 35.8369 3.13696 35.6877L2 35.5386V35.2031C3.28868 35.2031 4.3877 35.2404 5.67638 35.2404C6.96506 35.2404 8.06408 35.2031 9.35276 35.2031V35.5386L8.25373 35.6877C7.04092 35.8741 6.88919 36.2096 6.88919 37.1043V42.0622H13.7877V37.1043Z" fill="white"/>
<path d="M31.126 50.0158C27.0703 50.0158 23.7344 47.0336 23.7344 42.4484C23.7723 37.826 27.0703 34.8438 31.126 34.8438C35.1807 34.8438 38.4788 37.826 38.4788 42.4484C38.4788 47.0336 35.1807 50.0158 31.126 50.0158ZM31.126 49.7176C34.4231 49.7176 35.7497 46.4371 35.7497 42.4484C35.7497 38.4597 34.461 35.1792 31.126 35.1792C27.7142 35.1792 26.4635 38.4597 26.4635 42.4484C26.4635 46.4371 27.7521 49.7176 31.126 49.7176Z" fill="white"/>
<path d="M45.3541 37.8072C44.8231 36.2416 44.4058 35.7569 43.4206 35.6451L42.625 35.5333V35.1978C43.8757 35.235 45.1265 35.235 46.3772 35.235C47.628 35.235 48.8408 35.235 50.1295 35.1978V35.5333L48.8787 35.6824C47.6659 35.8315 47.5142 36.5398 47.7797 37.3599L50.6975 46.8285L54.1093 35.0859H55.2463L59.1882 46.8285L61.6138 38.7764C62.3335 36.4279 61.8404 35.9433 60.4389 35.6824L59.4907 35.496V35.1978C60.4768 35.235 61.4241 35.235 62.4094 35.235C63.3567 35.235 64.3429 35.235 65.2902 35.1978V35.5333L64.5316 35.7197C63.2429 35.9806 62.7507 36.6889 62.068 38.9628L59.5665 47.164L58.8468 49.8479H57.7478L53.73 38.1427L51.1147 47.0894L50.395 49.8106H49.295L45.3541 37.8072Z" fill="white"/>
<path d="M79.3268 49.6988C78.1139 49.6988 77.0528 49.7361 75.84 49.7361V49.4006L77.0908 49.2515C78.2657 49.1024 78.2277 48.5059 77.8484 47.574L76.8632 45.0391H71.1405L70.6853 46.1948C69.8518 48.3196 69.8518 48.9533 71.3301 49.2142L72.4292 49.4006V49.7361C71.4809 49.7361 70.7612 49.6988 69.8139 49.6988C68.8656 49.6988 67.9942 49.7361 67.0469 49.7361V49.4006L67.7666 49.2142C68.9035 48.916 69.3587 48.3196 70.2302 46.0083L73.5661 37.5463L74.4376 35.0859H75.5745L80.312 47.0894C80.9568 48.7296 81.2223 49.1769 82.1317 49.2888L82.8894 49.4006V49.7361C81.5627 49.7361 80.5396 49.6988 79.3268 49.6988ZM71.2922 44.5545H76.6735L73.9824 37.5835L71.2922 44.5545Z" fill="white"/>
<path d="M99.2186 49.7415C97.8541 49.7415 97.7024 49.4433 97.2102 48.5113L94.2536 42.8451C94.0639 42.8823 93.9122 42.8823 93.7605 42.8823C93.1545 42.8823 92.5856 42.8451 92.1314 42.8451V47.8403C92.1314 48.7722 92.2452 49.1078 93.4959 49.2569L94.6329 49.4059V49.7415C93.3442 49.7415 92.2452 49.7041 90.9565 49.7041C89.6678 49.7041 88.5688 49.7415 87.2422 49.7415V49.4059L88.3791 49.2569C89.592 49.0704 89.7437 48.7349 89.7437 47.8403V37.1043C89.7437 36.1724 89.6299 35.8369 88.3791 35.6877L87.2422 35.5386V35.2031H93.6476C97.5137 35.2031 99.9772 36.2469 99.9772 39.0055C99.9772 41.093 98.1196 42.1368 96.3758 42.4723C96.6413 42.8078 96.9826 43.2551 97.3619 43.9261L99.3324 47.4302C100.015 48.6604 100.28 49.0332 101.266 49.2569L102.061 49.4433V49.7788H99.2186V49.7415ZM92.1314 42.435C92.7373 42.4723 93.2304 42.4723 93.7984 42.4723C96.1871 42.4723 97.3999 41.5031 97.3999 39.0427C97.3999 36.3587 96.1491 35.5386 93.6476 35.5386H92.1314V42.435Z" fill="white"/>
<path d="M107.296 49.3686L108.433 49.2196C109.646 49.0332 109.797 48.6977 109.797 47.803V37.1043C109.797 36.1724 109.683 35.8369 108.433 35.6877L107.296 35.5386V35.2031H114.08C118.211 35.2031 122.001 37.2534 122.001 42.4723C122.001 47.6912 118.211 49.7415 114.043 49.7415H107.258V49.3686H107.296ZM114.043 49.3314C117.378 49.3314 119.235 47.393 119.235 42.4723C119.235 37.4771 117.302 35.5759 114.043 35.5759H112.147V48.0639C112.147 48.9586 112.526 49.3314 113.512 49.3314H114.043Z" fill="white"/>
<path d="M6.74219 28.2671L7.87924 28.118C9.09209 27.9316 9.2437 27.5961 9.2437 26.7014V16.0027C9.2437 15.0708 9.12999 14.7353 7.87924 14.5862L6.74219 14.4371V14.1016H13.4508C16.2555 14.1016 19.0602 14.8844 19.0602 17.4566C19.0602 19.5068 17.203 20.5879 14.6636 20.9234V20.998C17.6958 21.1843 19.7425 22.1908 19.7425 24.5393C19.7425 27.2233 17.3547 28.6026 13.6782 28.6026H6.74219V28.2671ZM13.1855 20.8116C15.5733 20.8116 16.4829 19.6932 16.4829 17.4566C16.4829 15.0335 15.4217 14.4743 13.2234 14.4743H11.6315V20.8116H13.1855ZM11.6315 26.9624C11.6315 27.8571 12.0105 28.2298 12.996 28.2298H13.6024C15.8765 28.2298 16.9756 27.1861 16.9756 24.5393C16.9756 22.079 15.5733 21.1843 13.1476 21.1843H11.6315V26.9624Z" fill="white"/>
<path d="M38.6644 28.6399C37.3 28.6399 37.1484 28.3417 36.6556 27.4098L33.6994 21.7435C33.5098 21.7808 33.3582 21.7808 33.2066 21.7808C32.6001 21.7808 32.0317 21.7435 31.5768 21.7435V26.7387C31.5768 27.6706 31.6905 28.0062 32.9413 28.1553L34.0784 28.3044V28.6399C32.7897 28.6399 31.6905 28.6026 30.4019 28.6026C29.1132 28.6026 28.0141 28.6399 26.6875 28.6399V28.3044L27.8245 28.1553C29.0375 27.9689 29.189 27.6334 29.189 26.7387V16.0027C29.189 15.0708 29.0753 14.7353 27.8245 14.5862L26.6875 14.4371V14.1016H33.0929C36.9589 14.1016 39.4225 15.1453 39.4225 17.9039C39.4225 19.9914 37.5653 21.0352 35.8218 21.3707C36.0872 21.7062 36.4282 22.1536 36.8073 22.8246L38.7781 26.3287C39.4604 27.5588 39.7257 27.9316 40.7111 28.1553L41.5071 28.3417V28.6772H38.6644V28.6399ZM31.5768 21.3335C32.1833 21.3707 32.676 21.3707 33.2445 21.3707C35.6323 21.3707 36.8452 20.4015 36.8452 17.9412C36.8452 15.2572 35.5944 14.4371 33.0929 14.4371H31.5768V21.3335Z" fill="white"/>
<path d="M53.5527 20.9234C54.9549 20.9234 55.4098 19.9914 56.1299 17.7175H56.5089C56.471 18.8358 56.471 19.9914 56.471 21.1098C56.471 22.2281 56.471 23.3838 56.5089 24.502H56.1299C55.334 22.079 54.9549 21.2589 53.5527 21.2589H51.9607V26.9251C51.9607 27.8198 52.3398 28.1926 53.3252 28.1926H54.7275C57.267 28.1926 57.8734 27.2606 59.3137 23.4956H59.7685L59.5411 28.5653H47.1094V28.2298L48.2464 28.0808C49.4592 27.8943 49.6109 27.5588 49.6109 26.6642V16.0027C49.6109 15.0708 49.4972 14.7353 48.2464 14.5862L47.1094 14.4371V14.1016H58.8967L59.1241 18.7613H58.6693C57.3807 15.4808 56.7363 14.5116 54.6139 14.5116H51.9987V20.9607H53.5527V20.9234Z" fill="white"/>
<path d="M67.9922 16.7483C67.3858 15.1081 66.931 14.6607 65.9835 14.5489L65.1875 14.4371V14.1016C66.4382 14.1388 67.689 14.1388 68.9397 14.1388C70.1905 14.1388 71.4034 14.1388 72.692 14.1016V14.4371L71.4412 14.5862C70.2663 14.7353 70.1526 15.3317 70.4937 16.2637L74.1323 26.1796L77.316 17.643C78.1119 15.5554 77.9225 14.8471 76.4443 14.5862L75.3451 14.4371V14.1016C76.3306 14.1388 77.2781 14.1388 78.2257 14.1388C79.2111 14.1388 80.1586 14.1388 81.144 14.1016V14.4371L80.3103 14.6607C79.0595 14.9217 78.6047 15.5927 77.6951 17.8666L74.4734 26.2541L73.6016 28.7145H72.5783L67.9922 16.7483Z" fill="white"/>
<path d="M94.3895 28.6129C93.1766 28.6129 92.1154 28.6502 90.9025 28.6502V28.3147L92.1533 28.1656C93.3283 28.0164 93.2903 27.42 92.9113 26.4881L91.9259 23.9532H86.2028L85.7479 25.1088C84.9141 27.2337 84.9141 27.8674 86.3923 28.1282L87.4914 28.3147V28.6502C86.5439 28.6502 85.8238 28.6129 84.8762 28.6129C83.9287 28.6129 83.0569 28.6502 82.1094 28.6502V28.3147L82.8295 28.1282C83.9665 27.83 84.4214 27.2337 85.2931 24.9224L88.6284 16.4603L89.5002 14H90.6372L95.375 26.0035C96.0193 27.6437 96.2846 28.091 97.1942 28.2029L97.9522 28.3147V28.6502C96.6636 28.6502 95.6403 28.6129 94.3895 28.6129ZM86.3543 23.4685H91.7364L89.0454 16.4976L86.3543 23.4685Z" fill="white"/>
<path d="M105.4 15.8536V25.5459C105.4 27.4098 105.779 27.9316 106.954 28.118L107.863 28.2671V28.6026C106.878 28.6026 106.121 28.5653 105.135 28.5653C104.149 28.5653 103.354 28.6026 102.406 28.6026V28.2671L103.316 28.118C104.528 27.9316 104.908 27.3724 104.908 25.5459V16.0027C104.908 15.0708 104.794 14.7353 103.543 14.5862L102.406 14.4371V14.1016H107.144L115.065 25.5832V17.1583C115.065 15.2945 114.686 14.7726 113.473 14.5862L112.564 14.4371V14.1016C113.549 14.1016 114.345 14.1388 115.293 14.1388C116.278 14.1388 117.036 14.1016 118.021 14.1016V14.4371L117.112 14.5862C115.937 14.7726 115.558 15.2945 115.558 17.1583V28.6772H114.193L105.4 15.8536Z" fill="white"/>
</svg>
