<svg width="32" height="32" viewBox="0 0 32 32" fill="none" xmlns="http://www.w3.org/2000/svg">
<path d="M12.4465 15.3385H15.3398C16.1278 15.3385 16.908 15.4937 17.6359 15.7953C18.3639 16.0968 19.0253 16.5387 19.5825 17.0959C20.1396 17.6531 20.5816 18.3145 20.8831 19.0424C21.1846 19.7704 21.3398 20.5506 21.3398 21.3385H12.0052V22.6719H22.6718V21.3385C22.6664 19.9202 22.2571 18.5327 21.4918 17.3385H25.3398C26.6003 17.3383 27.8351 17.6954 28.9008 18.3685C29.9666 19.0416 30.8197 20.003 31.3612 21.1412C28.2078 25.3012 23.1025 28.0065 17.3398 28.0065C13.6585 28.0065 10.5398 27.2199 8.00651 25.8399V13.4345C9.62848 13.6667 11.1602 14.3236 12.4465 15.3385ZM6.67318 25.3385C6.67318 25.6922 6.5327 26.0313 6.28265 26.2814C6.0326 26.5314 5.69347 26.6719 5.33984 26.6719H2.67318C2.31956 26.6719 1.98042 26.5314 1.73037 26.2814C1.48032 26.0313 1.33984 25.6922 1.33984 25.3385V13.3385C1.33984 12.9849 1.48032 12.6458 1.73037 12.3957C1.98042 12.1457 2.31956 12.0052 2.67318 12.0052H5.33984C5.69347 12.0052 6.0326 12.1457 6.28265 12.3957C6.5327 12.6458 6.67318 12.9849 6.67318 13.3385V25.3385ZM24.0065 6.67188C25.0674 6.67188 26.0848 7.0933 26.8349 7.84345C27.5851 8.59359 28.0065 9.61101 28.0065 10.6719C28.0065 11.7327 27.5851 12.7502 26.8349 13.5003C26.0848 14.2504 25.0674 14.6719 24.0065 14.6719C22.9456 14.6719 21.9282 14.2504 21.1781 13.5003C20.4279 12.7502 20.0065 11.7327 20.0065 10.6719C20.0065 9.61101 20.4279 8.59359 21.1781 7.84345C21.9282 7.0933 22.9456 6.67188 24.0065 6.67188Z" fill="#C48BEF"/>
<path d="M16.0016 5.60156C16.6381 5.60156 17.2485 5.85442 17.6986 6.30451C18.1487 6.75459 18.4016 7.36504 18.4016 8.00156C18.4016 8.63808 18.1487 9.24853 17.6986 9.69862C17.2485 10.1487 16.6381 10.4016 16.0016 10.4016C15.365 10.4016 14.7546 10.1487 14.3045 9.69862C13.8544 9.24853 13.6016 8.63808 13.6016 8.00156C13.6016 7.36504 13.8544 6.75459 14.3045 6.30451C14.7546 5.85442 15.365 5.60156 16.0016 5.60156Z" fill="#C48BEF"/>
<path d="M26.8362 7.84345C26.0861 7.0933 25.0687 6.67188 24.0078 6.67188C22.9469 6.67188 21.9295 7.0933 21.1794 7.84345C20.4292 8.59359 20.0078 9.61101 20.0078 10.6719C20.0078 11.7327 20.4292 12.7502 21.1794 13.5003C21.9295 14.2504 22.9469 14.6719 24.0078 14.6719C25.0687 14.6719 26.0861 14.2504 26.8362 13.5003C27.5864 12.7502 28.0078 11.7327 28.0078 10.6719C28.0078 9.61101 27.5864 8.59359 26.8362 7.84345Z" fill="#C48BEF"/>
</svg>
