<svg width="44" height="32" viewBox="0 0 44 32" fill="none" xmlns="http://www.w3.org/2000/svg">
<circle cx="16" cy="16" r="15.5" stroke="#4E5453"/>
<circle cx="32" cy="16" r="12" fill="#C48BEF"/>
<path d="M36.7071 16.7071C37.0976 16.3166 37.0976 15.6834 36.7071 15.2929L30.3431 8.92893C29.9526 8.53841 29.3195 8.53841 28.9289 8.92893C28.5384 9.31946 28.5384 9.95262 28.9289 10.3431L34.5858 16L28.9289 21.6569C28.5384 22.0474 28.5384 22.6805 28.9289 23.0711C29.3195 23.4616 29.9526 23.4616 30.3431 23.0711L36.7071 16.7071ZM14 16L14 17L36 17L36 16L36 15L14 15L14 16Z" fill="#462261"/>
</svg>
