<svg width="26" height="28" viewBox="0 0 26 28" fill="none" xmlns="http://www.w3.org/2000/svg">
<path d="M2.33152 24.6641V16.6641C2.33152 13.8351 3.45533 11.122 5.45572 9.12159C7.4561 7.1212 10.1692 5.9974 12.9982 5.9974C15.8272 5.9974 18.5403 7.1212 20.5407 9.12159C22.541 11.122 23.6649 13.8351 23.6649 16.6641V24.6641H24.9982V27.3307H0.998187V24.6641H2.33152ZM4.99819 16.6641H7.66485C7.66485 15.2496 8.22676 13.893 9.22695 12.8928C10.2271 11.8926 11.5837 11.3307 12.9982 11.3307V8.66406C10.8765 8.66406 8.84162 9.50692 7.34133 11.0072C5.84104 12.5075 4.99819 14.5423 4.99819 16.6641ZM11.6649 0.664062H14.3315V4.66406H11.6649V0.664062ZM23.3689 4.40806L25.2542 6.2934L22.4275 9.1214L20.5409 7.23606L23.3689 4.40806ZM0.742188 6.2934L2.62752 4.40806L5.45552 7.23473L3.57152 9.12273L0.742188 6.2934Z" fill="#C48BEF"/>
</svg>
