<svg width="32" height="32" viewBox="0 0 32 32" fill="none" xmlns="http://www.w3.org/2000/svg">
<path d="M5.044 3.7706L16 1.33594L26.956 3.7706C27.2521 3.83642 27.5169 4.00122 27.7067 4.23781C27.8965 4.4744 27.9999 4.76863 28 5.07194V18.3879C27.9999 19.7049 27.6747 21.0015 27.0532 22.1626C26.4317 23.3237 25.5332 24.3135 24.4373 25.0439L16 30.6693L7.56267 25.0439C6.46703 24.3136 5.56861 23.3241 4.94713 22.1632C4.32565 21.0023 4.00032 19.706 4 18.3893V5.07194C4.00005 4.76863 4.10352 4.4744 4.29332 4.23781C4.48312 4.00122 4.74792 3.83642 5.044 3.7706ZM16 18.0026L19.9187 20.0626L19.1707 15.6999L22.34 12.6093L17.96 11.9719L16 8.0026L14.04 11.9719L9.66 12.6093L12.8293 15.6999L12.0827 20.0626L16 18.0026Z" fill="#C48BEF"/>
</svg>
