<svg width="35" height="34" viewBox="0 0 35 34" fill="none" xmlns="http://www.w3.org/2000/svg">
<path d="M14.6407 12.451H18.813C21.3806 12.451 21.3806 14.9608 18.813 14.9608H14.6407V12.451ZM4.69141 24.0588H17.5292V20.6078H14.6407V18.098H17.8502C21.3806 18.098 19.4549 24.0588 22.3434 24.0588H30.3671V18.098H28.4414V18.7255C28.4414 21.2353 25.5529 20.9216 25.2319 19.3529C24.911 17.7843 23.6272 16.5294 23.3063 16.5294C28.1205 14.0196 25.2319 9 21.3806 9H6.29614V12.451H9.5056V20.6078H4.69141V24.0588Z" fill="#C48BEF" stroke="#C48BEF" stroke-width="0.313726" stroke-linejoin="round"/>
<path d="M17.3593 30.4882C24.9812 30.4882 31.1599 24.4484 31.1599 16.998C31.1599 9.54758 24.9812 3.50781 17.3593 3.50781C9.73737 3.50781 3.55859 9.54758 3.55859 16.998C3.55859 24.4484 9.73737 30.4882 17.3593 30.4882Z" stroke="#C48BEF" stroke-width="2.82353"/>
<path d="M32.1289 17.9292L33.7336 16.9881L32.1289 16.0469V17.9292Z" fill="#C48BEF" stroke="#C48BEF" stroke-width="0.941177" stroke-linejoin="round"/>
<path d="M31.6517 20.729L33.4134 20.1119L32.0273 18.8828L31.6517 20.729Z" fill="#C48BEF" stroke="#C48BEF" stroke-width="0.941177" stroke-linejoin="round"/>
<path d="M30.6381 23.3797L32.4891 23.1104L31.375 21.6406L30.6381 23.3797Z" fill="#C48BEF" stroke="#C48BEF" stroke-width="0.941177" stroke-linejoin="round"/>
<path d="M29.1098 25.7917L30.979 25.8806L30.1797 24.2266L29.1098 25.7917Z" fill="#C48BEF" stroke="#C48BEF" stroke-width="0.941177" stroke-linejoin="round"/>
<path d="M27.1188 27.8623L28.9344 28.3059L28.4805 26.5312L27.1188 27.8623Z" fill="#C48BEF" stroke="#C48BEF" stroke-width="0.941177" stroke-linejoin="round"/>
<path d="M24.7582 29.5145L26.4503 30.2959L26.3594 28.4688L24.7582 29.5145Z" fill="#C48BEF" stroke="#C48BEF" stroke-width="0.941177" stroke-linejoin="round"/>
<path d="M22.1193 30.6813L23.623 31.7703L23.8984 29.9609L22.1193 30.6813Z" fill="#C48BEF" stroke="#C48BEF" stroke-width="0.941177" stroke-linejoin="round"/>
<path d="M19.2949 31.3282L20.5523 32.683L21.1836 30.9609L19.2949 31.3282Z" fill="#C48BEF" stroke="#C48BEF" stroke-width="0.941177" stroke-linejoin="round"/>
<path d="M16.3946 31.4219L17.3575 32.9905L18.3203 31.4219H16.3946Z" fill="#C48BEF" stroke="#C48BEF" stroke-width="0.941177" stroke-linejoin="round"/>
<path d="M13.5371 30.9609L14.1684 32.683L15.4258 31.3281L13.5371 30.9609Z" fill="#C48BEF" stroke="#C48BEF" stroke-width="0.941177" stroke-linejoin="round"/>
<path d="M10.8186 29.9593L11.094 31.7687L12.5977 30.6797L10.8186 29.9593Z" fill="#C48BEF" stroke="#C48BEF" stroke-width="0.941177" stroke-linejoin="round"/>
<path d="M8.3598 28.4698L8.26883 30.297L9.96094 29.5156L8.3598 28.4698Z" fill="#C48BEF" stroke="#C48BEF" stroke-width="0.941177" stroke-linejoin="round"/>
<path d="M6.2399 26.5284L5.78602 28.303L7.60156 27.8594L6.2399 26.5284Z" fill="#C48BEF" stroke="#C48BEF" stroke-width="0.941177" stroke-linejoin="round"/>
<path d="M4.55125 24.2239L3.75189 25.878L5.62109 25.7891L4.55125 24.2239Z" fill="#C48BEF" stroke="#C48BEF" stroke-width="0.941177" stroke-linejoin="round"/>
<path d="M3.35292 21.6437L2.2388 23.1136L4.08984 23.3828L3.35292 21.6437Z" fill="#C48BEF" stroke="#C48BEF" stroke-width="0.941177" stroke-linejoin="round"/>
<path d="M2.69854 18.8804L1.31248 20.1095L3.07422 20.7266L2.69854 18.8804Z" fill="#C48BEF" stroke="#C48BEF" stroke-width="0.941177" stroke-linejoin="round"/>
<path d="M2.60156 16.0473L0.996833 16.9885L2.60156 17.9297L2.60156 16.0473Z" fill="#C48BEF" stroke="#C48BEF" stroke-width="0.941177" stroke-linejoin="round"/>
<path d="M3.0749 13.2554L1.31316 13.8724L2.69922 15.1016L3.0749 13.2554Z" fill="#C48BEF" stroke="#C48BEF" stroke-width="0.941177" stroke-linejoin="round"/>
<path d="M4.09239 10.5969L2.24135 10.8661L3.35547 12.3359L4.09239 10.5969Z" fill="#C48BEF" stroke="#C48BEF" stroke-width="0.941177" stroke-linejoin="round"/>
<path d="M5.61672 8.19269L3.74752 8.10377L4.54688 9.75781L5.61672 8.19269Z" fill="#C48BEF" stroke="#C48BEF" stroke-width="0.941177" stroke-linejoin="round"/>
<path d="M7.60775 6.1221L5.79221 5.67843L6.24609 7.45312L7.60775 6.1221Z" fill="#C48BEF" stroke="#C48BEF" stroke-width="0.941177" stroke-linejoin="round"/>
<path d="M9.96833 4.46985L8.27622 3.68847L8.36719 5.51562L9.96833 4.46985Z" fill="#C48BEF" stroke="#C48BEF" stroke-width="0.941177" stroke-linejoin="round"/>
<path d="M12.6072 3.29528L11.1036 2.20623L10.8281 4.01562L12.6072 3.29528Z" fill="#C48BEF" stroke="#C48BEF" stroke-width="0.941177" stroke-linejoin="round"/>
<path d="M15.4238 2.65621L14.1664 1.30134L13.5352 3.02344L15.4238 2.65621Z" fill="#C48BEF" stroke="#C48BEF" stroke-width="0.941177" stroke-linejoin="round"/>
<path d="M18.3241 2.5625L17.3613 0.993873L16.3984 2.5625L18.3241 2.5625Z" fill="#C48BEF" stroke="#C48BEF" stroke-width="0.941177" stroke-linejoin="round"/>
<path d="M21.1895 3.02348L20.5582 1.30138L19.3008 2.65625L21.1895 3.02348Z" fill="#C48BEF" stroke="#C48BEF" stroke-width="0.941177" stroke-linejoin="round"/>
<path d="M23.908 4.01722L23.6326 2.20782L22.1289 3.29688L23.908 4.01722Z" fill="#C48BEF" stroke="#C48BEF" stroke-width="0.941177" stroke-linejoin="round"/>
<path d="M26.3668 5.51453L26.4577 3.68737L24.7656 4.46875L26.3668 5.51453Z" fill="#C48BEF" stroke="#C48BEF" stroke-width="0.941177" stroke-linejoin="round"/>
<path d="M28.4867 7.44821L28.9405 5.67351L27.125 6.11719L28.4867 7.44821Z" fill="#C48BEF" stroke="#C48BEF" stroke-width="0.941177" stroke-linejoin="round"/>
<path d="M30.1753 9.75262L30.9747 8.09858L29.1055 8.1875L30.1753 9.75262Z" fill="#C48BEF" stroke="#C48BEF" stroke-width="0.941177" stroke-linejoin="round"/>
<path d="M31.3697 12.3406L32.4839 10.8708L30.6328 10.6016L31.3697 12.3406Z" fill="#C48BEF" stroke="#C48BEF" stroke-width="0.941177" stroke-linejoin="round"/>
<path d="M32.028 15.0962L33.4141 13.8671L31.6523 13.25L32.028 15.0962Z" fill="#C48BEF" stroke="#C48BEF" stroke-width="0.941177" stroke-linejoin="round"/>
<path d="M15.1094 3.82031L17.356 6.01639L19.6026 3.82031H15.1094Z" fill="#C48BEF" stroke="#C48BEF" stroke-width="1.88235" stroke-linejoin="round"/>
<path d="M29.4844 10.8359L28.042 13.6032L30.8729 15.0131L29.4844 10.8359Z" fill="#C48BEF" stroke="#C48BEF" stroke-width="1.88235" stroke-linejoin="round"/>
<path d="M27.1016 26.3672L23.9635 25.8813L23.4665 28.9488L27.1016 26.3672Z" fill="#C48BEF" stroke="#C48BEF" stroke-width="1.88235" stroke-linejoin="round"/>
<path d="M11.25 28.9453L10.753 25.8778L7.61489 26.3637L11.25 28.9453Z" fill="#C48BEF" stroke="#C48BEF" stroke-width="1.88235" stroke-linejoin="round"/>
<path d="M3.84766 15.0156L6.67856 13.6057L5.23614 10.8384L3.84766 15.0156Z" fill="#C48BEF" stroke="#C48BEF" stroke-width="1.88235" stroke-linejoin="round"/>
</svg>
