<svg width="68" height="36" viewBox="0 0 68 36" fill="none" xmlns="http://www.w3.org/2000/svg">
<path d="M36.3267 13.3254C36.2353 13.0774 36.0846 12.854 35.8774 12.6469C35.5114 12.279 35.0082 12.0938 34.3678 12.0938H29.021C29.021 12.7804 29.5726 13.339 30.2507 13.339H30.9611H33.9749C33.9911 13.339 34.0099 13.339 34.026 13.339C34.2763 13.3472 34.4862 13.4098 34.6476 13.557C34.8199 13.7014 34.9087 13.9085 34.9087 14.1673V15.5869C34.9087 15.8403 34.8199 16.042 34.6422 16.1946C34.4728 16.3444 34.2521 16.4207 33.9749 16.4262H30.5386V15.6605V15.5433V14.2981H29.0156V15.6605V17.6905H34.3624C34.9921 17.6905 35.4953 17.5052 35.872 17.1264C36.2433 16.7559 36.429 16.3253 36.429 15.8431V13.9439C36.429 13.7232 36.394 13.5188 36.3214 13.3254H36.3267Z" fill="#808080"/>
<path d="M43.1927 16.4261C43.1765 16.4261 43.163 16.4261 43.1469 16.4289H40.2354C39.9663 16.4234 39.7456 16.3498 39.5707 16.1973C39.3985 16.0447 39.3097 15.8431 39.3097 15.5897V14.7886V14.2191C39.3097 14.2191 39.3231 13.3472 40.2623 13.339H43.3084C44.086 13.339 44.7802 12.8403 45.0359 12.0938H40.0201C38.1553 12.0938 37.7812 13.3553 37.7812 14.2109V15.824C37.7812 16.3144 37.9643 16.745 38.3383 17.1237C38.723 17.4997 39.2209 17.685 39.8425 17.685H43.5048C44.0026 17.6768 44.4277 17.5161 44.7749 17.2027C45.0278 16.9766 45.1893 16.715 45.2566 16.418H43.1873L43.1927 16.4261Z" fill="#808080"/>
<path d="M41.9023 14.3828H43.7886H44.195C44.8138 14.3828 45.3144 14.8896 45.3144 15.5136H43.4442C42.7419 15.5136 42.1203 15.0586 41.9023 14.3828Z" fill="#808080"/>
<path d="M47.9031 15.4436H50.5322C51.2425 15.4436 51.872 14.9859 52.0982 14.3047H46.3828V17.6916H52.179L52.5932 16.4464H47.9007V15.4436H47.9031Z" fill="#808080"/>
<path d="M52.3189 13.339L52.7335 12.0938H46.3828C46.3828 12.7804 46.9318 13.339 47.6099 13.339H52.316H52.3189Z" fill="#808080"/>
<path d="M23.2704 15.4436H25.8994C26.6098 15.4436 27.2394 14.9859 27.4655 14.3047H21.75V17.6916H27.5462L27.9606 16.4464H23.2677V15.4436H23.2704Z" fill="#808080"/>
<path d="M27.6861 13.339L28.1005 12.0938H21.75C21.75 12.7804 22.299 13.339 22.9771 13.339H27.6834H27.6861Z" fill="#808080"/>
<path d="M46.743 19.7031V25.2971H45.2227V19.7031H46.743Z" fill="#808080"/>
<path d="M67.9946 24.0328L67.5667 25.2971H61.9453V19.7031H63.4712V24.0356H67.9975L67.9946 24.0328Z" fill="#808080"/>
<path d="M23.5485 23.8066C23.3762 23.654 23.2874 23.4524 23.2874 23.199V22.6759V22.3979V21.8284C23.2874 21.8284 23.3009 20.9592 24.2346 20.9511H26.7049C27.4825 20.9511 28.1741 20.4497 28.4271 19.7031H25.1172C25.0796 19.7031 25.0473 19.7086 25.015 19.7113V19.7031H24.0005C22.1358 19.7031 21.7617 20.9647 21.7617 21.8203V21.9074V22.5832V22.8502V23.4333C21.7617 23.9238 21.9474 24.3543 22.3214 24.7303C22.7062 25.1091 23.204 25.2944 23.8283 25.2944H26.2905C27.0735 25.2944 27.7705 24.7848 28.0153 24.0301H24.2185C23.9494 24.0246 23.7287 23.9483 23.5512 23.7984L23.5485 23.8066Z" fill="#808080"/>
<path d="M34.8036 25.2971H36.5661L33.2322 19.7031H31.545L28.2109 25.2971H29.952L30.5413 24.289H31.4131C32.0912 24.289 32.6402 23.7304 32.6402 23.0437H31.2678L32.3684 21.1555L34.8063 25.2971H34.8036Z" fill="#808080"/>
<path d="M59.5226 25.2971H61.2851L57.9509 19.7031H56.2639L52.9297 25.2971H54.6709L55.2599 24.289H56.1317C56.8099 24.289 57.3591 23.7304 57.3591 23.0437H55.9867L57.0871 21.1555L59.5249 25.2971H59.5226Z" fill="#808080"/>
<path d="M54.482 19.7031H49.0089C48.3279 19.7031 47.7763 20.259 47.7734 20.9483H50.2571V25.2971H51.7802V20.9483H53.2494C53.9304 20.9483 54.482 20.3925 54.4849 19.7031H54.482Z" fill="#808080"/>
<path d="M42.0498 19.7031H37.2332C37.2332 20.3898 37.7821 20.9484 38.4602 20.9484H38.7643H41.9288C42.1171 20.9484 42.4965 20.962 42.4965 21.4334C42.4965 21.9047 42.1359 21.9047 41.9045 21.9047H38.767H37.2305V25.2998H38.7535V23.1472H42.0498C42.7818 23.1472 44.0411 23.1309 44.0411 21.387C44.0411 19.9293 42.8275 19.7059 42.0498 19.7059V19.7031Z" fill="#808080"/>
<path fill-rule="evenodd" clip-rule="evenodd" d="M18.9518 25.3151H13.3252C13.0641 25.3151 12.822 25.1761 12.6902 24.9472L11.6622 23.1734L7.39984 15.8219L3.13747 23.1706H6.53875C8.05913 23.1706 9.46644 23.9854 10.2361 25.3123H1.89697H0.737197C0.169421 25.3123 -0.185776 24.6857 0.102149 24.1897L6.76478 12.702C7.05003 12.2116 7.74965 12.2116 8.0349 12.702L8.6215 13.7156L14.1056 23.1734H16.5489L12.2865 15.8246C11.533 14.5222 11.533 12.9091 12.2865 11.6094L19.5842 24.1952C19.8721 24.6911 19.5196 25.3178 18.9492 25.3178L18.9518 25.3151Z" fill="#808080"/>
</svg>
