<svg width="121" height="64" viewBox="0 0 121 64" fill="none" xmlns="http://www.w3.org/2000/svg">
<path d="M64.846 23.765C64.6846 23.3278 64.4186 22.9339 64.0531 22.5689C63.4073 21.9204 62.5194 21.5938 61.3893 21.5938H51.9548C51.9548 22.8043 52.9281 23.789 54.1246 23.789H55.3782H60.6961C60.7246 23.789 60.7578 23.789 60.7863 23.789C61.2279 23.8034 61.5982 23.9139 61.8831 24.1733C62.1871 24.4279 62.3437 24.7929 62.3437 25.2493V27.7519C62.3437 28.1986 62.1871 28.5541 61.8736 28.8231C61.5746 29.0873 61.1851 29.2218 60.6961 29.2314H54.6327V27.8816V27.6751V25.4798H51.9453V27.8816V31.4602H61.3799C62.4909 31.4602 63.3788 31.1336 64.0436 30.4659C64.6988 29.8126 65.0264 29.0536 65.0264 28.2034V24.8554C65.0264 24.4663 64.9647 24.106 64.8365 23.765H64.846Z" fill="white"/>
<path d="M76.9626 29.2314C76.9341 29.2314 76.9104 29.2314 76.8819 29.2362H71.7444C71.2696 29.2266 70.8802 29.0969 70.5716 28.8279C70.2677 28.5589 70.1111 28.2034 70.1111 27.7567V26.3445V25.3405C70.1111 25.3405 70.1347 23.8034 71.7919 23.789H77.1668C78.539 23.789 79.764 22.9099 80.2151 21.5938H71.3646C68.0741 21.5938 67.4141 23.8178 67.4141 25.3261V28.1698C67.4141 29.0344 67.737 29.7934 68.397 30.4611C69.0759 31.124 69.9543 31.4506 71.0511 31.4506H77.5134C78.3918 31.4362 79.142 31.1529 79.7545 30.6004C80.2008 30.2017 80.4857 29.7406 80.6045 29.217H76.9531L76.9626 29.2314Z" fill="white"/>
<path d="M74.6797 25.6016H78.0081H78.7251C79.8171 25.6016 80.7003 26.495 80.7003 27.595H77.4004C76.1611 27.595 75.0643 26.7928 74.6797 25.6016Z" fill="white"/>
<path d="M85.2763 27.4844H89.9154C91.1688 27.4844 92.2796 26.6774 92.6787 25.4766H82.5938V31.4474H92.8213L93.5521 29.2522H85.2721V27.4844H85.2763Z" fill="white"/>
<path d="M93.0681 23.789L93.7998 21.5938H82.5938C82.5938 22.8043 83.5624 23.789 84.7589 23.789H93.0631H93.0681Z" fill="white"/>
<path d="M41.8156 27.4844H46.4545C47.708 27.4844 48.8191 26.6774 49.2179 25.4766H39.1328V31.4474H49.3603L50.0916 29.2522H41.8108V27.4844H41.8156Z" fill="white"/>
<path d="M49.6072 23.789L50.3385 21.5938H39.1328C39.1328 22.8043 40.1015 23.789 41.298 23.789H49.6025H49.6072Z" fill="white"/>
<path d="M83.2218 35.0078V44.8695H80.5391V35.0078H83.2218Z" fill="white"/>
<path d="M120.729 42.6406L119.974 44.8695H110.055V35.0078H112.747V42.6455H120.734L120.729 42.6406Z" fill="white"/>
<path d="M42.3012 42.2419C41.9973 41.9729 41.8406 41.6175 41.8406 41.1707V40.2485V39.7585V38.7546C41.8406 38.7546 41.8644 37.2222 43.5119 37.2078H47.8708C49.2429 37.2078 50.4633 36.324 50.9096 35.0078H45.0694C45.0029 35.0078 44.9459 35.0174 44.8889 35.0221V35.0078H43.0989C39.8084 35.0078 39.1484 37.2318 39.1484 38.7401V38.8938V40.0851V40.5559V41.5838C39.1484 42.4485 39.476 43.2075 40.136 43.8703C40.815 44.5381 41.6934 44.8646 42.795 44.8646H47.1395C48.5213 44.8646 49.751 43.9664 50.1831 42.6358H43.4834C43.0087 42.6262 42.6193 42.4917 42.3059 42.2275L42.3012 42.2419Z" fill="white"/>
<path d="M62.1564 44.8695H65.2664L59.3835 35.0078H56.4064L50.5234 44.8695H53.5955L54.6354 43.0922H56.1738C57.3703 43.0922 58.3389 42.1075 58.3389 40.897H55.9174L57.8594 37.5681L62.1612 44.8695H62.1564Z" fill="white"/>
<path d="M105.782 44.8695H108.892L103.008 35.0078H100.032L94.1484 44.8695H97.2209L98.2601 43.0922H99.7984C100.995 43.0922 101.964 42.1075 101.964 40.897H99.5426L101.484 37.5681L105.786 44.8695H105.782Z" fill="white"/>
<path d="M96.8766 35.0078H87.2191C86.0174 35.0078 85.0441 35.9877 85.0391 37.203H89.4216V44.8695H92.1091V37.203H94.7016C95.9032 37.203 96.8766 36.2231 96.8816 35.0078H96.8766Z" fill="white"/>
<path d="M74.9336 35.0078H66.4344C66.4344 36.2183 67.403 37.2031 68.5996 37.2031H69.1361H74.7199C75.0524 37.2031 75.7218 37.2271 75.7218 38.0581C75.7218 38.8891 75.0855 38.8891 74.6772 38.8891H69.1409H66.4297V44.8743H69.1171V41.0795H74.9336C76.2251 41.0795 78.4473 41.0507 78.4473 37.9764C78.4473 35.4065 76.3059 35.0126 74.9336 35.0126V35.0078Z" fill="white"/>
<path fill-rule="evenodd" clip-rule="evenodd" d="M34.1832 44.8806H24.2548C23.7942 44.8806 23.3669 44.6356 23.1343 44.2321L21.3205 41.105L13.7994 28.145L6.27834 41.1002H12.28C14.9627 41.1002 17.446 42.5364 18.804 44.8758H4.08945H2.04299C1.04114 44.8758 0.41438 43.771 0.922432 42.8968L12.6788 22.645C13.1822 21.7803 14.4167 21.7803 14.92 22.645L15.9551 24.4319L25.6318 41.105H29.9432L22.4221 28.1498C21.0926 25.8537 21.0926 23.01 22.4221 20.7188L35.2991 42.9064C35.8071 43.7806 35.1851 44.8854 34.1785 44.8854L34.1832 44.8806Z" fill="white"/>
</svg>
