<svg width="120" height="34" viewBox="0 0 120 34" fill="none" xmlns="http://www.w3.org/2000/svg">
<g clip-path="url(#clip0_6397_7661)">
<path d="M21.1094 22.6262V11.0708H26.9195C29.1759 11.0708 30.5483 10.3876 30.8767 10.2031V13.7427H24.3652V16.51H30.4713V19.2123H24.4584V22.6262H21.1094Z" fill="white"/>
<path d="M49.8965 22.8924C47.5023 22.8924 45.8967 22.4201 44.9885 21.449C44.3013 20.7111 44.0073 19.7015 44.0924 18.3595H47.3482C47.3016 19.0386 47.4172 19.5049 47.7111 19.8232C48.0801 20.2286 48.7248 20.3948 49.8965 20.3948C51.3926 20.3948 52.0333 20.0603 52.0333 19.2758C52.0333 18.3716 50.6527 18.1547 49.4363 17.9642C49.2214 17.9297 49.0106 17.8973 48.8119 17.8608C46.3792 17.429 44.1877 16.835 44.1877 14.3536C44.1877 12.079 46.215 10.7734 49.7282 10.7734C53.6206 10.7734 54.8552 12.598 55.2019 13.4089L53.3246 16.0646C53.3246 16.0038 53.3043 15.945 53.2922 15.8862C52.8867 13.9948 50.8068 13.2893 49.5884 13.2893C48.295 13.2893 47.6381 13.5913 47.6381 14.1874C47.6381 14.9091 48.5078 15.0773 49.712 15.3105L50.4317 15.4524C51.5305 15.6774 52.5563 15.9734 53.0672 16.1295C53.1482 16.1538 53.4726 16.2775 53.5436 16.314C54.9464 16.9221 55.5708 17.802 55.5708 19.1521C55.5668 22.4059 52.013 22.8924 49.8965 22.8924Z" fill="white"/>
<path d="M77.7886 22.6107L72.6231 15.5761V15.7322C72.6616 16.3769 72.6799 17.0236 72.6799 17.7595V22.6107H69.5234V11.0553H72.84L78.0035 18.0027V17.8527C77.967 17.1128 77.9467 16.4113 77.9467 15.7646V11.0391H81.1032V22.5945L77.7886 22.6107Z" fill="white"/>
<path d="M65.4335 22.6101L64.7482 20.9092H59.6355L58.9705 22.6101H55.6641L60.4018 11.0547H64.1137L68.8677 22.6101H65.4335ZM60.6248 18.4015H63.7752L62.1696 14.3632L60.6248 18.4015Z" fill="white"/>
<path d="M91.3658 22.6101L90.6806 20.9092H85.5678L84.9191 22.6101H81.5781L86.3341 11.0547H90.046L94.8 22.6101H91.3658ZM86.5307 18.4015H89.7014L88.0958 14.3632L86.5307 18.4015Z" fill="white"/>
<path d="M116.56 22.6101L115.875 20.9092H110.76L110.073 22.6101H106.771L111.506 11.0547H115.238L119.992 22.6101H116.56ZM111.705 18.4015H114.894L113.288 14.347L111.705 18.4015ZM103.215 22.6101L101.031 18.588H98.5176V22.6101H95.274V14.2983C95.274 12.4738 94.5563 11.3345 94.3516 11.0547H100.707C104.299 11.0547 106.047 12.2548 106.047 14.7281C106.047 17.8298 102.303 18.4542 101.552 18.5495H101.532V18.6387H104.451L106.643 22.6101H103.215ZM98.5176 16.2749H100.322C101.664 16.2749 102.394 15.9546 102.578 15.2755C102.61 15.1516 102.626 15.0242 102.625 14.8964C102.629 14.6826 102.573 14.472 102.464 14.2882C102.355 14.1045 102.196 13.9549 102.007 13.8564C101.523 13.6206 100.989 13.5104 100.452 13.5361H98.5176V16.2749Z" fill="white"/>
<path d="M40.595 22.6101L39.8915 20.9092H34.797L34.13 22.6101H30.7891L35.543 11.0547H39.2752L44.0109 22.6101H40.595ZM35.7599 18.4015H38.9103L37.3027 14.3632L35.7599 18.4015Z" fill="white"/>
<path d="M12.981 26.295C7.69592 22.4979 7.05531 14.5003 12.4499 10.5391C10.5827 10.6242 9.38058 11.204 9.07244 11.3824C7.39791 13.9793 7.01071 17.4358 8.02434 20.4017C8.57227 22.0113 9.47163 23.4788 10.6572 24.6977C11.8427 25.9165 13.2847 26.8562 14.8785 27.4485C14.2085 27.1295 13.5727 26.743 12.981 26.295Z" fill="white"/>
<path d="M10.7989 21.1772C10.436 19.8736 10.3529 18.0775 10.8759 16.5469H9.60481C9.31491 19.0505 10.1258 21.8948 11.7476 23.547C11.3267 22.8031 11.0076 22.006 10.7989 21.1772Z" fill="white"/>
<path d="M8.78349 3.26874C1.21367 8.77885 0.285185 20.2025 6.84339 26.8235C12.1143 32.4857 21.5411 33.179 27.5621 28.3643C18.6421 34.7137 5.59054 29.4549 4.23633 18.4104C3.13147 10.4149 9.54574 2.83896 17.7339 3.09845L19.8037 0.199456C15.8766 -0.182094 11.948 0.91206 8.78349 3.26874Z" fill="white"/>
<path d="M17.3293 3.6875C10.913 3.74224 5.41914 9.07395 5.06437 15.4456C4.23927 23.9014 12.5835 31.2036 20.8507 29.5777C12.5186 30.7373 4.50484 22.4823 7.01054 14.211C8.05459 10.3592 11.3347 7.22305 15.2777 6.58244L17.3293 3.6875Z" fill="white"/>
<path d="M31.987 25.6372C22.5501 38.859 1.72597 32.4386 1.60637 16.109C1.60637 10.98 4.10801 5.96254 8.25175 2.93178V0.257812C-1.07368 6.3011 -2.86781 19.7196 4.78715 27.8286C12.4685 36.1019 25.5585 35.0396 32.1289 25.9737L31.987 25.6372Z" fill="white"/>
</g>
<defs>
<clipPath id="clip0_6397_7661">
<rect width="120" height="33.3384" fill="white" transform="translate(0 0.109375)"/>
</clipPath>
</defs>
</svg>
