<svg width="577" height="557" viewBox="0 0 577 557" fill="none" xmlns="http://www.w3.org/2000/svg">
<rect width="577" height="557" rx="24" fill="#1D1D1D"/>
<g filter="url(#filter0_din_6870_26350)">
<path d="M483.025 177.375L361.813 177.375C359.096 177.375 356.894 179.577 356.894 182.293L356.894 208.561L356.894 349.544L356.894 369.221C356.894 371.937 359.096 374.139 361.813 374.139L480.759 374.139C482.197 374.139 483.563 373.509 484.498 372.416L502.867 350.924C503.629 350.033 504.047 348.9 504.047 347.728L504.047 182.293C504.047 179.577 501.845 177.375 499.128 177.375L483.025 177.375Z" fill="url(#paint0_linear_6870_26350)"/>
</g>
<g filter="url(#filter1_di_6870_26350)">
<path d="M477.637 310.039L457.521 310.039L457.521 302.06C457.521 300.088 458.032 298.544 459.055 297.428C460.06 296.312 461.464 295.754 463.268 295.754C464.514 295.754 465.584 296.052 466.477 296.647C467.351 297.224 467.993 298.079 468.402 299.214C468.699 298.414 469.127 297.819 469.685 297.428C470.243 297.019 471.034 296.721 472.057 296.535L475.488 295.866C475.805 295.791 476.158 295.708 476.549 295.615C476.939 295.503 477.302 295.345 477.637 295.14L477.637 297.54C477.376 297.726 477.107 297.865 476.828 297.958C476.549 298.033 476.288 298.089 476.046 298.126L472.559 298.74C471.294 298.963 470.383 299.465 469.825 300.246C469.267 301.009 468.988 302.246 468.988 303.957L468.988 307.751L477.637 307.751L477.637 310.039ZM466.923 302.227C466.923 300.944 466.598 299.939 465.947 299.214C465.296 298.47 464.403 298.098 463.268 298.098C462.115 298.098 461.213 298.47 460.562 299.214C459.911 299.939 459.585 300.944 459.585 302.227L459.585 307.751L466.923 307.751L466.923 302.227ZM470.662 291.406C472.336 291.351 473.638 290.886 474.568 290.011C475.498 289.137 475.963 288.003 475.963 286.608C475.963 285.547 475.712 284.617 475.209 283.818C474.707 283.018 473.991 282.534 473.061 282.367L473.061 280.302C474.642 280.563 475.842 281.279 476.66 282.45C477.46 283.622 477.86 285.008 477.86 286.608C477.86 288.021 477.534 289.258 476.883 290.318C476.214 291.36 475.312 292.169 474.177 292.746C473.042 293.304 471.778 293.583 470.383 293.583C468.988 293.583 467.732 293.304 466.616 292.746C465.482 292.188 464.589 291.388 463.938 290.346C463.268 289.305 462.933 288.077 462.933 286.663C462.933 285.324 463.231 284.171 463.826 283.204C464.421 282.237 465.23 281.493 466.253 280.972C467.258 280.432 468.402 280.172 469.685 280.19C469.908 280.19 470.113 280.2 470.299 280.218C470.466 280.237 470.587 280.246 470.662 280.246L470.662 291.406ZM464.775 286.663C464.775 287.91 465.147 288.933 465.891 289.732C466.616 290.532 467.602 291.044 468.848 291.267L468.848 282.478C467.676 282.553 466.709 282.953 465.947 283.678C465.165 284.403 464.775 285.399 464.775 286.663ZM477.86 271.352C477.86 272.821 477.525 274.076 476.856 275.118C476.186 276.141 475.293 276.922 474.177 277.462C473.042 277.983 471.778 278.243 470.383 278.243C468.988 278.243 467.732 277.973 466.616 277.434C465.482 276.894 464.589 276.113 463.938 275.09C463.268 274.067 462.933 272.821 462.933 271.352C462.933 270.403 463.166 269.482 463.631 268.589C464.077 267.697 464.654 267.027 465.361 266.581L457.297 266.581L457.297 264.432L477.637 264.432L477.637 266.581L475.433 266.581C476.102 266.878 476.679 267.473 477.162 268.366C477.627 269.259 477.86 270.254 477.86 271.352ZM475.935 271.184C475.935 269.752 475.433 268.589 474.428 267.697C473.405 266.804 472.057 266.357 470.383 266.357C468.727 266.357 467.397 266.804 466.393 267.697C465.37 268.589 464.858 269.752 464.858 271.184C464.858 272.635 465.37 273.807 466.393 274.7C467.397 275.574 468.727 276.011 470.383 276.011C472.038 276.011 473.377 275.574 474.4 274.7C475.423 273.807 475.935 272.635 475.935 271.184ZM470.662 259.392C472.336 259.336 473.638 258.871 474.568 257.997C475.498 257.123 475.963 255.988 475.963 254.593C475.963 253.533 475.712 252.603 475.209 251.803C474.707 251.003 473.991 250.52 473.061 250.352L473.061 248.288C474.642 248.548 475.842 249.264 476.66 250.436C477.46 251.608 477.86 252.994 477.86 254.593C477.86 256.007 477.534 257.244 476.883 258.304C476.214 259.345 475.312 260.155 474.177 260.731C473.042 261.289 471.778 261.568 470.383 261.568C468.988 261.568 467.732 261.289 466.616 260.731C465.482 260.173 464.589 259.373 463.938 258.332C463.268 257.29 462.933 256.063 462.933 254.649C462.933 253.31 463.231 252.156 463.826 251.189C464.421 250.222 465.23 249.478 466.253 248.957C467.258 248.418 468.402 248.157 469.685 248.176C469.908 248.176 470.113 248.185 470.299 248.204C470.466 248.223 470.587 248.232 470.662 248.232L470.662 259.392ZM464.775 254.649C464.775 255.895 465.147 256.918 465.891 257.718C466.616 258.518 467.602 259.029 468.848 259.252L468.848 250.464C467.676 250.538 466.709 250.938 465.947 251.664C465.165 252.389 464.775 253.384 464.775 254.649ZM470.662 244.052C472.336 243.996 473.638 243.531 474.568 242.657C475.498 241.783 475.963 240.648 475.963 239.253C475.963 238.193 475.712 237.263 475.209 236.463C474.707 235.664 473.991 235.18 473.061 235.013L473.061 232.948C474.642 233.208 475.842 233.924 476.66 235.096C477.46 236.268 477.86 237.654 477.86 239.253C477.86 240.667 477.534 241.904 476.883 242.964C476.214 244.006 475.312 244.815 474.177 245.391C473.042 245.949 471.778 246.228 470.383 246.228C468.988 246.228 467.732 245.949 466.616 245.391C465.482 244.833 464.589 244.034 463.938 242.992C463.268 241.95 462.933 240.723 462.933 239.309C462.933 237.97 463.231 236.817 463.826 235.85C464.421 234.882 465.23 234.138 466.253 233.618C467.258 233.078 468.402 232.818 469.685 232.836C469.908 232.836 470.113 232.846 470.299 232.864C470.466 232.883 470.587 232.892 470.662 232.892L470.662 244.052ZM464.775 239.309C464.775 240.555 465.147 241.578 465.891 242.378C466.616 243.178 467.602 243.69 468.848 243.913L468.848 235.124C467.676 235.199 466.709 235.599 465.947 236.324C465.165 237.049 464.775 238.044 464.775 239.309ZM477.637 229.968L463.156 229.968L463.156 227.82L466.03 227.82C465.1 227.466 464.356 226.927 463.798 226.202C463.222 225.458 462.933 224.528 462.933 223.412C462.933 222.203 463.203 221.161 463.742 220.287C464.282 219.413 465.044 218.855 466.03 218.613C465.119 218.203 464.375 217.59 463.798 216.771C463.222 215.953 462.933 215.023 462.933 213.981C462.933 212.437 463.38 211.21 464.272 210.298C465.165 209.387 466.393 208.931 467.955 208.931L477.637 208.931L477.637 211.08L468.346 211.08C467.304 211.08 466.467 211.368 465.835 211.945C465.184 212.521 464.858 213.34 464.858 214.4C464.858 215.683 465.389 216.669 466.449 217.357C467.49 218.045 468.811 218.39 470.411 218.39L477.637 218.39L477.637 220.538L468.346 220.538C467.304 220.538 466.467 220.826 465.835 221.403C465.184 221.961 464.858 222.761 464.858 223.802C464.858 225.104 465.389 226.099 466.449 226.787C467.49 227.476 468.811 227.82 470.411 227.82L477.637 227.82L477.637 229.968Z" fill="#B480DC"/>
<path d="M466.493 319.196L466.493 326.764L456.402 325.082L471.538 337.695L471.538 330.127L481.628 331.809L466.493 319.196Z" fill="#C48BEF"/>
</g>
<g filter="url(#filter2_din_6870_26350)">
<path d="M181.094 297.384L181.094 374.407C181.094 377.123 178.892 379.325 176.175 379.325L163.777 379.325L85.4949 379.325L76.7563 379.325C74.04 379.325 71.8379 377.123 71.8379 374.407L71.8379 299.421C71.8379 298.116 72.3561 296.865 73.2785 295.943L84.0543 285.167C84.9767 284.245 86.2277 283.727 87.5322 283.727L176.175 283.727C178.892 283.727 181.094 285.929 181.094 288.645L181.094 297.384Z" fill="url(#paint1_linear_6870_26350)"/>
</g>
<g filter="url(#filter3_di_6870_26350)">
<path d="M80.9675 368.219L80.9675 358.976H84.2492C85.138 358.976 85.8259 359.181 86.3131 359.592C86.8087 359.993 87.0566 360.579 87.0566 361.348C87.0566 361.758 86.9497 362.121 86.7361 362.437C86.5224 362.754 86.2148 362.993 85.8131 363.155C86.3344 363.335 86.7361 363.63 87.0181 364.04C87.3001 364.441 87.4411 364.941 87.4411 365.54C87.4411 366.411 87.1805 367.078 86.6592 367.539C86.1464 367.992 85.4115 368.219 84.4543 368.219H80.9675ZM84.2364 367.27C84.9286 367.27 85.4542 367.121 85.8131 366.821C86.1806 366.522 86.3643 366.087 86.3643 365.514C86.3643 364.95 86.1806 364.518 85.8131 364.219C85.4542 363.92 84.9286 363.771 84.2364 363.771H82.0187V367.27H84.2364ZM84.1979 362.822C84.7791 362.822 85.2192 362.698 85.5183 362.45C85.8174 362.202 85.967 361.843 85.967 361.373C85.967 360.895 85.8131 360.532 85.5055 360.284C85.2064 360.027 84.7705 359.899 84.1979 359.899H82.0187L82.0187 362.822H84.1979ZM91.6088 368.321C90.9764 368.321 90.4167 368.176 89.9295 367.885C89.4424 367.586 89.0578 367.18 88.7758 366.668C88.5024 366.146 88.3656 365.552 88.3656 364.886C88.3656 364.219 88.5024 363.63 88.7758 363.117C89.0578 362.604 89.4424 362.202 89.9295 361.912C90.4167 361.613 90.9764 361.463 91.6088 361.463C92.2412 361.463 92.801 361.608 93.2881 361.899C93.7752 362.19 94.1598 362.595 94.4418 363.117C94.7239 363.63 94.8649 364.219 94.8649 364.886C94.8649 365.552 94.7239 366.146 94.4418 366.668C94.1598 367.18 93.7752 367.586 93.2881 367.885C92.801 368.176 92.2412 368.321 91.6088 368.321ZM91.6088 367.437C92.0532 367.437 92.4421 367.33 92.7754 367.116C93.1087 366.894 93.3693 366.591 93.5573 366.206C93.7539 365.822 93.8522 365.381 93.8522 364.886C93.8522 364.39 93.7539 363.954 93.5573 363.578C93.3693 363.194 93.1044 362.895 92.7625 362.681C92.4292 362.459 92.0447 362.348 91.6088 362.348C91.1644 362.348 90.7756 362.459 90.4423 362.681C90.109 362.895 89.8484 363.194 89.6603 363.578C89.4809 363.954 89.3911 364.39 89.3911 364.886C89.3911 365.381 89.4809 365.822 89.6603 366.206C89.8484 366.591 90.109 366.894 90.4423 367.116C90.7756 367.33 91.1644 367.437 91.6088 367.437ZM99.8537 362.45C99.7853 362.433 99.6913 362.416 99.5717 362.399C99.4606 362.373 99.3238 362.36 99.1614 362.36C98.8025 362.36 98.4692 362.484 98.1616 362.732C97.8624 362.971 97.6232 363.335 97.4437 363.822C97.2642 364.309 97.1745 364.924 97.1745 365.668L97.1745 368.219L96.1874 368.219V361.566L97.1745 361.566V362.937C97.2856 362.655 97.448 362.403 97.6616 362.181C97.8838 361.959 98.1359 361.784 98.4179 361.655C98.7 361.527 98.9862 361.463 99.2768 361.463C99.4306 361.463 99.5503 361.467 99.6357 361.476C99.7212 361.484 99.7938 361.497 99.8537 361.514V362.45ZM104.523 362.45C104.455 362.433 104.361 362.416 104.241 362.399C104.13 362.373 103.993 362.36 103.831 362.36C103.472 362.36 103.139 362.484 102.831 362.732C102.532 362.971 102.293 363.335 102.113 363.822C101.934 364.309 101.844 364.924 101.844 365.668L101.844 368.219H100.857V361.566H101.844V362.937C101.955 362.655 102.117 362.403 102.331 362.181C102.553 361.959 102.805 361.784 103.087 361.655C103.369 361.527 103.656 361.463 103.946 361.463C104.1 361.463 104.22 361.467 104.305 361.476C104.391 361.484 104.463 361.497 104.523 361.514V362.45ZM107.946 368.321C107.313 368.321 106.753 368.176 106.266 367.885C105.779 367.586 105.395 367.18 105.113 366.668C104.839 366.146 104.702 365.552 104.702 364.886C104.702 364.219 104.839 363.63 105.113 363.117C105.395 362.604 105.779 362.202 106.266 361.912C106.753 361.613 107.313 361.463 107.946 361.463C108.578 361.463 109.138 361.608 109.625 361.899C110.112 362.19 110.497 362.595 110.779 363.117C111.061 363.63 111.202 364.219 111.202 364.886C111.202 365.552 111.061 366.146 110.779 366.668C110.497 367.18 110.112 367.586 109.625 367.885C109.138 368.176 108.578 368.321 107.946 368.321ZM107.946 367.437C108.39 367.437 108.779 367.33 109.112 367.116C109.445 366.894 109.706 366.591 109.894 366.206C110.091 365.822 110.189 365.381 110.189 364.886C110.189 364.39 110.091 363.954 109.894 363.578C109.706 363.194 109.441 362.895 109.099 362.681C108.766 362.459 108.381 362.348 107.946 362.348C107.501 362.348 107.112 362.459 106.779 362.681C106.446 362.895 106.185 363.194 105.997 363.578C105.818 363.954 105.728 364.39 105.728 364.886C105.728 365.381 105.818 365.822 105.997 366.206C106.185 366.591 106.446 366.894 106.779 367.116C107.112 367.33 107.501 367.437 107.946 367.437ZM113.758 368.219L111.706 361.566H112.719L113.873 365.54C114.01 365.984 114.104 366.351 114.155 366.642C114.215 366.924 114.245 367.065 114.245 367.065C114.245 367.065 114.275 366.924 114.334 366.642C114.403 366.36 114.505 365.993 114.642 365.54L115.86 361.566H116.847L118.078 365.565C118.223 366.01 118.325 366.377 118.385 366.668C118.445 366.95 118.475 367.091 118.475 367.091C118.475 367.091 118.505 366.95 118.565 366.668C118.624 366.377 118.718 366.005 118.847 365.552L119.988 361.566H120.987L118.949 368.219H117.949L116.744 364.296C116.608 363.843 116.505 363.476 116.437 363.194C116.377 362.912 116.347 362.771 116.347 362.771C116.347 362.771 116.313 362.912 116.244 363.194C116.185 363.476 116.082 363.843 115.937 364.296L114.732 368.219H113.758Z" fill="#B480DC"/>
</g>
<g filter="url(#filter4_di_6870_26350)">
<path d="M95.6322 310.537H99.1296C100.082 310.537 101.025 310.725 101.905 311.09C102.785 311.454 103.584 311.988 104.258 312.662C104.931 313.335 105.466 314.135 105.83 315.015C106.194 315.894 106.382 316.838 106.382 317.79L95.0988 317.79V319.402L107.992 319.402V317.79C107.986 316.076 107.491 314.398 106.566 312.955H111.217C112.741 312.955 114.233 313.386 115.521 314.2C116.81 315.013 117.841 316.176 118.495 317.551C114.684 322.58 108.513 325.85 101.547 325.85C97.0973 325.85 93.3276 324.899 90.2654 323.231L90.2654 308.236C92.2259 308.517 94.0775 309.311 95.6322 310.537ZM88.6537 322.625C88.6537 323.052 88.4839 323.462 88.1817 323.765C87.8794 324.067 87.4695 324.237 87.042 324.237H83.8187C83.3913 324.237 82.9813 324.067 82.6791 323.765C82.3768 323.462 82.207 323.052 82.207 322.625L82.207 308.12C82.207 307.692 82.3768 307.283 82.6791 306.98C82.9813 306.678 83.3913 306.508 83.8187 306.508H87.042C87.4695 306.508 87.8794 306.678 88.1817 306.98C88.4839 307.283 88.6537 307.692 88.6537 308.12L88.6537 322.625ZM109.605 300.062C110.888 300.062 112.118 300.571 113.024 301.478C113.931 302.384 114.44 303.614 114.44 304.897C114.44 306.179 113.931 307.409 113.024 308.315C112.118 309.222 110.888 309.732 109.605 309.732C108.323 309.732 107.093 309.222 106.187 308.315C105.28 307.409 104.77 306.179 104.77 304.897C104.77 303.614 105.28 302.384 106.187 301.478C107.093 300.571 108.323 300.062 109.605 300.062ZM98.3237 295.227C99.6061 295.227 100.836 295.736 101.743 296.643C102.649 297.549 103.159 298.779 103.159 300.062C103.159 301.344 102.649 302.574 101.743 303.48C100.836 304.387 99.6061 304.897 98.3237 304.897C97.0414 304.897 95.8116 304.387 94.9049 303.48C93.9981 302.574 93.4887 301.344 93.4887 300.062C93.4887 298.779 93.9981 297.549 94.9049 296.643C95.8116 295.736 97.0414 295.227 98.3237 295.227Z" fill="#C48BEF"/>
</g>
<g filter="url(#filter5_din_6870_26350)">
<path d="M181.078 259.46L181.078 182.437C181.078 179.72 178.876 177.518 176.16 177.518L163.762 177.518L85.4793 177.518L76.7407 177.518C74.0243 177.518 71.8223 179.72 71.8223 182.437L71.8223 257.423C71.8223 258.727 72.3405 259.978 73.2628 260.901L84.0387 271.677C84.9611 272.599 86.2121 273.117 87.5165 273.117L176.16 273.117C178.876 273.117 181.078 270.915 181.078 268.199L181.078 259.46Z" fill="url(#paint2_linear_6870_26350)"/>
</g>
<g filter="url(#filter6_di_6870_26350)">
<path d="M81.9793 260V250.757H83.0304V259.039H87.6837V260H81.9793ZM88.9003 256.795C88.926 257.564 89.1396 258.163 89.5413 258.59C89.9429 259.017 90.4642 259.231 91.1052 259.231C91.5923 259.231 92.0196 259.115 92.3871 258.885C92.7546 258.654 92.9768 258.325 93.0537 257.898H94.0023C93.8827 258.624 93.5536 259.175 93.0152 259.551C92.4768 259.919 91.8402 260.103 91.1052 260.103C90.4557 260.103 89.8874 259.953 89.4003 259.654C88.9217 259.346 88.5499 258.932 88.285 258.41C88.0286 257.889 87.9004 257.308 87.9004 256.667C87.9004 256.026 88.0286 255.449 88.285 254.936C88.5414 254.415 88.9089 254.005 89.3875 253.706C89.866 253.398 90.4301 253.244 91.0796 253.244C91.6949 253.244 92.2247 253.381 92.6691 253.655C93.1135 253.928 93.4554 254.3 93.6946 254.77C93.9425 255.231 94.0621 255.757 94.0536 256.347C94.0536 256.449 94.0493 256.543 94.0408 256.629C94.0322 256.706 94.0279 256.761 94.0279 256.795H88.9003ZM91.0796 254.09C90.507 254.09 90.0369 254.261 89.6695 254.603C89.302 254.936 89.067 255.389 88.9644 255.962H93.0024C92.9682 255.424 92.7845 254.979 92.4512 254.629C92.1179 254.27 91.6607 254.09 91.0796 254.09ZM95.3714 260V253.347H96.3585V254.667C96.6063 254.223 96.9311 253.877 97.3327 253.629C97.743 253.373 98.1959 253.244 98.6916 253.244C99.153 253.244 99.559 253.343 99.9094 253.539C100.268 253.727 100.546 253.996 100.743 254.347C100.948 254.697 101.05 255.107 101.05 255.577V260H100.063V255.731C100.063 255.27 99.9222 254.889 99.6402 254.59C99.3667 254.291 98.9864 254.142 98.4993 254.142C97.8583 254.142 97.3413 254.407 96.9482 254.936C96.5551 255.458 96.3585 256.171 96.3585 257.077V260H95.3714ZM105.463 260.103C104.788 260.103 104.211 259.949 103.733 259.641C103.263 259.333 102.904 258.923 102.656 258.41C102.416 257.889 102.297 257.308 102.297 256.667C102.297 256.026 102.421 255.449 102.669 254.936C102.916 254.415 103.275 254.005 103.745 253.706C104.215 253.398 104.788 253.244 105.463 253.244C105.899 253.244 106.322 253.351 106.732 253.565C107.142 253.77 107.45 254.035 107.655 254.36V250.655H108.642V260H107.655V258.987C107.518 259.295 107.245 259.56 106.835 259.782C106.425 259.996 105.967 260.103 105.463 260.103ZM105.54 259.218C106.198 259.218 106.732 258.987 107.142 258.526C107.553 258.056 107.758 257.436 107.758 256.667C107.758 255.906 107.553 255.295 107.142 254.834C106.732 254.364 106.198 254.129 105.54 254.129C104.873 254.129 104.335 254.364 103.925 254.834C103.523 255.295 103.322 255.906 103.322 256.667C103.322 257.428 103.523 258.043 103.925 258.513C104.335 258.983 104.873 259.218 105.54 259.218Z" fill="#B480DC"/>
</g>
<g filter="url(#filter7_di_6870_26350)">
<path d="M88.918 208.007C90.8784 207.726 92.7295 206.932 94.2842 205.705H97.7822C98.7345 205.705 99.6778 205.518 100.558 205.153C101.437 204.789 102.237 204.254 102.91 203.581C103.584 202.908 104.118 202.108 104.482 201.229C104.847 200.349 105.034 199.405 105.034 198.453H93.751V196.841H106.645V198.453C106.642 199.129 106.561 199.799 106.41 200.451C107.159 200.056 108 199.844 108.862 199.844C110.256 199.844 111.593 200.397 112.578 201.383C112.905 201.71 113.183 202.076 113.41 202.469C113.671 202.341 113.926 202.199 114.174 202.043C115.462 201.229 116.493 200.067 117.147 198.691C113.336 193.663 107.165 190.393 100.199 190.393C95.7496 190.393 91.9801 191.344 88.918 193.012V208.007ZM85.6943 209.734C86.1217 209.734 86.5318 209.565 86.834 209.263C87.1362 208.961 87.3056 208.55 87.3057 208.123V193.618C87.3057 193.191 87.1361 192.781 86.834 192.479C86.5318 192.176 86.1217 192.006 85.6943 192.006H82.4707C82.0433 192.006 81.6333 192.176 81.3311 192.479C81.029 192.781 80.8594 193.191 80.8594 193.618V208.123C80.8594 208.55 81.0289 208.961 81.3311 209.263C81.6333 209.565 82.0433 209.734 82.4707 209.734H85.6943Z" fill="#C48BEF"/>
</g>
<g filter="url(#filter8_di_6870_26350)">
<path d="M111.37 207.584C110.703 208.25 109.799 208.625 108.856 208.625C107.913 208.625 107.009 208.25 106.342 207.584C105.675 206.917 105.301 206.013 105.301 205.07C105.301 204.127 105.675 203.223 106.342 202.556C107.009 201.889 107.913 201.515 108.856 201.515C109.799 201.515 110.703 201.889 111.37 202.556C112.037 203.223 112.411 204.127 112.411 205.07C112.411 206.013 112.037 206.917 111.37 207.584Z" fill="#C48BEF"/>
</g>
<g filter="url(#filter9_di_6870_26350)">
<path d="M114.737 216.006C114.07 216.672 113.166 217.047 112.223 217.047C111.28 217.047 110.376 216.672 109.709 216.006C109.043 215.339 108.668 214.435 108.668 213.492C108.668 212.549 109.043 211.645 109.709 210.978C110.376 210.311 111.28 209.937 112.223 209.937C113.166 209.937 114.07 210.311 114.737 210.978C115.404 211.645 115.778 212.549 115.778 213.492C115.778 214.435 115.404 215.339 114.737 216.006Z" fill="#C48BEF"/>
</g>
<g filter="url(#filter10_di_6870_26350)">
<path d="M105.487 214.318C104.82 214.985 103.916 215.359 102.973 215.359C102.03 215.359 101.126 214.985 100.459 214.318C99.7925 213.651 99.418 212.747 99.418 211.804C99.418 210.861 99.7925 209.957 100.459 209.29C101.126 208.624 102.03 208.249 102.973 208.249C103.916 208.249 104.82 208.624 105.487 209.29C106.154 209.957 106.528 210.861 106.528 211.804C106.528 212.747 106.154 213.651 105.487 214.318Z" fill="#C48BEF"/>
</g>
<g filter="url(#filter11_din_6870_26350)">
<path d="M396.406 135.352C401.31 135.352 406.013 137.3 409.48 140.768L414.016 145.303C415.821 147.108 415.821 150.035 414.016 151.84L405.008 160.848C403.203 162.653 403.203 165.58 405.008 167.385L408.329 170.706C410.134 172.511 413.061 172.511 414.866 170.706L423.874 161.698C425.679 159.893 428.606 159.893 430.411 161.698L434.665 165.952C438.132 169.42 440.081 174.123 440.081 179.026L440.081 379.802C440.081 384.705 438.132 389.408 434.665 392.875L409.48 418.06C406.013 421.527 401.31 423.476 396.406 423.476L195.631 423.476C190.727 423.475 186.025 421.527 182.558 418.06L178.297 413.799C176.492 411.994 176.492 409.067 178.297 407.262L187.299 398.261C189.104 396.456 189.104 393.529 187.298 391.724L183.977 388.403C182.172 386.598 179.246 386.598 177.441 388.403L168.439 397.404C166.634 399.21 163.708 399.21 161.902 397.404L157.373 392.875C153.906 389.408 151.957 384.705 151.957 379.802L151.957 179.026C151.957 174.123 153.906 169.42 157.373 165.952L182.558 140.768C186.025 137.3 190.727 135.352 195.631 135.352L396.406 135.352ZM237.777 193.438C222.46 193.438 210.043 205.855 210.043 221.172L210.043 337.648C210.043 352.966 222.46 365.383 237.777 365.383H354.254C369.571 365.383 381.987 352.965 381.987 337.648V221.172C381.987 205.855 369.571 193.438 354.254 193.438L237.777 193.438Z" fill="url(#paint3_linear_6870_26350)"/>
</g>
<rect x="210.047" y="193.453" width="171.945" height="171.945" rx="27.7341" fill="#1D1D1D"/>
<g filter="url(#filter12_din_6870_26350)">
<rect x="237.938" y="221.328" width="116.179" height="116.179" rx="4.62236" fill="url(#paint4_linear_6870_26350)"/>
</g>
<g filter="url(#filter13_di_6870_26350)">
<path d="M277.095 271.508L269.391 297.342" stroke="url(#paint5_linear_6870_26350)" stroke-width="4.43824" stroke-linecap="round"/>
<mask id="mask0_6870_26350" style="mask-type:alpha" maskUnits="userSpaceOnUse" x="273" y="262" width="57" height="35">
<mask id="path-18-inside-1_6870_26350" fill="white">
<path d="M299.301 276.646C299.301 268.557 305.858 262 313.947 262H315.021C323.11 262 329.668 268.557 329.668 276.646V294.489H299.301V276.646Z"/>
</mask>
<path d="M294.863 276.646C294.863 266.106 303.407 257.562 313.947 257.562H315.021C325.561 257.562 334.106 266.106 334.106 276.646L325.229 276.646C325.229 271.008 320.659 266.438 315.021 266.438H313.947C308.309 266.438 303.739 271.008 303.739 276.646L294.863 276.646ZM329.668 294.489H299.301H329.668ZM294.863 294.489V276.646C294.863 266.106 303.407 257.562 313.947 257.562L313.947 266.438C308.309 266.438 303.739 271.008 303.739 276.646V294.489H294.863ZM315.021 257.562C325.561 257.562 334.106 266.106 334.106 276.646V294.489H325.229V276.646C325.229 271.008 320.659 266.438 315.021 266.438L315.021 257.562Z" fill="white" mask="url(#path-18-inside-1_6870_26350)"/>
<ellipse cx="327.403" cy="294.48" rx="2.26598" ry="1.95698" fill="#A66CFF"/>
<mask id="path-21-inside-2_6870_26350" fill="white">
<path d="M273.473 276.646C273.473 268.557 280.03 262 288.119 262H289.193C297.282 262 303.84 268.557 303.84 276.646V294.489H273.473V276.646Z"/>
</mask>
<path d="M269.034 276.646C269.034 266.106 277.579 257.562 288.119 257.562H289.193C299.733 257.562 308.278 266.106 308.278 276.646L299.401 276.646C299.401 271.008 294.831 266.438 289.193 266.438H288.119C282.481 266.438 277.911 271.008 277.911 276.646L269.034 276.646ZM303.84 294.489H273.473H303.84ZM269.034 294.489V276.646C269.034 266.106 277.579 257.562 288.119 257.562L288.119 266.438C282.481 266.438 277.911 271.008 277.911 276.646V294.489H269.034ZM289.193 257.562C299.733 257.562 308.278 266.106 308.278 276.646V294.489H299.401V276.646C299.401 271.008 294.831 266.438 289.193 266.438L289.193 257.562Z" fill="#A66CFF" mask="url(#path-21-inside-2_6870_26350)"/>
<ellipse cx="301.567" cy="294.48" rx="2.26598" ry="1.95698" fill="#A66CFF"/>
</mask>
<g mask="url(#mask0_6870_26350)">
<path d="M275.224 260.828L332.03 261.438V298.005L325.059 296.263V278.255C325.059 278.255 325.64 266.637 314.603 266.637C302.985 266.637 303.82 278.255 303.82 278.255V298.005H299.177V275.299C297.619 266.858 292.176 265.864 288.952 265.652C286.655 265.501 285.172 265.666 283.174 266.858C281.511 267.849 279.531 269.873 278.953 271.079C277.566 273.974 271.617 270.367 271.617 270.367L275.224 260.828Z" fill="white"/>
</g>
<circle cx="274.596" cy="281.19" r="8.88485" stroke="white" stroke-width="4.43824"/>
</g>
<defs>
<filter id="filter0_din_6870_26350" x="292.955" y="118.354" width="275.031" height="324.644" filterUnits="userSpaceOnUse" color-interpolation-filters="sRGB">
<feFlood flood-opacity="0" result="BackgroundImageFix"/>
<feColorMatrix in="SourceAlpha" type="matrix" values="0 0 0 0 0 0 0 0 0 0 0 0 0 0 0 0 0 0 127 0" result="hardAlpha"/>
<feOffset dy="4.9184"/>
<feGaussianBlur stdDeviation="31.9696"/>
<feComposite in2="hardAlpha" operator="out"/>
<feColorMatrix type="matrix" values="0 0 0 0 0 0 0 0 0 0 0 0 0 0 0 0 0 0 0.55 0"/>
<feBlend mode="normal" in2="BackgroundImageFix" result="effect1_dropShadow_6870_26350"/>
<feBlend mode="normal" in="SourceGraphic" in2="BackgroundImageFix" result="shape"/>
<feColorMatrix in="SourceAlpha" type="matrix" values="0 0 0 0 0 0 0 0 0 0 0 0 0 0 0 0 0 0 127 0" result="hardAlpha"/>
<feOffset dy="-3.6888"/>
<feGaussianBlur stdDeviation="0.49184"/>
<feComposite in2="hardAlpha" operator="arithmetic" k2="-1" k3="1"/>
<feColorMatrix type="matrix" values="0 0 0 0 0 0 0 0 0 0 0 0 0 0 0 0 0 0 0.25 0"/>
<feBlend mode="normal" in2="shape" result="effect2_innerShadow_6870_26350"/>
<feTurbulence type="fractalNoise" baseFrequency="8.132725715637207 8.132725715637207" stitchTiles="stitch" numOctaves="3" result="noise" seed="5938" />
<feColorMatrix in="noise" type="luminanceToAlpha" result="alphaNoise" />
<feComponentTransfer in="alphaNoise" result="coloredNoise1">
<feFuncA type="discrete" tableValues="1 1 1 1 1 1 1 1 1 1 1 1 1 1 1 1 1 1 1 1 1 1 1 1 1 1 1 1 1 1 1 1 1 1 1 1 1 1 1 1 1 1 1 1 1 1 1 1 1 1 1 0 0 0 0 0 0 0 0 0 0 0 0 0 0 0 0 0 0 0 0 0 0 0 0 0 0 0 0 0 0 0 0 0 0 0 0 0 0 0 0 0 0 0 0 0 0 0 0 0 "/>
</feComponentTransfer>
<feComposite operator="in" in2="effect2_innerShadow_6870_26350" in="coloredNoise1" result="noise1Clipped" />
<feFlood flood-color="rgba(0, 0, 0, 0.35)" result="color1Flood" />
<feComposite operator="in" in2="noise1Clipped" in="color1Flood" result="color1" />
<feMerge result="effect3_noise_6870_26350">
<feMergeNode in="effect2_innerShadow_6870_26350" />
<feMergeNode in="color1" />
</feMerge>
<feBlend mode="normal" in="effect3_noise_6870_26350" in2="effect1_dropShadow_6870_26350" result="effect3_noise_6870_26350"/>
</filter>
<filter id="filter1_di_6870_26350" x="432.858" y="185.385" width="72.3154" height="175.854" filterUnits="userSpaceOnUse" color-interpolation-filters="sRGB">
<feFlood flood-opacity="0" result="BackgroundImageFix"/>
<feColorMatrix in="SourceAlpha" type="matrix" values="0 0 0 0 0 0 0 0 0 0 0 0 0 0 0 0 0 0 127 0" result="hardAlpha"/>
<feOffset/>
<feGaussianBlur stdDeviation="11.7722"/>
<feComposite in2="hardAlpha" operator="out"/>
<feColorMatrix type="matrix" values="0 0 0 0 0.768627 0 0 0 0 0.545098 0 0 0 0 0.937255 0 0 0 1 0"/>
<feBlend mode="normal" in2="BackgroundImageFix" result="effect1_dropShadow_6870_26350"/>
<feBlend mode="normal" in="SourceGraphic" in2="effect1_dropShadow_6870_26350" result="shape"/>
<feColorMatrix in="SourceAlpha" type="matrix" values="0 0 0 0 0 0 0 0 0 0 0 0 0 0 0 0 0 0 127 0" result="hardAlpha"/>
<feOffset dx="-0.840872"/>
<feGaussianBlur stdDeviation="0.420436"/>
<feComposite in2="hardAlpha" operator="arithmetic" k2="-1" k3="1"/>
<feColorMatrix type="matrix" values="0 0 0 0 0 0 0 0 0 0 0 0 0 0 0 0 0 0 0.25 0"/>
<feBlend mode="normal" in2="shape" result="effect2_innerShadow_6870_26350"/>
</filter>
<filter id="filter2_din_6870_26350" x="7.90063" y="224.706" width="237.132" height="223.48" filterUnits="userSpaceOnUse" color-interpolation-filters="sRGB">
<feFlood flood-opacity="0" result="BackgroundImageFix"/>
<feColorMatrix in="SourceAlpha" type="matrix" values="0 0 0 0 0 0 0 0 0 0 0 0 0 0 0 0 0 0 127 0" result="hardAlpha"/>
<feOffset dy="4.9184"/>
<feGaussianBlur stdDeviation="31.9696"/>
<feComposite in2="hardAlpha" operator="out"/>
<feColorMatrix type="matrix" values="0 0 0 0 0 0 0 0 0 0 0 0 0 0 0 0 0 0 0.55 0"/>
<feBlend mode="normal" in2="BackgroundImageFix" result="effect1_dropShadow_6870_26350"/>
<feBlend mode="normal" in="SourceGraphic" in2="BackgroundImageFix" result="shape"/>
<feColorMatrix in="SourceAlpha" type="matrix" values="0 0 0 0 0 0 0 0 0 0 0 0 0 0 0 0 0 0 127 0" result="hardAlpha"/>
<feOffset dy="-3.6888"/>
<feGaussianBlur stdDeviation="0.49184"/>
<feComposite in2="hardAlpha" operator="arithmetic" k2="-1" k3="1"/>
<feColorMatrix type="matrix" values="0 0 0 0 0 0 0 0 0 0 0 0 0 0 0 0 0 0 0.25 0"/>
<feBlend mode="normal" in2="shape" result="effect2_innerShadow_6870_26350"/>
<feTurbulence type="fractalNoise" baseFrequency="8.132725715637207 8.132725715637207" stitchTiles="stitch" numOctaves="3" result="noise" seed="5938" />
<feColorMatrix in="noise" type="luminanceToAlpha" result="alphaNoise" />
<feComponentTransfer in="alphaNoise" result="coloredNoise1">
<feFuncA type="discrete" tableValues="1 1 1 1 1 1 1 1 1 1 1 1 1 1 1 1 1 1 1 1 1 1 1 1 1 1 1 1 1 1 1 1 1 1 1 1 1 1 1 1 1 1 1 1 1 1 1 1 1 1 1 0 0 0 0 0 0 0 0 0 0 0 0 0 0 0 0 0 0 0 0 0 0 0 0 0 0 0 0 0 0 0 0 0 0 0 0 0 0 0 0 0 0 0 0 0 0 0 0 0 "/>
</feComponentTransfer>
<feComposite operator="in" in2="effect2_innerShadow_6870_26350" in="coloredNoise1" result="noise1Clipped" />
<feFlood flood-color="rgba(0, 0, 0, 0.35)" result="color1Flood" />
<feComposite operator="in" in2="noise1Clipped" in="color1Flood" result="color1" />
<feMerge result="effect3_noise_6870_26350">
<feMergeNode in="effect2_innerShadow_6870_26350" />
<feMergeNode in="color1" />
</feMerge>
<feBlend mode="normal" in="effect3_noise_6870_26350" in2="effect1_dropShadow_6870_26350" result="effect3_noise_6870_26350"/>
</filter>
<filter id="filter3_di_6870_26350" x="57.4243" y="335.432" width="87.1084" height="56.4326" filterUnits="userSpaceOnUse" color-interpolation-filters="sRGB">
<feFlood flood-opacity="0" result="BackgroundImageFix"/>
<feColorMatrix in="SourceAlpha" type="matrix" values="0 0 0 0 0 0 0 0 0 0 0 0 0 0 0 0 0 0 127 0" result="hardAlpha"/>
<feOffset/>
<feGaussianBlur stdDeviation="11.7722"/>
<feComposite in2="hardAlpha" operator="out"/>
<feColorMatrix type="matrix" values="0 0 0 0 0.768627 0 0 0 0 0.545098 0 0 0 0 0.937255 0 0 0 1 0"/>
<feBlend mode="normal" in2="BackgroundImageFix" result="effect1_dropShadow_6870_26350"/>
<feBlend mode="normal" in="SourceGraphic" in2="effect1_dropShadow_6870_26350" result="shape"/>
<feColorMatrix in="SourceAlpha" type="matrix" values="0 0 0 0 0 0 0 0 0 0 0 0 0 0 0 0 0 0 127 0" result="hardAlpha"/>
<feOffset dx="-0.840872"/>
<feGaussianBlur stdDeviation="0.420436"/>
<feComposite in2="hardAlpha" operator="arithmetic" k2="-1" k3="1"/>
<feColorMatrix type="matrix" values="0 0 0 0 0 0 0 0 0 0 0 0 0 0 0 0 0 0 0.25 0"/>
<feBlend mode="normal" in2="shape" result="effect2_innerShadow_6870_26350"/>
</filter>
<filter id="filter4_di_6870_26350" x="58.6626" y="271.682" width="83.3779" height="77.7138" filterUnits="userSpaceOnUse" color-interpolation-filters="sRGB">
<feFlood flood-opacity="0" result="BackgroundImageFix"/>
<feColorMatrix in="SourceAlpha" type="matrix" values="0 0 0 0 0 0 0 0 0 0 0 0 0 0 0 0 0 0 127 0" result="hardAlpha"/>
<feOffset/>
<feGaussianBlur stdDeviation="11.7722"/>
<feComposite in2="hardAlpha" operator="out"/>
<feColorMatrix type="matrix" values="0 0 0 0 0.768627 0 0 0 0 0.545098 0 0 0 0 0.937255 0 0 0 1 0"/>
<feBlend mode="normal" in2="BackgroundImageFix" result="effect1_dropShadow_6870_26350"/>
<feBlend mode="normal" in="SourceGraphic" in2="effect1_dropShadow_6870_26350" result="shape"/>
<feColorMatrix in="SourceAlpha" type="matrix" values="0 0 0 0 0 0 0 0 0 0 0 0 0 0 0 0 0 0 127 0" result="hardAlpha"/>
<feOffset dx="-0.840872"/>
<feGaussianBlur stdDeviation="0.420436"/>
<feComposite in2="hardAlpha" operator="arithmetic" k2="-1" k3="1"/>
<feColorMatrix type="matrix" values="0 0 0 0 0 0 0 0 0 0 0 0 0 0 0 0 0 0 0.25 0"/>
<feBlend mode="normal" in2="shape" result="effect2_innerShadow_6870_26350"/>
</filter>
<filter id="filter5_din_6870_26350" x="7.885" y="118.495" width="237.132" height="223.48" filterUnits="userSpaceOnUse" color-interpolation-filters="sRGB">
<feFlood flood-opacity="0" result="BackgroundImageFix"/>
<feColorMatrix in="SourceAlpha" type="matrix" values="0 0 0 0 0 0 0 0 0 0 0 0 0 0 0 0 0 0 127 0" result="hardAlpha"/>
<feOffset dy="4.9184"/>
<feGaussianBlur stdDeviation="31.9696"/>
<feComposite in2="hardAlpha" operator="out"/>
<feColorMatrix type="matrix" values="0 0 0 0 0 0 0 0 0 0 0 0 0 0 0 0 0 0 0.55 0"/>
<feBlend mode="normal" in2="BackgroundImageFix" result="effect1_dropShadow_6870_26350"/>
<feBlend mode="normal" in="SourceGraphic" in2="BackgroundImageFix" result="shape"/>
<feColorMatrix in="SourceAlpha" type="matrix" values="0 0 0 0 0 0 0 0 0 0 0 0 0 0 0 0 0 0 127 0" result="hardAlpha"/>
<feOffset dy="-3.6888"/>
<feGaussianBlur stdDeviation="0.49184"/>
<feComposite in2="hardAlpha" operator="arithmetic" k2="-1" k3="1"/>
<feColorMatrix type="matrix" values="0 0 0 0 0 0 0 0 0 0 0 0 0 0 0 0 0 0 0.25 0"/>
<feBlend mode="normal" in2="shape" result="effect2_innerShadow_6870_26350"/>
<feTurbulence type="fractalNoise" baseFrequency="8.132725715637207 8.132725715637207" stitchTiles="stitch" numOctaves="3" result="noise" seed="5938" />
<feColorMatrix in="noise" type="luminanceToAlpha" result="alphaNoise" />
<feComponentTransfer in="alphaNoise" result="coloredNoise1">
<feFuncA type="discrete" tableValues="1 1 1 1 1 1 1 1 1 1 1 1 1 1 1 1 1 1 1 1 1 1 1 1 1 1 1 1 1 1 1 1 1 1 1 1 1 1 1 1 1 1 1 1 1 1 1 1 1 1 1 0 0 0 0 0 0 0 0 0 0 0 0 0 0 0 0 0 0 0 0 0 0 0 0 0 0 0 0 0 0 0 0 0 0 0 0 0 0 0 0 0 0 0 0 0 0 0 0 0 "/>
</feComponentTransfer>
<feComposite operator="in" in2="effect2_innerShadow_6870_26350" in="coloredNoise1" result="noise1Clipped" />
<feFlood flood-color="rgba(0, 0, 0, 0.35)" result="color1Flood" />
<feComposite operator="in" in2="noise1Clipped" in="color1Flood" result="color1" />
<feMerge result="effect3_noise_6870_26350">
<feMergeNode in="effect2_innerShadow_6870_26350" />
<feMergeNode in="color1" />
</feMerge>
<feBlend mode="normal" in="effect3_noise_6870_26350" in2="effect1_dropShadow_6870_26350" result="effect3_noise_6870_26350"/>
</filter>
<filter id="filter6_di_6870_26350" x="58.4361" y="227.112" width="73.749" height="56.5341" filterUnits="userSpaceOnUse" color-interpolation-filters="sRGB">
<feFlood flood-opacity="0" result="BackgroundImageFix"/>
<feColorMatrix in="SourceAlpha" type="matrix" values="0 0 0 0 0 0 0 0 0 0 0 0 0 0 0 0 0 0 127 0" result="hardAlpha"/>
<feOffset/>
<feGaussianBlur stdDeviation="11.7722"/>
<feComposite in2="hardAlpha" operator="out"/>
<feColorMatrix type="matrix" values="0 0 0 0 0.768627 0 0 0 0 0.545098 0 0 0 0 0.937255 0 0 0 1 0"/>
<feBlend mode="normal" in2="BackgroundImageFix" result="effect1_dropShadow_6870_26350"/>
<feBlend mode="normal" in="SourceGraphic" in2="effect1_dropShadow_6870_26350" result="shape"/>
<feColorMatrix in="SourceAlpha" type="matrix" values="0 0 0 0 0 0 0 0 0 0 0 0 0 0 0 0 0 0 127 0" result="hardAlpha"/>
<feOffset dx="-0.840872"/>
<feGaussianBlur stdDeviation="0.420436"/>
<feComposite in2="hardAlpha" operator="arithmetic" k2="-1" k3="1"/>
<feColorMatrix type="matrix" values="0 0 0 0 0 0 0 0 0 0 0 0 0 0 0 0 0 0 0.25 0"/>
<feBlend mode="normal" in2="shape" result="effect2_innerShadow_6870_26350"/>
</filter>
<filter id="filter7_di_6870_26350" x="57.315" y="166.846" width="83.3779" height="66.4326" filterUnits="userSpaceOnUse" color-interpolation-filters="sRGB">
<feFlood flood-opacity="0" result="BackgroundImageFix"/>
<feColorMatrix in="SourceAlpha" type="matrix" values="0 0 0 0 0 0 0 0 0 0 0 0 0 0 0 0 0 0 127 0" result="hardAlpha"/>
<feOffset/>
<feGaussianBlur stdDeviation="11.7722"/>
<feComposite in2="hardAlpha" operator="out"/>
<feColorMatrix type="matrix" values="0 0 0 0 0.768627 0 0 0 0 0.545098 0 0 0 0 0.937255 0 0 0 1 0"/>
<feBlend mode="normal" in2="BackgroundImageFix" result="effect1_dropShadow_6870_26350"/>
<feBlend mode="normal" in="SourceGraphic" in2="effect1_dropShadow_6870_26350" result="shape"/>
<feColorMatrix in="SourceAlpha" type="matrix" values="0 0 0 0 0 0 0 0 0 0 0 0 0 0 0 0 0 0 127 0" result="hardAlpha"/>
<feOffset dx="-0.840872"/>
<feGaussianBlur stdDeviation="0.420436"/>
<feComposite in2="hardAlpha" operator="arithmetic" k2="-1" k3="1"/>
<feColorMatrix type="matrix" values="0 0 0 0 0 0 0 0 0 0 0 0 0 0 0 0 0 0 0.25 0"/>
<feBlend mode="normal" in2="shape" result="effect2_innerShadow_6870_26350"/>
</filter>
<filter id="filter8_di_6870_26350" x="81.7564" y="177.971" width="54.1982" height="54.1982" filterUnits="userSpaceOnUse" color-interpolation-filters="sRGB">
<feFlood flood-opacity="0" result="BackgroundImageFix"/>
<feColorMatrix in="SourceAlpha" type="matrix" values="0 0 0 0 0 0 0 0 0 0 0 0 0 0 0 0 0 0 127 0" result="hardAlpha"/>
<feOffset/>
<feGaussianBlur stdDeviation="11.7722"/>
<feComposite in2="hardAlpha" operator="out"/>
<feColorMatrix type="matrix" values="0 0 0 0 0.768627 0 0 0 0 0.545098 0 0 0 0 0.937255 0 0 0 1 0"/>
<feBlend mode="normal" in2="BackgroundImageFix" result="effect1_dropShadow_6870_26350"/>
<feBlend mode="normal" in="SourceGraphic" in2="effect1_dropShadow_6870_26350" result="shape"/>
<feColorMatrix in="SourceAlpha" type="matrix" values="0 0 0 0 0 0 0 0 0 0 0 0 0 0 0 0 0 0 127 0" result="hardAlpha"/>
<feOffset dx="-0.840872"/>
<feGaussianBlur stdDeviation="0.420436"/>
<feComposite in2="hardAlpha" operator="arithmetic" k2="-1" k3="1"/>
<feColorMatrix type="matrix" values="0 0 0 0 0 0 0 0 0 0 0 0 0 0 0 0 0 0 0.25 0"/>
<feBlend mode="normal" in2="shape" result="effect2_innerShadow_6870_26350"/>
</filter>
<filter id="filter9_di_6870_26350" x="85.1236" y="186.393" width="54.1982" height="54.1982" filterUnits="userSpaceOnUse" color-interpolation-filters="sRGB">
<feFlood flood-opacity="0" result="BackgroundImageFix"/>
<feColorMatrix in="SourceAlpha" type="matrix" values="0 0 0 0 0 0 0 0 0 0 0 0 0 0 0 0 0 0 127 0" result="hardAlpha"/>
<feOffset/>
<feGaussianBlur stdDeviation="11.7722"/>
<feComposite in2="hardAlpha" operator="out"/>
<feColorMatrix type="matrix" values="0 0 0 0 0.768627 0 0 0 0 0.545098 0 0 0 0 0.937255 0 0 0 1 0"/>
<feBlend mode="normal" in2="BackgroundImageFix" result="effect1_dropShadow_6870_26350"/>
<feBlend mode="normal" in="SourceGraphic" in2="effect1_dropShadow_6870_26350" result="shape"/>
<feColorMatrix in="SourceAlpha" type="matrix" values="0 0 0 0 0 0 0 0 0 0 0 0 0 0 0 0 0 0 127 0" result="hardAlpha"/>
<feOffset dx="-0.840872"/>
<feGaussianBlur stdDeviation="0.420436"/>
<feComposite in2="hardAlpha" operator="arithmetic" k2="-1" k3="1"/>
<feColorMatrix type="matrix" values="0 0 0 0 0 0 0 0 0 0 0 0 0 0 0 0 0 0 0.25 0"/>
<feBlend mode="normal" in2="shape" result="effect2_innerShadow_6870_26350"/>
</filter>
<filter id="filter10_di_6870_26350" x="75.8736" y="184.706" width="54.1982" height="54.1982" filterUnits="userSpaceOnUse" color-interpolation-filters="sRGB">
<feFlood flood-opacity="0" result="BackgroundImageFix"/>
<feColorMatrix in="SourceAlpha" type="matrix" values="0 0 0 0 0 0 0 0 0 0 0 0 0 0 0 0 0 0 127 0" result="hardAlpha"/>
<feOffset/>
<feGaussianBlur stdDeviation="11.7722"/>
<feComposite in2="hardAlpha" operator="out"/>
<feColorMatrix type="matrix" values="0 0 0 0 0.768627 0 0 0 0 0.545098 0 0 0 0 0.937255 0 0 0 1 0"/>
<feBlend mode="normal" in2="BackgroundImageFix" result="effect1_dropShadow_6870_26350"/>
<feBlend mode="normal" in="SourceGraphic" in2="effect1_dropShadow_6870_26350" result="shape"/>
<feColorMatrix in="SourceAlpha" type="matrix" values="0 0 0 0 0 0 0 0 0 0 0 0 0 0 0 0 0 0 127 0" result="hardAlpha"/>
<feOffset dx="-0.840872"/>
<feGaussianBlur stdDeviation="0.420436"/>
<feComposite in2="hardAlpha" operator="arithmetic" k2="-1" k3="1"/>
<feColorMatrix type="matrix" values="0 0 0 0 0 0 0 0 0 0 0 0 0 0 0 0 0 0 0.25 0"/>
<feBlend mode="normal" in2="shape" result="effect2_innerShadow_6870_26350"/>
</filter>
<filter id="filter11_din_6870_26350" x="91.8664" y="79.8833" width="408.306" height="408.306" filterUnits="userSpaceOnUse" color-interpolation-filters="sRGB">
<feFlood flood-opacity="0" result="BackgroundImageFix"/>
<feColorMatrix in="SourceAlpha" type="matrix" values="0 0 0 0 0 0 0 0 0 0 0 0 0 0 0 0 0 0 127 0" result="hardAlpha"/>
<feOffset dy="4.62236"/>
<feGaussianBlur stdDeviation="30.0453"/>
<feComposite in2="hardAlpha" operator="out"/>
<feColorMatrix type="matrix" values="0 0 0 0 0 0 0 0 0 0 0 0 0 0 0 0 0 0 0.55 0"/>
<feBlend mode="normal" in2="BackgroundImageFix" result="effect1_dropShadow_6870_26350"/>
<feBlend mode="normal" in="SourceGraphic" in2="BackgroundImageFix" result="shape"/>
<feColorMatrix in="SourceAlpha" type="matrix" values="0 0 0 0 0 0 0 0 0 0 0 0 0 0 0 0 0 0 127 0" result="hardAlpha"/>
<feOffset dy="-3.46677"/>
<feGaussianBlur stdDeviation="0.462236"/>
<feComposite in2="hardAlpha" operator="arithmetic" k2="-1" k3="1"/>
<feColorMatrix type="matrix" values="0 0 0 0 0 0 0 0 0 0 0 0 0 0 0 0 0 0 0.25 0"/>
<feBlend mode="normal" in2="shape" result="effect2_innerShadow_6870_26350"/>
<feTurbulence type="fractalNoise" baseFrequency="8.6535911560058594 8.6535911560058594" stitchTiles="stitch" numOctaves="3" result="noise" seed="5938" />
<feColorMatrix in="noise" type="luminanceToAlpha" result="alphaNoise" />
<feComponentTransfer in="alphaNoise" result="coloredNoise1">
<feFuncA type="discrete" tableValues="1 1 1 1 1 1 1 1 1 1 1 1 1 1 1 1 1 1 1 1 1 1 1 1 1 1 1 1 1 1 1 1 1 1 1 1 1 1 1 1 1 1 1 1 1 1 1 1 1 1 1 0 0 0 0 0 0 0 0 0 0 0 0 0 0 0 0 0 0 0 0 0 0 0 0 0 0 0 0 0 0 0 0 0 0 0 0 0 0 0 0 0 0 0 0 0 0 0 0 0 "/>
</feComponentTransfer>
<feComposite operator="in" in2="effect2_innerShadow_6870_26350" in="coloredNoise1" result="noise1Clipped" />
<feFlood flood-color="rgba(0, 0, 0, 0.35)" result="color1Flood" />
<feComposite operator="in" in2="noise1Clipped" in="color1Flood" result="color1" />
<feMerge result="effect3_noise_6870_26350">
<feMergeNode in="effect2_innerShadow_6870_26350" />
<feMergeNode in="color1" />
</feMerge>
<feBlend mode="normal" in="effect3_noise_6870_26350" in2="effect1_dropShadow_6870_26350" result="effect3_noise_6870_26350"/>
</filter>
<filter id="filter12_din_6870_26350" x="177.847" y="165.86" width="236.361" height="236.361" filterUnits="userSpaceOnUse" color-interpolation-filters="sRGB">
<feFlood flood-opacity="0" result="BackgroundImageFix"/>
<feColorMatrix in="SourceAlpha" type="matrix" values="0 0 0 0 0 0 0 0 0 0 0 0 0 0 0 0 0 0 127 0" result="hardAlpha"/>
<feOffset dy="4.62236"/>
<feGaussianBlur stdDeviation="30.0453"/>
<feComposite in2="hardAlpha" operator="out"/>
<feColorMatrix type="matrix" values="0 0 0 0 0 0 0 0 0 0 0 0 0 0 0 0 0 0 0.25 0"/>
<feBlend mode="normal" in2="BackgroundImageFix" result="effect1_dropShadow_6870_26350"/>
<feBlend mode="normal" in="SourceGraphic" in2="BackgroundImageFix" result="shape"/>
<feColorMatrix in="SourceAlpha" type="matrix" values="0 0 0 0 0 0 0 0 0 0 0 0 0 0 0 0 0 0 127 0" result="hardAlpha"/>
<feOffset dy="-3.46677"/>
<feGaussianBlur stdDeviation="0.462236"/>
<feComposite in2="hardAlpha" operator="arithmetic" k2="-1" k3="1"/>
<feColorMatrix type="matrix" values="0 0 0 0 0 0 0 0 0 0 0 0 0 0 0 0 0 0 0.25 0"/>
<feBlend mode="normal" in2="shape" result="effect2_innerShadow_6870_26350"/>
<feTurbulence type="fractalNoise" baseFrequency="8.6535911560058594 8.6535911560058594" stitchTiles="stitch" numOctaves="3" result="noise" seed="5938" />
<feColorMatrix in="noise" type="luminanceToAlpha" result="alphaNoise" />
<feComponentTransfer in="alphaNoise" result="coloredNoise1">
<feFuncA type="discrete" tableValues="1 1 1 1 1 1 1 1 1 1 1 1 1 1 1 1 1 1 1 1 1 1 1 1 1 1 1 1 1 1 1 1 1 1 1 1 1 1 1 1 1 1 1 1 1 1 1 1 1 1 1 0 0 0 0 0 0 0 0 0 0 0 0 0 0 0 0 0 0 0 0 0 0 0 0 0 0 0 0 0 0 0 0 0 0 0 0 0 0 0 0 0 0 0 0 0 0 0 0 0 "/>
</feComponentTransfer>
<feComposite operator="in" in2="effect2_innerShadow_6870_26350" in="coloredNoise1" result="noise1Clipped" />
<feFlood flood-color="rgba(0, 0, 0, 0.35)" result="color1Flood" />
<feComposite operator="in" in2="noise1Clipped" in="color1Flood" result="color1" />
<feMerge result="effect3_noise_6870_26350">
<feMergeNode in="effect2_innerShadow_6870_26350" />
<feMergeNode in="color1" />
</feMerge>
<feBlend mode="normal" in="effect3_noise_6870_26350" in2="effect1_dropShadow_6870_26350" result="effect3_noise_6870_26350"/>
</filter>
<filter id="filter13_di_6870_26350" x="252.51" y="251.018" width="88.1394" height="59.5261" filterUnits="userSpaceOnUse" color-interpolation-filters="sRGB">
<feFlood flood-opacity="0" result="BackgroundImageFix"/>
<feColorMatrix in="SourceAlpha" type="matrix" values="0 0 0 0 0 0 0 0 0 0 0 0 0 0 0 0 0 0 127 0" result="hardAlpha"/>
<feOffset/>
<feGaussianBlur stdDeviation="5.49089"/>
<feComposite in2="hardAlpha" operator="out"/>
<feColorMatrix type="matrix" values="0 0 0 0 0.768627 0 0 0 0 0.545098 0 0 0 0 0.937255 0 0 0 1 0"/>
<feBlend mode="normal" in2="BackgroundImageFix" result="effect1_dropShadow_6870_26350"/>
<feBlend mode="normal" in="SourceGraphic" in2="effect1_dropShadow_6870_26350" result="shape"/>
<feColorMatrix in="SourceAlpha" type="matrix" values="0 0 0 0 0 0 0 0 0 0 0 0 0 0 0 0 0 0 127 0" result="hardAlpha"/>
<feOffset dy="2.92334"/>
<feGaussianBlur stdDeviation="0.730835"/>
<feComposite in2="hardAlpha" operator="arithmetic" k2="-1" k3="1"/>
<feColorMatrix type="matrix" values="0 0 0 0 0 0 0 0 0 0 0 0 0 0 0 0 0 0 0.25 0"/>
<feBlend mode="normal" in2="shape" result="effect2_innerShadow_6870_26350"/>
</filter>
<linearGradient id="paint0_linear_6870_26350" x1="504.047" y1="374.139" x2="326.838" y2="239.898" gradientUnits="userSpaceOnUse">
<stop stop-color="#232323"/>
<stop offset="1" stop-color="#595959"/>
</linearGradient>
<linearGradient id="paint1_linear_6870_26350" x1="175.367" y1="373.158" x2="85.4273" y2="271.682" gradientUnits="userSpaceOnUse">
<stop stop-color="#232323"/>
<stop offset="1" stop-color="#595959"/>
</linearGradient>
<linearGradient id="paint2_linear_6870_26350" x1="168.302" y1="280.166" x2="66.8266" y2="190.227" gradientUnits="userSpaceOnUse">
<stop stop-color="#232323"/>
<stop offset="1" stop-color="#595959"/>
</linearGradient>
<linearGradient id="paint3_linear_6870_26350" x1="151.957" y1="423.476" x2="421.492" y2="150.455" gradientUnits="userSpaceOnUse">
<stop stop-color="#232323"/>
<stop offset="1" stop-color="#595959"/>
</linearGradient>
<linearGradient id="paint4_linear_6870_26350" x1="237.938" y1="337.507" x2="346.621" y2="227.418" gradientUnits="userSpaceOnUse">
<stop stop-color="#232323"/>
<stop offset="1" stop-color="#595959"/>
</linearGradient>
<linearGradient id="paint5_linear_6870_26350" x1="269.614" y1="297.501" x2="275.058" y2="275.387" gradientUnits="userSpaceOnUse">
<stop stop-color="white"/>
<stop offset="1" stop-color="#343434" stop-opacity="0"/>
</linearGradient>
</defs>
</svg>
