<svg width="1344" height="653" viewBox="0 0 1344 653" fill="none" xmlns="http://www.w3.org/2000/svg">
<g clip-path="url(#clip0_6640_30540)">
<circle opacity="0.1" cx="928.5" cy="710.5" r="482.5" fill="#D9D9D9" fill-opacity="0.05" stroke="url(#paint0_linear_6640_30540)" stroke-width="4"/>
<circle opacity="0.1" cx="484.5" cy="484.5" r="484" transform="matrix(1 0 0 -1 444 226)" fill="#D9D9D9" fill-opacity="0.05" stroke="url(#paint1_linear_6640_30540)"/>
<rect x="882.141" y="318.305" width="1.58603" height="111.022" rx="0.793017" fill="url(#paint2_linear_6640_30540)"/>
<rect x="882.141" y="410.289" width="1.58603" height="19.0324" rx="0.793017" fill="white"/>
<rect x="893.242" y="318.305" width="1.58603" height="111.022" rx="0.793017" fill="url(#paint3_linear_6640_30540)"/>
<rect x="893.242" y="410.289" width="1.58603" height="19.0324" rx="0.793017" fill="white"/>
<rect x="904.344" y="318.305" width="1.58603" height="111.022" rx="0.793017" fill="url(#paint4_linear_6640_30540)"/>
<rect x="904.344" y="410.289" width="1.58603" height="19.0324" rx="0.793017" fill="white"/>
<rect x="915.449" y="318.305" width="1.58603" height="111.022" rx="0.793017" fill="url(#paint5_linear_6640_30540)"/>
<rect x="915.449" y="410.289" width="1.58603" height="19.0324" rx="0.793017" fill="white"/>
<rect x="926.551" y="318.305" width="1.58603" height="111.022" rx="0.793017" fill="url(#paint6_linear_6640_30540)"/>
<rect x="926.551" y="410.289" width="1.58603" height="19.0324" rx="0.793017" fill="white"/>
<rect x="937.652" y="318.305" width="1.58603" height="111.022" rx="0.793017" fill="url(#paint7_linear_6640_30540)"/>
<rect x="937.652" y="410.289" width="1.58603" height="19.0324" rx="0.793017" fill="white"/>
<rect x="948.754" y="318.305" width="1.58603" height="111.022" rx="0.793017" fill="url(#paint8_linear_6640_30540)"/>
<rect x="948.754" y="410.289" width="1.58603" height="19.0324" rx="0.793017" fill="white"/>
<rect x="959.855" y="318.305" width="1.58603" height="111.022" rx="0.793017" fill="url(#paint9_linear_6640_30540)"/>
<rect x="959.855" y="410.289" width="1.58603" height="19.0324" rx="0.793017" fill="white"/>
<path d="M802.488 523.672L811.944 499.749H814.964L824.487 523.672H821.567L819.111 517.368H807.731L805.275 523.672H802.488ZM808.66 514.912H818.149L813.404 502.702L808.66 514.912ZM832.024 523.937C830.652 523.937 829.447 523.683 828.407 523.174C827.389 522.643 826.582 521.935 825.985 521.051C825.41 520.144 825.089 519.148 825.023 518.064H827.577C827.644 519.016 828.064 519.856 828.838 520.586C829.613 521.294 830.674 521.648 832.024 521.648C833.174 521.648 834.092 521.382 834.778 520.852C835.485 520.321 835.839 519.679 835.839 518.927C835.839 518.153 835.585 517.567 835.076 517.169C834.59 516.748 833.959 516.439 833.185 516.24L830.066 515.41C829.314 515.211 828.606 514.945 827.942 514.614C827.301 514.26 826.781 513.784 826.383 513.187C825.985 512.568 825.786 511.782 825.786 510.831C825.786 509.482 826.328 508.376 827.412 507.513C828.495 506.628 829.911 506.186 831.659 506.186C833.428 506.186 834.899 506.65 836.072 507.58C837.244 508.486 837.941 509.714 838.162 511.263H835.574C835.463 510.4 835.043 509.714 834.313 509.205C833.605 508.674 832.72 508.409 831.659 508.409C830.685 508.409 829.9 508.63 829.303 509.073C828.706 509.493 828.407 510.079 828.407 510.831C828.407 511.406 828.617 511.893 829.037 512.291C829.458 512.667 830.022 512.944 830.73 513.121L833.849 513.917C834.689 514.116 835.452 514.392 836.138 514.746C836.846 515.078 837.41 515.576 837.83 516.24C838.273 516.881 838.494 517.777 838.494 518.927C838.494 520.409 837.897 521.615 836.702 522.544C835.53 523.473 833.97 523.937 832.024 523.937ZM847.382 523.937C846.011 523.937 844.805 523.683 843.766 523.174C842.748 522.643 841.941 521.935 841.344 521.051C840.768 520.144 840.448 519.148 840.381 518.064H842.936C843.003 519.016 843.423 519.856 844.197 520.586C844.971 521.294 846.033 521.648 847.382 521.648C848.533 521.648 849.451 521.382 850.136 520.852C850.844 520.321 851.198 519.679 851.198 518.927C851.198 518.153 850.944 517.567 850.435 517.169C849.948 516.748 849.318 516.439 848.544 516.24L845.425 515.41C844.673 515.211 843.965 514.945 843.301 514.614C842.66 514.26 842.14 513.784 841.742 513.187C841.344 512.568 841.145 511.782 841.145 510.831C841.145 509.482 841.686 508.376 842.77 507.513C843.854 506.628 845.27 506.186 847.017 506.186C848.787 506.186 850.258 506.65 851.43 507.58C852.603 508.486 853.3 509.714 853.521 511.263H850.933C850.822 510.4 850.402 509.714 849.672 509.205C848.964 508.674 848.079 508.409 847.017 508.409C846.044 508.409 845.259 508.63 844.662 509.073C844.064 509.493 843.766 510.079 843.766 510.831C843.766 511.406 843.976 511.893 844.396 512.291C844.816 512.667 845.381 512.944 846.088 513.121L849.207 513.917C850.048 514.116 850.811 514.392 851.497 514.746C852.205 515.078 852.769 515.576 853.189 516.24C853.631 516.881 853.853 517.777 853.853 518.927C853.853 520.409 853.255 521.615 852.061 522.544C850.888 523.473 849.329 523.937 847.382 523.937ZM858.66 515.377C858.726 517.368 859.279 518.916 860.319 520.022C861.359 521.128 862.708 521.681 864.367 521.681C865.628 521.681 866.734 521.382 867.685 520.785C868.636 520.188 869.211 519.336 869.41 518.23H871.866C871.556 520.111 870.704 521.537 869.311 522.511C867.917 523.462 866.269 523.937 864.367 523.937C862.686 523.937 861.215 523.55 859.954 522.776C858.715 521.98 857.753 520.907 857.067 519.558C856.404 518.208 856.072 516.704 856.072 515.045C856.072 513.386 856.404 511.893 857.067 510.566C857.731 509.216 858.682 508.155 859.921 507.38C861.16 506.584 862.62 506.186 864.301 506.186C865.893 506.186 867.265 506.54 868.415 507.248C869.565 507.956 870.45 508.918 871.069 510.134C871.711 511.329 872.021 512.689 871.998 514.216C871.998 514.481 871.987 514.724 871.965 514.945C871.943 515.145 871.932 515.288 871.932 515.377H858.66ZM864.301 508.376C862.819 508.376 861.602 508.818 860.651 509.703C859.7 510.566 859.091 511.738 858.826 513.22H869.278C869.189 511.827 868.714 510.676 867.851 509.769C866.988 508.84 865.805 508.376 864.301 508.376ZM881.387 523.937C879.861 523.937 878.644 523.528 877.738 522.71C876.853 521.891 876.41 520.641 876.41 518.96V508.674H873.126V506.451H876.41V501.176H878.932V506.451H883.411V508.674H878.932V518.861C878.932 519.812 879.153 520.509 879.596 520.951C880.06 521.394 880.702 521.615 881.52 521.615C881.94 521.615 882.305 521.593 882.615 521.548C882.947 521.482 883.212 521.416 883.411 521.349V523.672C883.19 523.716 882.892 523.771 882.516 523.838C882.162 523.904 881.786 523.937 881.387 523.937ZM893.685 523.672V506.451H896.239V509.869C896.66 508.763 897.301 507.878 898.164 507.215C899.049 506.529 900.155 506.186 901.482 506.186C902.92 506.186 904.158 506.507 905.198 507.148C906.238 507.79 906.901 508.697 907.189 509.869C907.675 508.785 908.405 507.9 909.379 507.215C910.352 506.529 911.458 506.186 912.697 506.186C914.533 506.186 915.993 506.717 917.077 507.779C918.16 508.84 918.702 510.3 918.702 512.158V523.672H916.147V512.623C916.147 511.384 915.805 510.389 915.119 509.637C914.433 508.862 913.46 508.475 912.199 508.475C910.673 508.475 909.5 509.106 908.682 510.367C907.863 511.605 907.454 513.176 907.454 515.078V523.672H904.899V512.623C904.899 511.384 904.557 510.389 903.871 509.637C903.207 508.862 902.256 508.475 901.017 508.475C899.469 508.475 898.285 509.106 897.467 510.367C896.649 511.605 896.239 513.176 896.239 515.078V523.672H893.685ZM927.654 523.937C925.951 523.937 924.557 523.495 923.473 522.61C922.389 521.725 921.847 520.542 921.847 519.06C921.847 517.578 922.356 516.394 923.374 515.51C924.391 514.603 925.807 514.039 927.621 513.817L931.735 513.286C932.863 513.11 933.427 512.579 933.427 511.694C933.427 510.743 933.051 509.957 932.299 509.338C931.547 508.719 930.485 508.409 929.114 508.409C927.875 508.409 926.858 508.708 926.061 509.305C925.265 509.88 924.812 510.732 924.701 511.86H922.08C922.257 510.134 922.976 508.763 924.236 507.745C925.497 506.706 927.123 506.186 929.114 506.186C930.485 506.186 931.68 506.44 932.697 506.949C933.737 507.436 934.544 508.11 935.12 508.973C935.695 509.836 935.982 510.82 935.982 511.926V520.254C935.982 520.807 936.093 521.172 936.314 521.349C936.557 521.504 936.856 521.582 937.21 521.582C937.387 521.582 937.564 521.559 937.741 521.515V523.672C937.586 523.694 937.409 523.727 937.21 523.771C937.033 523.816 936.834 523.838 936.613 523.838C935.728 523.838 934.998 523.594 934.423 523.108C933.87 522.621 933.582 521.825 933.56 520.719C933.096 521.692 932.321 522.477 931.237 523.075C930.154 523.65 928.959 523.937 927.654 523.937ZM927.953 521.747C929.7 521.747 931.049 521.228 932.001 520.188C932.974 519.126 933.46 517.688 933.46 515.875V515.012L927.953 515.875C925.63 516.251 924.469 517.301 924.469 519.027C924.469 519.867 924.789 520.531 925.431 521.017C926.095 521.504 926.935 521.747 927.953 521.747ZM940.538 523.672V506.451H943.093V509.869C943.735 508.719 944.575 507.823 945.615 507.181C946.677 506.518 947.849 506.186 949.132 506.186C950.327 506.186 951.377 506.44 952.284 506.949C953.213 507.436 953.932 508.133 954.441 509.039C954.972 509.946 955.237 511.008 955.237 512.225V523.672H952.682V512.623C952.682 511.428 952.317 510.444 951.587 509.67C950.88 508.896 949.895 508.509 948.634 508.509C946.975 508.509 945.637 509.194 944.62 510.566C943.602 511.915 943.093 513.762 943.093 516.107V523.672H940.538ZM964.204 523.937C962.501 523.937 961.107 523.495 960.023 522.61C958.939 521.725 958.397 520.542 958.397 519.06C958.397 517.578 958.906 516.394 959.924 515.51C960.941 514.603 962.357 514.039 964.171 513.817L968.285 513.286C969.413 513.11 969.977 512.579 969.977 511.694C969.977 510.743 969.601 509.957 968.849 509.338C968.097 508.719 967.035 508.409 965.664 508.409C964.425 508.409 963.408 508.708 962.611 509.305C961.815 509.88 961.362 510.732 961.251 511.86H958.63C958.807 510.134 959.526 508.763 960.786 507.745C962.047 506.706 963.673 506.186 965.664 506.186C967.035 506.186 968.23 506.44 969.247 506.949C970.287 507.436 971.094 508.11 971.669 508.973C972.245 509.836 972.532 510.82 972.532 511.926V520.254C972.532 520.807 972.643 521.172 972.864 521.349C973.107 521.504 973.406 521.582 973.76 521.582C973.937 521.582 974.114 521.559 974.291 521.515V523.672C974.136 523.694 973.959 523.727 973.76 523.771C973.583 523.816 973.384 523.838 973.163 523.838C972.278 523.838 971.548 523.594 970.973 523.108C970.42 522.621 970.132 521.825 970.11 520.719C969.646 521.692 968.871 522.477 967.787 523.075C966.704 523.65 965.509 523.937 964.204 523.937ZM964.503 521.747C966.25 521.747 967.599 521.228 968.551 520.188C969.524 519.126 970.01 517.688 970.01 515.875V515.012L964.503 515.875C962.18 516.251 961.019 517.301 961.019 519.027C961.019 519.867 961.339 520.531 961.981 521.017C962.644 521.504 963.485 521.747 964.503 521.747ZM984.454 530.142C982.11 530.142 980.252 529.644 978.88 528.649C977.531 527.676 976.757 526.249 976.558 524.369H979.146C979.278 525.475 979.787 526.337 980.672 526.957C981.579 527.598 982.84 527.919 984.454 527.919C986.158 527.919 987.463 527.488 988.37 526.625C989.277 525.762 989.73 524.523 989.73 522.909V520.42C989.332 521.172 988.613 521.781 987.573 522.245C986.556 522.688 985.406 522.909 984.123 522.909C982.397 522.909 980.926 522.544 979.71 521.814C978.493 521.084 977.564 520.088 976.923 518.828C976.303 517.567 975.994 516.151 975.994 514.581C975.994 512.988 976.303 511.561 976.923 510.3C977.564 509.039 978.482 508.044 979.677 507.314C980.893 506.562 982.353 506.186 984.056 506.186C985.229 506.186 986.335 506.44 987.374 506.949C988.414 507.458 989.199 508.11 989.73 508.907V506.451H992.285V522.71C992.285 525.099 991.599 526.935 990.228 528.218C988.879 529.501 986.954 530.142 984.454 530.142ZM984.289 520.619C985.992 520.619 987.352 520.077 988.37 518.993C989.409 517.887 989.929 516.416 989.929 514.581C989.929 512.745 989.409 511.274 988.37 510.168C987.352 509.039 985.992 508.475 984.289 508.475C982.585 508.475 981.214 509.039 980.174 510.168C979.157 511.274 978.648 512.745 978.648 514.581C978.648 516.416 979.157 517.887 980.174 518.993C981.214 520.077 982.585 520.619 984.289 520.619ZM998.25 515.377C998.316 517.368 998.869 518.916 999.909 520.022C1000.95 521.128 1002.3 521.681 1003.96 521.681C1005.22 521.681 1006.32 521.382 1007.27 520.785C1008.23 520.188 1008.8 519.336 1009 518.23H1011.46C1011.15 520.111 1010.29 521.537 1008.9 522.511C1007.51 523.462 1005.86 523.937 1003.96 523.937C1002.28 523.937 1000.8 523.55 999.544 522.776C998.305 521.98 997.343 520.907 996.657 519.558C995.994 518.208 995.662 516.704 995.662 515.045C995.662 513.386 995.994 511.893 996.657 510.566C997.321 509.216 998.272 508.155 999.511 507.38C1000.75 506.584 1002.21 506.186 1003.89 506.186C1005.48 506.186 1006.85 506.54 1008 507.248C1009.16 507.956 1010.04 508.918 1010.66 510.134C1011.3 511.329 1011.61 512.689 1011.59 514.216C1011.59 514.481 1011.58 514.724 1011.56 514.945C1011.53 515.145 1011.52 515.288 1011.52 515.377H998.25ZM1003.89 508.376C1002.41 508.376 1001.19 508.818 1000.24 509.703C999.29 510.566 998.681 511.738 998.416 513.22H1008.87C1008.78 511.827 1008.3 510.676 1007.44 509.769C1006.58 508.84 1005.39 508.376 1003.89 508.376ZM1024.49 508.741C1024.31 508.697 1024.07 508.652 1023.76 508.608C1023.47 508.542 1023.12 508.509 1022.7 508.509C1021.77 508.509 1020.91 508.829 1020.11 509.471C1019.33 510.09 1018.72 511.03 1018.25 512.291C1017.79 513.552 1017.55 515.145 1017.55 517.069V523.672H1015V506.451H1017.55V510.002C1017.84 509.272 1018.26 508.619 1018.82 508.044C1019.39 507.469 1020.04 507.015 1020.77 506.684C1021.5 506.352 1022.24 506.186 1023 506.186C1023.39 506.186 1023.7 506.197 1023.92 506.219C1024.15 506.241 1024.33 506.274 1024.49 506.319V508.741ZM1032.21 523.937C1030.83 523.937 1029.63 523.683 1028.59 523.174C1027.57 522.643 1026.76 521.935 1026.17 521.051C1025.59 520.144 1025.27 519.148 1025.21 518.064H1027.76C1027.83 519.016 1028.25 519.856 1029.02 520.586C1029.8 521.294 1030.86 521.648 1032.21 521.648C1033.36 521.648 1034.27 521.382 1034.96 520.852C1035.67 520.321 1036.02 519.679 1036.02 518.927C1036.02 518.153 1035.77 517.567 1035.26 517.169C1034.77 516.748 1034.14 516.439 1033.37 516.24L1030.25 515.41C1029.5 515.211 1028.79 514.945 1028.12 514.614C1027.48 514.26 1026.96 513.784 1026.57 513.187C1026.17 512.568 1025.97 511.782 1025.97 510.831C1025.97 509.482 1026.51 508.376 1027.59 507.513C1028.68 506.628 1030.09 506.186 1031.84 506.186C1033.61 506.186 1035.08 506.65 1036.25 507.58C1037.43 508.486 1038.12 509.714 1038.34 511.263H1035.76C1035.65 510.4 1035.23 509.714 1034.5 509.205C1033.79 508.674 1032.9 508.409 1031.84 508.409C1030.87 508.409 1030.08 508.63 1029.49 509.073C1028.89 509.493 1028.59 510.079 1028.59 510.831C1028.59 511.406 1028.8 511.893 1029.22 512.291C1029.64 512.667 1030.2 512.944 1030.91 513.121L1034.03 513.917C1034.87 514.116 1035.63 514.392 1036.32 514.746C1037.03 515.078 1037.59 515.576 1038.01 516.24C1038.46 516.881 1038.68 517.777 1038.68 518.927C1038.68 520.409 1038.08 521.615 1036.88 522.544C1035.71 523.473 1034.15 523.937 1032.21 523.937Z" fill="url(#paint10_linear_6640_30540)"/>
<g filter="url(#filter0_din_6640_30540)">
<path d="M629.344 436.051C632.914 432.482 637.755 430.477 642.802 430.477H1199.2C1204.25 430.477 1209.09 432.482 1212.66 436.051L1233.43 456.821C1236.99 460.39 1239 465.231 1239 470.279V482.617C1239 493.129 1230.48 501.65 1219.97 501.65H1198.53H634.919H622.032C611.521 501.65 603 493.129 603 482.617V470.279C603 465.231 605.005 460.39 608.574 456.821L629.344 436.051Z" fill="url(#paint11_linear_6640_30540)"/>
</g>
<g filter="url(#filter1_din_6640_30540)">
<path d="M1010.72 99C1015.09 99 1019.28 100.737 1022.37 103.826L1026.35 107.805C1027.96 109.413 1027.96 112.021 1026.35 113.629L1018.4 121.582C1016.79 123.19 1016.79 125.798 1018.4 127.406L1021.31 130.319C1022.92 131.927 1025.53 131.927 1027.13 130.319L1035.09 122.366C1036.7 120.757 1039.3 120.757 1040.91 122.365L1044.64 126.094C1047.73 129.183 1049.46 133.374 1049.46 137.743V315.609C1049.46 319.979 1047.73 324.169 1044.64 327.259L1040.78 331.114C1039.18 332.723 1036.57 332.723 1034.96 331.114L1027.13 323.288C1025.53 321.68 1022.92 321.68 1021.31 323.289L1018.4 326.201C1016.79 327.809 1016.79 330.417 1018.4 332.025L1026.22 339.851C1027.83 341.459 1027.83 344.067 1026.22 345.675L1022.37 349.527C1019.28 352.617 1015.09 354.353 1010.72 354.353H832.855C828.487 354.352 824.296 352.617 821.207 349.527L817.476 345.796C815.867 344.188 815.867 341.58 817.476 339.972L825.422 332.025C827.03 330.417 827.03 327.809 825.422 326.201L822.51 323.288C820.901 321.68 818.294 321.68 816.685 323.288L808.738 331.234C807.13 332.843 804.522 332.843 802.914 331.234L798.938 327.259C795.849 324.169 794.113 319.979 794.113 315.609V137.743C794.113 133.374 795.849 129.183 798.938 126.094L802.787 122.245C804.395 120.637 807.003 120.637 808.611 122.245L816.685 130.319C818.294 131.927 820.902 131.927 822.51 130.319L825.422 127.406C827.03 125.798 827.03 123.19 825.422 121.582L817.348 113.508C815.74 111.9 815.74 109.292 817.348 107.683L821.207 103.825C824.296 100.736 828.487 99 832.855 99H1010.72ZM870.306 150.486C856.658 150.487 845.595 161.551 845.595 175.198V278.162C845.595 291.81 856.658 302.874 870.306 302.874H973.271C986.918 302.874 997.981 291.81 997.981 278.162V175.198C997.981 161.551 986.918 150.486 973.271 150.486H870.306Z" fill="url(#paint12_linear_6640_30540)"/>
</g>
<rect x="845.594" y="150.484" width="152.387" height="152.387" rx="24.7114" fill="#1D1D1D"/>
<g filter="url(#filter2_din_6640_30540)">
<rect x="870.309" y="175.195" width="102.964" height="102.964" rx="4.11857" fill="url(#paint13_linear_6640_30540)"/>
</g>
<g filter="url(#filter3_di_6640_30540)">
<path d="M905.02 219.672L898.191 242.568" stroke="url(#paint14_linear_6640_30540)" stroke-width="3.95452" stroke-linecap="round"/>
<mask id="mask0_6640_30540" style="mask-type:alpha" maskUnits="userSpaceOnUse" x="901" y="211" width="51" height="31">
<mask id="path-26-inside-1_6640_30540" fill="white">
<path d="M924.699 224.292C924.699 217.085 930.542 211.242 937.749 211.242H938.562C945.769 211.242 951.612 217.085 951.612 224.292V240.036H924.699V224.292Z"/>
</mask>
<path d="M920.745 224.292C920.745 214.901 928.358 207.288 937.749 207.288H938.562C947.953 207.288 955.567 214.901 955.567 224.292H947.658C947.658 219.269 943.585 215.197 938.562 215.197H937.749C932.726 215.197 928.654 219.269 928.654 224.292H920.745ZM951.612 240.036H924.699H951.612ZM920.745 240.036V224.292C920.745 214.901 928.358 207.288 937.749 207.288V215.197C932.726 215.197 928.654 219.269 928.654 224.292V240.036H920.745ZM938.562 207.288C947.953 207.288 955.567 214.901 955.567 224.292V240.036H947.658V224.292C947.658 219.269 943.585 215.197 938.562 215.197V207.288Z" fill="white" mask="url(#path-26-inside-1_6640_30540)"/>
<ellipse cx="949.598" cy="240.031" rx="2.00842" ry="1.73455" fill="#A66CFF"/>
<mask id="path-29-inside-2_6640_30540" fill="white">
<path d="M901.805 224.292C901.805 217.085 907.647 211.242 914.855 211.242H915.668C922.875 211.242 928.718 217.085 928.718 224.292V240.036H901.805V224.292Z"/>
</mask>
<path d="M897.85 224.292C897.85 214.901 905.463 207.288 914.855 207.288H915.668C925.059 207.288 932.672 214.901 932.672 224.292H924.763C924.763 219.269 920.691 215.197 915.668 215.197H914.855C909.831 215.197 905.759 219.269 905.759 224.292H897.85ZM928.718 240.036H901.805H928.718ZM897.85 240.036V224.292C897.85 214.901 905.463 207.288 914.855 207.288V215.197C909.831 215.197 905.759 219.269 905.759 224.292V240.036H897.85ZM915.668 207.288C925.059 207.288 932.672 214.901 932.672 224.292V240.036H924.763V224.292C924.763 219.269 920.691 215.197 915.668 215.197V207.288Z" fill="#A66CFF" mask="url(#path-29-inside-2_6640_30540)"/>
<ellipse cx="926.708" cy="240.031" rx="2.00842" ry="1.73455" fill="#A66CFF"/>
</mask>
<g mask="url(#mask0_6640_30540)">
<path d="M903.364 210.203L953.709 210.743V243.152L947.532 241.607V225.648C947.532 225.648 948.046 215.351 938.265 215.351C927.968 215.351 928.708 225.648 928.708 225.648V243.152H924.593V223.028C923.213 215.547 918.389 214.666 915.531 214.478C913.496 214.345 912.181 214.491 910.41 215.547C908.937 216.426 907.181 218.219 906.669 219.288C905.44 221.854 900.168 218.657 900.168 218.657L903.364 210.203Z" fill="white"/>
</g>
<circle cx="902.806" cy="228.255" r="7.86402" stroke="white" stroke-width="3.95452"/>
</g>
<g clip-path="url(#clip1_6640_30540)">
<path d="M677.479 461.258C677.389 461.012 677.239 460.791 677.034 460.586C676.672 460.222 676.173 460.039 675.539 460.039H670.244C670.244 460.718 670.79 461.271 671.461 461.271H672.165H675.15C675.166 461.271 675.185 461.271 675.201 461.271C675.448 461.279 675.656 461.341 675.816 461.487C675.987 461.63 676.075 461.835 676.075 462.091V463.496C676.075 463.746 675.987 463.946 675.811 464.097C675.643 464.245 675.424 464.321 675.15 464.326H671.747V463.568V463.452V462.22H670.238V463.568V465.577H675.534C676.157 465.577 676.656 465.394 677.029 465.019C677.397 464.652 677.58 464.226 677.58 463.749V461.87C677.58 461.651 677.546 461.449 677.474 461.258H677.479Z" fill="white"/>
<path d="M684.281 464.326C684.265 464.326 684.252 464.326 684.236 464.329H681.352C681.086 464.323 680.867 464.25 680.694 464.099C680.524 463.948 680.436 463.749 680.436 463.498V462.706V462.142C680.436 462.142 680.449 461.279 681.379 461.271H684.396C685.166 461.271 685.854 460.778 686.107 460.039H681.139C679.292 460.039 678.922 461.287 678.922 462.134V463.73C678.922 464.215 679.103 464.641 679.474 465.016C679.855 465.388 680.348 465.572 680.963 465.572H684.59C685.083 465.563 685.505 465.404 685.848 465.094C686.099 464.871 686.259 464.612 686.325 464.318H684.276L684.281 464.326Z" fill="white"/>
<path d="M683 462.281H684.868H685.271C685.884 462.281 686.379 462.783 686.379 463.4H684.527C683.831 463.4 683.216 462.95 683 462.281Z" fill="white"/>
<path d="M688.955 463.354H691.559C692.262 463.354 692.886 462.901 693.11 462.227H687.449V465.578H693.19L693.6 464.346H688.953V463.354H688.955Z" fill="white"/>
<path d="M693.328 461.271L693.739 460.039H687.449C687.449 460.718 687.993 461.271 688.664 461.271H693.325H693.328Z" fill="white"/>
<path d="M664.553 463.354H667.156C667.86 463.354 668.484 462.901 668.707 462.227H663.047V465.578H668.787L669.198 464.346H664.55V463.354H664.553Z" fill="white"/>
<path d="M668.926 461.271L669.336 460.039H663.047C663.047 460.718 663.591 461.271 664.262 461.271H668.923H668.926Z" fill="white"/>
<path d="M687.795 467.578V473.113H686.289V467.578H687.795Z" fill="white"/>
<path d="M708.854 471.862L708.431 473.113H702.863V467.578H704.375V471.865H708.857L708.854 471.862Z" fill="white"/>
<path d="M664.828 471.638C664.658 471.487 664.57 471.288 664.57 471.037V470.52V470.245V469.681C664.57 469.681 664.583 468.821 665.508 468.813H667.954C668.724 468.813 669.409 468.317 669.66 467.578H666.382C666.345 467.578 666.313 467.584 666.281 467.586V467.578H665.276C663.429 467.578 663.059 468.826 663.059 469.673V469.759V470.428V470.692V471.269C663.059 471.754 663.242 472.18 663.613 472.552C663.994 472.927 664.487 473.111 665.105 473.111H667.544C668.319 473.111 669.01 472.606 669.252 471.86H665.492C665.225 471.854 665.007 471.779 664.831 471.63L664.828 471.638Z" fill="white"/>
<path d="M675.975 473.113H677.72L674.418 467.578H672.747L669.445 473.113H671.17L671.753 472.116H672.617C673.288 472.116 673.832 471.563 673.832 470.884H672.473L673.563 469.015L675.977 473.113H675.975Z" fill="white"/>
<path d="M700.459 473.113H702.205L698.903 467.578H697.232L693.93 473.113H695.654L696.237 472.116H697.101C697.773 472.116 698.317 471.563 698.317 470.884H696.957L698.047 469.015L700.462 473.113H700.459Z" fill="white"/>
<path d="M695.461 467.578H690.04C689.366 467.578 688.819 468.128 688.816 468.81H691.276V473.113H692.785V468.81H694.24C694.914 468.81 695.461 468.26 695.463 467.578H695.461Z" fill="white"/>
<path d="M683.144 467.578H678.374C678.374 468.258 678.917 468.81 679.589 468.81H679.89H683.024C683.211 468.81 683.587 468.824 683.587 469.29C683.587 469.757 683.229 469.757 683 469.757H679.893H678.371V473.116H679.879V470.986H683.144C683.869 470.986 685.116 470.97 685.116 469.244C685.116 467.802 683.914 467.581 683.144 467.581V467.578Z" fill="white"/>
<path fill-rule="evenodd" clip-rule="evenodd" d="M660.282 473.116H654.709C654.45 473.116 654.211 472.979 654.08 472.752L653.062 470.997L648.84 463.723L644.619 470.994H647.988C649.493 470.994 650.887 471.801 651.649 473.114H643.39H642.242C641.68 473.114 641.328 472.493 641.613 472.003L648.212 460.636C648.494 460.151 649.187 460.151 649.469 460.636L650.05 461.639L655.482 470.997H657.902L653.68 463.726C652.934 462.437 652.934 460.841 653.68 459.555L660.908 472.008C661.193 472.499 660.844 473.119 660.279 473.119L660.282 473.116Z" fill="white"/>
</g>
<g clip-path="url(#clip2_6640_30540)">
<g clip-path="url(#clip3_6640_30540)">
<path d="M748.544 470.695V461.031H750.746V470.695H748.544ZM791.334 467.085C791.334 464.749 789.522 463.3 787.401 463.3C785.267 463.3 783.469 464.763 783.469 467.085C783.469 469.42 785.281 470.883 787.401 470.883C789.522 470.883 791.334 469.407 791.334 467.085ZM789.16 467.085C789.16 468.306 788.341 468.991 787.388 468.991C786.435 468.991 785.616 468.306 785.616 467.085C785.616 465.85 786.435 465.192 787.388 465.192C788.341 465.192 789.16 465.85 789.16 467.085ZM747.659 467.917C747.659 466.83 747.095 465.997 746.088 465.622C747.041 465.098 747.377 464.414 747.377 463.608C747.377 462.199 746.357 461.031 744.075 461.045H739.699V470.709H744.263C746.558 470.695 747.659 469.554 747.659 467.917ZM745.041 463.89C745.041 464.548 744.625 464.924 743.82 464.924H741.994V462.91H743.82C744.558 462.91 745.041 463.232 745.041 463.89ZM745.243 467.769C745.243 468.4 744.8 468.816 743.981 468.816H741.994V466.722H743.981C744.773 466.722 745.243 467.125 745.243 467.769ZM766.825 465.273C766.221 464.011 765.094 463.313 763.389 463.313C761.376 463.313 759.577 464.575 759.577 467.085C759.577 469.527 761.161 470.883 763.362 470.883C764.906 470.883 766.208 470.266 766.825 468.937L765.053 468.024C764.731 468.615 764.235 468.991 763.443 468.991C762.423 468.991 761.765 468.266 761.765 467.085C761.765 465.903 762.517 465.192 763.429 465.192C764.141 465.192 764.678 465.514 765.013 466.212L766.825 465.273ZM799.266 465.273C798.662 464.011 797.535 463.313 795.83 463.313C793.817 463.313 792.018 464.575 792.018 467.085C792.018 469.527 793.602 470.883 795.803 470.883C797.347 470.883 798.649 470.266 799.266 468.937L797.495 468.024C797.172 468.615 796.676 468.991 795.884 468.991C794.864 468.991 794.206 468.266 794.206 467.085C794.206 465.903 794.958 465.192 795.871 465.192C796.582 465.192 797.119 465.514 797.454 466.212L799.266 465.273ZM780.811 470.695L778.972 467.447H777.563V470.695H775.295V461.031H779.388C781.603 461.031 783.146 462.092 783.146 464.172C783.146 465.501 782.489 466.44 781.321 467.017L783.442 470.695H780.811ZM777.576 465.528H779.267C780.314 465.528 780.824 464.937 780.824 464.239C780.824 463.407 780.341 462.951 779.267 462.951H777.576V465.528ZM759.215 470.574V469.058C759.121 469.084 758.987 469.111 758.839 469.111C758.557 469.111 758.41 468.964 758.41 468.709V466.199C758.41 464.32 757.148 463.326 755.067 463.326C753.712 463.326 752.558 463.823 751.833 464.467L753.054 465.836C753.537 465.407 754.182 465.138 754.812 465.138C755.779 465.138 756.235 465.622 756.235 466.413V466.642C755.779 466.534 755.202 466.427 754.504 466.427C752.745 466.427 751.605 467.273 751.605 468.668C751.605 470.105 752.558 470.856 754.034 470.856C755.041 470.856 755.94 470.44 756.41 469.903C756.692 470.615 757.309 470.803 757.913 470.803C758.329 470.816 758.812 470.749 759.215 470.574ZM756.249 468.306C756.249 468.964 755.618 469.393 754.893 469.393C754.208 469.393 753.873 469.044 753.873 468.561C753.873 468.051 754.249 467.675 755.014 467.675C755.484 467.675 755.9 467.756 756.249 467.836V468.306ZM807.132 470.695L804.541 466.199L806.971 463.555H804.528L801.964 466.4V461.045H799.776V470.709H801.964V468.964L803.011 467.85L804.649 470.709H807.132V470.695ZM774.717 470.695L772.127 466.199L774.556 463.555H772.087L769.55 466.4V461.045H767.362V470.709H769.55V468.964L770.597 467.85L772.234 470.709H774.717V470.695Z" fill="white"/>
</g>
</g>
<g clip-path="url(#clip4_6640_30540)">
<path d="M837.746 462.88H838.223V463.959C838.223 464.115 838.207 464.271 838.176 464.425H838.199C838.483 463.551 839.118 462.836 840.015 462.836C840.125 462.837 840.235 462.848 840.343 462.869V463.347C840.257 463.333 840.17 463.325 840.083 463.324C839.198 463.324 838.641 464.075 838.393 464.912C838.277 465.299 838.22 465.7 838.223 466.104V468.555H837.746V462.88Z" fill="white"/>
<path d="M846.808 462.75C847.195 462.747 847.578 462.821 847.936 462.968C848.294 463.115 848.619 463.331 848.892 463.605C849.166 463.878 849.382 464.203 849.529 464.561C849.676 464.919 849.75 465.302 849.747 465.689C849.757 466.081 849.688 466.472 849.545 466.837C849.402 467.202 849.187 467.535 848.913 467.816C848.639 468.097 848.312 468.32 847.95 468.473C847.588 468.625 847.2 468.704 846.808 468.704C846.415 468.704 846.027 468.625 845.665 468.473C845.304 468.32 844.976 468.097 844.702 467.816C844.428 467.535 844.213 467.202 844.07 466.837C843.927 466.472 843.858 466.081 843.868 465.689C843.865 465.302 843.94 464.919 844.086 464.561C844.233 464.203 844.45 463.878 844.723 463.604C844.997 463.331 845.322 463.115 845.68 462.968C846.038 462.821 846.421 462.747 846.808 462.75ZM846.808 468.231C847.136 468.228 847.46 468.159 847.762 468.029C848.063 467.898 848.335 467.709 848.562 467.473C848.79 467.236 848.967 466.956 849.085 466.65C849.203 466.344 849.259 466.017 849.249 465.689C849.249 465.042 848.991 464.421 848.534 463.963C848.076 463.506 847.455 463.248 846.808 463.248C846.161 463.248 845.54 463.506 845.082 463.963C844.625 464.421 844.367 465.042 844.367 465.689C844.357 466.017 844.413 466.344 844.531 466.65C844.649 466.956 844.826 467.236 845.054 467.473C845.281 467.709 845.553 467.898 845.854 468.029C846.156 468.159 846.48 468.228 846.808 468.231Z" fill="white"/>
<path d="M856.692 462.751C857.068 462.739 857.442 462.804 857.792 462.943C858.141 463.082 858.459 463.291 858.724 463.557L858.429 463.943C857.968 463.481 857.344 463.22 856.692 463.217C856.04 463.237 855.422 463.509 854.968 463.978C854.514 464.446 854.26 465.072 854.26 465.724C854.26 466.377 854.514 467.003 854.968 467.471C855.422 467.939 856.04 468.212 856.692 468.232C857.048 468.239 857.401 468.169 857.728 468.028C858.054 467.888 858.347 467.679 858.587 467.416L858.837 467.813C858.56 468.1 858.226 468.327 857.857 468.48C857.488 468.632 857.091 468.706 856.692 468.698C856.302 468.709 855.913 468.639 855.551 468.494C855.189 468.348 854.86 468.13 854.586 467.852C854.311 467.575 854.097 467.244 853.955 466.88C853.814 466.516 853.749 466.127 853.764 465.736C853.75 465.346 853.816 464.956 853.958 464.591C854.099 464.227 854.314 463.895 854.587 463.616C854.861 463.336 855.189 463.116 855.551 462.967C855.913 462.819 856.301 462.745 856.692 462.751Z" fill="white"/>
<path d="M863.262 460.617H863.739V465.123H864.748L866.587 462.887H867.211L865.157 465.328V465.351L867.404 468.562H866.802L864.748 465.566H863.739V468.562H863.262V460.617Z" fill="white"/>
<path d="M874.594 465.099H874.97V464.906C874.97 463.647 874.323 463.217 873.415 463.217C872.829 463.215 872.259 463.406 871.792 463.761L871.52 463.376C872.067 462.95 872.745 462.729 873.438 462.752C874.743 462.752 875.447 463.478 875.447 464.896V468.561H874.969V467.813C874.968 467.642 874.984 467.47 875.016 467.302H874.994C874.838 467.705 874.566 468.053 874.213 468.302C873.859 468.55 873.44 468.688 873.008 468.698C872.088 468.698 871.078 468.188 871.078 467.053C871.076 465.122 873.584 465.099 874.594 465.099ZM873.028 468.254C874.265 468.254 874.969 466.972 874.969 465.848V465.542H874.608C873.643 465.542 871.578 465.542 871.578 467.017C871.586 467.195 871.631 467.37 871.71 467.53C871.789 467.691 871.9 467.833 872.035 467.949C872.171 468.065 872.33 468.152 872.5 468.204C872.671 468.257 872.851 468.274 873.028 468.254Z" fill="white"/>
<path d="M879.434 462.898H879.944L881.487 467.347C881.581 467.619 881.681 467.96 881.681 467.96H881.703C881.703 467.96 881.806 467.619 881.897 467.347L883.451 462.921H883.985L885.539 467.347C885.631 467.619 885.733 467.96 885.733 467.96H885.755C885.755 467.96 885.846 467.632 885.948 467.347L887.491 462.898H888.002L886.005 468.572H885.494L883.917 464.17C883.814 463.898 883.723 463.556 883.723 463.556H883.701C883.701 463.556 883.61 463.898 883.508 464.17L881.942 468.572H881.431L879.434 462.898Z" fill="white"/>
<path d="M895.133 465.099H895.508V464.906C895.508 463.647 894.861 463.217 893.953 463.217C893.367 463.215 892.797 463.407 892.33 463.761L892.057 463.376C892.604 462.95 893.283 462.729 893.976 462.752C895.281 462.752 895.984 463.478 895.984 464.896V468.561H895.508V467.813C895.507 467.642 895.523 467.471 895.555 467.302H895.533C895.378 467.705 895.106 468.053 894.752 468.302C894.398 468.55 893.979 468.688 893.547 468.698C892.628 468.698 891.617 468.188 891.617 467.053C891.614 465.122 894.122 465.099 895.133 465.099ZM893.566 468.254C894.804 468.254 895.507 466.972 895.507 465.848V465.542H895.144C894.179 465.542 892.113 465.542 892.113 467.017C892.122 467.195 892.167 467.37 892.246 467.531C892.325 467.691 892.436 467.834 892.572 467.95C892.708 468.066 892.866 468.152 893.037 468.205C893.208 468.257 893.389 468.274 893.566 468.254Z" fill="white"/>
<path d="M900.043 470.23C900.243 470.393 900.49 470.488 900.747 470.502C901.292 470.502 901.632 470.015 901.859 469.481L902.268 468.539L899.919 462.898H900.43L902.302 467.427C902.415 467.699 902.507 467.96 902.507 467.96H902.529C902.529 467.96 902.609 467.699 902.723 467.427L904.595 462.898H905.105L902.189 469.901C902.086 470.203 901.892 470.467 901.634 470.656C901.377 470.844 901.067 470.949 900.747 470.956C900.415 470.953 900.092 470.841 899.828 470.639L900.043 470.23Z" fill="white"/>
</g>
<g clip-path="url(#clip5_6640_30540)">
<g clip-path="url(#clip6_6640_30540)">
<path d="M945.906 465.805C945.906 461.965 948.303 460.039 951.258 460.039C954.211 460.039 956.607 461.965 956.607 465.805C956.607 469.654 954.211 471.571 951.258 471.571C948.303 471.571 945.906 469.673 945.906 465.805ZM951.258 470.109C952.714 470.109 953.895 468.584 953.895 465.805C953.895 463.051 952.714 461.501 951.258 461.501C949.8 461.501 948.615 463.051 948.615 465.805C948.615 468.568 949.8 470.109 951.258 470.109Z" fill="white"/>
<path d="M935.527 460.453V471.142H937.387V463.961L943.121 471.142H944.684V460.453H942.916V466.345L938.151 460.453H935.527Z" fill="white"/>
<path d="M995.371 460.453L991.035 471.142H992.908L994.101 468.202H998.039L999.248 471.142H1002.29L997.906 460.453H995.371ZM994.707 466.667L996.062 463.317L997.42 466.667H994.707Z" fill="white"/>
<path d="M977.932 467.457C977.882 468.436 977.806 469.405 976.723 469.768C976.24 469.926 975.352 469.923 974.85 469.724C974.61 469.626 974.462 469.544 974.276 469.358C973.916 469.001 973.77 468.243 973.758 467.75V460.453H970.973V467.457C970.998 468.423 971.156 469.395 971.784 470.175C972.861 471.514 974.841 471.704 976.442 471.505C977.436 471.382 978.308 471.053 979.009 470.321C979.492 469.815 979.792 469.02 979.877 468.335C979.931 467.937 979.937 467.87 979.937 467.457V460.453H977.932L977.932 467.457Z" fill="white"/>
<path d="M984.503 461.959C985.731 461.959 986.95 461.751 987.484 463.027C987.692 463.532 987.708 464.675 987.215 465.161C986.631 465.739 985.734 465.796 984.961 465.862L987.822 471.142H990.755L988.159 466.434C989.707 465.891 990.433 465.016 990.357 463.345C990.275 461.543 988.75 460.453 987.01 460.453H981.73V471.142H984.503V461.959Z" fill="white"/>
<path d="M966.447 471.142L962.32 460.453H960.151L956.141 471.142H958.089L960.785 463.917L963.526 471.142H966.447Z" fill="white"/>
<path d="M966.575 460.453H964.305L963.613 462.281L964.598 464.839L964.955 463.917L967.623 471.142H970.705L966.575 460.453Z" fill="white"/>
<path d="M961.523 467.422L960.137 471.151H961.908L962.423 469.746L961.523 467.422Z" fill="white"/>
</g>
</g>
<g clip-path="url(#clip7_6640_30540)">
<g clip-path="url(#clip8_6640_30540)">
<path d="M1044.57 469.043V462.557H1047.83C1049.1 462.557 1049.87 462.174 1050.05 462.07V464.057H1046.4V465.61H1049.82V467.127H1046.45V469.043H1044.57Z" fill="white"/>
<path d="M1060.73 469.193C1059.39 469.193 1058.49 468.928 1057.98 468.383C1057.59 467.968 1057.43 467.402 1057.48 466.649H1059.3C1059.28 467.03 1059.34 467.291 1059.51 467.47C1059.71 467.698 1060.08 467.791 1060.73 467.791C1061.57 467.791 1061.93 467.603 1061.93 467.163C1061.93 466.655 1061.16 466.534 1060.48 466.427C1060.36 466.407 1060.24 466.389 1060.13 466.369C1058.76 466.126 1057.53 465.793 1057.53 464.4C1057.53 463.123 1058.67 462.391 1060.64 462.391C1062.82 462.391 1063.52 463.415 1063.71 463.87L1062.66 465.36C1062.66 465.326 1062.65 465.293 1062.64 465.26C1062.41 464.199 1061.25 463.803 1060.56 463.803C1059.84 463.803 1059.47 463.972 1059.47 464.307C1059.47 464.712 1059.96 464.806 1060.63 464.937L1061.03 465.017C1061.65 465.143 1062.23 465.309 1062.51 465.397C1062.56 465.411 1062.74 465.48 1062.78 465.5C1063.57 465.842 1063.92 466.336 1063.92 467.093C1063.92 468.92 1061.92 469.193 1060.73 469.193Z" fill="white"/>
<path d="M1076.39 469.042L1073.49 465.093V465.181C1073.51 465.543 1073.52 465.906 1073.52 466.319V469.042H1071.75V462.556H1073.61L1076.51 466.455V466.371C1076.49 465.956 1076.48 465.562 1076.48 465.199V462.547H1078.25V469.033L1076.39 469.042Z" fill="white"/>
<path d="M1069.45 469.041L1069.07 468.086H1066.2L1065.82 469.041H1063.97L1066.63 462.555H1068.71L1071.38 469.041H1069.45ZM1066.75 466.678H1068.52L1067.62 464.412L1066.75 466.678Z" fill="white"/>
<path d="M1084.01 469.041L1083.62 468.086H1080.75L1080.39 469.041H1078.51L1081.18 462.555H1083.26L1085.93 469.041H1084.01ZM1081.29 466.678H1083.07L1082.17 464.412L1081.29 466.678Z" fill="white"/>
<path d="M1098.15 469.041L1097.76 468.086H1094.89L1094.51 469.041H1092.65L1095.31 462.555H1097.41L1100.08 469.041H1098.15ZM1095.42 466.678H1097.21L1096.31 464.403L1095.42 466.678ZM1090.66 469.041L1089.43 466.783H1088.02V469.041H1086.2V464.375C1086.2 463.351 1085.8 462.712 1085.68 462.555H1089.25C1091.27 462.555 1092.25 463.228 1092.25 464.616C1092.25 466.357 1090.15 466.708 1089.73 466.761H1089.71V466.811H1091.35L1092.58 469.041H1090.66ZM1088.02 465.485H1089.03C1089.79 465.485 1090.2 465.305 1090.3 464.924C1090.32 464.854 1090.33 464.783 1090.33 464.711C1090.33 464.591 1090.3 464.473 1090.24 464.37C1090.18 464.266 1090.09 464.183 1089.98 464.127C1089.71 463.995 1089.41 463.933 1089.11 463.947H1088.02V465.485Z" fill="white"/>
<path d="M1055.52 469.041L1055.12 468.086H1052.26L1051.89 469.041H1050.01L1052.68 462.555H1054.77L1057.43 469.041H1055.52ZM1052.8 466.678H1054.57L1053.67 464.412L1052.8 466.678Z" fill="white"/>
<path d="M1040.02 471.101C1037.05 468.97 1036.69 464.481 1039.72 462.258C1038.67 462.306 1037.99 462.631 1037.82 462.731C1036.88 464.189 1036.66 466.129 1037.23 467.794C1037.54 468.697 1038.05 469.521 1038.71 470.205C1039.38 470.889 1040.19 471.416 1041.08 471.749C1040.7 471.57 1040.35 471.353 1040.02 471.101Z" fill="white"/>
<path d="M1038.79 468.224C1038.58 467.492 1038.54 466.484 1038.83 465.625H1038.12C1037.96 467.03 1038.41 468.627 1039.32 469.554C1039.08 469.136 1038.91 468.689 1038.79 468.224Z" fill="white"/>
<path d="M1037.66 458.186C1033.41 461.279 1032.89 467.691 1036.57 471.407C1039.53 474.585 1044.82 474.974 1048.2 472.272C1043.19 475.836 1035.87 472.884 1035.11 466.685C1034.49 462.197 1038.09 457.945 1042.68 458.091L1043.84 456.464C1041.64 456.25 1039.43 456.864 1037.66 458.186Z" fill="white"/>
<path d="M1042.45 458.414C1038.85 458.445 1035.77 461.437 1035.57 465.014C1035.11 469.76 1039.79 473.858 1044.43 472.946C1039.75 473.597 1035.26 468.963 1036.66 464.321C1037.25 462.159 1039.09 460.398 1041.3 460.039L1042.45 458.414Z" fill="white"/>
<path d="M1050.68 470.745C1045.38 478.166 1033.7 474.562 1033.63 465.397C1033.63 462.518 1035.03 459.702 1037.36 458.001V456.5C1032.12 459.892 1031.12 467.423 1035.41 471.975C1039.72 476.619 1047.07 476.022 1050.76 470.934L1050.68 470.745Z" fill="white"/>
</g>
</g>
<path d="M1140.77 468.517C1140.77 468.038 1140.71 467.865 1140.07 467.788L1139.48 467.712V467.539C1140.15 467.539 1140.71 467.558 1141.4 467.558C1142.06 467.558 1142.62 467.539 1143.29 467.539V467.712L1142.7 467.788C1142.08 467.884 1142 468.057 1142 468.517V474.022C1142 474.501 1142.06 474.674 1142.7 474.75L1143.29 474.827V475C1142.62 475 1142.06 474.981 1141.4 474.981C1140.73 474.981 1140.17 475 1139.48 475V474.827L1140.07 474.75C1140.69 474.655 1140.77 474.482 1140.77 474.022V471.298H1137.22V474.022C1137.22 474.501 1137.28 474.674 1137.92 474.75L1138.49 474.827V475C1137.83 475 1137.26 474.981 1136.6 474.981C1135.94 474.981 1135.37 475 1134.71 475V474.827L1135.29 474.75C1135.92 474.655 1135.99 474.482 1135.99 474.022V468.517C1135.99 468.038 1135.94 467.865 1135.29 467.788L1134.71 467.712V467.539C1135.37 467.539 1135.94 467.558 1136.6 467.558C1137.26 467.558 1137.83 467.539 1138.49 467.539V467.712L1137.92 467.788C1137.3 467.884 1137.22 468.057 1137.22 468.517V471.068H1140.77V468.517Z" fill="white"/>
<path d="M1149.69 475.158C1147.6 475.158 1145.89 473.623 1145.89 471.264C1145.91 468.886 1147.6 467.352 1149.69 467.352C1151.78 467.352 1153.47 468.886 1153.47 471.264C1153.47 473.623 1151.78 475.158 1149.69 475.158ZM1149.69 475.004C1151.39 475.004 1152.07 473.316 1152.07 471.264C1152.07 469.212 1151.41 467.524 1149.69 467.524C1147.93 467.524 1147.29 469.212 1147.29 471.264C1147.29 473.316 1147.95 475.004 1149.69 475.004Z" fill="white"/>
<path d="M1157 468.869C1156.73 468.063 1156.51 467.814 1156.01 467.756L1155.6 467.699V467.526C1156.24 467.545 1156.88 467.545 1157.53 467.545C1158.17 467.545 1158.8 467.545 1159.46 467.526V467.699L1158.82 467.776C1158.19 467.852 1158.11 468.217 1158.25 468.639L1159.75 473.51L1161.51 467.469H1162.09L1164.12 473.51L1165.37 469.367C1165.74 468.159 1165.48 467.91 1164.76 467.776L1164.27 467.68V467.526C1164.78 467.545 1165.27 467.545 1165.78 467.545C1166.26 467.545 1166.77 467.545 1167.26 467.526V467.699L1166.87 467.795C1166.21 467.929 1165.95 468.293 1165.6 469.463L1164.31 473.683L1163.94 475.064H1163.38L1161.31 469.041L1159.97 473.644L1159.6 475.045H1159.03L1157 468.869Z" fill="white"/>
<path d="M1174.49 474.987C1173.87 474.987 1173.32 475.006 1172.7 475.006V474.834L1173.34 474.757C1173.94 474.68 1173.92 474.373 1173.73 473.894L1173.22 472.59H1170.28L1170.04 473.184C1169.61 474.277 1169.61 474.603 1170.38 474.738L1170.94 474.834V475.006C1170.45 475.006 1170.08 474.987 1169.6 474.987C1169.11 474.987 1168.66 475.006 1168.17 475.006V474.834L1168.54 474.738C1169.13 474.584 1169.36 474.277 1169.81 473.088L1171.53 468.735L1171.97 467.469H1172.56L1175 473.644C1175.33 474.488 1175.47 474.718 1175.93 474.776L1176.32 474.834V475.006C1175.64 475.006 1175.11 474.987 1174.49 474.987ZM1170.36 472.34H1173.12L1171.74 468.754L1170.36 472.34Z" fill="white"/>
<path d="M1184.72 475.019C1184.02 475.019 1183.94 474.866 1183.69 474.386L1182.17 471.471C1182.07 471.49 1181.99 471.49 1181.92 471.49C1181.6 471.49 1181.31 471.471 1181.08 471.471V474.041C1181.08 474.52 1181.14 474.693 1181.78 474.77L1182.36 474.846V475.019C1181.7 475.019 1181.14 475 1180.47 475C1179.81 475 1179.25 475.019 1178.56 475.019V474.846L1179.15 474.77C1179.77 474.674 1179.85 474.501 1179.85 474.041V468.517C1179.85 468.038 1179.79 467.865 1179.15 467.788L1178.56 467.712V467.539H1181.86C1183.85 467.539 1185.11 468.076 1185.11 469.495C1185.11 470.569 1184.16 471.106 1183.26 471.279C1183.4 471.452 1183.57 471.682 1183.77 472.027L1184.78 473.83C1185.13 474.463 1185.27 474.655 1185.78 474.77L1186.19 474.866V475.038H1184.72V475.019ZM1181.08 471.26C1181.39 471.279 1181.64 471.279 1181.94 471.279C1183.16 471.279 1183.79 470.78 1183.79 469.515C1183.79 468.134 1183.15 467.712 1181.86 467.712H1181.08V471.26Z" fill="white"/>
<path d="M1188.88 474.827L1189.46 474.75C1190.09 474.655 1190.17 474.482 1190.17 474.022V468.517C1190.17 468.038 1190.11 467.865 1189.46 467.788L1188.88 467.712V467.539H1192.37C1194.49 467.539 1196.44 468.594 1196.44 471.279C1196.44 473.964 1194.49 475.019 1192.35 475.019H1188.86V474.827H1188.88ZM1192.35 474.808C1194.07 474.808 1195.02 473.811 1195.02 471.279C1195.02 468.709 1194.03 467.731 1192.35 467.731H1191.37V474.156C1191.37 474.616 1191.57 474.808 1192.08 474.808H1192.35Z" fill="white"/>
<path d="M1137.15 463.983L1137.73 463.907C1138.36 463.811 1138.44 463.638 1138.44 463.178V457.673C1138.44 457.194 1138.38 457.021 1137.73 456.945L1137.15 456.868V456.695H1140.6C1142.04 456.695 1143.49 457.098 1143.49 458.421C1143.49 459.476 1142.53 460.033 1141.22 460.205V460.243C1142.78 460.339 1143.84 460.857 1143.84 462.065C1143.84 463.446 1142.61 464.156 1140.72 464.156H1137.15V463.983ZM1140.46 460.148C1141.69 460.148 1142.16 459.572 1142.16 458.421C1142.16 457.175 1141.61 456.887 1140.48 456.887H1139.66V460.148H1140.46ZM1139.66 463.312C1139.66 463.772 1139.86 463.964 1140.37 463.964H1140.68C1141.85 463.964 1142.41 463.427 1142.41 462.065C1142.41 460.8 1141.69 460.339 1140.44 460.339H1139.66V463.312Z" fill="white"/>
<path d="M1153.56 464.175C1152.86 464.175 1152.78 464.022 1152.53 463.542L1151.01 460.627C1150.91 460.646 1150.83 460.646 1150.76 460.646C1150.44 460.646 1150.15 460.627 1149.92 460.627V463.197C1149.92 463.677 1149.98 463.849 1150.62 463.926L1151.2 464.003V464.175C1150.54 464.175 1149.98 464.156 1149.31 464.156C1148.65 464.156 1148.08 464.175 1147.4 464.175V464.003L1147.99 463.926C1148.61 463.83 1148.69 463.657 1148.69 463.197V457.673C1148.69 457.194 1148.63 457.021 1147.99 456.945L1147.4 456.868V456.695H1150.7C1152.69 456.695 1153.95 457.232 1153.95 458.652C1153.95 459.726 1153 460.263 1152.1 460.435C1152.24 460.608 1152.41 460.838 1152.61 461.183L1153.62 462.986C1153.97 463.619 1154.11 463.811 1154.62 463.926L1155.03 464.022V464.194H1153.56V464.175ZM1149.92 460.416C1150.23 460.435 1150.48 460.435 1150.78 460.435C1152 460.435 1152.63 459.937 1152.63 458.671C1152.63 457.29 1151.98 456.868 1150.7 456.868H1149.92V460.416Z" fill="white"/>
<path d="M1161.23 460.205C1161.95 460.205 1162.19 459.726 1162.56 458.556H1162.75C1162.73 459.131 1162.73 459.726 1162.73 460.301C1162.73 460.876 1162.73 461.471 1162.75 462.046H1162.56C1162.15 460.8 1161.95 460.378 1161.23 460.378H1160.41V463.293C1160.41 463.753 1160.61 463.945 1161.12 463.945H1161.84C1163.14 463.945 1163.46 463.466 1164.2 461.528H1164.43L1164.31 464.137H1157.92V463.964L1158.5 463.888C1159.13 463.792 1159.2 463.619 1159.2 463.159V457.673C1159.2 457.194 1159.15 457.021 1158.5 456.945L1157.92 456.868V456.695H1163.98L1164.1 459.093H1163.87C1163.2 457.405 1162.87 456.906 1161.78 456.906H1160.43V460.224H1161.23V460.205Z" fill="white"/>
<path d="M1168.66 458.057C1168.35 457.213 1168.11 456.983 1167.62 456.925L1167.21 456.868V456.695C1167.86 456.714 1168.5 456.714 1169.15 456.714C1169.79 456.714 1170.41 456.714 1171.08 456.695V456.868L1170.43 456.945C1169.83 457.021 1169.77 457.328 1169.94 457.808L1171.82 462.909L1173.45 458.517C1173.86 457.443 1173.77 457.079 1173.01 456.945L1172.44 456.868V456.695C1172.95 456.714 1173.44 456.714 1173.92 456.714C1174.43 456.714 1174.92 456.714 1175.42 456.695V456.868L1175 456.983C1174.35 457.117 1174.12 457.462 1173.65 458.632L1171.99 462.948L1171.54 464.214H1171.02L1168.66 458.057Z" fill="white"/>
<path d="M1182.24 464.151C1181.62 464.151 1181.07 464.17 1180.45 464.17V463.998L1181.09 463.921C1181.7 463.844 1181.68 463.537 1181.48 463.058L1180.98 461.754H1178.03L1177.8 462.348C1177.37 463.441 1177.37 463.768 1178.13 463.902L1178.69 463.998V464.17C1178.21 464.17 1177.84 464.151 1177.35 464.151C1176.86 464.151 1176.41 464.17 1175.93 464.17V463.998L1176.3 463.902C1176.88 463.748 1177.12 463.441 1177.56 462.252L1179.28 457.899L1179.73 456.633H1180.31L1182.75 462.809C1183.08 463.652 1183.22 463.883 1183.69 463.94L1184.08 463.998V464.17C1183.41 464.17 1182.89 464.151 1182.24 464.151ZM1178.11 461.504H1180.88L1179.49 457.918L1178.11 461.504Z" fill="white"/>
<path d="M1187.9 457.597V462.583C1187.9 463.542 1188.1 463.811 1188.7 463.907L1189.17 463.983V464.156C1188.66 464.156 1188.27 464.137 1187.77 464.137C1187.26 464.137 1186.85 464.156 1186.36 464.156V463.983L1186.83 463.907C1187.46 463.811 1187.65 463.523 1187.65 462.583V457.673C1187.65 457.194 1187.59 457.021 1186.95 456.945L1186.36 456.868V456.695H1188.8L1192.88 462.603V458.268C1192.88 457.309 1192.68 457.041 1192.06 456.945L1191.59 456.868V456.695C1192.1 456.695 1192.51 456.714 1192.99 456.714C1193.5 456.714 1193.89 456.695 1194.4 456.695V456.868L1193.93 456.945C1193.32 457.041 1193.13 457.309 1193.13 458.268V464.194H1192.43L1187.9 457.597Z" fill="white"/>
</g>
<defs>
<filter id="filter0_din_6640_30540" x="562.144" y="393.739" width="717.713" height="152.884" filterUnits="userSpaceOnUse" color-interpolation-filters="sRGB">
<feFlood flood-opacity="0" result="BackgroundImageFix"/>
<feColorMatrix in="SourceAlpha" type="matrix" values="0 0 0 0 0 0 0 0 0 0 0 0 0 0 0 0 0 0 127 0" result="hardAlpha"/>
<feOffset dy="4.11857"/>
<feGaussianBlur stdDeviation="20.4281"/>
<feComposite in2="hardAlpha" operator="out"/>
<feColorMatrix type="matrix" values="0 0 0 0 0 0 0 0 0 0 0 0 0 0 0 0 0 0 0.4 0"/>
<feBlend mode="normal" in2="BackgroundImageFix" result="effect1_dropShadow_6640_30540"/>
<feBlend mode="normal" in="SourceGraphic" in2="BackgroundImageFix" result="shape"/>
<feColorMatrix in="SourceAlpha" type="matrix" values="0 0 0 0 0 0 0 0 0 0 0 0 0 0 0 0 0 0 127 0" result="hardAlpha"/>
<feOffset dy="-3.08893"/>
<feGaussianBlur stdDeviation="0.411857"/>
<feComposite in2="hardAlpha" operator="arithmetic" k2="-1" k3="1"/>
<feColorMatrix type="matrix" values="0 0 0 0 0 0 0 0 0 0 0 0 0 0 0 0 0 0 0.25 0"/>
<feBlend mode="normal" in2="shape" result="effect2_innerShadow_6640_30540"/>
<feTurbulence type="fractalNoise" baseFrequency="9.7121000289916992 9.7121000289916992" stitchTiles="stitch" numOctaves="3" result="noise" seed="5938" />
<feColorMatrix in="noise" type="luminanceToAlpha" result="alphaNoise" />
<feComponentTransfer in="alphaNoise" result="coloredNoise1">
<feFuncA type="discrete" tableValues="1 1 1 1 1 1 1 1 1 1 1 1 1 1 1 1 1 1 1 1 1 1 1 1 1 1 1 1 1 1 1 1 1 1 1 1 1 1 1 1 1 1 1 1 1 1 1 1 1 1 1 0 0 0 0 0 0 0 0 0 0 0 0 0 0 0 0 0 0 0 0 0 0 0 0 0 0 0 0 0 0 0 0 0 0 0 0 0 0 0 0 0 0 0 0 0 0 0 0 0 "/>
</feComponentTransfer>
<feComposite operator="in" in2="effect2_innerShadow_6640_30540" in="coloredNoise1" result="noise1Clipped" />
<feFlood flood-color="rgba(0, 0, 0, 0.35)" result="color1Flood" />
<feComposite operator="in" in2="noise1Clipped" in="color1Flood" result="color1" />
<feMerge result="effect3_noise_6640_30540">
<feMergeNode in="effect2_innerShadow_6640_30540" />
<feMergeNode in="color1" />
</feMerge>
<feBlend mode="normal" in="effect3_noise_6640_30540" in2="effect1_dropShadow_6640_30540" result="effect3_noise_6640_30540"/>
</filter>
<filter id="filter1_din_6640_30540" x="740.572" y="49.5771" width="362.434" height="362.434" filterUnits="userSpaceOnUse" color-interpolation-filters="sRGB">
<feFlood flood-opacity="0" result="BackgroundImageFix"/>
<feColorMatrix in="SourceAlpha" type="matrix" values="0 0 0 0 0 0 0 0 0 0 0 0 0 0 0 0 0 0 127 0" result="hardAlpha"/>
<feOffset dy="4.11857"/>
<feGaussianBlur stdDeviation="26.7707"/>
<feComposite in2="hardAlpha" operator="out"/>
<feColorMatrix type="matrix" values="0 0 0 0 0 0 0 0 0 0 0 0 0 0 0 0 0 0 0.55 0"/>
<feBlend mode="normal" in2="BackgroundImageFix" result="effect1_dropShadow_6640_30540"/>
<feBlend mode="normal" in="SourceGraphic" in2="BackgroundImageFix" result="shape"/>
<feColorMatrix in="SourceAlpha" type="matrix" values="0 0 0 0 0 0 0 0 0 0 0 0 0 0 0 0 0 0 127 0" result="hardAlpha"/>
<feOffset dy="-3.08893"/>
<feGaussianBlur stdDeviation="0.411857"/>
<feComposite in2="hardAlpha" operator="arithmetic" k2="-1" k3="1"/>
<feColorMatrix type="matrix" values="0 0 0 0 0 0 0 0 0 0 0 0 0 0 0 0 0 0 0.25 0"/>
<feBlend mode="normal" in2="shape" result="effect2_innerShadow_6640_30540"/>
<feTurbulence type="fractalNoise" baseFrequency="9.7121000289916992 9.7121000289916992" stitchTiles="stitch" numOctaves="3" result="noise" seed="5938" />
<feColorMatrix in="noise" type="luminanceToAlpha" result="alphaNoise" />
<feComponentTransfer in="alphaNoise" result="coloredNoise1">
<feFuncA type="discrete" tableValues="1 1 1 1 1 1 1 1 1 1 1 1 1 1 1 1 1 1 1 1 1 1 1 1 1 1 1 1 1 1 1 1 1 1 1 1 1 1 1 1 1 1 1 1 1 1 1 1 1 1 1 0 0 0 0 0 0 0 0 0 0 0 0 0 0 0 0 0 0 0 0 0 0 0 0 0 0 0 0 0 0 0 0 0 0 0 0 0 0 0 0 0 0 0 0 0 0 0 0 0 "/>
</feComponentTransfer>
<feComposite operator="in" in2="effect2_innerShadow_6640_30540" in="coloredNoise1" result="noise1Clipped" />
<feFlood flood-color="rgba(0, 0, 0, 0.35)" result="color1Flood" />
<feComposite operator="in" in2="noise1Clipped" in="color1Flood" result="color1" />
<feMerge result="effect3_noise_6640_30540">
<feMergeNode in="effect2_innerShadow_6640_30540" />
<feMergeNode in="color1" />
</feMerge>
<feBlend mode="normal" in="effect3_noise_6640_30540" in2="effect1_dropShadow_6640_30540" result="effect3_noise_6640_30540"/>
</filter>
<filter id="filter2_din_6640_30540" x="816.767" y="125.772" width="210.048" height="210.044" filterUnits="userSpaceOnUse" color-interpolation-filters="sRGB">
<feFlood flood-opacity="0" result="BackgroundImageFix"/>
<feColorMatrix in="SourceAlpha" type="matrix" values="0 0 0 0 0 0 0 0 0 0 0 0 0 0 0 0 0 0 127 0" result="hardAlpha"/>
<feOffset dy="4.11857"/>
<feGaussianBlur stdDeviation="26.7707"/>
<feComposite in2="hardAlpha" operator="out"/>
<feColorMatrix type="matrix" values="0 0 0 0 0 0 0 0 0 0 0 0 0 0 0 0 0 0 0.25 0"/>
<feBlend mode="normal" in2="BackgroundImageFix" result="effect1_dropShadow_6640_30540"/>
<feBlend mode="normal" in="SourceGraphic" in2="BackgroundImageFix" result="shape"/>
<feColorMatrix in="SourceAlpha" type="matrix" values="0 0 0 0 0 0 0 0 0 0 0 0 0 0 0 0 0 0 127 0" result="hardAlpha"/>
<feOffset dy="-3.08893"/>
<feGaussianBlur stdDeviation="0.411857"/>
<feComposite in2="hardAlpha" operator="arithmetic" k2="-1" k3="1"/>
<feColorMatrix type="matrix" values="0 0 0 0 0 0 0 0 0 0 0 0 0 0 0 0 0 0 0.25 0"/>
<feBlend mode="normal" in2="shape" result="effect2_innerShadow_6640_30540"/>
<feTurbulence type="fractalNoise" baseFrequency="9.7121000289916992 9.7121000289916992" stitchTiles="stitch" numOctaves="3" result="noise" seed="5938" />
<feColorMatrix in="noise" type="luminanceToAlpha" result="alphaNoise" />
<feComponentTransfer in="alphaNoise" result="coloredNoise1">
<feFuncA type="discrete" tableValues="1 1 1 1 1 1 1 1 1 1 1 1 1 1 1 1 1 1 1 1 1 1 1 1 1 1 1 1 1 1 1 1 1 1 1 1 1 1 1 1 1 1 1 1 1 1 1 1 1 1 1 0 0 0 0 0 0 0 0 0 0 0 0 0 0 0 0 0 0 0 0 0 0 0 0 0 0 0 0 0 0 0 0 0 0 0 0 0 0 0 0 0 0 0 0 0 0 0 0 0 "/>
</feComponentTransfer>
<feComposite operator="in" in2="effect2_innerShadow_6640_30540" in="coloredNoise1" result="noise1Clipped" />
<feFlood flood-color="rgba(0, 0, 0, 0.35)" result="color1Flood" />
<feComposite operator="in" in2="noise1Clipped" in="color1Flood" result="color1" />
<feMerge result="effect3_noise_6640_30540">
<feMergeNode in="effect2_innerShadow_6640_30540" />
<feMergeNode in="color1" />
</feMerge>
<feBlend mode="normal" in="effect3_noise_6640_30540" in2="effect1_dropShadow_6640_30540" result="effect3_noise_6640_30540"/>
</filter>
<filter id="filter3_di_6640_30540" x="883.183" y="201.461" width="78.2117" height="52.8679" filterUnits="userSpaceOnUse" color-interpolation-filters="sRGB">
<feFlood flood-opacity="0" result="BackgroundImageFix"/>
<feColorMatrix in="SourceAlpha" type="matrix" values="0 0 0 0 0 0 0 0 0 0 0 0 0 0 0 0 0 0 127 0" result="hardAlpha"/>
<feOffset/>
<feGaussianBlur stdDeviation="4.89081"/>
<feComposite in2="hardAlpha" operator="out"/>
<feColorMatrix type="matrix" values="0 0 0 0 0.768627 0 0 0 0 0.545098 0 0 0 0 0.937255 0 0 0 1 0"/>
<feBlend mode="normal" in2="BackgroundImageFix" result="effect1_dropShadow_6640_30540"/>
<feBlend mode="normal" in="SourceGraphic" in2="effect1_dropShadow_6640_30540" result="shape"/>
<feColorMatrix in="SourceAlpha" type="matrix" values="0 0 0 0 0 0 0 0 0 0 0 0 0 0 0 0 0 0 127 0" result="hardAlpha"/>
<feOffset dy="2.60473"/>
<feGaussianBlur stdDeviation="0.651182"/>
<feComposite in2="hardAlpha" operator="arithmetic" k2="-1" k3="1"/>
<feColorMatrix type="matrix" values="0 0 0 0 0 0 0 0 0 0 0 0 0 0 0 0 0 0 0.25 0"/>
<feBlend mode="normal" in2="shape" result="effect2_innerShadow_6640_30540"/>
</filter>
<linearGradient id="paint0_linear_6640_30540" x1="928.5" y1="226" x2="928.5" y2="547" gradientUnits="userSpaceOnUse">
<stop stop-color="white"/>
<stop offset="1" stop-color="#999999" stop-opacity="0"/>
</linearGradient>
<linearGradient id="paint1_linear_6640_30540" x1="484.5" y1="0" x2="484.5" y2="321" gradientUnits="userSpaceOnUse">
<stop stop-color="white"/>
<stop offset="1" stop-color="#999999" stop-opacity="0"/>
</linearGradient>
<linearGradient id="paint2_linear_6640_30540" x1="882.934" y1="318.305" x2="882.934" y2="480.08" gradientUnits="userSpaceOnUse">
<stop offset="0.0927945" stop-color="#E5E5E5" stop-opacity="0"/>
<stop offset="1" stop-color="#7F7F7F"/>
</linearGradient>
<linearGradient id="paint3_linear_6640_30540" x1="894.035" y1="318.305" x2="894.035" y2="480.08" gradientUnits="userSpaceOnUse">
<stop offset="0.0927945" stop-color="#E5E5E5" stop-opacity="0"/>
<stop offset="1" stop-color="#7F7F7F"/>
</linearGradient>
<linearGradient id="paint4_linear_6640_30540" x1="905.137" y1="318.305" x2="905.137" y2="480.08" gradientUnits="userSpaceOnUse">
<stop offset="0.0927945" stop-color="#E5E5E5" stop-opacity="0"/>
<stop offset="1" stop-color="#7F7F7F"/>
</linearGradient>
<linearGradient id="paint5_linear_6640_30540" x1="916.242" y1="318.305" x2="916.242" y2="480.08" gradientUnits="userSpaceOnUse">
<stop offset="0.0927945" stop-color="#E5E5E5" stop-opacity="0"/>
<stop offset="1" stop-color="#7F7F7F"/>
</linearGradient>
<linearGradient id="paint6_linear_6640_30540" x1="927.344" y1="318.305" x2="927.344" y2="480.08" gradientUnits="userSpaceOnUse">
<stop offset="0.0927945" stop-color="#E5E5E5" stop-opacity="0"/>
<stop offset="1" stop-color="#7F7F7F"/>
</linearGradient>
<linearGradient id="paint7_linear_6640_30540" x1="938.445" y1="318.305" x2="938.445" y2="480.08" gradientUnits="userSpaceOnUse">
<stop offset="0.0927945" stop-color="#E5E5E5" stop-opacity="0"/>
<stop offset="1" stop-color="#7F7F7F"/>
</linearGradient>
<linearGradient id="paint8_linear_6640_30540" x1="949.547" y1="318.305" x2="949.547" y2="480.08" gradientUnits="userSpaceOnUse">
<stop offset="0.0927945" stop-color="#E5E5E5" stop-opacity="0"/>
<stop offset="1" stop-color="#7F7F7F"/>
</linearGradient>
<linearGradient id="paint9_linear_6640_30540" x1="960.648" y1="318.305" x2="960.648" y2="480.08" gradientUnits="userSpaceOnUse">
<stop offset="0.0927945" stop-color="#E5E5E5" stop-opacity="0"/>
<stop offset="1" stop-color="#7F7F7F"/>
</linearGradient>
<linearGradient id="paint10_linear_6640_30540" x1="921.012" y1="498.672" x2="921.012" y2="538.015" gradientUnits="userSpaceOnUse">
<stop offset="0.23558" stop-color="#E5E5E5" stop-opacity="0"/>
<stop offset="1" stop-color="#7F7F7F"/>
</linearGradient>
<linearGradient id="paint11_linear_6640_30540" x1="603" y1="685.828" x2="776.598" y2="282.811" gradientUnits="userSpaceOnUse">
<stop stop-color="#232323"/>
<stop offset="1" stop-color="#595959"/>
</linearGradient>
<linearGradient id="paint12_linear_6640_30540" x1="794.113" y1="354.353" x2="1032.99" y2="112.386" gradientUnits="userSpaceOnUse">
<stop stop-color="#232323"/>
<stop offset="1" stop-color="#595959"/>
</linearGradient>
<linearGradient id="paint13_linear_6640_30540" x1="870.309" y1="278.16" x2="966.63" y2="180.593" gradientUnits="userSpaceOnUse">
<stop stop-color="#232323"/>
<stop offset="1" stop-color="#595959"/>
</linearGradient>
<linearGradient id="paint14_linear_6640_30540" x1="898.389" y1="242.71" x2="903.214" y2="223.11" gradientUnits="userSpaceOnUse">
<stop stop-color="white"/>
<stop offset="1" stop-color="#343434" stop-opacity="0"/>
</linearGradient>
<clipPath id="clip0_6640_30540">
<path d="M0 16C0 7.16343 7.16344 0 16 0H1328C1336.84 0 1344 7.16344 1344 16V637C1344 645.837 1336.84 653 1328 653H16C7.16346 653 0 645.837 0 637V16Z" fill="white"/>
</clipPath>
<clipPath id="clip1_6640_30540">
<rect width="67.9149" height="35.9219" fill="white" transform="translate(641.09 447.922)"/>
</clipPath>
<clipPath id="clip2_6640_30540">
<rect width="67.3536" height="35.9219" fill="white" transform="translate(739.699 447.922)"/>
</clipPath>
<clipPath id="clip3_6640_30540">
<rect width="67.3536" height="10.8635" fill="white" transform="translate(739.699 460.633)"/>
</clipPath>
<clipPath id="clip4_6640_30540">
<rect width="67.3536" height="35.9219" fill="white" transform="translate(837.75 447.922)"/>
</clipPath>
<clipPath id="clip5_6640_30540">
<rect width="66.231" height="35.9219" fill="white" transform="translate(935.801 447.922)"/>
</clipPath>
<clipPath id="clip6_6640_30540">
<rect width="67.355" height="12.1448" fill="white" transform="translate(935.234 459.711)"/>
</clipPath>
<clipPath id="clip7_6640_30540">
<rect width="67.3536" height="35.9219" fill="white" transform="translate(1032.73 447.922)"/>
</clipPath>
<clipPath id="clip8_6640_30540">
<rect width="67.3536" height="18.7122" fill="white" transform="translate(1032.73 456.414)"/>
</clipPath>
</defs>
</svg>
