<svg width="1344" height="653" viewBox="0 0 1344 653" fill="none" xmlns="http://www.w3.org/2000/svg">
<g clip-path="url(#clip0_6640_30670)">
<circle opacity="0.1" cx="959.5" cy="807.5" r="482.5" fill="#D9D9D9" fill-opacity="0.05" stroke="url(#paint0_linear_6640_30670)" stroke-width="4"/>
<circle opacity="0.1" cx="484.5" cy="484.5" r="484" transform="matrix(1 0 0 -1 475 323)" fill="#D9D9D9" fill-opacity="0.05" stroke="url(#paint1_linear_6640_30670)"/>
<g filter="url(#filter0_din_6640_30670)">
<path d="M1175.32 199.672L1031.17 199.672C1027.94 199.672 1025.32 202.291 1025.32 205.521L1025.32 236.759L1025.32 404.422L1025.32 427.823C1025.32 431.053 1027.94 433.672 1031.17 433.672L1172.63 433.672C1174.34 433.672 1175.96 432.923 1177.08 431.623L1198.92 406.063C1199.83 405.004 1200.32 403.656 1200.32 402.263L1200.32 205.521C1200.32 202.291 1197.71 199.672 1194.48 199.672L1175.32 199.672Z" fill="url(#paint2_linear_6640_30670)"/>
</g>
<g filter="url(#filter1_di_6640_30670)">
<path d="M1168 357.445L1144.08 357.445L1144.08 347.956C1144.08 345.611 1144.69 343.775 1145.9 342.448C1147.1 341.12 1148.77 340.457 1150.91 340.457C1152.39 340.457 1153.67 340.811 1154.73 341.519C1155.77 342.204 1156.53 343.222 1157.02 344.571C1157.37 343.62 1157.88 342.912 1158.54 342.448C1159.21 341.961 1160.15 341.607 1161.36 341.386L1165.45 340.59C1165.82 340.501 1166.24 340.402 1166.71 340.291C1167.17 340.158 1167.6 339.97 1168 339.727L1168 342.58C1167.69 342.802 1167.37 342.968 1167.04 343.078C1166.71 343.167 1166.4 343.233 1166.11 343.277L1161.96 344.007C1160.46 344.273 1159.37 344.87 1158.71 345.799C1158.05 346.706 1157.71 348.177 1157.71 350.212L1157.71 354.724L1168 354.724L1168 357.445ZM1155.26 348.155C1155.26 346.628 1154.87 345.434 1154.1 344.571C1153.32 343.686 1152.26 343.244 1150.91 343.244C1149.54 343.244 1148.47 343.686 1147.69 344.571C1146.92 345.434 1146.53 346.628 1146.53 348.155L1146.53 354.724L1155.26 354.724L1155.26 348.155ZM1159.7 335.286C1161.7 335.22 1163.24 334.667 1164.35 333.627C1165.46 332.588 1166.01 331.238 1166.01 329.579C1166.01 328.318 1165.71 327.212 1165.11 326.261C1164.52 325.31 1163.66 324.735 1162.56 324.536L1162.56 322.081C1164.44 322.39 1165.87 323.242 1166.84 324.635C1167.79 326.029 1168.27 327.677 1168.27 329.579C1168.27 331.26 1167.88 332.731 1167.1 333.992C1166.31 335.231 1165.23 336.193 1163.89 336.879C1162.54 337.542 1161.03 337.874 1159.37 337.874C1157.71 337.874 1156.22 337.542 1154.89 336.879C1153.54 336.215 1152.48 335.264 1151.71 334.025C1150.91 332.787 1150.51 331.327 1150.51 329.646C1150.51 328.053 1150.87 326.682 1151.58 325.531C1152.28 324.381 1153.25 323.496 1154.46 322.877C1155.66 322.235 1157.02 321.926 1158.54 321.948C1158.81 321.948 1159.05 321.959 1159.27 321.981C1159.47 322.003 1159.62 322.014 1159.7 322.014L1159.7 335.286ZM1152.7 329.646C1152.7 331.128 1153.15 332.344 1154.03 333.295C1154.89 334.247 1156.07 334.855 1157.55 335.12L1157.55 324.669C1156.15 324.757 1155 325.233 1154.1 326.095C1153.17 326.958 1152.7 328.141 1152.7 329.646ZM1168.27 311.436C1168.27 313.184 1167.87 314.677 1167.07 315.916C1166.27 317.132 1165.21 318.061 1163.89 318.703C1162.54 319.322 1161.03 319.632 1159.37 319.632C1157.71 319.632 1156.22 319.311 1154.89 318.669C1153.54 318.028 1152.48 317.099 1151.71 315.882C1150.91 314.666 1150.51 313.184 1150.51 311.436C1150.51 310.308 1150.79 309.213 1151.34 308.151C1151.87 307.09 1152.56 306.293 1153.4 305.762L1143.81 305.762L1143.81 303.208L1168 303.208L1168 305.762L1165.38 305.762C1166.18 306.116 1166.86 306.824 1167.44 307.886C1167.99 308.948 1168.27 310.131 1168.27 311.436ZM1165.98 311.237C1165.98 309.534 1165.38 308.151 1164.18 307.09C1162.97 306.028 1161.36 305.497 1159.37 305.497C1157.4 305.497 1155.82 306.028 1154.63 307.09C1153.41 308.151 1152.8 309.534 1152.8 311.237C1152.8 312.962 1153.41 314.356 1154.63 315.418C1155.82 316.457 1157.4 316.977 1159.37 316.977C1161.34 316.977 1162.93 316.457 1164.15 315.418C1165.37 314.356 1165.98 312.962 1165.98 311.237ZM1159.7 297.213C1161.7 297.147 1163.24 296.594 1164.35 295.554C1165.46 294.515 1166.01 293.165 1166.01 291.506C1166.01 290.245 1165.71 289.139 1165.11 288.188C1164.52 287.237 1163.66 286.662 1162.56 286.463L1162.56 284.008C1164.44 284.317 1165.87 285.169 1166.84 286.563C1167.79 287.956 1168.27 289.604 1168.27 291.506C1168.27 293.187 1167.88 294.658 1167.1 295.919C1166.31 297.158 1165.23 298.12 1163.89 298.806C1162.54 299.47 1161.03 299.801 1159.37 299.801C1157.71 299.801 1156.22 299.47 1154.89 298.806C1153.54 298.142 1152.48 297.191 1151.71 295.952C1150.91 294.714 1150.51 293.254 1150.51 291.573C1150.51 289.98 1150.87 288.609 1151.58 287.458C1152.28 286.308 1153.25 285.423 1154.46 284.804C1155.66 284.162 1157.02 283.853 1158.54 283.875C1158.81 283.875 1159.05 283.886 1159.27 283.908C1159.47 283.93 1159.62 283.941 1159.7 283.941L1159.7 297.213ZM1152.7 291.573C1152.7 293.055 1153.15 294.271 1154.03 295.223C1154.89 296.174 1156.07 296.782 1157.55 297.047L1157.55 286.596C1156.15 286.684 1155 287.16 1154.1 288.022C1153.17 288.885 1152.7 290.069 1152.7 291.573ZM1159.7 278.971C1161.7 278.904 1163.24 278.351 1164.35 277.312C1165.46 276.272 1166.01 274.923 1166.01 273.264C1166.01 272.003 1165.71 270.897 1165.11 269.946C1164.52 268.995 1163.66 268.419 1162.56 268.22L1162.56 265.765C1164.44 266.075 1165.87 266.926 1166.84 268.32C1167.79 269.713 1168.27 271.361 1168.27 273.264C1168.27 274.945 1167.88 276.416 1167.1 277.677C1166.31 278.915 1165.23 279.878 1163.89 280.563C1162.54 281.227 1161.03 281.559 1159.37 281.559C1157.71 281.559 1156.22 281.227 1154.89 280.563C1153.54 279.9 1152.48 278.949 1151.71 277.71C1150.91 276.471 1150.51 275.011 1150.51 273.33C1150.51 271.737 1150.87 270.366 1151.58 269.216C1152.28 268.066 1153.25 267.181 1154.46 266.561C1155.66 265.92 1157.02 265.61 1158.54 265.632C1158.81 265.632 1159.05 265.643 1159.27 265.666C1159.47 265.688 1159.62 265.699 1159.7 265.699L1159.7 278.971ZM1152.7 273.33C1152.7 274.812 1153.15 276.029 1154.03 276.98C1154.89 277.931 1156.07 278.539 1157.55 278.805L1157.55 268.353C1156.15 268.442 1155 268.917 1154.1 269.78C1153.17 270.643 1152.7 271.826 1152.7 273.33ZM1168 262.221L1150.78 262.221L1150.78 259.666L1154.2 259.666C1153.09 259.246 1152.21 258.605 1151.54 257.742C1150.86 256.857 1150.51 255.751 1150.51 254.424C1150.51 252.986 1150.83 251.747 1151.48 250.708C1152.12 249.668 1153.02 249.004 1154.2 248.717C1153.11 248.23 1152.23 247.5 1151.54 246.527C1150.86 245.554 1150.51 244.448 1150.51 243.209C1150.51 241.373 1151.04 239.913 1152.11 238.829C1153.17 237.745 1154.63 237.203 1156.49 237.203L1168 237.203L1168 239.758L1156.95 239.758C1155.71 239.758 1154.72 240.101 1153.96 240.787C1153.19 241.473 1152.8 242.446 1152.8 243.707C1152.8 245.233 1153.43 246.405 1154.69 247.224C1155.93 248.042 1157.5 248.451 1159.41 248.451L1168 248.451L1168 251.006L1156.95 251.006C1155.71 251.006 1154.72 251.349 1153.96 252.035C1153.19 252.699 1152.8 253.65 1152.8 254.888C1152.8 256.437 1153.43 257.62 1154.69 258.439C1155.93 259.257 1157.5 259.666 1159.41 259.666L1168 259.666L1168 262.221Z" fill="#B480DC"/>
<path d="M1155.68 368.328L1155.68 377.328L1143.68 375.328L1161.68 390.328L1161.68 381.328L1173.68 383.328L1155.68 368.328Z" fill="#C48BEF"/>
</g>
<g filter="url(#filter2_din_6640_30670)">
<path d="M816.258 342.382L816.258 433.982C816.258 437.212 813.639 439.831 810.409 439.831L795.664 439.831L702.568 439.831L692.175 439.831C688.945 439.831 686.326 437.212 686.326 433.982L686.326 344.805C686.326 343.254 686.942 341.766 688.039 340.669L700.854 327.854C701.951 326.757 703.439 326.141 704.99 326.141L810.409 326.141C813.639 326.141 816.258 328.759 816.258 331.99L816.258 342.382Z" fill="url(#paint3_linear_6640_30670)"/>
</g>
<g filter="url(#filter3_di_6640_30670)">
<path d="M702.174 422V411.008H706.077C707.134 411.008 707.952 411.252 708.531 411.74C709.12 412.218 709.415 412.914 709.415 413.829C709.415 414.317 709.288 414.748 709.034 415.125C708.78 415.501 708.414 415.785 707.936 415.978C708.556 416.192 709.034 416.542 709.369 417.03C709.705 417.508 709.873 418.102 709.873 418.814C709.873 419.85 709.563 420.643 708.943 421.192C708.333 421.731 707.459 422 706.32 422H702.174ZM706.061 420.872C706.885 420.872 707.51 420.694 707.936 420.338C708.373 419.983 708.592 419.464 708.592 418.783C708.592 418.113 708.373 417.599 707.936 417.244C707.51 416.888 706.885 416.71 706.061 416.71H703.424V420.872H706.061ZM706.016 415.582C706.707 415.582 707.23 415.435 707.586 415.14C707.942 414.845 708.119 414.418 708.119 413.859C708.119 413.29 707.936 412.858 707.571 412.563C707.215 412.258 706.697 412.106 706.016 412.106H703.424V415.582H706.016ZM714.829 422.122C714.077 422.122 713.411 421.949 712.832 421.604C712.253 421.248 711.795 420.765 711.46 420.155C711.135 419.535 710.972 418.829 710.972 418.036C710.972 417.244 711.135 416.542 711.46 415.933C711.795 415.323 712.253 414.845 712.832 414.499C713.411 414.144 714.077 413.966 714.829 413.966C715.581 413.966 716.247 414.139 716.826 414.484C717.405 414.83 717.863 415.313 718.198 415.933C718.533 416.542 718.701 417.244 718.701 418.036C718.701 418.829 718.533 419.535 718.198 420.155C717.863 420.765 717.405 421.248 716.826 421.604C716.247 421.949 715.581 422.122 714.829 422.122ZM714.829 421.07C715.357 421.07 715.82 420.943 716.216 420.689C716.613 420.425 716.923 420.064 717.146 419.607C717.38 419.149 717.497 418.626 717.497 418.036C717.497 417.447 717.38 416.929 717.146 416.481C716.923 416.024 716.608 415.668 716.201 415.414C715.805 415.15 715.347 415.018 714.829 415.018C714.3 415.018 713.838 415.15 713.442 415.414C713.045 415.668 712.735 416.024 712.512 416.481C712.298 416.929 712.192 417.447 712.192 418.036C712.192 418.626 712.298 419.149 712.512 419.607C712.735 420.064 713.045 420.425 713.442 420.689C713.838 420.943 714.3 421.07 714.829 421.07ZM724.634 415.14C724.553 415.119 724.441 415.099 724.299 415.079C724.167 415.048 724.004 415.033 723.811 415.033C723.384 415.033 722.988 415.18 722.622 415.475C722.266 415.76 721.981 416.192 721.768 416.771C721.555 417.35 721.448 418.082 721.448 418.966V422H720.274V414.088H721.448V415.719C721.58 415.384 721.773 415.084 722.027 414.82C722.291 414.555 722.591 414.347 722.927 414.195C723.262 414.042 723.602 413.966 723.948 413.966C724.131 413.966 724.273 413.971 724.375 413.981C724.477 413.991 724.563 414.007 724.634 414.027V415.14ZM730.187 415.14C730.106 415.119 729.994 415.099 729.852 415.079C729.72 415.048 729.557 415.033 729.364 415.033C728.937 415.033 728.541 415.18 728.175 415.475C727.819 415.76 727.535 416.192 727.321 416.771C727.108 417.35 727.001 418.082 727.001 418.966V422H725.827V414.088H727.001V415.719C727.133 415.384 727.326 415.084 727.58 414.82C727.844 414.555 728.144 414.347 728.48 414.195C728.815 414.042 729.156 413.966 729.501 413.966C729.684 413.966 729.826 413.971 729.928 413.981C730.03 413.991 730.116 414.007 730.187 414.027V415.14ZM734.257 422.122C733.505 422.122 732.84 421.949 732.26 421.604C731.681 421.248 731.224 420.765 730.888 420.155C730.563 419.535 730.4 418.829 730.4 418.036C730.4 417.244 730.563 416.542 730.888 415.933C731.224 415.323 731.681 414.845 732.26 414.499C732.84 414.144 733.505 413.966 734.257 413.966C735.009 413.966 735.675 414.139 736.254 414.484C736.834 414.83 737.291 415.313 737.626 415.933C737.962 416.542 738.129 417.244 738.129 418.036C738.129 418.829 737.962 419.535 737.626 420.155C737.291 420.765 736.834 421.248 736.254 421.604C735.675 421.949 735.009 422.122 734.257 422.122ZM734.257 421.07C734.786 421.07 735.248 420.943 735.645 420.689C736.041 420.425 736.351 420.064 736.575 419.607C736.808 419.149 736.925 418.626 736.925 418.036C736.925 417.447 736.808 416.929 736.575 416.481C736.351 416.024 736.036 415.668 735.629 415.414C735.233 415.15 734.776 415.018 734.257 415.018C733.729 415.018 733.266 415.15 732.87 415.414C732.474 415.668 732.164 416.024 731.94 416.481C731.727 416.929 731.62 417.447 731.62 418.036C731.62 418.626 731.727 419.149 731.94 419.607C732.164 420.064 732.474 420.425 732.87 420.689C733.266 420.943 733.729 421.07 734.257 421.07ZM741.169 422L738.73 414.088H739.934L741.306 418.814C741.469 419.342 741.581 419.779 741.642 420.125C741.713 420.46 741.748 420.628 741.748 420.628C741.748 420.628 741.784 420.46 741.855 420.125C741.936 419.789 742.058 419.352 742.221 418.814L743.669 414.088H744.843L746.307 418.844C746.479 419.373 746.601 419.81 746.672 420.155C746.744 420.491 746.779 420.658 746.779 420.658C746.779 420.658 746.815 420.491 746.886 420.155C746.957 419.81 747.069 419.368 747.221 418.829L748.578 414.088H749.767L747.343 422H746.154L744.721 417.335C744.559 416.796 744.437 416.359 744.355 416.024C744.284 415.689 744.249 415.521 744.249 415.521C744.249 415.521 744.208 415.689 744.127 416.024C744.055 416.359 743.933 416.796 743.761 417.335L742.328 422H741.169Z" fill="#B480DC"/>
</g>
<g filter="url(#filter4_di_6640_30670)">
<path d="M716.896 358.044H721.055C722.187 358.044 723.309 358.267 724.355 358.701C725.402 359.134 726.353 359.77 727.153 360.57C727.954 361.371 728.59 362.322 729.023 363.369C729.457 364.415 729.68 365.537 729.68 366.669H716.261V368.586H731.594V366.669C731.587 364.63 730.998 362.636 729.898 360.919H735.43C737.242 360.919 739.017 361.432 740.549 362.4C742.081 363.367 743.307 364.749 744.085 366.386C739.552 372.366 732.214 376.255 723.93 376.255C718.638 376.255 714.155 375.124 710.513 373.14V355.307C712.845 355.641 715.046 356.585 716.896 358.044ZM708.596 372.419C708.596 372.928 708.394 373.415 708.035 373.775C707.676 374.134 707.188 374.336 706.68 374.336H702.846C702.338 374.336 701.851 374.134 701.491 373.775C701.132 373.415 700.93 372.928 700.93 372.419V355.169C700.93 354.661 701.132 354.173 701.491 353.814C701.851 353.455 702.338 353.253 702.846 353.253H706.68C707.188 353.253 707.676 353.455 708.035 353.814C708.394 354.173 708.596 354.661 708.596 355.169V372.419ZM733.513 345.586C735.038 345.586 736.501 346.192 737.579 347.27C738.657 348.348 739.263 349.811 739.263 351.336C739.263 352.861 738.657 354.323 737.579 355.402C736.501 356.48 735.038 357.086 733.513 357.086C731.988 357.086 730.525 356.48 729.447 355.402C728.369 354.323 727.763 352.861 727.763 351.336C727.763 349.811 728.369 348.348 729.447 347.27C730.525 346.192 731.988 345.586 733.513 345.586ZM720.096 339.836C721.621 339.836 723.084 340.442 724.162 341.52C725.241 342.598 725.846 344.061 725.846 345.586C725.846 347.111 725.241 348.573 724.162 349.652C723.084 350.73 721.621 351.336 720.096 351.336C718.571 351.336 717.109 350.73 716.03 349.652C714.952 348.573 714.346 347.111 714.346 345.586C714.346 344.061 714.952 342.598 716.03 341.52C717.109 340.442 718.571 339.836 720.096 339.836Z" fill="#C48BEF"/>
</g>
<g filter="url(#filter5_din_6640_30670)">
<path d="M816.258 297.274L816.258 205.675C816.258 202.444 813.639 199.825 810.409 199.825L795.664 199.825L702.568 199.825L692.175 199.825C688.945 199.825 686.326 202.444 686.326 205.675L686.326 294.851C686.326 296.403 686.942 297.89 688.039 298.987L700.854 311.802C701.951 312.899 703.439 313.516 704.99 313.516L810.409 313.516C813.639 313.516 816.258 310.897 816.258 307.666L816.258 297.274Z" fill="url(#paint4_linear_6640_30670)"/>
</g>
<g filter="url(#filter6_di_6640_30670)">
<path d="M700.174 289V278.008H701.424V287.857H706.958V289H700.174ZM708.405 285.189C708.435 286.103 708.689 286.815 709.167 287.323C709.645 287.831 710.265 288.085 711.027 288.085C711.606 288.085 712.114 287.948 712.551 287.674C712.988 287.399 713.253 287.008 713.344 286.5H714.472C714.33 287.364 713.939 288.019 713.298 288.466C712.658 288.903 711.901 289.122 711.027 289.122C710.254 289.122 709.579 288.944 708.999 288.588C708.43 288.223 707.988 287.73 707.673 287.11C707.368 286.49 707.216 285.799 707.216 285.036C707.216 284.274 707.368 283.588 707.673 282.978C707.978 282.358 708.415 281.87 708.984 281.515C709.553 281.149 710.224 280.966 710.996 280.966C711.728 280.966 712.358 281.129 712.887 281.454C713.415 281.779 713.822 282.221 714.106 282.78C714.401 283.329 714.543 283.954 714.533 284.655C714.533 284.777 714.528 284.889 714.518 284.991C714.508 285.082 714.503 285.148 714.503 285.189H708.405ZM710.996 281.972C710.315 281.972 709.756 282.175 709.319 282.582C708.882 282.978 708.603 283.517 708.481 284.198H713.283C713.242 283.558 713.024 283.029 712.628 282.612C712.231 282.186 711.687 281.972 710.996 281.972ZM716.1 289V281.088H717.274V282.658C717.569 282.13 717.955 281.718 718.433 281.423C718.921 281.118 719.459 280.966 720.049 280.966C720.598 280.966 721.08 281.083 721.497 281.317C721.924 281.54 722.254 281.86 722.488 282.277C722.732 282.694 722.854 283.182 722.854 283.74V289H721.68V283.923C721.68 283.375 721.512 282.922 721.177 282.567C720.852 282.211 720.399 282.033 719.82 282.033C719.058 282.033 718.443 282.348 717.976 282.978C717.508 283.598 717.274 284.447 717.274 285.524V289H716.1ZM728.102 289.122C727.299 289.122 726.613 288.939 726.044 288.573C725.485 288.207 725.058 287.719 724.763 287.11C724.479 286.49 724.336 285.799 724.336 285.036C724.336 284.274 724.484 283.588 724.778 282.978C725.073 282.358 725.5 281.87 726.059 281.515C726.618 281.149 727.299 280.966 728.102 280.966C728.62 280.966 729.123 281.093 729.611 281.347C730.099 281.591 730.465 281.906 730.709 282.292V277.886H731.883V289H730.709V287.796C730.546 288.162 730.221 288.477 729.733 288.741C729.245 288.995 728.701 289.122 728.102 289.122ZM728.193 288.07C728.976 288.07 729.611 287.796 730.099 287.247C730.587 286.688 730.831 285.951 730.831 285.036C730.831 284.132 730.587 283.405 730.099 282.856C729.611 282.297 728.976 282.018 728.193 282.018C727.401 282.018 726.76 282.297 726.272 282.856C725.795 283.405 725.556 284.132 725.556 285.036C725.556 285.941 725.795 286.673 726.272 287.232C726.76 287.791 727.401 288.07 728.193 288.07Z" fill="#B480DC"/>
</g>
<g filter="url(#filter7_di_6640_30670)">
<path d="M710.509 235.687C712.84 235.354 715.043 234.41 716.892 232.951L721.051 232.951C722.183 232.951 723.305 232.727 724.352 232.294C725.398 231.861 726.349 231.226 727.149 230.425C727.95 229.624 728.586 228.673 729.02 227.627C729.453 226.581 729.676 225.459 729.676 224.326L716.257 224.326L716.257 222.409L731.591 222.409L731.591 224.326C731.588 225.127 731.494 225.921 731.315 226.694C732.205 226.226 733.203 225.975 734.227 225.975C735.884 225.975 737.473 226.633 738.646 227.805C739.035 228.194 739.367 228.631 739.638 229.101C739.948 228.949 740.251 228.781 740.545 228.596C742.077 227.628 743.303 226.246 744.081 224.609C739.548 218.63 732.209 214.74 723.926 214.74C718.634 214.74 714.15 215.872 710.509 217.855L710.509 235.687ZM706.676 237.742C707.184 237.742 707.672 237.54 708.031 237.181C708.39 236.821 708.593 236.334 708.593 235.826L708.593 218.576C708.593 218.068 708.391 217.58 708.031 217.221C707.672 216.861 707.184 216.659 706.676 216.659L702.843 216.659C702.334 216.659 701.847 216.861 701.487 217.221C701.128 217.58 700.926 218.068 700.926 218.576L700.926 235.826C700.926 236.334 701.128 236.821 701.487 237.181C701.847 237.54 702.334 237.742 702.843 237.742L706.676 237.742Z" fill="#C48BEF"/>
</g>
<g filter="url(#filter8_di_6640_30670)">
<path d="M737.218 235.215C736.425 236.008 735.349 236.453 734.228 236.453C733.107 236.453 732.031 236.008 731.238 235.215C730.445 234.422 730 233.347 730 232.225C730 231.104 730.445 230.028 731.238 229.236C732.031 228.443 733.107 227.997 734.228 227.997C735.349 227.997 736.425 228.443 737.218 229.236C738.01 230.028 738.456 231.104 738.456 232.225C738.456 233.347 738.01 234.422 737.218 235.215Z" fill="#C48BEF"/>
</g>
<g filter="url(#filter9_di_6640_30670)">
<path d="M741.218 245.215C740.425 246.008 739.349 246.453 738.228 246.453C737.107 246.453 736.031 246.008 735.238 245.215C734.445 244.422 734 243.347 734 242.225C734 241.104 734.445 240.028 735.238 239.236C736.031 238.443 737.107 237.997 738.228 237.997C739.349 237.997 740.425 238.443 741.218 239.236C742.01 240.028 742.456 241.104 742.456 242.225C742.456 243.347 742.01 244.422 741.218 245.215Z" fill="#C48BEF"/>
</g>
<g filter="url(#filter10_di_6640_30670)">
<path d="M730.218 243.215C729.425 244.008 728.349 244.453 727.228 244.453C726.107 244.453 725.031 244.008 724.238 243.215C723.445 242.422 723 241.347 723 240.225C723 239.104 723.445 238.028 724.238 237.236C725.031 236.443 726.107 235.997 727.228 235.997C728.349 235.997 729.425 236.443 730.218 237.236C731.01 238.028 731.456 239.104 731.456 240.225C731.456 241.347 731.01 242.422 730.218 243.215Z" fill="#C48BEF"/>
</g>
<g filter="url(#filter11_din_6640_30670)">
<path d="M1072.33 149.672C1078.16 149.672 1083.76 151.989 1087.88 156.112L1093.27 161.506C1095.42 163.652 1095.42 167.133 1093.27 169.28L1082.56 179.995C1080.41 182.142 1080.41 185.622 1082.56 187.769L1086.51 191.718C1088.65 193.865 1092.13 193.865 1094.28 191.718L1104.99 181.003C1107.14 178.857 1110.62 178.857 1112.77 181.003L1117.83 186.063C1121.95 190.187 1124.27 195.78 1124.27 201.611V440.382C1124.27 446.214 1121.95 451.806 1117.83 455.93L1087.88 485.881C1083.76 490.004 1078.16 492.321 1072.33 492.321L833.56 492.321C827.728 492.321 822.135 490.004 818.012 485.881L812.948 480.817C810.802 478.67 810.802 475.19 812.949 473.043L823.652 462.34C825.799 460.193 825.799 456.713 823.652 454.566L819.702 450.616C817.556 448.47 814.075 448.47 811.928 450.616L801.225 461.319C799.078 463.466 795.598 463.466 793.451 461.319L788.062 455.93C783.938 451.806 781.621 446.213 781.621 440.382V201.611C781.621 195.78 783.938 190.187 788.062 186.063L818.012 156.112C822.135 151.989 827.728 149.672 833.56 149.672L1072.33 149.672ZM883.684 218.76C865.468 218.76 850.7 233.526 850.7 251.742V390.261C850.7 408.476 865.468 423.243 883.684 423.243L1022.2 423.243C1040.42 423.243 1055.18 408.476 1055.18 390.261V251.742C1055.18 233.527 1040.42 218.76 1022.2 218.76L883.684 218.76Z" fill="url(#paint5_linear_6640_30670)"/>
</g>
<rect x="850.699" y="218.758" width="204.484" height="204.484" rx="32.9826" fill="#1D1D1D"/>
<g filter="url(#filter12_din_6640_30670)">
<rect x="883.867" y="251.914" width="138.165" height="138.165" rx="5.4971" fill="url(#paint6_linear_6640_30670)"/>
</g>
<g filter="url(#filter13_di_6640_30670)">
<path d="M930.44 311.602L921.277 342.324" stroke="url(#paint7_linear_6640_30670)" stroke-width="5.27814" stroke-linecap="round"/>
<mask id="mask0_6640_30670" style="mask-type:alpha" maskUnits="userSpaceOnUse" x="926" y="300" width="67" height="42">
<mask id="path-20-inside-1_6640_30670" fill="white">
<path d="M956.848 317.707C956.848 308.087 964.646 300.289 974.266 300.289H975.543C985.163 300.289 992.961 308.087 992.961 317.707V338.926H956.848V317.707Z"/>
</mask>
<path d="M951.57 317.707C951.57 305.172 961.731 295.011 974.266 295.011H975.543C988.078 295.011 998.239 305.172 998.239 317.707H987.683C987.683 311.002 982.248 305.567 975.543 305.567H974.266C967.561 305.567 962.126 311.002 962.126 317.707H951.57ZM992.961 338.926H956.848H992.961ZM951.57 338.926V317.707C951.57 305.172 961.731 295.011 974.266 295.011V305.567C967.561 305.567 962.126 311.002 962.126 317.707V338.926H951.57ZM975.543 295.011C988.078 295.011 998.239 305.172 998.239 317.707V338.926H987.683V317.707C987.683 311.002 982.248 305.567 975.543 305.567V295.011Z" fill="white" mask="url(#path-20-inside-1_6640_30670)"/>
<ellipse cx="990.261" cy="338.921" rx="2.69479" ry="2.32732" fill="#A66CFF"/>
<mask id="path-23-inside-2_6640_30670" fill="white">
<path d="M926.129 317.707C926.129 308.087 933.927 300.289 943.547 300.289H944.825C954.444 300.289 962.242 308.087 962.242 317.707V338.926H926.129V317.707Z"/>
</mask>
<path d="M920.851 317.707C920.851 305.172 931.012 295.011 943.547 295.011H944.825C957.359 295.011 967.521 305.172 967.521 317.707H956.964C956.964 311.002 951.529 305.567 944.825 305.567H943.547C936.842 305.567 931.407 311.002 931.407 317.707H920.851ZM962.242 338.926H926.129H962.242ZM920.851 338.926V317.707C920.851 305.172 931.012 295.011 943.547 295.011V305.567C936.842 305.567 931.407 311.002 931.407 317.707V338.926H920.851ZM944.825 295.011C957.359 295.011 967.521 305.172 967.521 317.707V338.926H956.964V317.707C956.964 311.002 951.529 305.567 944.825 305.567V295.011Z" fill="#A66CFF" mask="url(#path-23-inside-2_6640_30670)"/>
<ellipse cx="959.542" cy="338.921" rx="2.69479" ry="2.32732" fill="#A66CFF"/>
</mask>
<g mask="url(#mask0_6640_30670)">
<path d="M928.215 298.891L995.771 299.615V343.103L987.482 341.031V319.615C987.482 319.615 988.172 305.799 975.047 305.799C961.23 305.799 962.223 319.615 962.223 319.615V343.103H956.701V316.101C954.849 306.061 948.376 304.879 944.541 304.627C941.81 304.448 940.045 304.645 937.669 306.061C935.692 307.24 933.337 309.647 932.65 311.081C931 314.524 923.926 310.235 923.926 310.235L928.215 298.891Z" fill="white"/>
</g>
<circle cx="927.467" cy="323.119" r="10.5662" stroke="white" stroke-width="5.27814"/>
</g>
</g>
<defs>
<filter id="filter0_din_6640_30670" x="949.285" y="129.482" width="327.078" height="386.078" filterUnits="userSpaceOnUse" color-interpolation-filters="sRGB">
<feFlood flood-opacity="0" result="BackgroundImageFix"/>
<feColorMatrix in="SourceAlpha" type="matrix" values="0 0 0 0 0 0 0 0 0 0 0 0 0 0 0 0 0 0 127 0" result="hardAlpha"/>
<feOffset dy="5.84917"/>
<feGaussianBlur stdDeviation="38.0196"/>
<feComposite in2="hardAlpha" operator="out"/>
<feColorMatrix type="matrix" values="0 0 0 0 0 0 0 0 0 0 0 0 0 0 0 0 0 0 0.55 0"/>
<feBlend mode="normal" in2="BackgroundImageFix" result="effect1_dropShadow_6640_30670"/>
<feBlend mode="normal" in="SourceGraphic" in2="BackgroundImageFix" result="shape"/>
<feColorMatrix in="SourceAlpha" type="matrix" values="0 0 0 0 0 0 0 0 0 0 0 0 0 0 0 0 0 0 127 0" result="hardAlpha"/>
<feOffset dy="-4.38688"/>
<feGaussianBlur stdDeviation="0.584917"/>
<feComposite in2="hardAlpha" operator="arithmetic" k2="-1" k3="1"/>
<feColorMatrix type="matrix" values="0 0 0 0 0 0 0 0 0 0 0 0 0 0 0 0 0 0 0.25 0"/>
<feBlend mode="normal" in2="shape" result="effect2_innerShadow_6640_30670"/>
<feTurbulence type="fractalNoise" baseFrequency="6.8385791778564453 6.8385791778564453" stitchTiles="stitch" numOctaves="3" result="noise" seed="5938" />
<feColorMatrix in="noise" type="luminanceToAlpha" result="alphaNoise" />
<feComponentTransfer in="alphaNoise" result="coloredNoise1">
<feFuncA type="discrete" tableValues="1 1 1 1 1 1 1 1 1 1 1 1 1 1 1 1 1 1 1 1 1 1 1 1 1 1 1 1 1 1 1 1 1 1 1 1 1 1 1 1 1 1 1 1 1 1 1 1 1 1 1 0 0 0 0 0 0 0 0 0 0 0 0 0 0 0 0 0 0 0 0 0 0 0 0 0 0 0 0 0 0 0 0 0 0 0 0 0 0 0 0 0 0 0 0 0 0 0 0 0 "/>
</feComponentTransfer>
<feComposite operator="in" in2="effect2_innerShadow_6640_30670" in="coloredNoise1" result="noise1Clipped" />
<feFlood flood-color="rgba(0, 0, 0, 0.35)" result="color1Flood" />
<feComposite operator="in" in2="noise1Clipped" in="color1Flood" result="color1" />
<feMerge result="effect3_noise_6640_30670">
<feMergeNode in="effect2_innerShadow_6640_30670" />
<feMergeNode in="color1" />
</feMerge>
<feBlend mode="normal" in="effect3_noise_6640_30670" in2="effect1_dropShadow_6640_30670" result="effect3_noise_6640_30670"/>
</filter>
<filter id="filter1_di_6640_30670" x="1115.68" y="209.203" width="86" height="209.125" filterUnits="userSpaceOnUse" color-interpolation-filters="sRGB">
<feFlood flood-opacity="0" result="BackgroundImageFix"/>
<feColorMatrix in="SourceAlpha" type="matrix" values="0 0 0 0 0 0 0 0 0 0 0 0 0 0 0 0 0 0 127 0" result="hardAlpha"/>
<feOffset/>
<feGaussianBlur stdDeviation="14"/>
<feComposite in2="hardAlpha" operator="out"/>
<feColorMatrix type="matrix" values="0 0 0 0 0.768627 0 0 0 0 0.545098 0 0 0 0 0.937255 0 0 0 1 0"/>
<feBlend mode="normal" in2="BackgroundImageFix" result="effect1_dropShadow_6640_30670"/>
<feBlend mode="normal" in="SourceGraphic" in2="effect1_dropShadow_6640_30670" result="shape"/>
<feColorMatrix in="SourceAlpha" type="matrix" values="0 0 0 0 0 0 0 0 0 0 0 0 0 0 0 0 0 0 127 0" result="hardAlpha"/>
<feOffset dx="-1"/>
<feGaussianBlur stdDeviation="0.5"/>
<feComposite in2="hardAlpha" operator="arithmetic" k2="-1" k3="1"/>
<feColorMatrix type="matrix" values="0 0 0 0 0 0 0 0 0 0 0 0 0 0 0 0 0 0 0.25 0"/>
<feBlend mode="normal" in2="shape" result="effect2_innerShadow_6640_30670"/>
</filter>
<filter id="filter2_din_6640_30670" x="610.289" y="255.951" width="282.008" height="265.766" filterUnits="userSpaceOnUse" color-interpolation-filters="sRGB">
<feFlood flood-opacity="0" result="BackgroundImageFix"/>
<feColorMatrix in="SourceAlpha" type="matrix" values="0 0 0 0 0 0 0 0 0 0 0 0 0 0 0 0 0 0 127 0" result="hardAlpha"/>
<feOffset dy="5.84917"/>
<feGaussianBlur stdDeviation="38.0196"/>
<feComposite in2="hardAlpha" operator="out"/>
<feColorMatrix type="matrix" values="0 0 0 0 0 0 0 0 0 0 0 0 0 0 0 0 0 0 0.55 0"/>
<feBlend mode="normal" in2="BackgroundImageFix" result="effect1_dropShadow_6640_30670"/>
<feBlend mode="normal" in="SourceGraphic" in2="BackgroundImageFix" result="shape"/>
<feColorMatrix in="SourceAlpha" type="matrix" values="0 0 0 0 0 0 0 0 0 0 0 0 0 0 0 0 0 0 127 0" result="hardAlpha"/>
<feOffset dy="-4.38688"/>
<feGaussianBlur stdDeviation="0.584917"/>
<feComposite in2="hardAlpha" operator="arithmetic" k2="-1" k3="1"/>
<feColorMatrix type="matrix" values="0 0 0 0 0 0 0 0 0 0 0 0 0 0 0 0 0 0 0.25 0"/>
<feBlend mode="normal" in2="shape" result="effect2_innerShadow_6640_30670"/>
<feTurbulence type="fractalNoise" baseFrequency="6.8385791778564453 6.8385791778564453" stitchTiles="stitch" numOctaves="3" result="noise" seed="5938" />
<feColorMatrix in="noise" type="luminanceToAlpha" result="alphaNoise" />
<feComponentTransfer in="alphaNoise" result="coloredNoise1">
<feFuncA type="discrete" tableValues="1 1 1 1 1 1 1 1 1 1 1 1 1 1 1 1 1 1 1 1 1 1 1 1 1 1 1 1 1 1 1 1 1 1 1 1 1 1 1 1 1 1 1 1 1 1 1 1 1 1 1 0 0 0 0 0 0 0 0 0 0 0 0 0 0 0 0 0 0 0 0 0 0 0 0 0 0 0 0 0 0 0 0 0 0 0 0 0 0 0 0 0 0 0 0 0 0 0 0 0 "/>
</feComponentTransfer>
<feComposite operator="in" in2="effect2_innerShadow_6640_30670" in="coloredNoise1" result="noise1Clipped" />
<feFlood flood-color="rgba(0, 0, 0, 0.35)" result="color1Flood" />
<feComposite operator="in" in2="noise1Clipped" in="color1Flood" result="color1" />
<feMerge result="effect3_noise_6640_30670">
<feMergeNode in="effect2_innerShadow_6640_30670" />
<feMergeNode in="color1" />
</feMerge>
<feBlend mode="normal" in="effect3_noise_6640_30670" in2="effect1_dropShadow_6640_30670" result="effect3_noise_6640_30670"/>
</filter>
<filter id="filter3_di_6640_30670" x="674.176" y="383.008" width="103.59" height="67.1172" filterUnits="userSpaceOnUse" color-interpolation-filters="sRGB">
<feFlood flood-opacity="0" result="BackgroundImageFix"/>
<feColorMatrix in="SourceAlpha" type="matrix" values="0 0 0 0 0 0 0 0 0 0 0 0 0 0 0 0 0 0 127 0" result="hardAlpha"/>
<feOffset/>
<feGaussianBlur stdDeviation="14"/>
<feComposite in2="hardAlpha" operator="out"/>
<feColorMatrix type="matrix" values="0 0 0 0 0.768627 0 0 0 0 0.545098 0 0 0 0 0.937255 0 0 0 1 0"/>
<feBlend mode="normal" in2="BackgroundImageFix" result="effect1_dropShadow_6640_30670"/>
<feBlend mode="normal" in="SourceGraphic" in2="effect1_dropShadow_6640_30670" result="shape"/>
<feColorMatrix in="SourceAlpha" type="matrix" values="0 0 0 0 0 0 0 0 0 0 0 0 0 0 0 0 0 0 127 0" result="hardAlpha"/>
<feOffset dx="-1"/>
<feGaussianBlur stdDeviation="0.5"/>
<feComposite in2="hardAlpha" operator="arithmetic" k2="-1" k3="1"/>
<feColorMatrix type="matrix" values="0 0 0 0 0 0 0 0 0 0 0 0 0 0 0 0 0 0 0.25 0"/>
<feBlend mode="normal" in2="shape" result="effect2_innerShadow_6640_30670"/>
</filter>
<filter id="filter4_di_6640_30670" x="672.93" y="311.836" width="99.1562" height="92.4219" filterUnits="userSpaceOnUse" color-interpolation-filters="sRGB">
<feFlood flood-opacity="0" result="BackgroundImageFix"/>
<feColorMatrix in="SourceAlpha" type="matrix" values="0 0 0 0 0 0 0 0 0 0 0 0 0 0 0 0 0 0 127 0" result="hardAlpha"/>
<feOffset/>
<feGaussianBlur stdDeviation="14"/>
<feComposite in2="hardAlpha" operator="out"/>
<feColorMatrix type="matrix" values="0 0 0 0 0.768627 0 0 0 0 0.545098 0 0 0 0 0.937255 0 0 0 1 0"/>
<feBlend mode="normal" in2="BackgroundImageFix" result="effect1_dropShadow_6640_30670"/>
<feBlend mode="normal" in="SourceGraphic" in2="effect1_dropShadow_6640_30670" result="shape"/>
<feColorMatrix in="SourceAlpha" type="matrix" values="0 0 0 0 0 0 0 0 0 0 0 0 0 0 0 0 0 0 127 0" result="hardAlpha"/>
<feOffset dx="-1"/>
<feGaussianBlur stdDeviation="0.5"/>
<feComposite in2="hardAlpha" operator="arithmetic" k2="-1" k3="1"/>
<feColorMatrix type="matrix" values="0 0 0 0 0 0 0 0 0 0 0 0 0 0 0 0 0 0 0.25 0"/>
<feBlend mode="normal" in2="shape" result="effect2_innerShadow_6640_30670"/>
</filter>
<filter id="filter5_din_6640_30670" x="610.289" y="129.638" width="282.008" height="265.766" filterUnits="userSpaceOnUse" color-interpolation-filters="sRGB">
<feFlood flood-opacity="0" result="BackgroundImageFix"/>
<feColorMatrix in="SourceAlpha" type="matrix" values="0 0 0 0 0 0 0 0 0 0 0 0 0 0 0 0 0 0 127 0" result="hardAlpha"/>
<feOffset dy="5.84917"/>
<feGaussianBlur stdDeviation="38.0196"/>
<feComposite in2="hardAlpha" operator="out"/>
<feColorMatrix type="matrix" values="0 0 0 0 0 0 0 0 0 0 0 0 0 0 0 0 0 0 0.55 0"/>
<feBlend mode="normal" in2="BackgroundImageFix" result="effect1_dropShadow_6640_30670"/>
<feBlend mode="normal" in="SourceGraphic" in2="BackgroundImageFix" result="shape"/>
<feColorMatrix in="SourceAlpha" type="matrix" values="0 0 0 0 0 0 0 0 0 0 0 0 0 0 0 0 0 0 127 0" result="hardAlpha"/>
<feOffset dy="-4.38688"/>
<feGaussianBlur stdDeviation="0.584917"/>
<feComposite in2="hardAlpha" operator="arithmetic" k2="-1" k3="1"/>
<feColorMatrix type="matrix" values="0 0 0 0 0 0 0 0 0 0 0 0 0 0 0 0 0 0 0.25 0"/>
<feBlend mode="normal" in2="shape" result="effect2_innerShadow_6640_30670"/>
<feTurbulence type="fractalNoise" baseFrequency="6.8385791778564453 6.8385791778564453" stitchTiles="stitch" numOctaves="3" result="noise" seed="5938" />
<feColorMatrix in="noise" type="luminanceToAlpha" result="alphaNoise" />
<feComponentTransfer in="alphaNoise" result="coloredNoise1">
<feFuncA type="discrete" tableValues="1 1 1 1 1 1 1 1 1 1 1 1 1 1 1 1 1 1 1 1 1 1 1 1 1 1 1 1 1 1 1 1 1 1 1 1 1 1 1 1 1 1 1 1 1 1 1 1 1 1 1 0 0 0 0 0 0 0 0 0 0 0 0 0 0 0 0 0 0 0 0 0 0 0 0 0 0 0 0 0 0 0 0 0 0 0 0 0 0 0 0 0 0 0 0 0 0 0 0 0 "/>
</feComponentTransfer>
<feComposite operator="in" in2="effect2_innerShadow_6640_30670" in="coloredNoise1" result="noise1Clipped" />
<feFlood flood-color="rgba(0, 0, 0, 0.35)" result="color1Flood" />
<feComposite operator="in" in2="noise1Clipped" in="color1Flood" result="color1" />
<feMerge result="effect3_noise_6640_30670">
<feMergeNode in="effect2_innerShadow_6640_30670" />
<feMergeNode in="color1" />
</feMerge>
<feBlend mode="normal" in="effect3_noise_6640_30670" in2="effect1_dropShadow_6640_30670" result="effect3_noise_6640_30670"/>
</filter>
<filter id="filter6_di_6640_30670" x="672.176" y="249.883" width="87.707" height="67.2422" filterUnits="userSpaceOnUse" color-interpolation-filters="sRGB">
<feFlood flood-opacity="0" result="BackgroundImageFix"/>
<feColorMatrix in="SourceAlpha" type="matrix" values="0 0 0 0 0 0 0 0 0 0 0 0 0 0 0 0 0 0 127 0" result="hardAlpha"/>
<feOffset/>
<feGaussianBlur stdDeviation="14"/>
<feComposite in2="hardAlpha" operator="out"/>
<feColorMatrix type="matrix" values="0 0 0 0 0.768627 0 0 0 0 0.545098 0 0 0 0 0.937255 0 0 0 1 0"/>
<feBlend mode="normal" in2="BackgroundImageFix" result="effect1_dropShadow_6640_30670"/>
<feBlend mode="normal" in="SourceGraphic" in2="effect1_dropShadow_6640_30670" result="shape"/>
<feColorMatrix in="SourceAlpha" type="matrix" values="0 0 0 0 0 0 0 0 0 0 0 0 0 0 0 0 0 0 127 0" result="hardAlpha"/>
<feOffset dx="-1"/>
<feGaussianBlur stdDeviation="0.5"/>
<feComposite in2="hardAlpha" operator="arithmetic" k2="-1" k3="1"/>
<feColorMatrix type="matrix" values="0 0 0 0 0 0 0 0 0 0 0 0 0 0 0 0 0 0 0.25 0"/>
<feBlend mode="normal" in2="shape" result="effect2_innerShadow_6640_30670"/>
</filter>
<filter id="filter7_di_6640_30670" x="672.926" y="186.742" width="99.1562" height="79" filterUnits="userSpaceOnUse" color-interpolation-filters="sRGB">
<feFlood flood-opacity="0" result="BackgroundImageFix"/>
<feColorMatrix in="SourceAlpha" type="matrix" values="0 0 0 0 0 0 0 0 0 0 0 0 0 0 0 0 0 0 127 0" result="hardAlpha"/>
<feOffset/>
<feGaussianBlur stdDeviation="14"/>
<feComposite in2="hardAlpha" operator="out"/>
<feColorMatrix type="matrix" values="0 0 0 0 0.768627 0 0 0 0 0.545098 0 0 0 0 0.937255 0 0 0 1 0"/>
<feBlend mode="normal" in2="BackgroundImageFix" result="effect1_dropShadow_6640_30670"/>
<feBlend mode="normal" in="SourceGraphic" in2="effect1_dropShadow_6640_30670" result="shape"/>
<feColorMatrix in="SourceAlpha" type="matrix" values="0 0 0 0 0 0 0 0 0 0 0 0 0 0 0 0 0 0 127 0" result="hardAlpha"/>
<feOffset dx="-1"/>
<feGaussianBlur stdDeviation="0.5"/>
<feComposite in2="hardAlpha" operator="arithmetic" k2="-1" k3="1"/>
<feColorMatrix type="matrix" values="0 0 0 0 0 0 0 0 0 0 0 0 0 0 0 0 0 0 0.25 0"/>
<feBlend mode="normal" in2="shape" result="effect2_innerShadow_6640_30670"/>
</filter>
<filter id="filter8_di_6640_30670" x="702" y="200" width="64.457" height="64.4531" filterUnits="userSpaceOnUse" color-interpolation-filters="sRGB">
<feFlood flood-opacity="0" result="BackgroundImageFix"/>
<feColorMatrix in="SourceAlpha" type="matrix" values="0 0 0 0 0 0 0 0 0 0 0 0 0 0 0 0 0 0 127 0" result="hardAlpha"/>
<feOffset/>
<feGaussianBlur stdDeviation="14"/>
<feComposite in2="hardAlpha" operator="out"/>
<feColorMatrix type="matrix" values="0 0 0 0 0.768627 0 0 0 0 0.545098 0 0 0 0 0.937255 0 0 0 1 0"/>
<feBlend mode="normal" in2="BackgroundImageFix" result="effect1_dropShadow_6640_30670"/>
<feBlend mode="normal" in="SourceGraphic" in2="effect1_dropShadow_6640_30670" result="shape"/>
<feColorMatrix in="SourceAlpha" type="matrix" values="0 0 0 0 0 0 0 0 0 0 0 0 0 0 0 0 0 0 127 0" result="hardAlpha"/>
<feOffset dx="-1"/>
<feGaussianBlur stdDeviation="0.5"/>
<feComposite in2="hardAlpha" operator="arithmetic" k2="-1" k3="1"/>
<feColorMatrix type="matrix" values="0 0 0 0 0 0 0 0 0 0 0 0 0 0 0 0 0 0 0.25 0"/>
<feBlend mode="normal" in2="shape" result="effect2_innerShadow_6640_30670"/>
</filter>
<filter id="filter9_di_6640_30670" x="706" y="210" width="64.457" height="64.4531" filterUnits="userSpaceOnUse" color-interpolation-filters="sRGB">
<feFlood flood-opacity="0" result="BackgroundImageFix"/>
<feColorMatrix in="SourceAlpha" type="matrix" values="0 0 0 0 0 0 0 0 0 0 0 0 0 0 0 0 0 0 127 0" result="hardAlpha"/>
<feOffset/>
<feGaussianBlur stdDeviation="14"/>
<feComposite in2="hardAlpha" operator="out"/>
<feColorMatrix type="matrix" values="0 0 0 0 0.768627 0 0 0 0 0.545098 0 0 0 0 0.937255 0 0 0 1 0"/>
<feBlend mode="normal" in2="BackgroundImageFix" result="effect1_dropShadow_6640_30670"/>
<feBlend mode="normal" in="SourceGraphic" in2="effect1_dropShadow_6640_30670" result="shape"/>
<feColorMatrix in="SourceAlpha" type="matrix" values="0 0 0 0 0 0 0 0 0 0 0 0 0 0 0 0 0 0 127 0" result="hardAlpha"/>
<feOffset dx="-1"/>
<feGaussianBlur stdDeviation="0.5"/>
<feComposite in2="hardAlpha" operator="arithmetic" k2="-1" k3="1"/>
<feColorMatrix type="matrix" values="0 0 0 0 0 0 0 0 0 0 0 0 0 0 0 0 0 0 0.25 0"/>
<feBlend mode="normal" in2="shape" result="effect2_innerShadow_6640_30670"/>
</filter>
<filter id="filter10_di_6640_30670" x="695" y="208" width="64.457" height="64.4531" filterUnits="userSpaceOnUse" color-interpolation-filters="sRGB">
<feFlood flood-opacity="0" result="BackgroundImageFix"/>
<feColorMatrix in="SourceAlpha" type="matrix" values="0 0 0 0 0 0 0 0 0 0 0 0 0 0 0 0 0 0 127 0" result="hardAlpha"/>
<feOffset/>
<feGaussianBlur stdDeviation="14"/>
<feComposite in2="hardAlpha" operator="out"/>
<feColorMatrix type="matrix" values="0 0 0 0 0.768627 0 0 0 0 0.545098 0 0 0 0 0.937255 0 0 0 1 0"/>
<feBlend mode="normal" in2="BackgroundImageFix" result="effect1_dropShadow_6640_30670"/>
<feBlend mode="normal" in="SourceGraphic" in2="effect1_dropShadow_6640_30670" result="shape"/>
<feColorMatrix in="SourceAlpha" type="matrix" values="0 0 0 0 0 0 0 0 0 0 0 0 0 0 0 0 0 0 127 0" result="hardAlpha"/>
<feOffset dx="-1"/>
<feGaussianBlur stdDeviation="0.5"/>
<feComposite in2="hardAlpha" operator="arithmetic" k2="-1" k3="1"/>
<feColorMatrix type="matrix" values="0 0 0 0 0 0 0 0 0 0 0 0 0 0 0 0 0 0 0.25 0"/>
<feBlend mode="normal" in2="shape" result="effect2_innerShadow_6640_30670"/>
</filter>
<filter id="filter11_din_6640_30670" x="710.159" y="83.7066" width="485.573" height="485.573" filterUnits="userSpaceOnUse" color-interpolation-filters="sRGB">
<feFlood flood-opacity="0" result="BackgroundImageFix"/>
<feColorMatrix in="SourceAlpha" type="matrix" values="0 0 0 0 0 0 0 0 0 0 0 0 0 0 0 0 0 0 127 0" result="hardAlpha"/>
<feOffset dy="5.4971"/>
<feGaussianBlur stdDeviation="35.7312"/>
<feComposite in2="hardAlpha" operator="out"/>
<feColorMatrix type="matrix" values="0 0 0 0 0 0 0 0 0 0 0 0 0 0 0 0 0 0 0.55 0"/>
<feBlend mode="normal" in2="BackgroundImageFix" result="effect1_dropShadow_6640_30670"/>
<feBlend mode="normal" in="SourceGraphic" in2="BackgroundImageFix" result="shape"/>
<feColorMatrix in="SourceAlpha" type="matrix" values="0 0 0 0 0 0 0 0 0 0 0 0 0 0 0 0 0 0 127 0" result="hardAlpha"/>
<feOffset dy="-4.12283"/>
<feGaussianBlur stdDeviation="0.54971"/>
<feComposite in2="hardAlpha" operator="arithmetic" k2="-1" k3="1"/>
<feColorMatrix type="matrix" values="0 0 0 0 0 0 0 0 0 0 0 0 0 0 0 0 0 0 0.25 0"/>
<feBlend mode="normal" in2="shape" result="effect2_innerShadow_6640_30670"/>
<feTurbulence type="fractalNoise" baseFrequency="7.2765612602233887 7.2765612602233887" stitchTiles="stitch" numOctaves="3" result="noise" seed="5938" />
<feColorMatrix in="noise" type="luminanceToAlpha" result="alphaNoise" />
<feComponentTransfer in="alphaNoise" result="coloredNoise1">
<feFuncA type="discrete" tableValues="1 1 1 1 1 1 1 1 1 1 1 1 1 1 1 1 1 1 1 1 1 1 1 1 1 1 1 1 1 1 1 1 1 1 1 1 1 1 1 1 1 1 1 1 1 1 1 1 1 1 1 0 0 0 0 0 0 0 0 0 0 0 0 0 0 0 0 0 0 0 0 0 0 0 0 0 0 0 0 0 0 0 0 0 0 0 0 0 0 0 0 0 0 0 0 0 0 0 0 0 "/>
</feComponentTransfer>
<feComposite operator="in" in2="effect2_innerShadow_6640_30670" in="coloredNoise1" result="noise1Clipped" />
<feFlood flood-color="rgba(0, 0, 0, 0.35)" result="color1Flood" />
<feComposite operator="in" in2="noise1Clipped" in="color1Flood" result="color1" />
<feMerge result="effect3_noise_6640_30670">
<feMergeNode in="effect2_innerShadow_6640_30670" />
<feMergeNode in="color1" />
</feMerge>
<feBlend mode="normal" in="effect3_noise_6640_30670" in2="effect1_dropShadow_6640_30670" result="effect3_noise_6640_30670"/>
</filter>
<filter id="filter12_din_6640_30670" x="812.405" y="185.949" width="281.089" height="281.089" filterUnits="userSpaceOnUse" color-interpolation-filters="sRGB">
<feFlood flood-opacity="0" result="BackgroundImageFix"/>
<feColorMatrix in="SourceAlpha" type="matrix" values="0 0 0 0 0 0 0 0 0 0 0 0 0 0 0 0 0 0 127 0" result="hardAlpha"/>
<feOffset dy="5.4971"/>
<feGaussianBlur stdDeviation="35.7312"/>
<feComposite in2="hardAlpha" operator="out"/>
<feColorMatrix type="matrix" values="0 0 0 0 0 0 0 0 0 0 0 0 0 0 0 0 0 0 0.25 0"/>
<feBlend mode="normal" in2="BackgroundImageFix" result="effect1_dropShadow_6640_30670"/>
<feBlend mode="normal" in="SourceGraphic" in2="BackgroundImageFix" result="shape"/>
<feColorMatrix in="SourceAlpha" type="matrix" values="0 0 0 0 0 0 0 0 0 0 0 0 0 0 0 0 0 0 127 0" result="hardAlpha"/>
<feOffset dy="-4.12283"/>
<feGaussianBlur stdDeviation="0.54971"/>
<feComposite in2="hardAlpha" operator="arithmetic" k2="-1" k3="1"/>
<feColorMatrix type="matrix" values="0 0 0 0 0 0 0 0 0 0 0 0 0 0 0 0 0 0 0.25 0"/>
<feBlend mode="normal" in2="shape" result="effect2_innerShadow_6640_30670"/>
<feTurbulence type="fractalNoise" baseFrequency="7.2765612602233887 7.2765612602233887" stitchTiles="stitch" numOctaves="3" result="noise" seed="5938" />
<feColorMatrix in="noise" type="luminanceToAlpha" result="alphaNoise" />
<feComponentTransfer in="alphaNoise" result="coloredNoise1">
<feFuncA type="discrete" tableValues="1 1 1 1 1 1 1 1 1 1 1 1 1 1 1 1 1 1 1 1 1 1 1 1 1 1 1 1 1 1 1 1 1 1 1 1 1 1 1 1 1 1 1 1 1 1 1 1 1 1 1 0 0 0 0 0 0 0 0 0 0 0 0 0 0 0 0 0 0 0 0 0 0 0 0 0 0 0 0 0 0 0 0 0 0 0 0 0 0 0 0 0 0 0 0 0 0 0 0 0 "/>
</feComponentTransfer>
<feComposite operator="in" in2="effect2_innerShadow_6640_30670" in="coloredNoise1" result="noise1Clipped" />
<feFlood flood-color="rgba(0, 0, 0, 0.35)" result="color1Flood" />
<feComposite operator="in" in2="noise1Clipped" in="color1Flood" result="color1" />
<feMerge result="effect3_noise_6640_30670">
<feMergeNode in="effect2_innerShadow_6640_30670" />
<feMergeNode in="color1" />
</feMerge>
<feBlend mode="normal" in="effect3_noise_6640_30670" in2="effect1_dropShadow_6640_30670" result="effect3_noise_6640_30670"/>
</filter>
<filter id="filter13_di_6640_30670" x="901.202" y="287.229" width="104.819" height="70.7919" filterUnits="userSpaceOnUse" color-interpolation-filters="sRGB">
<feFlood flood-opacity="0" result="BackgroundImageFix"/>
<feColorMatrix in="SourceAlpha" type="matrix" values="0 0 0 0 0 0 0 0 0 0 0 0 0 0 0 0 0 0 127 0" result="hardAlpha"/>
<feOffset/>
<feGaussianBlur stdDeviation="6.53"/>
<feComposite in2="hardAlpha" operator="out"/>
<feColorMatrix type="matrix" values="0 0 0 0 0.768627 0 0 0 0 0.545098 0 0 0 0 0.937255 0 0 0 1 0"/>
<feBlend mode="normal" in2="BackgroundImageFix" result="effect1_dropShadow_6640_30670"/>
<feBlend mode="normal" in="SourceGraphic" in2="effect1_dropShadow_6640_30670" result="shape"/>
<feColorMatrix in="SourceAlpha" type="matrix" values="0 0 0 0 0 0 0 0 0 0 0 0 0 0 0 0 0 0 127 0" result="hardAlpha"/>
<feOffset dy="3.47656"/>
<feGaussianBlur stdDeviation="0.869139"/>
<feComposite in2="hardAlpha" operator="arithmetic" k2="-1" k3="1"/>
<feColorMatrix type="matrix" values="0 0 0 0 0 0 0 0 0 0 0 0 0 0 0 0 0 0 0.25 0"/>
<feBlend mode="normal" in2="shape" result="effect2_innerShadow_6640_30670"/>
</filter>
<linearGradient id="paint0_linear_6640_30670" x1="959.5" y1="323" x2="959.5" y2="644" gradientUnits="userSpaceOnUse">
<stop stop-color="white"/>
<stop offset="1" stop-color="#999999" stop-opacity="0"/>
</linearGradient>
<linearGradient id="paint1_linear_6640_30670" x1="484.5" y1="0" x2="484.5" y2="321" gradientUnits="userSpaceOnUse">
<stop stop-color="white"/>
<stop offset="1" stop-color="#999999" stop-opacity="0"/>
</linearGradient>
<linearGradient id="paint2_linear_6640_30670" x1="1200.32" y1="433.672" x2="989.581" y2="274.026" gradientUnits="userSpaceOnUse">
<stop stop-color="#232323"/>
<stop offset="1" stop-color="#595959"/>
</linearGradient>
<linearGradient id="paint3_linear_6640_30670" x1="809.447" y1="432.496" x2="702.487" y2="311.817" gradientUnits="userSpaceOnUse">
<stop stop-color="#232323"/>
<stop offset="1" stop-color="#595959"/>
</linearGradient>
<linearGradient id="paint4_linear_6640_30670" x1="801.064" y1="321.898" x2="680.385" y2="214.939" gradientUnits="userSpaceOnUse">
<stop stop-color="#232323"/>
<stop offset="1" stop-color="#595959"/>
</linearGradient>
<linearGradient id="paint5_linear_6640_30670" x1="781.621" y1="492.321" x2="1102.16" y2="167.634" gradientUnits="userSpaceOnUse">
<stop stop-color="#232323"/>
<stop offset="1" stop-color="#595959"/>
</linearGradient>
<linearGradient id="paint6_linear_6640_30670" x1="883.867" y1="390.079" x2="1013.12" y2="259.157" gradientUnits="userSpaceOnUse">
<stop stop-color="#232323"/>
<stop offset="1" stop-color="#595959"/>
</linearGradient>
<linearGradient id="paint7_linear_6640_30670" x1="921.543" y1="342.514" x2="928.017" y2="316.214" gradientUnits="userSpaceOnUse">
<stop stop-color="white"/>
<stop offset="1" stop-color="#343434" stop-opacity="0"/>
</linearGradient>
<clipPath id="clip0_6640_30670">
<path d="M0 16C0 7.16343 7.16344 0 16 0H1328C1336.84 0 1344 7.16344 1344 16V637C1344 645.837 1336.84 653 1328 653H16C7.16346 653 0 645.837 0 637V16Z" fill="white"/>
</clipPath>
</defs>
</svg>
