<svg width="1344" height="653" viewBox="0 0 1344 653" fill="none" xmlns="http://www.w3.org/2000/svg">
<g clip-path="url(#clip0_6665_26176)">
<circle opacity="0.1" cx="928.5" cy="710.5" r="482.5" fill="#D9D9D9" fill-opacity="0.05" stroke="url(#paint0_linear_6665_26176)" stroke-width="4"/>
<circle opacity="0.1" cx="484.5" cy="484.5" r="484" transform="matrix(1 0 0 -1 444 226)" fill="#D9D9D9" fill-opacity="0.05" stroke="url(#paint1_linear_6665_26176)"/>
<rect x="882.141" y="318.305" width="1.58603" height="111.022" rx="0.793017" fill="url(#paint2_linear_6665_26176)"/>
<rect x="882.141" y="410.289" width="1.58603" height="19.0324" rx="0.793017" fill="white"/>
<rect x="893.242" y="318.305" width="1.58603" height="111.022" rx="0.793017" fill="url(#paint3_linear_6665_26176)"/>
<rect x="893.242" y="410.289" width="1.58603" height="19.0324" rx="0.793017" fill="white"/>
<rect x="904.344" y="318.305" width="1.58603" height="111.022" rx="0.793017" fill="url(#paint4_linear_6665_26176)"/>
<rect x="904.344" y="410.289" width="1.58603" height="19.0324" rx="0.793017" fill="white"/>
<rect x="915.449" y="318.305" width="1.58603" height="111.022" rx="0.793017" fill="url(#paint5_linear_6665_26176)"/>
<rect x="915.449" y="410.289" width="1.58603" height="19.0324" rx="0.793017" fill="white"/>
<rect x="926.551" y="318.305" width="1.58603" height="111.022" rx="0.793017" fill="url(#paint6_linear_6665_26176)"/>
<rect x="926.551" y="410.289" width="1.58603" height="19.0324" rx="0.793017" fill="white"/>
<rect x="937.652" y="318.305" width="1.58603" height="111.022" rx="0.793017" fill="url(#paint7_linear_6665_26176)"/>
<rect x="937.652" y="410.289" width="1.58603" height="19.0324" rx="0.793017" fill="white"/>
<rect x="948.754" y="318.305" width="1.58603" height="111.022" rx="0.793017" fill="url(#paint8_linear_6665_26176)"/>
<rect x="948.754" y="410.289" width="1.58603" height="19.0324" rx="0.793017" fill="white"/>
<rect x="959.855" y="318.305" width="1.58603" height="111.022" rx="0.793017" fill="url(#paint9_linear_6665_26176)"/>
<rect x="959.855" y="410.289" width="1.58603" height="19.0324" rx="0.793017" fill="white"/>
<path d="M828.23 536.672L835.673 517.844H838.049L845.544 536.672H843.246L841.313 531.71H832.356L830.424 536.672H828.23ZM833.087 529.778H840.556L836.822 520.168L833.087 529.778ZM851.475 536.881C850.396 536.881 849.447 536.681 848.629 536.28C847.828 535.862 847.193 535.305 846.723 534.609C846.27 533.895 846.018 533.112 845.965 532.259H847.976C848.028 533.007 848.359 533.669 848.969 534.243C849.578 534.8 850.413 535.079 851.475 535.079C852.381 535.079 853.103 534.87 853.643 534.452C854.2 534.034 854.479 533.53 854.479 532.938C854.479 532.328 854.278 531.867 853.878 531.554C853.495 531.223 852.999 530.979 852.389 530.822L849.935 530.17C849.343 530.013 848.786 529.804 848.263 529.543C847.759 529.264 847.349 528.89 847.036 528.42C846.723 527.932 846.566 527.314 846.566 526.566C846.566 525.504 846.993 524.633 847.846 523.954C848.699 523.258 849.813 522.91 851.188 522.91C852.581 522.91 853.739 523.276 854.661 524.007C855.584 524.72 856.132 525.687 856.306 526.905H854.27C854.183 526.226 853.852 525.687 853.277 525.286C852.72 524.868 852.024 524.66 851.188 524.66C850.422 524.66 849.804 524.834 849.334 525.182C848.864 525.513 848.629 525.974 848.629 526.566C848.629 527.018 848.794 527.401 849.125 527.715C849.456 528.011 849.9 528.228 850.457 528.368L852.912 528.994C853.573 529.151 854.174 529.369 854.714 529.647C855.271 529.908 855.715 530.3 856.045 530.822C856.394 531.327 856.568 532.032 856.568 532.938C856.568 534.104 856.098 535.053 855.157 535.784C854.235 536.515 853.007 536.881 851.475 536.881ZM863.563 536.881C862.484 536.881 861.535 536.681 860.717 536.28C859.916 535.862 859.281 535.305 858.811 534.609C858.358 533.895 858.105 533.112 858.053 532.259H860.064C860.116 533.007 860.447 533.669 861.056 534.243C861.666 534.8 862.501 535.079 863.563 535.079C864.469 535.079 865.191 534.87 865.731 534.452C866.288 534.034 866.566 533.53 866.566 532.938C866.566 532.328 866.366 531.867 865.966 531.554C865.583 531.223 865.087 530.979 864.477 530.822L862.023 530.17C861.431 530.013 860.874 529.804 860.351 529.543C859.846 529.264 859.437 528.89 859.124 528.42C858.811 527.932 858.654 527.314 858.654 526.566C858.654 525.504 859.08 524.633 859.933 523.954C860.787 523.258 861.901 522.91 863.276 522.91C864.669 522.91 865.826 523.276 866.749 524.007C867.672 524.72 868.22 525.687 868.394 526.905H866.357C866.27 526.226 865.94 525.687 865.365 525.286C864.808 524.868 864.112 524.66 863.276 524.66C862.51 524.66 861.892 524.834 861.422 525.182C860.952 525.513 860.717 525.974 860.717 526.566C860.717 527.018 860.882 527.401 861.213 527.715C861.544 528.011 861.988 528.228 862.545 528.368L865 528.994C865.661 529.151 866.262 529.369 866.801 529.647C867.358 529.908 867.802 530.3 868.133 530.822C868.481 531.327 868.655 532.032 868.655 532.938C868.655 534.104 868.185 535.053 867.245 535.784C866.323 536.515 865.095 536.881 863.563 536.881ZM872.439 530.143C872.491 531.71 872.927 532.929 873.745 533.799C874.563 534.67 875.625 535.105 876.931 535.105C877.923 535.105 878.793 534.87 879.542 534.4C880.291 533.93 880.743 533.26 880.9 532.389H882.832C882.589 533.869 881.918 534.992 880.822 535.758C879.725 536.506 878.428 536.881 876.931 536.881C875.608 536.881 874.45 536.576 873.458 535.967C872.483 535.34 871.725 534.496 871.186 533.434C870.663 532.372 870.402 531.188 870.402 529.882C870.402 528.577 870.663 527.401 871.186 526.357C871.708 525.295 872.456 524.459 873.431 523.85C874.406 523.223 875.555 522.91 876.878 522.91C878.132 522.91 879.211 523.188 880.117 523.746C881.022 524.303 881.718 525.06 882.206 526.017C882.71 526.958 882.954 528.028 882.937 529.229C882.937 529.438 882.928 529.63 882.911 529.804C882.893 529.961 882.885 530.074 882.885 530.143H872.439ZM876.878 524.633C875.712 524.633 874.755 524.982 874.006 525.678C873.257 526.357 872.779 527.28 872.57 528.446H880.795C880.726 527.349 880.352 526.444 879.673 525.73C878.994 524.999 878.062 524.633 876.878 524.633ZM890.326 536.881C889.125 536.881 888.167 536.559 887.454 535.915C886.757 535.27 886.409 534.287 886.409 532.964V524.868H883.824V523.119H886.409V518.967H888.394V523.119H891.919V524.868H888.394V532.885C888.394 533.634 888.568 534.182 888.916 534.531C889.282 534.879 889.787 535.053 890.431 535.053C890.761 535.053 891.049 535.035 891.292 535.001C891.554 534.948 891.762 534.896 891.919 534.844V536.672C891.745 536.707 891.51 536.75 891.214 536.802C890.936 536.855 890.64 536.881 890.326 536.881ZM900.004 536.672V523.119H902.015V525.809C902.346 524.938 902.851 524.242 903.53 523.719C904.226 523.18 905.097 522.91 906.141 522.91C907.273 522.91 908.248 523.162 909.066 523.667C909.884 524.172 910.406 524.886 910.633 525.809C911.016 524.956 911.59 524.259 912.356 523.719C913.122 523.18 913.993 522.91 914.968 522.91C916.413 522.91 917.562 523.328 918.415 524.163C919.268 524.999 919.694 526.148 919.694 527.61V536.672H917.683V527.976C917.683 527.001 917.414 526.218 916.874 525.626C916.334 525.016 915.568 524.712 914.576 524.712C913.375 524.712 912.452 525.208 911.808 526.2C911.164 527.175 910.842 528.411 910.842 529.908V536.672H908.831V527.976C908.831 527.001 908.561 526.218 908.021 525.626C907.499 525.016 906.75 524.712 905.776 524.712C904.557 524.712 903.625 525.208 902.981 526.2C902.337 527.175 902.015 528.411 902.015 529.908V536.672H900.004ZM926.739 536.881C925.399 536.881 924.302 536.533 923.449 535.836C922.596 535.14 922.169 534.208 922.169 533.042C922.169 531.876 922.57 530.944 923.371 530.248C924.172 529.534 925.286 529.09 926.713 528.916L929.951 528.498C930.839 528.359 931.283 527.941 931.283 527.245C931.283 526.496 930.987 525.878 930.395 525.391C929.803 524.903 928.968 524.66 927.888 524.66C926.913 524.66 926.113 524.895 925.486 525.365C924.859 525.817 924.502 526.488 924.415 527.375H922.352C922.492 526.017 923.057 524.938 924.05 524.137C925.042 523.319 926.322 522.91 927.888 522.91C928.968 522.91 929.908 523.11 930.709 523.511C931.527 523.894 932.162 524.425 932.615 525.103C933.068 525.782 933.294 526.557 933.294 527.428V533.982C933.294 534.417 933.381 534.705 933.555 534.844C933.747 534.966 933.982 535.027 934.26 535.027C934.399 535.027 934.539 535.009 934.678 534.974V536.672C934.556 536.689 934.417 536.715 934.26 536.75C934.121 536.785 933.964 536.802 933.79 536.802C933.094 536.802 932.519 536.611 932.067 536.228C931.631 535.845 931.405 535.218 931.388 534.348C931.022 535.114 930.413 535.732 929.56 536.202C928.707 536.654 927.767 536.881 926.739 536.881ZM926.974 535.157C928.35 535.157 929.412 534.748 930.16 533.93C930.926 533.094 931.309 531.963 931.309 530.535V529.856L926.974 530.535C925.146 530.831 924.232 531.658 924.232 533.016C924.232 533.677 924.485 534.2 924.99 534.583C925.512 534.966 926.174 535.157 926.974 535.157ZM936.88 536.672V523.119H938.891V525.809C939.395 524.903 940.057 524.198 940.875 523.693C941.711 523.171 942.634 522.91 943.643 522.91C944.583 522.91 945.41 523.11 946.124 523.511C946.855 523.894 947.421 524.442 947.822 525.156C948.239 525.869 948.448 526.705 948.448 527.663V536.672H946.438V527.976C946.438 527.036 946.15 526.261 945.576 525.652C945.019 525.043 944.244 524.738 943.252 524.738C941.946 524.738 940.893 525.278 940.092 526.357C939.291 527.419 938.891 528.873 938.891 530.718V536.672H936.88ZM955.505 536.881C954.165 536.881 953.068 536.533 952.215 535.836C951.362 535.14 950.935 534.208 950.935 533.042C950.935 531.876 951.336 530.944 952.137 530.248C952.937 529.534 954.052 529.09 955.479 528.916L958.717 528.498C959.605 528.359 960.049 527.941 960.049 527.245C960.049 526.496 959.753 525.878 959.161 525.391C958.569 524.903 957.734 524.66 956.654 524.66C955.679 524.66 954.879 524.895 954.252 525.365C953.625 525.817 953.268 526.488 953.181 527.375H951.118C951.257 526.017 951.823 524.938 952.816 524.137C953.808 523.319 955.087 522.91 956.654 522.91C957.734 522.91 958.674 523.11 959.475 523.511C960.293 523.894 960.928 524.425 961.381 525.103C961.834 525.782 962.06 526.557 962.06 527.428V533.982C962.06 534.417 962.147 534.705 962.321 534.844C962.512 534.966 962.748 535.027 963.026 535.027C963.165 535.027 963.305 535.009 963.444 534.974V536.672C963.322 536.689 963.183 536.715 963.026 536.75C962.887 536.785 962.73 536.802 962.556 536.802C961.86 536.802 961.285 536.611 960.832 536.228C960.397 535.845 960.171 535.218 960.154 534.348C959.788 535.114 959.179 535.732 958.326 536.202C957.473 536.654 956.532 536.881 955.505 536.881ZM955.74 535.157C957.116 535.157 958.178 534.748 958.926 533.93C959.692 533.094 960.075 531.963 960.075 530.535V529.856L955.74 530.535C953.912 530.831 952.998 531.658 952.998 533.016C952.998 533.677 953.251 534.2 953.756 534.583C954.278 534.966 954.939 535.157 955.74 535.157ZM971.443 541.764C969.598 541.764 968.135 541.372 967.056 540.589C965.994 539.823 965.385 538.7 965.228 537.22H967.265C967.369 538.091 967.77 538.77 968.466 539.257C969.18 539.762 970.172 540.014 971.443 540.014C972.784 540.014 973.811 539.675 974.524 538.996C975.238 538.317 975.595 537.342 975.595 536.071V534.113C975.282 534.705 974.716 535.183 973.898 535.549C973.097 535.897 972.192 536.071 971.182 536.071C969.824 536.071 968.666 535.784 967.709 535.21C966.751 534.635 966.02 533.852 965.515 532.859C965.028 531.867 964.784 530.753 964.784 529.517C964.784 528.263 965.028 527.14 965.515 526.148C966.02 525.156 966.743 524.372 967.683 523.798C968.64 523.206 969.789 522.91 971.13 522.91C972.052 522.91 972.923 523.11 973.741 523.511C974.559 523.911 975.177 524.425 975.595 525.051V523.119H977.606V535.915C977.606 537.795 977.066 539.24 975.987 540.249C974.925 541.259 973.41 541.764 971.443 541.764ZM971.312 534.269C972.653 534.269 973.724 533.843 974.524 532.99C975.343 532.119 975.752 530.962 975.752 529.517C975.752 528.072 975.343 526.914 974.524 526.044C973.724 525.156 972.653 524.712 971.312 524.712C969.972 524.712 968.893 525.156 968.074 526.044C967.274 526.914 966.873 528.072 966.873 529.517C966.873 530.962 967.274 532.119 968.074 532.99C968.893 533.843 969.972 534.269 971.312 534.269ZM982.3 530.143C982.353 531.71 982.788 532.929 983.606 533.799C984.424 534.67 985.486 535.105 986.792 535.105C987.784 535.105 988.655 534.87 989.403 534.4C990.152 533.93 990.605 533.26 990.761 532.389H992.694C992.45 533.869 991.78 534.992 990.683 535.758C989.586 536.506 988.289 536.881 986.792 536.881C985.469 536.881 984.311 536.576 983.319 535.967C982.344 535.34 981.587 534.496 981.047 533.434C980.525 532.372 980.264 531.188 980.264 529.882C980.264 528.577 980.525 527.401 981.047 526.357C981.569 525.295 982.318 524.459 983.293 523.85C984.268 523.223 985.417 522.91 986.74 522.91C987.993 522.91 989.073 523.188 989.978 523.746C990.883 524.303 991.58 525.06 992.067 526.017C992.572 526.958 992.816 528.028 992.798 529.229C992.798 529.438 992.789 529.63 992.772 529.804C992.755 529.961 992.746 530.074 992.746 530.143H982.3ZM986.74 524.633C985.573 524.633 984.616 524.982 983.867 525.678C983.119 526.357 982.64 527.28 982.431 528.446H990.657C990.587 527.349 990.213 526.444 989.534 525.73C988.855 524.999 987.924 524.633 986.74 524.633ZM1002.95 524.921C1002.81 524.886 1002.62 524.851 1002.38 524.816C1002.15 524.764 1001.87 524.738 1001.54 524.738C1000.81 524.738 1000.13 524.99 999.504 525.495C998.895 525.983 998.408 526.723 998.042 527.715C997.676 528.707 997.494 529.961 997.494 531.475V536.672H995.483V523.119H997.494V525.913C997.72 525.339 998.051 524.825 998.486 524.372C998.939 523.92 999.452 523.563 1000.03 523.302C1000.6 523.04 1001.18 522.91 1001.78 522.91C1002.09 522.91 1002.33 522.919 1002.51 522.936C1002.68 522.953 1002.83 522.98 1002.95 523.014V524.921ZM1009.03 536.881C1007.95 536.881 1007 536.681 1006.18 536.28C1005.38 535.862 1004.74 535.305 1004.27 534.609C1003.82 533.895 1003.57 533.112 1003.52 532.259H1005.53C1005.58 533.007 1005.91 533.669 1006.52 534.243C1007.13 534.8 1007.96 535.079 1009.03 535.079C1009.93 535.079 1010.65 534.87 1011.19 534.452C1011.75 534.034 1012.03 533.53 1012.03 532.938C1012.03 532.328 1011.83 531.867 1011.43 531.554C1011.04 531.223 1010.55 530.979 1009.94 530.822L1007.48 530.17C1006.89 530.013 1006.34 529.804 1005.81 529.543C1005.31 529.264 1004.9 528.89 1004.59 528.42C1004.27 527.932 1004.12 527.314 1004.12 526.566C1004.12 525.504 1004.54 524.633 1005.4 523.954C1006.25 523.258 1007.36 522.91 1008.74 522.91C1010.13 522.91 1011.29 523.276 1012.21 524.007C1013.13 524.72 1013.68 525.687 1013.86 526.905H1011.82C1011.73 526.226 1011.4 525.687 1010.83 525.286C1010.27 524.868 1009.57 524.66 1008.74 524.66C1007.97 524.66 1007.35 524.834 1006.88 525.182C1006.41 525.513 1006.18 525.974 1006.18 526.566C1006.18 527.018 1006.34 527.401 1006.67 527.715C1007.01 528.011 1007.45 528.228 1008.01 528.368L1010.46 528.994C1011.12 529.151 1011.72 529.369 1012.26 529.647C1012.82 529.908 1013.26 530.3 1013.59 530.822C1013.94 531.327 1014.12 532.032 1014.12 532.938C1014.12 534.104 1013.65 535.053 1012.71 535.784C1011.78 536.515 1010.56 536.881 1009.03 536.881Z" fill="#6E6E6E"/>
<g filter="url(#filter0_din_6665_26176)">
<path d="M629.344 436.051C632.914 432.482 637.755 430.477 642.802 430.477H1199.2C1204.25 430.477 1209.09 432.482 1212.66 436.051L1233.43 456.821C1236.99 460.39 1239 465.231 1239 470.279V482.617C1239 493.129 1230.48 501.65 1219.97 501.65H1198.53H634.919H622.032C611.521 501.65 603 493.129 603 482.617V470.279C603 465.231 605.005 460.39 608.574 456.821L629.344 436.051Z" fill="url(#paint10_linear_6665_26176)"/>
</g>
<g filter="url(#filter1_din_6665_26176)">
<path d="M1010.72 99C1015.09 99 1019.28 100.737 1022.37 103.826L1026.35 107.805C1027.96 109.413 1027.96 112.021 1026.35 113.629L1018.4 121.582C1016.79 123.19 1016.79 125.798 1018.4 127.406L1021.31 130.319C1022.92 131.927 1025.53 131.927 1027.13 130.319L1035.09 122.366C1036.7 120.757 1039.3 120.757 1040.91 122.365L1044.64 126.094C1047.73 129.183 1049.46 133.374 1049.46 137.743V315.609C1049.46 319.979 1047.73 324.169 1044.64 327.259L1040.78 331.114C1039.18 332.723 1036.57 332.723 1034.96 331.114L1027.13 323.288C1025.53 321.68 1022.92 321.68 1021.31 323.289L1018.4 326.201C1016.79 327.809 1016.79 330.417 1018.4 332.025L1026.22 339.851C1027.83 341.459 1027.83 344.067 1026.22 345.675L1022.37 349.527C1019.28 352.617 1015.09 354.353 1010.72 354.353H832.855C828.487 354.352 824.296 352.617 821.207 349.527L817.476 345.796C815.867 344.188 815.867 341.58 817.476 339.972L825.422 332.025C827.03 330.417 827.03 327.809 825.422 326.201L822.51 323.288C820.901 321.68 818.294 321.68 816.685 323.288L808.738 331.234C807.13 332.843 804.522 332.843 802.914 331.234L798.938 327.259C795.849 324.169 794.113 319.979 794.113 315.609V137.743C794.113 133.374 795.849 129.183 798.938 126.094L802.787 122.245C804.395 120.637 807.003 120.637 808.611 122.245L816.685 130.319C818.294 131.927 820.902 131.927 822.51 130.319L825.422 127.406C827.03 125.798 827.03 123.19 825.422 121.582L817.348 113.508C815.74 111.9 815.74 109.292 817.348 107.683L821.207 103.825C824.296 100.736 828.487 99 832.855 99H1010.72ZM870.306 150.486C856.658 150.487 845.595 161.551 845.595 175.198V278.162C845.595 291.81 856.658 302.874 870.306 302.874H973.271C986.918 302.874 997.981 291.81 997.981 278.162V175.198C997.981 161.551 986.918 150.486 973.271 150.486H870.306Z" fill="url(#paint11_linear_6665_26176)"/>
</g>
<rect x="845.594" y="150.484" width="152.387" height="152.387" rx="24.7114" fill="#1D1D1D"/>
<g filter="url(#filter2_din_6665_26176)">
<rect x="870.309" y="175.195" width="102.964" height="102.964" rx="4.11857" fill="url(#paint12_linear_6665_26176)"/>
</g>
<g filter="url(#filter3_di_6665_26176)">
<path d="M905.02 219.672L898.191 242.568" stroke="url(#paint13_linear_6665_26176)" stroke-width="3.95452" stroke-linecap="round"/>
<mask id="mask0_6665_26176" style="mask-type:alpha" maskUnits="userSpaceOnUse" x="901" y="211" width="51" height="31">
<mask id="path-26-inside-1_6665_26176" fill="white">
<path d="M924.699 224.292C924.699 217.085 930.542 211.242 937.749 211.242H938.562C945.769 211.242 951.612 217.085 951.612 224.292V240.036H924.699V224.292Z"/>
</mask>
<path d="M920.745 224.292C920.745 214.901 928.358 207.288 937.749 207.288H938.562C947.953 207.288 955.567 214.901 955.567 224.292H947.658C947.658 219.269 943.585 215.197 938.562 215.197H937.749C932.726 215.197 928.654 219.269 928.654 224.292H920.745ZM951.612 240.036H924.699H951.612ZM920.745 240.036V224.292C920.745 214.901 928.358 207.288 937.749 207.288V215.197C932.726 215.197 928.654 219.269 928.654 224.292V240.036H920.745ZM938.562 207.288C947.953 207.288 955.567 214.901 955.567 224.292V240.036H947.658V224.292C947.658 219.269 943.585 215.197 938.562 215.197V207.288Z" fill="white" mask="url(#path-26-inside-1_6665_26176)"/>
<ellipse cx="949.598" cy="240.031" rx="2.00842" ry="1.73455" fill="#A66CFF"/>
<mask id="path-29-inside-2_6665_26176" fill="white">
<path d="M901.805 224.292C901.805 217.085 907.647 211.242 914.855 211.242H915.668C922.875 211.242 928.718 217.085 928.718 224.292V240.036H901.805V224.292Z"/>
</mask>
<path d="M897.85 224.292C897.85 214.901 905.463 207.288 914.855 207.288H915.668C925.059 207.288 932.672 214.901 932.672 224.292H924.763C924.763 219.269 920.691 215.197 915.668 215.197H914.855C909.831 215.197 905.759 219.269 905.759 224.292H897.85ZM928.718 240.036H901.805H928.718ZM897.85 240.036V224.292C897.85 214.901 905.463 207.288 914.855 207.288V215.197C909.831 215.197 905.759 219.269 905.759 224.292V240.036H897.85ZM915.668 207.288C925.059 207.288 932.672 214.901 932.672 224.292V240.036H924.763V224.292C924.763 219.269 920.691 215.197 915.668 215.197V207.288Z" fill="#A66CFF" mask="url(#path-29-inside-2_6665_26176)"/>
<ellipse cx="926.708" cy="240.031" rx="2.00842" ry="1.73455" fill="#A66CFF"/>
</mask>
<g mask="url(#mask0_6665_26176)">
<path d="M903.364 210.203L953.709 210.743V243.152L947.532 241.607V225.648C947.532 225.648 948.046 215.351 938.265 215.351C927.968 215.351 928.708 225.648 928.708 225.648V243.152H924.593V223.028C923.213 215.547 918.389 214.666 915.531 214.478C913.496 214.345 912.181 214.491 910.41 215.547C908.937 216.426 907.181 218.219 906.669 219.288C905.44 221.854 900.168 218.657 900.168 218.657L903.364 210.203Z" fill="white"/>
</g>
<circle cx="902.806" cy="228.255" r="7.86402" stroke="white" stroke-width="3.95452"/>
</g>
<g clip-path="url(#clip1_6665_26176)">
<g clip-path="url(#clip2_6665_26176)">
<path d="M651.195 465.805C651.195 461.965 653.592 460.039 656.547 460.039C659.5 460.039 661.896 461.965 661.896 465.805C661.896 469.654 659.5 471.571 656.547 471.571C653.592 471.571 651.195 469.673 651.195 465.805ZM656.547 470.109C658.003 470.109 659.184 468.584 659.184 465.805C659.184 463.051 658.003 461.501 656.547 461.501C655.089 461.501 653.905 463.051 653.905 465.805C653.905 468.568 655.089 470.109 656.547 470.109Z" fill="white"/>
<path d="M640.816 460.453V471.142H642.676V463.961L648.41 471.142H649.973V460.453H648.205V466.345L643.44 460.453H640.816Z" fill="white"/>
<path d="M700.66 460.453L696.324 471.142H698.197L699.39 468.202H703.328L704.537 471.142H707.575L703.195 460.453H700.66ZM699.997 466.667L701.351 463.317L702.709 466.667H699.997Z" fill="white"/>
<path d="M683.221 467.457C683.171 468.436 683.095 469.405 682.012 469.768C681.529 469.926 680.641 469.923 680.139 469.724C679.899 469.626 679.751 469.544 679.565 469.358C679.205 469.001 679.059 468.243 679.047 467.75V460.453H676.262V467.457C676.287 468.423 676.445 469.395 677.073 470.175C678.15 471.514 680.13 471.704 681.731 471.505C682.725 471.382 683.597 471.053 684.298 470.321C684.781 469.815 685.081 469.02 685.166 468.335C685.22 467.937 685.226 467.87 685.226 467.457V460.453H683.221L683.221 467.457Z" fill="white"/>
<path d="M689.792 461.959C691.02 461.959 692.239 461.751 692.773 463.027C692.981 463.532 692.997 464.675 692.504 465.161C691.92 465.739 691.023 465.796 690.25 465.862L693.111 471.142H696.044L693.448 466.434C694.996 465.891 695.722 465.016 695.646 463.345C695.564 461.543 694.039 460.453 692.299 460.453H687.02V471.142H689.792V461.959Z" fill="white"/>
<path d="M671.736 471.142L667.609 460.453H665.44L661.43 471.142H663.378L666.075 463.917L668.815 471.142H671.736Z" fill="white"/>
<path d="M671.864 460.453H669.594L668.902 462.281L669.888 464.839L670.244 463.917L672.913 471.142H675.994L671.864 460.453Z" fill="white"/>
<path d="M666.812 467.422L665.426 471.151H667.197L667.712 469.746L666.812 467.422Z" fill="white"/>
</g>
</g>
<g clip-path="url(#clip3_6665_26176)">
<g clip-path="url(#clip4_6665_26176)">
<path d="M746.861 470.695V461.031H749.062V470.695H746.861ZM789.65 467.085C789.65 464.749 787.838 463.3 785.718 463.3C783.584 463.3 781.785 464.763 781.785 467.085C781.785 469.42 783.597 470.883 785.718 470.883C787.838 470.883 789.65 469.407 789.65 467.085ZM787.476 467.085C787.476 468.306 786.657 468.991 785.704 468.991C784.751 468.991 783.932 468.306 783.932 467.085C783.932 465.85 784.751 465.192 785.704 465.192C786.657 465.192 787.476 465.85 787.476 467.085ZM745.975 467.917C745.975 466.83 745.411 465.997 744.405 465.622C745.357 465.098 745.693 464.414 745.693 463.608C745.693 462.199 744.673 461.031 742.391 461.045H738.016V470.709H742.579C744.874 470.695 745.975 469.554 745.975 467.917ZM743.358 463.89C743.358 464.548 742.942 464.924 742.136 464.924H740.311V462.91H742.136C742.874 462.91 743.358 463.232 743.358 463.89ZM743.559 467.769C743.559 468.4 743.116 468.816 742.297 468.816H740.311V466.722H742.297C743.089 466.722 743.559 467.125 743.559 467.769ZM765.142 465.273C764.538 464.011 763.41 463.313 761.706 463.313C759.692 463.313 757.894 464.575 757.894 467.085C757.894 469.527 759.477 470.883 761.679 470.883C763.222 470.883 764.524 470.266 765.142 468.937L763.37 468.024C763.048 468.615 762.551 468.991 761.759 468.991C760.739 468.991 760.081 468.266 760.081 467.085C760.081 465.903 760.833 465.192 761.746 465.192C762.457 465.192 762.994 465.514 763.33 466.212L765.142 465.273ZM797.583 465.273C796.979 464.011 795.851 463.313 794.147 463.313C792.133 463.313 790.335 464.575 790.335 467.085C790.335 469.527 791.919 470.883 794.12 470.883C795.663 470.883 796.965 470.266 797.583 468.937L795.811 468.024C795.489 468.615 794.992 468.991 794.2 468.991C793.18 468.991 792.523 468.266 792.523 467.085C792.523 465.903 793.274 465.192 794.187 465.192C794.898 465.192 795.435 465.514 795.771 466.212L797.583 465.273ZM779.127 470.695L777.289 467.447H775.879V470.695H773.611V461.031H777.705C779.919 461.031 781.463 462.092 781.463 464.172C781.463 465.501 780.805 466.44 779.637 467.017L781.758 470.695H779.127ZM775.893 465.528H777.584C778.631 465.528 779.141 464.937 779.141 464.239C779.141 463.407 778.658 462.951 777.584 462.951H775.893V465.528ZM757.531 470.574V469.058C757.437 469.084 757.303 469.111 757.155 469.111C756.874 469.111 756.726 468.964 756.726 468.709V466.199C756.726 464.32 755.464 463.326 753.384 463.326C752.028 463.326 750.874 463.823 750.149 464.467L751.371 465.836C751.854 465.407 752.498 465.138 753.129 465.138C754.095 465.138 754.552 465.622 754.552 466.413V466.642C754.095 466.534 753.518 466.427 752.82 466.427C751.062 466.427 749.921 467.273 749.921 468.668C749.921 470.105 750.874 470.856 752.35 470.856C753.357 470.856 754.256 470.44 754.726 469.903C755.008 470.615 755.625 470.803 756.229 470.803C756.645 470.816 757.129 470.749 757.531 470.574ZM754.565 468.306C754.565 468.964 753.934 469.393 753.209 469.393C752.525 469.393 752.189 469.044 752.189 468.561C752.189 468.051 752.565 467.675 753.33 467.675C753.8 467.675 754.216 467.756 754.565 467.836V468.306ZM805.448 470.695L802.858 466.199L805.287 463.555H802.844L800.281 466.4V461.045H798.093V470.709H800.281V468.964L801.327 467.85L802.965 470.709H805.448V470.695ZM773.034 470.695L770.443 466.199L772.873 463.555H770.403L767.866 466.4V461.045H765.678V470.709H767.866V468.964L768.913 467.85L770.551 470.709H773.034V470.695Z" fill="white"/>
</g>
</g>
<g clip-path="url(#clip5_6665_26176)">
<g clip-path="url(#clip6_6665_26176)">
<path d="M847.91 469.043V462.557H851.171C852.438 462.557 853.208 462.174 853.392 462.07V464.057H849.738V465.61H853.165V467.127H849.79V469.043H847.91Z" fill="white"/>
<path d="M864.074 469.193C862.731 469.193 861.829 468.928 861.32 468.383C860.934 467.968 860.769 467.402 860.817 466.649H862.644C862.618 467.03 862.683 467.291 862.848 467.47C863.055 467.698 863.417 467.791 864.074 467.791C864.914 467.791 865.274 467.603 865.274 467.163C865.274 466.655 864.499 466.534 863.816 466.427C863.695 466.407 863.577 466.389 863.466 466.369C862.1 466.126 860.87 465.793 860.87 464.4C860.87 463.123 862.008 462.391 863.98 462.391C866.165 462.391 866.858 463.415 867.052 463.87L865.998 465.36C865.998 465.326 865.987 465.293 865.98 465.26C865.753 464.199 864.585 463.803 863.901 463.803C863.175 463.803 862.807 463.972 862.807 464.307C862.807 464.712 863.295 464.806 863.971 464.937L864.375 465.017C864.991 465.143 865.567 465.309 865.854 465.397C865.899 465.411 866.082 465.48 866.121 465.5C866.909 465.842 867.259 466.336 867.259 467.093C867.257 468.92 865.262 469.193 864.074 469.193Z" fill="white"/>
<path d="M879.729 469.042L876.83 465.093V465.181C876.851 465.543 876.861 465.906 876.861 466.319V469.042H875.09V462.556H876.951L879.85 466.455V466.371C879.829 465.956 879.818 465.562 879.818 465.199V462.547H881.589V469.033L879.729 469.042Z" fill="white"/>
<path d="M872.792 469.041L872.407 468.086H869.538L869.164 469.041H867.309L869.968 462.555H872.051L874.72 469.041H872.792ZM870.093 466.678H871.861L870.96 464.412L870.093 466.678Z" fill="white"/>
<path d="M887.345 469.041L886.961 468.086H884.091L883.727 469.041H881.852L884.521 462.555H886.604L889.273 469.041H887.345ZM884.631 466.678H886.411L885.51 464.412L884.631 466.678Z" fill="white"/>
<path d="M901.489 469.041L901.104 468.086H898.233L897.848 469.041H895.994L898.652 462.555H900.747L903.415 469.041H901.489ZM898.764 466.678H900.553L899.652 464.403L898.764 466.678ZM893.998 469.041L892.773 466.783H891.362V469.041H889.541V464.375C889.541 463.351 889.138 462.712 889.023 462.555H892.591C894.607 462.555 895.588 463.228 895.588 464.616C895.588 466.357 893.486 466.708 893.065 466.761H893.054V466.811H894.692L895.922 469.041H893.998ZM891.362 465.485H892.374C893.128 465.485 893.537 465.305 893.641 464.924C893.659 464.854 893.667 464.783 893.667 464.711C893.669 464.591 893.638 464.473 893.577 464.37C893.515 464.266 893.426 464.183 893.32 464.127C893.049 463.995 892.749 463.933 892.447 463.947H891.362V465.485Z" fill="white"/>
<path d="M858.855 469.041L858.461 468.086H855.601L855.227 469.041H853.352L856.02 462.555H858.115L860.773 469.041H858.855ZM856.142 466.678H857.91L857.008 464.412L856.142 466.678Z" fill="white"/>
<path d="M843.356 471.101C840.389 468.97 840.03 464.481 843.058 462.258C842.01 462.306 841.335 462.631 841.162 462.731C840.222 464.189 840.005 466.129 840.574 467.794C840.881 468.697 841.386 469.521 842.051 470.205C842.717 470.889 843.526 471.416 844.421 471.749C844.045 471.57 843.688 471.353 843.356 471.101Z" fill="white"/>
<path d="M842.129 468.224C841.925 467.492 841.878 466.484 842.172 465.625H841.458C841.296 467.03 841.751 468.627 842.661 469.554C842.425 469.136 842.246 468.689 842.129 468.224Z" fill="white"/>
<path d="M840.998 458.186C836.749 461.279 836.228 467.691 839.909 471.407C842.867 474.585 848.159 474.974 851.538 472.272C846.531 475.836 839.206 472.884 838.446 466.685C837.826 462.197 841.426 457.945 846.022 458.091L847.183 456.464C844.979 456.25 842.774 456.864 840.998 458.186Z" fill="white"/>
<path d="M845.795 458.414C842.193 458.445 839.11 461.437 838.911 465.014C838.448 469.76 843.131 473.858 847.771 472.946C843.095 473.597 838.597 468.963 840.003 464.321C840.589 462.159 842.43 460.398 844.643 460.039L845.795 458.414Z" fill="white"/>
<path d="M854.02 470.745C848.723 478.166 837.035 474.562 836.968 465.397C836.968 462.518 838.372 459.702 840.698 458.001V456.5C835.464 459.892 834.457 467.423 838.753 471.975C843.065 476.619 850.412 476.022 854.1 470.934L854.02 470.745Z" fill="white"/>
</g>
</g>
<path d="M944.112 468.517C944.112 468.038 944.053 467.865 943.41 467.788L942.825 467.712V467.539C943.488 467.539 944.053 467.558 944.736 467.558C945.399 467.558 945.964 467.539 946.627 467.539V467.712L946.042 467.788C945.418 467.884 945.34 468.057 945.34 468.517V474.022C945.34 474.501 945.399 474.674 946.042 474.75L946.627 474.827V475C945.964 475 945.399 474.981 944.736 474.981C944.073 474.981 943.507 475 942.825 475V474.827L943.41 474.75C944.034 474.655 944.112 474.482 944.112 474.022V471.298H940.562V474.022C940.562 474.501 940.621 474.674 941.264 474.75L941.83 474.827V475C941.167 475 940.601 474.981 939.938 474.981C939.275 474.981 938.71 475 938.047 475V474.827L938.632 474.75C939.256 474.655 939.334 474.482 939.334 474.022V468.517C939.334 468.038 939.275 467.865 938.632 467.788L938.047 467.712V467.539C938.71 467.539 939.275 467.558 939.938 467.558C940.601 467.558 941.167 467.539 941.83 467.539V467.712L941.264 467.788C940.64 467.884 940.562 468.057 940.562 468.517V471.068H944.112V468.517Z" fill="white"/>
<path d="M953.03 475.158C950.943 475.158 949.227 473.623 949.227 471.264C949.246 468.886 950.943 467.352 953.03 467.352C955.116 467.352 956.812 468.886 956.812 471.264C956.812 473.623 955.116 475.158 953.03 475.158ZM953.03 475.004C954.726 475.004 955.408 473.316 955.408 471.264C955.408 469.212 954.745 467.524 953.03 467.524C951.274 467.524 950.631 469.212 950.631 471.264C950.631 473.316 951.294 475.004 953.03 475.004Z" fill="white"/>
<path d="M960.342 468.869C960.068 468.063 959.854 467.814 959.347 467.756L958.938 467.699V467.526C959.581 467.545 960.225 467.545 960.868 467.545C961.512 467.545 962.136 467.545 962.799 467.526V467.699L962.155 467.776C961.531 467.852 961.453 468.217 961.59 468.639L963.091 473.51L964.846 467.469H965.431L967.459 473.51L968.707 469.367C969.077 468.159 968.824 467.91 968.103 467.776L967.615 467.68V467.526C968.122 467.545 968.61 467.545 969.116 467.545C969.604 467.545 970.111 467.545 970.599 467.526V467.699L970.208 467.795C969.545 467.929 969.292 468.293 968.941 469.463L967.654 473.683L967.284 475.064H966.718L964.651 469.041L963.305 473.644L962.935 475.045H962.369L960.342 468.869Z" fill="white"/>
<path d="M977.83 474.987C977.206 474.987 976.66 475.006 976.036 475.006V474.834L976.679 474.757C977.284 474.68 977.264 474.373 977.069 473.894L976.562 472.59H973.618L973.384 473.184C972.955 474.277 972.955 474.603 973.715 474.738L974.281 474.834V475.006C973.793 475.006 973.423 474.987 972.935 474.987C972.447 474.987 971.999 475.006 971.512 475.006V474.834L971.882 474.738C972.467 474.584 972.701 474.277 973.15 473.088L974.866 468.735L975.314 467.469H975.899L978.337 473.644C978.668 474.488 978.805 474.718 979.273 474.776L979.663 474.834V475.006C978.98 475.006 978.454 474.987 977.83 474.987ZM973.696 472.34H976.465L975.08 468.754L973.696 472.34Z" fill="white"/>
<path d="M988.064 475.019C987.362 475.019 987.284 474.866 987.031 474.386L985.51 471.471C985.412 471.49 985.334 471.49 985.256 471.49C984.944 471.49 984.651 471.471 984.418 471.471V474.041C984.418 474.52 984.476 474.693 985.12 474.77L985.705 474.846V475.019C985.042 475.019 984.476 475 983.813 475C983.15 475 982.585 475.019 981.902 475.019V474.846L982.487 474.77C983.111 474.674 983.189 474.501 983.189 474.041V468.517C983.189 468.038 983.131 467.865 982.487 467.788L981.902 467.712V467.539H985.198C987.187 467.539 988.454 468.076 988.454 469.495C988.454 470.569 987.499 471.106 986.602 471.279C986.738 471.452 986.914 471.682 987.109 472.027L988.123 473.83C988.474 474.463 988.61 474.655 989.117 474.77L989.527 474.866V475.038H988.064V475.019ZM984.418 471.26C984.73 471.279 984.983 471.279 985.275 471.279C986.504 471.279 987.128 470.78 987.128 469.515C987.128 468.134 986.485 467.712 985.198 467.712H984.418V471.26Z" fill="white"/>
<path d="M992.219 474.827L992.804 474.75C993.428 474.655 993.506 474.482 993.506 474.022V468.517C993.506 468.038 993.447 467.865 992.804 467.788L992.219 467.712V467.539H995.709C997.835 467.539 999.785 468.594 999.785 471.279C999.785 473.964 997.835 475.019 995.69 475.019H992.199V474.827H992.219ZM995.69 474.808C997.406 474.808 998.362 473.811 998.362 471.279C998.362 468.709 997.367 467.731 995.69 467.731H994.715V474.156C994.715 474.616 994.91 474.808 995.417 474.808H995.69Z" fill="white"/>
<path d="M940.488 463.983L941.073 463.907C941.697 463.811 941.775 463.638 941.775 463.178V457.673C941.775 457.194 941.717 457.021 941.073 456.945L940.488 456.868V456.695H943.94C945.383 456.695 946.826 457.098 946.826 458.421C946.826 459.476 945.87 460.033 944.564 460.205V460.243C946.124 460.339 947.177 460.857 947.177 462.065C947.177 463.446 945.948 464.156 944.057 464.156H940.488V463.983ZM943.803 460.148C945.032 460.148 945.5 459.572 945.5 458.421C945.5 457.175 944.954 456.887 943.823 456.887H943.004V460.148H943.803ZM943.004 463.312C943.004 463.772 943.199 463.964 943.706 463.964H944.018C945.188 463.964 945.753 463.427 945.753 462.065C945.753 460.8 945.032 460.339 943.784 460.339H943.004V463.312Z" fill="white"/>
<path d="M956.904 464.175C956.202 464.175 956.124 464.022 955.871 463.542L954.35 460.627C954.252 460.646 954.174 460.646 954.096 460.646C953.784 460.646 953.492 460.627 953.258 460.627V463.197C953.258 463.677 953.316 463.849 953.96 463.926L954.545 464.003V464.175C953.882 464.175 953.316 464.156 952.653 464.156C951.99 464.156 951.425 464.175 950.742 464.175V464.003L951.327 463.926C951.951 463.83 952.029 463.657 952.029 463.197V457.673C952.029 457.194 951.971 457.021 951.327 456.945L950.742 456.868V456.695H954.038C956.027 456.695 957.294 457.232 957.294 458.652C957.294 459.726 956.339 460.263 955.442 460.435C955.578 460.608 955.754 460.838 955.949 461.183L956.963 462.986C957.314 463.619 957.45 463.811 957.957 463.926L958.367 464.022V464.194H956.904V464.175ZM953.258 460.416C953.57 460.435 953.823 460.435 954.116 460.435C955.344 460.435 955.968 459.937 955.968 458.671C955.968 457.29 955.325 456.868 954.038 456.868H953.258V460.416Z" fill="white"/>
<path d="M964.573 460.205C965.294 460.205 965.528 459.726 965.899 458.556H966.094C966.074 459.131 966.074 459.726 966.074 460.301C966.074 460.876 966.074 461.471 966.094 462.046H965.899C965.489 460.8 965.294 460.378 964.573 460.378H963.754V463.293C963.754 463.753 963.949 463.945 964.456 463.945H965.177C966.484 463.945 966.796 463.466 967.537 461.528H967.771L967.654 464.137H961.258V463.964L961.843 463.888C962.467 463.792 962.545 463.619 962.545 463.159V457.673C962.545 457.194 962.486 457.021 961.843 456.945L961.258 456.868V456.695H967.322L967.439 459.093H967.205C966.542 457.405 966.211 456.906 965.119 456.906H963.773V460.224H964.573V460.205Z" fill="white"/>
<path d="M971.998 458.057C971.686 457.213 971.452 456.983 970.964 456.925L970.555 456.868V456.695C971.198 456.714 971.842 456.714 972.485 456.714C973.129 456.714 973.753 456.714 974.416 456.695V456.868L973.772 456.945C973.168 457.021 973.109 457.328 973.285 457.808L975.157 462.909L976.795 458.517C977.204 457.443 977.107 457.079 976.346 456.945L975.781 456.868V456.695C976.288 456.714 976.775 456.714 977.263 456.714C977.77 456.714 978.257 456.714 978.764 456.695V456.868L978.335 456.983C977.692 457.117 977.458 457.462 976.99 458.632L975.332 462.948L974.884 464.214H974.357L971.998 458.057Z" fill="white"/>
<path d="M985.584 464.151C984.96 464.151 984.414 464.17 983.79 464.17V463.998L984.433 463.921C985.038 463.844 985.018 463.537 984.823 463.058L984.316 461.754H981.372L981.138 462.348C980.709 463.441 980.709 463.768 981.469 463.902L982.035 463.998V464.17C981.547 464.17 981.177 464.151 980.689 464.151C980.202 464.151 979.753 464.17 979.266 464.17V463.998L979.636 463.902C980.221 463.748 980.455 463.441 980.904 462.252L982.62 457.899L983.068 456.633H983.653L986.091 462.809C986.422 463.652 986.559 463.883 987.027 463.94L987.417 463.998V464.17C986.754 464.17 986.227 464.151 985.584 464.151ZM981.45 461.504H984.219L982.834 457.918L981.45 461.504Z" fill="white"/>
<path d="M991.243 457.597V462.583C991.243 463.542 991.438 463.811 992.043 463.907L992.511 463.983V464.156C992.004 464.156 991.614 464.137 991.107 464.137C990.6 464.137 990.191 464.156 989.703 464.156V463.983L990.171 463.907C990.795 463.811 990.99 463.523 990.99 462.583V457.673C990.99 457.194 990.932 457.021 990.288 456.945L989.703 456.868V456.695H992.141L996.216 462.603V458.268C996.216 457.309 996.021 457.041 995.397 456.945L994.929 456.868V456.695C995.436 456.695 995.845 456.714 996.333 456.714C996.84 456.714 997.23 456.695 997.737 456.695V456.868L997.269 456.945C996.665 457.041 996.469 457.309 996.469 458.268V464.194H995.767L991.243 457.597Z" fill="white"/>
<g clip-path="url(#clip7_6665_26176)">
<path d="M1071.36 461.258C1071.27 461.012 1071.12 460.791 1070.92 460.586C1070.55 460.222 1070.06 460.039 1069.42 460.039H1064.13C1064.13 460.718 1064.67 461.271 1065.34 461.271H1066.05H1069.03C1069.05 461.271 1069.07 461.271 1069.08 461.271C1069.33 461.279 1069.54 461.341 1069.7 461.487C1069.87 461.63 1069.96 461.835 1069.96 462.091V463.496C1069.96 463.746 1069.87 463.946 1069.69 464.097C1069.53 464.245 1069.31 464.321 1069.03 464.326H1065.63V463.568V463.452V462.22H1064.12V463.568V465.577H1069.42C1070.04 465.577 1070.54 465.394 1070.91 465.019C1071.28 464.652 1071.46 464.226 1071.46 463.749V461.87C1071.46 461.651 1071.43 461.449 1071.36 461.258H1071.36Z" fill="white"/>
<path d="M1078.16 464.326C1078.15 464.326 1078.13 464.326 1078.12 464.329H1075.24C1074.97 464.323 1074.75 464.25 1074.58 464.099C1074.41 463.948 1074.32 463.749 1074.32 463.498V462.706V462.142C1074.32 462.142 1074.33 461.279 1075.26 461.271H1078.28C1079.05 461.271 1079.74 460.778 1079.99 460.039H1075.02C1073.18 460.039 1072.8 461.287 1072.8 462.134V463.73C1072.8 464.215 1072.99 464.641 1073.36 465.016C1073.74 465.388 1074.23 465.572 1074.85 465.572H1078.47C1078.97 465.563 1079.39 465.404 1079.73 465.094C1079.98 464.871 1080.14 464.612 1080.21 464.318H1078.16L1078.16 464.326Z" fill="white"/>
<path d="M1076.88 462.281H1078.75H1079.15C1079.77 462.281 1080.26 462.783 1080.26 463.4H1078.41C1077.71 463.4 1077.1 462.95 1076.88 462.281Z" fill="white"/>
<path d="M1082.84 463.354H1085.44C1086.15 463.354 1086.77 462.901 1086.99 462.227H1081.33V465.578H1087.07L1087.48 464.346H1082.84V463.354H1082.84Z" fill="white"/>
<path d="M1087.21 461.271L1087.62 460.039H1081.33C1081.33 460.718 1081.88 461.271 1082.55 461.271H1087.21H1087.21Z" fill="white"/>
<path d="M1058.44 463.354H1061.04C1061.74 463.354 1062.37 462.901 1062.59 462.227H1056.93V465.578H1062.67L1063.08 464.346H1058.43V463.354H1058.44Z" fill="white"/>
<path d="M1062.81 461.271L1063.22 460.039H1056.93C1056.93 460.718 1057.47 461.271 1058.14 461.271H1062.81H1062.81Z" fill="white"/>
<path d="M1081.68 467.578V473.113H1080.17V467.578H1081.68Z" fill="white"/>
<path d="M1102.74 471.862L1102.31 473.113H1096.75V467.578H1098.26V471.865H1102.74L1102.74 471.862Z" fill="white"/>
<path d="M1058.71 471.638C1058.54 471.487 1058.45 471.288 1058.45 471.037V470.52V470.245V469.681C1058.45 469.681 1058.47 468.821 1059.39 468.813H1061.84C1062.61 468.813 1063.29 468.317 1063.54 467.578H1060.26C1060.23 467.578 1060.2 467.584 1060.16 467.586V467.578H1059.16C1057.31 467.578 1056.94 468.826 1056.94 469.673V469.759V470.428V470.692V471.269C1056.94 471.754 1057.13 472.18 1057.5 472.552C1057.88 472.927 1058.37 473.111 1058.99 473.111H1061.43C1062.2 473.111 1062.89 472.606 1063.13 471.86H1059.37C1059.11 471.854 1058.89 471.779 1058.71 471.63L1058.71 471.638Z" fill="white"/>
<path d="M1069.86 473.113H1071.6L1068.3 467.578H1066.63L1063.33 473.113H1065.05L1065.64 472.116H1066.5C1067.17 472.116 1067.71 471.563 1067.71 470.884H1066.36L1067.45 469.015L1069.86 473.113H1069.86Z" fill="white"/>
<path d="M1094.34 473.113H1096.09L1092.79 467.578H1091.11L1087.81 473.113H1089.54L1090.12 472.116H1090.98C1091.66 472.116 1092.2 471.563 1092.2 470.884H1090.84L1091.93 469.015L1094.34 473.113H1094.34Z" fill="white"/>
<path d="M1089.34 467.578H1083.92C1083.25 467.578 1082.7 468.128 1082.7 468.81H1085.16V473.113H1086.67V468.81H1088.12C1088.8 468.81 1089.34 468.26 1089.35 467.578H1089.34Z" fill="white"/>
<path d="M1077.03 467.578H1072.26C1072.26 468.258 1072.8 468.81 1073.47 468.81H1073.77H1076.91C1077.09 468.81 1077.47 468.824 1077.47 469.29C1077.47 469.757 1077.11 469.757 1076.88 469.757H1073.78H1072.25V473.116H1073.76V470.986H1077.03C1077.75 470.986 1079 470.97 1079 469.244C1079 467.802 1077.8 467.581 1077.03 467.581V467.578Z" fill="white"/>
<path fill-rule="evenodd" clip-rule="evenodd" d="M1054.16 473.116H1048.59C1048.33 473.116 1048.09 472.979 1047.96 472.752L1046.94 470.997L1042.72 463.723L1038.5 470.994H1041.87C1043.38 470.994 1044.77 471.801 1045.53 473.114H1037.27H1036.12C1035.56 473.114 1035.21 472.493 1035.5 472.003L1042.09 460.636C1042.38 460.151 1043.07 460.151 1043.35 460.636L1043.93 461.639L1049.36 470.997H1051.78L1047.56 463.726C1046.82 462.437 1046.82 460.841 1047.56 459.555L1054.79 472.008C1055.08 472.499 1054.73 473.119 1054.16 473.119L1054.16 473.116Z" fill="white"/>
</g>
<g clip-path="url(#clip8_6665_26176)">
<path d="M1133.58 462.88H1134.06V463.959C1134.06 464.115 1134.04 464.271 1134.01 464.425H1134.03C1134.31 463.551 1134.95 462.836 1135.85 462.836C1135.96 462.837 1136.07 462.848 1136.18 462.869V463.347C1136.09 463.333 1136 463.325 1135.91 463.324C1135.03 463.324 1134.47 464.075 1134.23 464.912C1134.11 465.299 1134.05 465.7 1134.05 466.104V468.555H1133.58V462.88Z" fill="white"/>
<path d="M1142.64 462.75C1143.03 462.747 1143.41 462.821 1143.77 462.968C1144.13 463.115 1144.45 463.331 1144.72 463.605C1145 463.878 1145.21 464.203 1145.36 464.561C1145.51 464.919 1145.58 465.302 1145.58 465.689C1145.59 466.081 1145.52 466.472 1145.38 466.837C1145.23 467.202 1145.02 467.535 1144.74 467.816C1144.47 468.097 1144.14 468.32 1143.78 468.473C1143.42 468.625 1143.03 468.704 1142.64 468.704C1142.25 468.704 1141.86 468.625 1141.5 468.473C1141.14 468.32 1140.81 468.097 1140.53 467.816C1140.26 467.535 1140.05 467.202 1139.9 466.837C1139.76 466.472 1139.69 466.081 1139.7 465.689C1139.7 465.302 1139.77 464.919 1139.92 464.561C1140.07 464.203 1140.28 463.878 1140.56 463.604C1140.83 463.331 1141.15 463.115 1141.51 462.968C1141.87 462.821 1142.25 462.747 1142.64 462.75ZM1142.64 468.231C1142.97 468.228 1143.29 468.159 1143.59 468.029C1143.89 467.898 1144.17 467.709 1144.39 467.473C1144.62 467.236 1144.8 466.956 1144.92 466.65C1145.04 466.344 1145.09 466.017 1145.08 465.689C1145.08 465.042 1144.82 464.421 1144.37 463.963C1143.91 463.506 1143.29 463.248 1142.64 463.248C1141.99 463.248 1141.37 463.506 1140.91 463.963C1140.46 464.421 1140.2 465.042 1140.2 465.689C1140.19 466.017 1140.25 466.344 1140.36 466.65C1140.48 466.956 1140.66 467.236 1140.89 467.473C1141.11 467.709 1141.39 467.898 1141.69 468.029C1141.99 468.159 1142.31 468.228 1142.64 468.231Z" fill="white"/>
<path d="M1152.52 462.751C1152.9 462.739 1153.27 462.804 1153.62 462.943C1153.97 463.082 1154.29 463.291 1154.56 463.557L1154.26 463.943C1153.8 463.481 1153.18 463.22 1152.52 463.217C1151.87 463.237 1151.25 463.509 1150.8 463.978C1150.35 464.446 1150.09 465.072 1150.09 465.724C1150.09 466.377 1150.35 467.003 1150.8 467.471C1151.25 467.939 1151.87 468.212 1152.52 468.232C1152.88 468.239 1153.23 468.169 1153.56 468.028C1153.89 467.888 1154.18 467.679 1154.42 467.416L1154.67 467.813C1154.39 468.1 1154.06 468.327 1153.69 468.48C1153.32 468.632 1152.92 468.706 1152.52 468.698C1152.13 468.709 1151.75 468.639 1151.38 468.494C1151.02 468.348 1150.69 468.13 1150.42 467.852C1150.14 467.575 1149.93 467.244 1149.79 466.88C1149.65 466.516 1149.58 466.127 1149.6 465.736C1149.58 465.346 1149.65 464.956 1149.79 464.591C1149.93 464.227 1150.15 463.895 1150.42 463.616C1150.69 463.336 1151.02 463.116 1151.38 462.967C1151.74 462.819 1152.13 462.745 1152.52 462.751Z" fill="white"/>
<path d="M1159.09 460.617H1159.57V465.123H1160.58L1162.42 462.887H1163.04L1160.99 465.328V465.351L1163.24 468.562H1162.63L1160.58 465.566H1159.57V468.562H1159.09V460.617Z" fill="white"/>
<path d="M1170.43 465.099H1170.8V464.906C1170.8 463.647 1170.15 463.217 1169.25 463.217C1168.66 463.215 1168.09 463.406 1167.62 463.761L1167.35 463.376C1167.9 462.95 1168.58 462.729 1169.27 462.752C1170.57 462.752 1171.28 463.478 1171.28 464.896V468.561H1170.8V467.813C1170.8 467.642 1170.82 467.47 1170.85 467.302H1170.83C1170.67 467.705 1170.4 468.053 1170.04 468.302C1169.69 468.55 1169.27 468.688 1168.84 468.698C1167.92 468.698 1166.91 468.188 1166.91 467.053C1166.91 465.122 1169.42 465.099 1170.43 465.099ZM1168.86 468.254C1170.1 468.254 1170.8 466.972 1170.8 465.848V465.542H1170.44C1169.47 465.542 1167.41 465.542 1167.41 467.017C1167.42 467.195 1167.46 467.37 1167.54 467.53C1167.62 467.691 1167.73 467.833 1167.87 467.949C1168 468.065 1168.16 468.152 1168.33 468.204C1168.5 468.257 1168.68 468.274 1168.86 468.254Z" fill="white"/>
<path d="M1175.27 462.898H1175.78L1177.32 467.347C1177.41 467.619 1177.51 467.96 1177.51 467.96H1177.54C1177.54 467.96 1177.64 467.619 1177.73 467.347L1179.28 462.921H1179.82L1181.37 467.347C1181.46 467.619 1181.56 467.96 1181.56 467.96H1181.59C1181.59 467.96 1181.68 467.632 1181.78 467.347L1183.32 462.898H1183.83L1181.84 468.572H1181.33L1179.75 464.17C1179.65 463.898 1179.56 463.556 1179.56 463.556H1179.53C1179.53 463.556 1179.44 463.898 1179.34 464.17L1177.77 468.572H1177.26L1175.27 462.898Z" fill="white"/>
<path d="M1190.96 465.099H1191.34V464.906C1191.34 463.647 1190.69 463.217 1189.79 463.217C1189.2 463.215 1188.63 463.407 1188.16 463.761L1187.89 463.376C1188.44 462.95 1189.11 462.729 1189.81 462.752C1191.11 462.752 1191.82 463.478 1191.82 464.896V468.561H1191.34V467.813C1191.34 467.642 1191.35 467.471 1191.39 467.302H1191.37C1191.21 467.705 1190.94 468.053 1190.58 468.302C1190.23 468.55 1189.81 468.688 1189.38 468.698C1188.46 468.698 1187.45 468.188 1187.45 467.053C1187.45 465.122 1189.95 465.099 1190.96 465.099ZM1189.4 468.254C1190.64 468.254 1191.34 466.972 1191.34 465.848V465.542H1190.98C1190.01 465.542 1187.95 465.542 1187.95 467.017C1187.95 467.195 1188 467.37 1188.08 467.531C1188.16 467.691 1188.27 467.834 1188.4 467.95C1188.54 468.066 1188.7 468.152 1188.87 468.205C1189.04 468.257 1189.22 468.274 1189.4 468.254Z" fill="white"/>
<path d="M1195.88 470.23C1196.08 470.393 1196.32 470.488 1196.58 470.502C1197.12 470.502 1197.46 470.015 1197.69 469.481L1198.1 468.539L1195.75 462.898H1196.26L1198.13 467.427C1198.25 467.699 1198.34 467.96 1198.34 467.96H1198.36C1198.36 467.96 1198.44 467.699 1198.55 467.427L1200.43 462.898H1200.94L1198.02 469.901C1197.92 470.203 1197.72 470.467 1197.47 470.656C1197.21 470.844 1196.9 470.949 1196.58 470.956C1196.25 470.953 1195.92 470.841 1195.66 470.639L1195.88 470.23Z" fill="white"/>
</g>
</g>
<defs>
<filter id="filter0_din_6665_26176" x="562.144" y="393.739" width="717.713" height="152.884" filterUnits="userSpaceOnUse" color-interpolation-filters="sRGB">
<feFlood flood-opacity="0" result="BackgroundImageFix"/>
<feColorMatrix in="SourceAlpha" type="matrix" values="0 0 0 0 0 0 0 0 0 0 0 0 0 0 0 0 0 0 127 0" result="hardAlpha"/>
<feOffset dy="4.11857"/>
<feGaussianBlur stdDeviation="20.4281"/>
<feComposite in2="hardAlpha" operator="out"/>
<feColorMatrix type="matrix" values="0 0 0 0 0 0 0 0 0 0 0 0 0 0 0 0 0 0 0.4 0"/>
<feBlend mode="normal" in2="BackgroundImageFix" result="effect1_dropShadow_6665_26176"/>
<feBlend mode="normal" in="SourceGraphic" in2="BackgroundImageFix" result="shape"/>
<feColorMatrix in="SourceAlpha" type="matrix" values="0 0 0 0 0 0 0 0 0 0 0 0 0 0 0 0 0 0 127 0" result="hardAlpha"/>
<feOffset dy="-3.08893"/>
<feGaussianBlur stdDeviation="0.411857"/>
<feComposite in2="hardAlpha" operator="arithmetic" k2="-1" k3="1"/>
<feColorMatrix type="matrix" values="0 0 0 0 0 0 0 0 0 0 0 0 0 0 0 0 0 0 0.25 0"/>
<feBlend mode="normal" in2="shape" result="effect2_innerShadow_6665_26176"/>
<feTurbulence type="fractalNoise" baseFrequency="9.7121000289916992 9.7121000289916992" stitchTiles="stitch" numOctaves="3" result="noise" seed="5938" />
<feColorMatrix in="noise" type="luminanceToAlpha" result="alphaNoise" />
<feComponentTransfer in="alphaNoise" result="coloredNoise1">
<feFuncA type="discrete" tableValues="1 1 1 1 1 1 1 1 1 1 1 1 1 1 1 1 1 1 1 1 1 1 1 1 1 1 1 1 1 1 1 1 1 1 1 1 1 1 1 1 1 1 1 1 1 1 1 1 1 1 1 0 0 0 0 0 0 0 0 0 0 0 0 0 0 0 0 0 0 0 0 0 0 0 0 0 0 0 0 0 0 0 0 0 0 0 0 0 0 0 0 0 0 0 0 0 0 0 0 0 "/>
</feComponentTransfer>
<feComposite operator="in" in2="effect2_innerShadow_6665_26176" in="coloredNoise1" result="noise1Clipped" />
<feFlood flood-color="rgba(0, 0, 0, 0.35)" result="color1Flood" />
<feComposite operator="in" in2="noise1Clipped" in="color1Flood" result="color1" />
<feMerge result="effect3_noise_6665_26176">
<feMergeNode in="effect2_innerShadow_6665_26176" />
<feMergeNode in="color1" />
</feMerge>
<feBlend mode="normal" in="effect3_noise_6665_26176" in2="effect1_dropShadow_6665_26176" result="effect3_noise_6665_26176"/>
</filter>
<filter id="filter1_din_6665_26176" x="740.572" y="49.5771" width="362.434" height="362.434" filterUnits="userSpaceOnUse" color-interpolation-filters="sRGB">
<feFlood flood-opacity="0" result="BackgroundImageFix"/>
<feColorMatrix in="SourceAlpha" type="matrix" values="0 0 0 0 0 0 0 0 0 0 0 0 0 0 0 0 0 0 127 0" result="hardAlpha"/>
<feOffset dy="4.11857"/>
<feGaussianBlur stdDeviation="26.7707"/>
<feComposite in2="hardAlpha" operator="out"/>
<feColorMatrix type="matrix" values="0 0 0 0 0 0 0 0 0 0 0 0 0 0 0 0 0 0 0.55 0"/>
<feBlend mode="normal" in2="BackgroundImageFix" result="effect1_dropShadow_6665_26176"/>
<feBlend mode="normal" in="SourceGraphic" in2="BackgroundImageFix" result="shape"/>
<feColorMatrix in="SourceAlpha" type="matrix" values="0 0 0 0 0 0 0 0 0 0 0 0 0 0 0 0 0 0 127 0" result="hardAlpha"/>
<feOffset dy="-3.08893"/>
<feGaussianBlur stdDeviation="0.411857"/>
<feComposite in2="hardAlpha" operator="arithmetic" k2="-1" k3="1"/>
<feColorMatrix type="matrix" values="0 0 0 0 0 0 0 0 0 0 0 0 0 0 0 0 0 0 0.25 0"/>
<feBlend mode="normal" in2="shape" result="effect2_innerShadow_6665_26176"/>
<feTurbulence type="fractalNoise" baseFrequency="9.7121000289916992 9.7121000289916992" stitchTiles="stitch" numOctaves="3" result="noise" seed="5938" />
<feColorMatrix in="noise" type="luminanceToAlpha" result="alphaNoise" />
<feComponentTransfer in="alphaNoise" result="coloredNoise1">
<feFuncA type="discrete" tableValues="1 1 1 1 1 1 1 1 1 1 1 1 1 1 1 1 1 1 1 1 1 1 1 1 1 1 1 1 1 1 1 1 1 1 1 1 1 1 1 1 1 1 1 1 1 1 1 1 1 1 1 0 0 0 0 0 0 0 0 0 0 0 0 0 0 0 0 0 0 0 0 0 0 0 0 0 0 0 0 0 0 0 0 0 0 0 0 0 0 0 0 0 0 0 0 0 0 0 0 0 "/>
</feComponentTransfer>
<feComposite operator="in" in2="effect2_innerShadow_6665_26176" in="coloredNoise1" result="noise1Clipped" />
<feFlood flood-color="rgba(0, 0, 0, 0.35)" result="color1Flood" />
<feComposite operator="in" in2="noise1Clipped" in="color1Flood" result="color1" />
<feMerge result="effect3_noise_6665_26176">
<feMergeNode in="effect2_innerShadow_6665_26176" />
<feMergeNode in="color1" />
</feMerge>
<feBlend mode="normal" in="effect3_noise_6665_26176" in2="effect1_dropShadow_6665_26176" result="effect3_noise_6665_26176"/>
</filter>
<filter id="filter2_din_6665_26176" x="816.767" y="125.772" width="210.048" height="210.044" filterUnits="userSpaceOnUse" color-interpolation-filters="sRGB">
<feFlood flood-opacity="0" result="BackgroundImageFix"/>
<feColorMatrix in="SourceAlpha" type="matrix" values="0 0 0 0 0 0 0 0 0 0 0 0 0 0 0 0 0 0 127 0" result="hardAlpha"/>
<feOffset dy="4.11857"/>
<feGaussianBlur stdDeviation="26.7707"/>
<feComposite in2="hardAlpha" operator="out"/>
<feColorMatrix type="matrix" values="0 0 0 0 0 0 0 0 0 0 0 0 0 0 0 0 0 0 0.25 0"/>
<feBlend mode="normal" in2="BackgroundImageFix" result="effect1_dropShadow_6665_26176"/>
<feBlend mode="normal" in="SourceGraphic" in2="BackgroundImageFix" result="shape"/>
<feColorMatrix in="SourceAlpha" type="matrix" values="0 0 0 0 0 0 0 0 0 0 0 0 0 0 0 0 0 0 127 0" result="hardAlpha"/>
<feOffset dy="-3.08893"/>
<feGaussianBlur stdDeviation="0.411857"/>
<feComposite in2="hardAlpha" operator="arithmetic" k2="-1" k3="1"/>
<feColorMatrix type="matrix" values="0 0 0 0 0 0 0 0 0 0 0 0 0 0 0 0 0 0 0.25 0"/>
<feBlend mode="normal" in2="shape" result="effect2_innerShadow_6665_26176"/>
<feTurbulence type="fractalNoise" baseFrequency="9.7121000289916992 9.7121000289916992" stitchTiles="stitch" numOctaves="3" result="noise" seed="5938" />
<feColorMatrix in="noise" type="luminanceToAlpha" result="alphaNoise" />
<feComponentTransfer in="alphaNoise" result="coloredNoise1">
<feFuncA type="discrete" tableValues="1 1 1 1 1 1 1 1 1 1 1 1 1 1 1 1 1 1 1 1 1 1 1 1 1 1 1 1 1 1 1 1 1 1 1 1 1 1 1 1 1 1 1 1 1 1 1 1 1 1 1 0 0 0 0 0 0 0 0 0 0 0 0 0 0 0 0 0 0 0 0 0 0 0 0 0 0 0 0 0 0 0 0 0 0 0 0 0 0 0 0 0 0 0 0 0 0 0 0 0 "/>
</feComponentTransfer>
<feComposite operator="in" in2="effect2_innerShadow_6665_26176" in="coloredNoise1" result="noise1Clipped" />
<feFlood flood-color="rgba(0, 0, 0, 0.35)" result="color1Flood" />
<feComposite operator="in" in2="noise1Clipped" in="color1Flood" result="color1" />
<feMerge result="effect3_noise_6665_26176">
<feMergeNode in="effect2_innerShadow_6665_26176" />
<feMergeNode in="color1" />
</feMerge>
<feBlend mode="normal" in="effect3_noise_6665_26176" in2="effect1_dropShadow_6665_26176" result="effect3_noise_6665_26176"/>
</filter>
<filter id="filter3_di_6665_26176" x="883.183" y="201.461" width="78.2117" height="52.8679" filterUnits="userSpaceOnUse" color-interpolation-filters="sRGB">
<feFlood flood-opacity="0" result="BackgroundImageFix"/>
<feColorMatrix in="SourceAlpha" type="matrix" values="0 0 0 0 0 0 0 0 0 0 0 0 0 0 0 0 0 0 127 0" result="hardAlpha"/>
<feOffset/>
<feGaussianBlur stdDeviation="4.89081"/>
<feComposite in2="hardAlpha" operator="out"/>
<feColorMatrix type="matrix" values="0 0 0 0 0.768627 0 0 0 0 0.545098 0 0 0 0 0.937255 0 0 0 1 0"/>
<feBlend mode="normal" in2="BackgroundImageFix" result="effect1_dropShadow_6665_26176"/>
<feBlend mode="normal" in="SourceGraphic" in2="effect1_dropShadow_6665_26176" result="shape"/>
<feColorMatrix in="SourceAlpha" type="matrix" values="0 0 0 0 0 0 0 0 0 0 0 0 0 0 0 0 0 0 127 0" result="hardAlpha"/>
<feOffset dy="2.60473"/>
<feGaussianBlur stdDeviation="0.651182"/>
<feComposite in2="hardAlpha" operator="arithmetic" k2="-1" k3="1"/>
<feColorMatrix type="matrix" values="0 0 0 0 0 0 0 0 0 0 0 0 0 0 0 0 0 0 0.25 0"/>
<feBlend mode="normal" in2="shape" result="effect2_innerShadow_6665_26176"/>
</filter>
<linearGradient id="paint0_linear_6665_26176" x1="928.5" y1="226" x2="928.5" y2="547" gradientUnits="userSpaceOnUse">
<stop stop-color="white"/>
<stop offset="1" stop-color="#999999" stop-opacity="0"/>
</linearGradient>
<linearGradient id="paint1_linear_6665_26176" x1="484.5" y1="0" x2="484.5" y2="321" gradientUnits="userSpaceOnUse">
<stop stop-color="white"/>
<stop offset="1" stop-color="#999999" stop-opacity="0"/>
</linearGradient>
<linearGradient id="paint2_linear_6665_26176" x1="882.934" y1="318.305" x2="882.934" y2="480.08" gradientUnits="userSpaceOnUse">
<stop offset="0.0927945" stop-color="#E5E5E5" stop-opacity="0"/>
<stop offset="1" stop-color="#7F7F7F"/>
</linearGradient>
<linearGradient id="paint3_linear_6665_26176" x1="894.035" y1="318.305" x2="894.035" y2="480.08" gradientUnits="userSpaceOnUse">
<stop offset="0.0927945" stop-color="#E5E5E5" stop-opacity="0"/>
<stop offset="1" stop-color="#7F7F7F"/>
</linearGradient>
<linearGradient id="paint4_linear_6665_26176" x1="905.137" y1="318.305" x2="905.137" y2="480.08" gradientUnits="userSpaceOnUse">
<stop offset="0.0927945" stop-color="#E5E5E5" stop-opacity="0"/>
<stop offset="1" stop-color="#7F7F7F"/>
</linearGradient>
<linearGradient id="paint5_linear_6665_26176" x1="916.242" y1="318.305" x2="916.242" y2="480.08" gradientUnits="userSpaceOnUse">
<stop offset="0.0927945" stop-color="#E5E5E5" stop-opacity="0"/>
<stop offset="1" stop-color="#7F7F7F"/>
</linearGradient>
<linearGradient id="paint6_linear_6665_26176" x1="927.344" y1="318.305" x2="927.344" y2="480.08" gradientUnits="userSpaceOnUse">
<stop offset="0.0927945" stop-color="#E5E5E5" stop-opacity="0"/>
<stop offset="1" stop-color="#7F7F7F"/>
</linearGradient>
<linearGradient id="paint7_linear_6665_26176" x1="938.445" y1="318.305" x2="938.445" y2="480.08" gradientUnits="userSpaceOnUse">
<stop offset="0.0927945" stop-color="#E5E5E5" stop-opacity="0"/>
<stop offset="1" stop-color="#7F7F7F"/>
</linearGradient>
<linearGradient id="paint8_linear_6665_26176" x1="949.547" y1="318.305" x2="949.547" y2="480.08" gradientUnits="userSpaceOnUse">
<stop offset="0.0927945" stop-color="#E5E5E5" stop-opacity="0"/>
<stop offset="1" stop-color="#7F7F7F"/>
</linearGradient>
<linearGradient id="paint9_linear_6665_26176" x1="960.648" y1="318.305" x2="960.648" y2="480.08" gradientUnits="userSpaceOnUse">
<stop offset="0.0927945" stop-color="#E5E5E5" stop-opacity="0"/>
<stop offset="1" stop-color="#7F7F7F"/>
</linearGradient>
<linearGradient id="paint10_linear_6665_26176" x1="603" y1="685.828" x2="776.598" y2="282.811" gradientUnits="userSpaceOnUse">
<stop stop-color="#232323"/>
<stop offset="1" stop-color="#595959"/>
</linearGradient>
<linearGradient id="paint11_linear_6665_26176" x1="794.113" y1="354.353" x2="1032.99" y2="112.386" gradientUnits="userSpaceOnUse">
<stop stop-color="#232323"/>
<stop offset="1" stop-color="#595959"/>
</linearGradient>
<linearGradient id="paint12_linear_6665_26176" x1="870.309" y1="278.16" x2="966.63" y2="180.593" gradientUnits="userSpaceOnUse">
<stop stop-color="#232323"/>
<stop offset="1" stop-color="#595959"/>
</linearGradient>
<linearGradient id="paint13_linear_6665_26176" x1="898.389" y1="242.71" x2="903.214" y2="223.11" gradientUnits="userSpaceOnUse">
<stop stop-color="white"/>
<stop offset="1" stop-color="#343434" stop-opacity="0"/>
</linearGradient>
<clipPath id="clip0_6665_26176">
<path d="M0 16C0 7.16343 7.16344 0 16 0H1328C1336.84 0 1344 7.16344 1344 16V637C1344 645.837 1336.84 653 1328 653H16C7.16346 653 0 645.837 0 637V16Z" fill="white"/>
</clipPath>
<clipPath id="clip1_6665_26176">
<rect width="66.231" height="35.9219" fill="white" transform="translate(641.09 447.922)"/>
</clipPath>
<clipPath id="clip2_6665_26176">
<rect width="67.355" height="12.1448" fill="white" transform="translate(640.523 459.711)"/>
</clipPath>
<clipPath id="clip3_6665_26176">
<rect width="67.3536" height="35.9219" fill="white" transform="translate(738.016 447.922)"/>
</clipPath>
<clipPath id="clip4_6665_26176">
<rect width="67.3536" height="10.8635" fill="white" transform="translate(738.016 460.633)"/>
</clipPath>
<clipPath id="clip5_6665_26176">
<rect width="67.3536" height="35.9219" fill="white" transform="translate(836.066 447.922)"/>
</clipPath>
<clipPath id="clip6_6665_26176">
<rect width="67.3536" height="18.7122" fill="white" transform="translate(836.066 456.414)"/>
</clipPath>
<clipPath id="clip7_6665_26176">
<rect width="67.9149" height="35.9219" fill="white" transform="translate(1034.97 447.922)"/>
</clipPath>
<clipPath id="clip8_6665_26176">
<rect width="67.3536" height="35.9219" fill="white" transform="translate(1133.58 447.922)"/>
</clipPath>
</defs>
</svg>
