<svg width="1344" height="653" viewBox="0 0 1344 653" fill="none" xmlns="http://www.w3.org/2000/svg">
<g clip-path="url(#clip0_6665_26306)">
<circle opacity="0.1" cx="959.5" cy="807.5" r="482.5" fill="#D9D9D9" fill-opacity="0.05" stroke="url(#paint0_linear_6665_26306)" stroke-width="4"/>
<circle opacity="0.1" cx="484.5" cy="484.5" r="484" transform="matrix(1 0 0 -1 475 323)" fill="#D9D9D9" fill-opacity="0.05" stroke="url(#paint1_linear_6665_26306)"/>
<g filter="url(#filter0_din_6665_26306)">
<path d="M1126.82 213.367L998.932 213.367C996.066 213.367 993.743 215.69 993.743 218.556L993.743 246.27L993.743 395.013L993.743 415.773C993.743 418.639 996.066 420.963 998.932 420.963L1124.43 420.963C1125.94 420.963 1127.38 420.298 1128.37 419.145L1147.75 396.469C1148.55 395.529 1149 394.334 1149 393.098L1149 218.556C1149 215.69 1146.67 213.367 1143.81 213.367L1126.82 213.367Z" fill="url(#paint2_linear_6665_26306)"/>
</g>
<g filter="url(#filter1_di_6665_26306)">
<path d="M1120.71 353.343L1099.48 353.343L1099.48 344.924C1099.48 342.844 1100.02 341.215 1101.1 340.038C1102.16 338.86 1103.64 338.272 1105.55 338.272C1106.86 338.272 1107.99 338.586 1108.93 339.213C1109.85 339.822 1110.53 340.725 1110.96 341.922C1111.28 341.078 1111.73 340.45 1112.32 340.038C1112.91 339.606 1113.74 339.292 1114.82 339.096L1118.44 338.389C1118.77 338.311 1119.15 338.222 1119.56 338.124C1119.97 338.007 1120.35 337.84 1120.71 337.624L1120.71 340.155C1120.43 340.352 1120.15 340.499 1119.85 340.597C1119.56 340.675 1119.28 340.734 1119.03 340.774L1115.35 341.421C1114.02 341.657 1113.05 342.187 1112.46 343.011C1111.88 343.815 1111.58 345.12 1111.58 346.926L1111.58 350.929L1120.71 350.929L1120.71 353.343ZM1109.4 345.101C1109.4 343.747 1109.06 342.687 1108.37 341.922C1107.69 341.137 1106.74 340.744 1105.55 340.744C1104.33 340.744 1103.38 341.137 1102.69 341.922C1102.01 342.687 1101.66 343.747 1101.66 345.101L1101.66 350.929L1109.4 350.929L1109.4 345.101ZM1113.35 333.684C1115.11 333.625 1116.49 333.135 1117.47 332.213C1118.45 331.29 1118.94 330.093 1118.94 328.621C1118.94 327.503 1118.68 326.522 1118.15 325.678C1117.62 324.834 1116.86 324.324 1115.88 324.147L1115.88 321.969C1117.55 322.244 1118.81 322.999 1119.68 324.235C1120.52 325.472 1120.94 326.934 1120.94 328.621C1120.94 330.113 1120.6 331.418 1119.91 332.536C1119.21 333.635 1118.25 334.489 1117.06 335.097C1115.86 335.686 1114.53 335.98 1113.05 335.98C1111.58 335.98 1110.26 335.686 1109.08 335.097C1107.88 334.509 1106.94 333.665 1106.25 332.566C1105.55 331.467 1105.19 330.172 1105.19 328.68C1105.19 327.267 1105.51 326.051 1106.14 325.03C1106.76 324.01 1107.62 323.225 1108.7 322.675C1109.76 322.106 1110.96 321.831 1112.32 321.851C1112.55 321.851 1112.77 321.861 1112.97 321.88C1113.14 321.9 1113.27 321.91 1113.35 321.91L1113.35 333.684ZM1107.14 328.68C1107.14 329.995 1107.53 331.074 1108.31 331.918C1109.08 332.762 1110.12 333.302 1111.43 333.537L1111.43 324.265C1110.2 324.343 1109.18 324.765 1108.37 325.531C1107.55 326.296 1107.14 327.346 1107.14 328.68ZM1120.94 312.526C1120.94 314.076 1120.59 315.4 1119.88 316.499C1119.18 317.579 1118.23 318.403 1117.06 318.972C1115.86 319.522 1114.53 319.796 1113.05 319.796C1111.58 319.796 1110.26 319.512 1109.08 318.943C1107.88 318.374 1106.94 317.549 1106.25 316.47C1105.55 315.391 1105.19 314.076 1105.19 312.526C1105.19 311.525 1105.44 310.553 1105.93 309.611C1106.4 308.669 1107.01 307.963 1107.76 307.492L1099.25 307.492L1099.25 305.225L1120.71 305.225L1120.71 307.492L1118.38 307.492C1119.09 307.806 1119.7 308.434 1120.21 309.376C1120.7 310.318 1120.94 311.368 1120.94 312.526ZM1118.91 312.349C1118.91 310.838 1118.38 309.611 1117.32 308.669C1116.24 307.727 1114.82 307.256 1113.05 307.256C1111.31 307.256 1109.9 307.727 1108.84 308.669C1107.76 309.611 1107.23 310.838 1107.23 312.349C1107.23 313.88 1107.76 315.116 1108.84 316.058C1109.9 316.98 1111.31 317.441 1113.05 317.441C1114.8 317.441 1116.21 316.98 1117.29 316.058C1118.37 315.116 1118.91 313.88 1118.91 312.349ZM1113.35 299.908C1115.11 299.849 1116.49 299.358 1117.47 298.436C1118.45 297.513 1118.94 296.316 1118.94 294.845C1118.94 293.726 1118.68 292.745 1118.15 291.901C1117.62 291.057 1116.86 290.547 1115.88 290.37L1115.88 288.192C1117.55 288.467 1118.81 289.222 1119.68 290.459C1120.52 291.695 1120.94 293.157 1120.94 294.845C1120.94 296.336 1120.6 297.641 1119.91 298.76C1119.21 299.859 1118.25 300.712 1117.06 301.321C1115.86 301.909 1114.53 302.204 1113.05 302.204C1111.58 302.204 1110.26 301.909 1109.08 301.321C1107.88 300.732 1106.94 299.888 1106.25 298.789C1105.55 297.69 1105.19 296.395 1105.19 294.903C1105.19 293.491 1105.51 292.274 1106.14 291.253C1106.76 290.233 1107.62 289.448 1108.7 288.898C1109.76 288.329 1110.96 288.055 1112.32 288.074C1112.55 288.074 1112.77 288.084 1112.97 288.104C1113.14 288.123 1113.27 288.133 1113.35 288.133L1113.35 299.908ZM1107.14 294.903C1107.14 296.218 1107.53 297.298 1108.31 298.141C1109.08 298.985 1110.12 299.525 1111.43 299.76L1111.43 290.488C1110.2 290.567 1109.18 290.988 1108.37 291.754C1107.55 292.519 1107.14 293.569 1107.14 294.903ZM1113.35 283.723C1115.11 283.665 1116.49 283.174 1117.47 282.252C1118.45 281.329 1118.94 280.132 1118.94 278.66C1118.94 277.542 1118.68 276.561 1118.15 275.717C1117.62 274.873 1116.86 274.363 1115.88 274.186L1115.88 272.008C1117.55 272.283 1118.81 273.038 1119.68 274.275C1120.52 275.511 1120.94 276.973 1120.94 278.66C1120.94 280.152 1120.6 281.457 1119.91 282.575C1119.21 283.674 1118.25 284.528 1117.06 285.136C1115.86 285.725 1114.53 286.02 1113.05 286.02C1111.58 286.02 1110.26 285.725 1109.08 285.136C1107.88 284.548 1106.94 283.704 1106.25 282.605C1105.55 281.506 1105.19 280.211 1105.19 278.719C1105.19 277.306 1105.51 276.09 1106.14 275.069C1106.76 274.049 1107.62 273.264 1108.7 272.714C1109.76 272.145 1110.96 271.871 1112.32 271.89C1112.55 271.89 1112.77 271.9 1112.97 271.92C1113.14 271.939 1113.27 271.949 1113.35 271.949L1113.35 283.723ZM1107.14 278.719C1107.14 280.034 1107.53 281.113 1108.31 281.957C1109.08 282.801 1110.12 283.341 1111.43 283.576L1111.43 274.304C1110.2 274.382 1109.18 274.804 1108.37 275.57C1107.55 276.335 1107.14 277.385 1107.14 278.719ZM1120.71 268.864L1105.43 268.864L1105.43 266.597L1108.46 266.597C1107.48 266.225 1106.7 265.655 1106.11 264.89C1105.5 264.105 1105.19 263.124 1105.19 261.947C1105.19 260.671 1105.48 259.572 1106.05 258.65C1106.62 257.727 1107.42 257.139 1108.46 256.884C1107.5 256.452 1106.72 255.804 1106.11 254.941C1105.5 254.077 1105.19 253.096 1105.19 251.997C1105.19 250.368 1105.67 249.073 1106.61 248.112C1107.55 247.15 1108.84 246.669 1110.49 246.669L1120.71 246.669L1120.71 248.936L1110.9 248.936C1109.81 248.936 1108.92 249.24 1108.26 249.848C1107.57 250.457 1107.23 251.32 1107.23 252.439C1107.23 253.793 1107.78 254.833 1108.9 255.559C1110 256.285 1111.4 256.648 1113.08 256.648L1120.71 256.648L1120.71 258.915L1110.9 258.915C1109.81 258.915 1108.92 259.219 1108.26 259.827C1107.57 260.416 1107.23 261.26 1107.23 262.359C1107.23 263.732 1107.78 264.782 1108.9 265.508C1110 266.234 1111.4 266.597 1113.08 266.597L1120.71 266.597L1120.71 268.864Z" fill="#B480DC"/>
<path d="M1109.39 362.998L1109.39 370.983L1098.74 369.208L1114.71 382.516L1114.71 374.531L1125.36 376.306L1109.39 362.998Z" fill="#C48BEF"/>
</g>
<g filter="url(#filter2_din_6665_26306)">
<path d="M808.27 339.979L808.27 421.242C808.27 424.108 805.946 426.432 803.08 426.432L790 426.432L707.408 426.432L698.189 426.432C695.323 426.432 692.999 424.108 692.999 421.242L692.999 342.128C692.999 340.752 693.546 339.432 694.519 338.459L705.888 327.09C706.861 326.117 708.181 325.57 709.558 325.57L803.08 325.57C805.946 325.57 808.27 327.894 808.27 330.759L808.27 339.979Z" fill="url(#paint3_linear_6665_26306)"/>
</g>
<g filter="url(#filter3_di_6665_26306)">
<path d="M707.057 410.188V400.436H710.519C711.457 400.436 712.183 400.653 712.697 401.085C713.22 401.509 713.481 402.127 713.481 402.938C713.481 403.371 713.369 403.754 713.143 404.088C712.918 404.421 712.593 404.674 712.169 404.845C712.719 405.035 713.143 405.346 713.441 405.778C713.738 406.202 713.887 406.73 713.887 407.361C713.887 408.281 713.612 408.984 713.062 409.471C712.521 409.949 711.746 410.188 710.736 410.188H707.057ZM710.506 409.187C711.236 409.187 711.791 409.029 712.169 408.713C712.557 408.398 712.751 407.938 712.751 407.334C712.751 406.739 712.557 406.283 712.169 405.968C711.791 405.652 711.236 405.494 710.506 405.494H708.166V409.187H710.506ZM710.465 404.494C711.078 404.494 711.543 404.363 711.858 404.101C712.174 403.84 712.332 403.461 712.332 402.965C712.332 402.46 712.169 402.077 711.845 401.816C711.529 401.545 711.069 401.41 710.465 401.41H708.166V404.494H710.465ZM718.284 410.296C717.617 410.296 717.026 410.142 716.512 409.836C715.998 409.52 715.593 409.092 715.295 408.551C715.007 408.001 714.862 407.374 714.862 406.671C714.862 405.968 715.007 405.346 715.295 404.805C715.593 404.264 715.998 403.84 716.512 403.533C717.026 403.218 717.617 403.06 718.284 403.06C718.951 403.06 719.542 403.213 720.056 403.52C720.57 403.826 720.976 404.255 721.273 404.805C721.571 405.346 721.719 405.968 721.719 406.671C721.719 407.374 721.571 408.001 721.273 408.551C720.976 409.092 720.57 409.52 720.056 409.836C719.542 410.142 718.951 410.296 718.284 410.296ZM718.284 409.362C718.753 409.362 719.163 409.25 719.515 409.024C719.866 408.79 720.141 408.47 720.34 408.064C720.547 407.658 720.651 407.194 720.651 406.671C720.651 406.148 720.547 405.688 720.34 405.292C720.141 404.886 719.862 404.57 719.501 404.345C719.15 404.11 718.744 403.993 718.284 403.993C717.815 403.993 717.405 404.11 717.053 404.345C716.702 404.57 716.427 404.886 716.228 405.292C716.039 405.688 715.944 406.148 715.944 406.671C715.944 407.194 716.039 407.658 716.228 408.064C716.427 408.47 716.702 408.79 717.053 409.024C717.405 409.25 717.815 409.362 718.284 409.362ZM726.983 404.101C726.911 404.083 726.811 404.065 726.685 404.047C726.568 404.02 726.424 404.007 726.252 404.007C725.874 404.007 725.522 404.137 725.198 404.399C724.882 404.651 724.629 405.035 724.44 405.549C724.251 406.062 724.156 406.712 724.156 407.496V410.188H723.115V403.168H724.156V404.615C724.273 404.318 724.445 404.052 724.67 403.817C724.904 403.583 725.17 403.398 725.468 403.263C725.766 403.128 726.068 403.06 726.374 403.06C726.536 403.06 726.663 403.065 726.753 403.074C726.843 403.083 726.92 403.096 726.983 403.114V404.101ZM731.909 404.101C731.837 404.083 731.738 404.065 731.612 404.047C731.495 404.02 731.35 404.007 731.179 404.007C730.8 404.007 730.449 404.137 730.124 404.399C729.808 404.651 729.556 405.035 729.367 405.549C729.177 406.062 729.083 406.712 729.083 407.496V410.188H728.041V403.168H729.083V404.615C729.2 404.318 729.371 404.052 729.597 403.817C729.831 403.583 730.097 403.398 730.395 403.263C730.692 403.128 730.994 403.06 731.301 403.06C731.463 403.06 731.589 403.065 731.679 403.074C731.77 403.083 731.846 403.096 731.909 403.114V404.101ZM735.52 410.296C734.853 410.296 734.262 410.142 733.748 409.836C733.234 409.52 732.829 409.092 732.531 408.551C732.243 408.001 732.098 407.374 732.098 406.671C732.098 405.968 732.243 405.346 732.531 404.805C732.829 404.264 733.234 403.84 733.748 403.533C734.262 403.218 734.853 403.06 735.52 403.06C736.187 403.06 736.778 403.213 737.292 403.52C737.806 403.826 738.212 404.255 738.509 404.805C738.807 405.346 738.955 405.968 738.955 406.671C738.955 407.374 738.807 408.001 738.509 408.551C738.212 409.092 737.806 409.52 737.292 409.836C736.778 410.142 736.187 410.296 735.52 410.296ZM735.52 409.362C735.989 409.362 736.399 409.25 736.751 409.024C737.103 408.79 737.378 408.47 737.576 408.064C737.783 407.658 737.887 407.194 737.887 406.671C737.887 406.148 737.783 405.688 737.576 405.292C737.378 404.886 737.098 404.57 736.737 404.345C736.386 404.11 735.98 403.993 735.52 403.993C735.051 403.993 734.641 404.11 734.289 404.345C733.938 404.57 733.663 404.886 733.464 405.292C733.275 405.688 733.18 406.148 733.18 406.671C733.18 407.194 733.275 407.658 733.464 408.064C733.663 408.47 733.938 408.79 734.289 409.024C734.641 409.25 735.051 409.362 735.52 409.362ZM741.652 410.188L739.488 403.168H740.557L741.774 407.361C741.918 407.83 742.017 408.217 742.071 408.524C742.134 408.822 742.166 408.97 742.166 408.97C742.166 408.97 742.197 408.822 742.261 408.524C742.333 408.226 742.441 407.839 742.585 407.361L743.87 403.168H744.911L746.21 407.388C746.363 407.857 746.471 408.244 746.534 408.551C746.598 408.849 746.629 408.997 746.629 408.997C746.629 408.997 746.661 408.849 746.724 408.551C746.787 408.244 746.886 407.852 747.021 407.374L748.225 403.168H749.28L747.129 410.188H746.075L744.803 406.049C744.659 405.571 744.551 405.183 744.479 404.886C744.416 404.588 744.384 404.44 744.384 404.44C744.384 404.44 744.348 404.588 744.276 404.886C744.213 405.183 744.104 405.571 743.951 406.049L742.68 410.188H741.652Z" fill="#B480DC"/>
</g>
<g filter="url(#filter4_di_6665_26306)">
<path d="M720.117 353.872H723.807C724.812 353.872 725.807 354.07 726.735 354.455C727.664 354.839 728.507 355.403 729.218 356.114C729.928 356.824 730.492 357.668 730.877 358.596C731.261 359.524 731.459 360.519 731.459 361.524H719.555V363.225H733.158V361.524C733.151 359.715 732.629 357.946 731.653 356.423H736.56C738.168 356.423 739.742 356.878 741.101 357.737C742.461 358.595 743.549 359.821 744.239 361.273C740.218 366.578 733.707 370.028 726.358 370.028C721.663 370.028 717.686 369.025 714.455 367.265V351.444C716.524 351.74 718.477 352.578 720.117 353.872ZM712.755 366.625C712.755 367.076 712.576 367.509 712.257 367.828C711.938 368.147 711.505 368.326 711.054 368.326H707.654C707.203 368.326 706.77 368.147 706.451 367.828C706.132 367.509 705.953 367.076 705.953 366.625V351.322C705.953 350.871 706.132 350.438 706.451 350.12C706.77 349.801 707.203 349.621 707.654 349.621H711.054C711.505 349.621 711.938 349.801 712.257 350.12C712.576 350.438 712.755 350.871 712.755 351.322V366.625ZM734.86 342.82C736.213 342.82 737.51 343.357 738.467 344.314C739.423 345.271 739.961 346.568 739.961 347.921C739.961 349.274 739.423 350.572 738.467 351.528C737.51 352.485 736.213 353.022 734.86 353.022C733.507 353.022 732.209 352.485 731.253 351.528C730.296 350.572 729.759 349.274 729.759 347.921C729.759 346.568 730.296 345.271 731.253 344.314C732.209 343.357 733.507 342.82 734.86 342.82ZM722.957 337.719C724.31 337.719 725.607 338.256 726.564 339.213C727.521 340.17 728.058 341.467 728.058 342.82C728.058 344.173 727.521 345.47 726.564 346.427C725.607 347.384 724.31 347.921 722.957 347.921C721.604 347.921 720.307 347.384 719.35 346.427C718.393 345.47 717.856 344.173 717.856 342.82C717.856 341.467 718.393 340.17 719.35 339.213C720.307 338.256 721.604 337.719 722.957 337.719Z" fill="#C48BEF"/>
</g>
<g filter="url(#filter5_din_6665_26306)">
<path d="M808.266 299.958L808.266 218.695C808.266 215.829 805.942 213.506 803.076 213.506L789.996 213.506L707.404 213.506L698.185 213.506C695.319 213.506 692.996 215.829 692.996 218.695L692.996 297.809C692.996 299.185 693.542 300.505 694.515 301.478L705.884 312.847C706.858 313.82 708.177 314.367 709.554 314.367L803.076 314.367C805.942 314.367 808.266 312.044 808.266 309.178L808.266 299.958Z" fill="url(#paint4_linear_6665_26306)"/>
</g>
<g filter="url(#filter6_di_6665_26306)">
<path d="M705.284 292.195V282.444H706.393V291.181H711.302V292.195H705.284ZM712.586 288.814C712.613 289.626 712.838 290.257 713.262 290.708C713.686 291.158 714.236 291.384 714.912 291.384C715.426 291.384 715.877 291.262 716.264 291.019C716.652 290.775 716.886 290.428 716.968 289.977H717.968C717.842 290.744 717.495 291.325 716.927 291.722C716.359 292.11 715.687 292.304 714.912 292.304C714.227 292.304 713.627 292.146 713.113 291.83C712.608 291.506 712.216 291.068 711.936 290.518C711.666 289.968 711.531 289.355 711.531 288.679C711.531 288.003 711.666 287.394 711.936 286.853C712.207 286.303 712.595 285.87 713.1 285.555C713.605 285.23 714.2 285.068 714.885 285.068C715.534 285.068 716.093 285.212 716.562 285.501C717.031 285.789 717.391 286.181 717.644 286.677C717.905 287.164 718.032 287.719 718.023 288.341C718.023 288.449 718.018 288.548 718.009 288.638C718 288.719 717.996 288.778 717.996 288.814H712.586ZM714.885 285.96C714.281 285.96 713.785 286.141 713.397 286.501C713.009 286.853 712.761 287.331 712.653 287.935H716.914C716.877 287.367 716.684 286.898 716.332 286.528C715.98 286.15 715.498 285.96 714.885 285.96ZM719.413 292.195V285.176H720.454V286.569C720.716 286.1 721.058 285.735 721.482 285.474C721.915 285.203 722.393 285.068 722.916 285.068C723.403 285.068 723.831 285.171 724.201 285.379C724.579 285.577 724.872 285.861 725.08 286.231C725.296 286.601 725.404 287.033 725.404 287.529V292.195H724.363V287.692C724.363 287.205 724.214 286.803 723.917 286.488C723.628 286.172 723.227 286.015 722.713 286.015C722.037 286.015 721.491 286.294 721.077 286.853C720.662 287.403 720.454 288.156 720.454 289.112V292.195H719.413ZM730.06 292.304C729.348 292.304 728.739 292.141 728.234 291.817C727.738 291.492 727.36 291.059 727.098 290.518C726.846 289.968 726.72 289.355 726.72 288.679C726.72 288.003 726.85 287.394 727.112 286.853C727.373 286.303 727.752 285.87 728.248 285.555C728.744 285.23 729.348 285.068 730.06 285.068C730.52 285.068 730.966 285.181 731.399 285.406C731.832 285.622 732.156 285.902 732.373 286.244V282.336H733.414V292.195H732.373V291.127C732.229 291.451 731.94 291.731 731.507 291.965C731.075 292.191 730.592 292.304 730.06 292.304ZM730.141 291.37C730.836 291.37 731.399 291.127 731.832 290.64C732.265 290.144 732.481 289.49 732.481 288.679C732.481 287.876 732.265 287.232 731.832 286.745C731.399 286.249 730.836 286.001 730.141 286.001C729.438 286.001 728.87 286.249 728.437 286.745C728.013 287.232 727.802 287.876 727.802 288.679C727.802 289.481 728.013 290.131 728.437 290.626C728.87 291.122 729.438 291.37 730.141 291.37Z" fill="#B480DC"/>
</g>
<g filter="url(#filter7_di_6665_26306)">
<path d="M714.451 245.325C716.52 245.029 718.474 244.192 720.114 242.897L723.804 242.897C724.808 242.897 725.803 242.7 726.731 242.315C727.66 241.931 728.503 241.367 729.214 240.656C729.924 239.946 730.489 239.102 730.873 238.174C731.258 237.246 731.455 236.251 731.455 235.246L719.551 235.246L719.551 233.545L733.154 233.545L733.154 235.246C733.152 235.958 733.068 236.663 732.909 237.35C733.698 236.934 734.584 236.71 735.492 236.71C736.963 236.71 738.373 237.294 739.413 238.334C739.759 238.679 740.052 239.068 740.292 239.483C740.568 239.349 740.837 239.198 741.098 239.033C742.457 238.175 743.545 236.949 744.235 235.497C740.214 230.192 733.703 226.742 726.354 226.742C721.66 226.742 717.682 227.745 714.451 229.505L714.451 245.325ZM711.051 247.148C711.502 247.148 711.934 246.969 712.253 246.65C712.572 246.332 712.751 245.899 712.751 245.448L712.751 230.145C712.751 229.694 712.572 229.261 712.253 228.942C711.934 228.624 711.502 228.444 711.051 228.444L707.65 228.444C707.199 228.444 706.766 228.623 706.447 228.942C706.129 229.261 705.949 229.694 705.949 230.145L705.949 245.448C705.949 245.899 706.129 246.332 706.447 246.65C706.766 246.969 707.199 247.148 707.65 247.148L711.051 247.148Z" fill="#C48BEF"/>
</g>
<g filter="url(#filter8_di_6665_26306)">
<path d="M738.145 244.901C737.442 245.605 736.488 246 735.493 246C734.498 246 733.544 245.605 732.841 244.901C732.137 244.198 731.742 243.244 731.742 242.249C731.742 241.254 732.137 240.3 732.841 239.597C733.544 238.893 734.498 238.498 735.493 238.498C736.488 238.498 737.442 238.893 738.145 239.597C738.849 240.3 739.244 241.254 739.244 242.249C739.244 243.244 738.849 244.198 738.145 244.901Z" fill="#C48BEF"/>
</g>
<g filter="url(#filter9_di_6665_26306)">
<path d="M741.696 253.776C740.993 254.48 740.039 254.875 739.044 254.875C738.049 254.875 737.095 254.48 736.392 253.776C735.688 253.073 735.293 252.119 735.293 251.124C735.293 250.129 735.688 249.175 736.392 248.472C737.095 247.768 738.049 247.373 739.044 247.373C740.039 247.373 740.993 247.768 741.696 248.472C742.4 249.175 742.795 250.129 742.795 251.124C742.795 252.119 742.4 253.073 741.696 253.776Z" fill="#C48BEF"/>
</g>
<g filter="url(#filter10_di_6665_26306)">
<path d="M731.934 252.003C731.231 252.706 730.277 253.102 729.282 253.102C728.287 253.102 727.333 252.706 726.63 252.003C725.926 251.3 725.531 250.345 725.531 249.351C725.531 248.356 725.926 247.402 726.63 246.698C727.333 245.995 728.287 245.6 729.282 245.6C730.277 245.6 731.231 245.995 731.934 246.698C732.638 247.402 733.033 248.356 733.033 249.351C733.033 250.345 732.638 251.3 731.934 252.003Z" fill="#C48BEF"/>
</g>
<g filter="url(#filter11_din_6665_26306)">
<path d="M1035.45 169.008C1040.62 169.008 1045.58 171.063 1049.24 174.722L1054.03 179.508C1055.93 181.412 1055.93 184.5 1054.03 186.404L1044.52 195.91C1042.62 197.815 1042.62 200.902 1044.52 202.807L1048.03 206.311C1049.93 208.216 1053.02 208.216 1054.92 206.311L1064.43 196.805C1066.33 194.901 1069.42 194.901 1071.33 196.805L1075.81 201.293C1079.47 204.951 1081.53 209.912 1081.53 215.086V426.914C1081.53 432.088 1079.47 437.05 1075.81 440.708L1049.24 467.278C1045.58 470.937 1040.62 472.992 1035.45 472.992L823.621 472.992C818.447 472.992 813.485 470.937 809.827 467.278L805.335 462.786C803.431 460.882 803.431 457.794 805.335 455.889L814.831 446.395C816.735 444.49 816.735 441.402 814.83 439.498L811.326 435.994C809.422 434.09 806.334 434.09 804.43 435.994L794.934 445.489C793.029 447.394 789.942 447.394 788.037 445.489L783.256 440.708C779.598 437.05 777.543 432.088 777.543 426.914V215.086C777.543 209.913 779.598 204.951 783.256 201.293L809.827 174.722C813.485 171.063 818.447 169.008 823.621 169.008L1035.45 169.008ZM868.087 230.299C851.927 230.299 838.826 243.399 838.826 259.56V382.447C838.826 398.608 851.927 411.708 868.087 411.708H990.975C1007.13 411.708 1020.24 398.608 1020.24 382.447V259.56C1020.24 243.399 1007.13 230.299 990.975 230.299L868.087 230.299Z" fill="url(#paint5_linear_6665_26306)"/>
</g>
<rect x="838.824" y="230.305" width="181.41" height="181.41" rx="29.2608" fill="#1D1D1D"/>
<g filter="url(#filter12_din_6665_26306)">
<rect x="868.25" y="259.719" width="122.574" height="122.574" rx="4.87681" fill="url(#paint6_linear_6665_26306)"/>
</g>
<g filter="url(#filter13_di_6665_26306)">
<path d="M909.566 312.672L901.438 339.928" stroke="url(#paint7_linear_6665_26306)" stroke-width="4.68255" stroke-linecap="round"/>
<mask id="mask0_6665_26306" style="mask-type:alpha" maskUnits="userSpaceOnUse" x="905" y="302" width="61" height="37">
<mask id="path-20-inside-1_6665_26306" fill="white">
<path d="M932.992 318.085C932.992 309.551 939.91 302.633 948.445 302.633H949.578C958.112 302.633 965.031 309.551 965.031 318.085V336.91H932.992V318.085Z"/>
</mask>
<path d="M928.31 318.085C928.31 306.965 937.324 297.95 948.445 297.95H949.578C960.698 297.95 969.713 306.965 969.713 318.085H960.348C960.348 312.137 955.526 307.315 949.578 307.315H948.445C942.497 307.315 937.675 312.137 937.675 318.085H928.31ZM965.031 336.91H932.992H965.031ZM928.31 336.91V318.085C928.31 306.965 937.324 297.95 948.445 297.95V307.315C942.497 307.315 937.675 312.137 937.675 318.085V336.91H928.31ZM949.578 297.95C960.698 297.95 969.713 306.965 969.713 318.085V336.91H960.348V318.085C960.348 312.137 955.526 307.315 949.578 307.315V297.95Z" fill="white" mask="url(#path-20-inside-1_6665_26306)"/>
<ellipse cx="962.637" cy="336.908" rx="2.39071" ry="2.06471" fill="#A66CFF"/>
<mask id="path-23-inside-2_6665_26306" fill="white">
<path d="M905.742 318.085C905.742 309.551 912.66 302.633 921.195 302.633H922.328C930.862 302.633 937.781 309.551 937.781 318.085V336.91H905.742V318.085Z"/>
</mask>
<path d="M901.06 318.085C901.06 306.965 910.074 297.95 921.195 297.95H922.328C933.448 297.95 942.463 306.965 942.463 318.085H933.098C933.098 312.137 928.276 307.315 922.328 307.315H921.195C915.247 307.315 910.425 312.137 910.425 318.085H901.06ZM937.781 336.91H905.742H937.781ZM901.06 336.91V318.085C901.06 306.965 910.074 297.95 921.195 297.95V307.315C915.247 307.315 910.425 312.137 910.425 318.085V336.91H901.06ZM922.328 297.95C933.448 297.95 942.463 306.965 942.463 318.085V336.91H933.098V318.085C933.098 312.137 928.276 307.315 922.328 307.315V297.95Z" fill="#A66CFF" mask="url(#path-23-inside-2_6665_26306)"/>
<ellipse cx="935.383" cy="336.908" rx="2.39071" ry="2.06471" fill="#A66CFF"/>
</mask>
<g mask="url(#mask0_6665_26306)">
<path d="M907.59 301.391L967.524 302.034V340.614L960.169 338.776V319.777C960.169 319.777 960.782 307.519 949.138 307.519C936.88 307.519 937.761 319.777 937.761 319.777V340.614H932.862V316.659C931.219 307.752 925.476 306.703 922.074 306.48C919.651 306.321 918.086 306.495 915.978 307.752C914.224 308.798 912.134 310.933 911.525 312.205C910.061 315.26 903.785 311.455 903.785 311.455L907.59 301.391Z" fill="white"/>
</g>
<circle cx="906.93" cy="322.887" r="9.37394" stroke="white" stroke-width="4.68255"/>
</g>
</g>
<defs>
<filter id="filter0_din_6665_26306" x="926.283" y="151.097" width="290.172" height="342.512" filterUnits="userSpaceOnUse" color-interpolation-filters="sRGB">
<feFlood flood-opacity="0" result="BackgroundImageFix"/>
<feColorMatrix in="SourceAlpha" type="matrix" values="0 0 0 0 0 0 0 0 0 0 0 0 0 0 0 0 0 0 127 0" result="hardAlpha"/>
<feOffset dy="5.18915"/>
<feGaussianBlur stdDeviation="33.7295"/>
<feComposite in2="hardAlpha" operator="out"/>
<feColorMatrix type="matrix" values="0 0 0 0 0 0 0 0 0 0 0 0 0 0 0 0 0 0 0.55 0"/>
<feBlend mode="normal" in2="BackgroundImageFix" result="effect1_dropShadow_6665_26306"/>
<feBlend mode="normal" in="SourceGraphic" in2="BackgroundImageFix" result="shape"/>
<feColorMatrix in="SourceAlpha" type="matrix" values="0 0 0 0 0 0 0 0 0 0 0 0 0 0 0 0 0 0 127 0" result="hardAlpha"/>
<feOffset dy="-3.89186"/>
<feGaussianBlur stdDeviation="0.518915"/>
<feComposite in2="hardAlpha" operator="arithmetic" k2="-1" k3="1"/>
<feColorMatrix type="matrix" values="0 0 0 0 0 0 0 0 0 0 0 0 0 0 0 0 0 0 0.25 0"/>
<feBlend mode="normal" in2="shape" result="effect2_innerShadow_6665_26306"/>
<feTurbulence type="fractalNoise" baseFrequency="7.7083988189697266 7.7083988189697266" stitchTiles="stitch" numOctaves="3" result="noise" seed="5938" />
<feColorMatrix in="noise" type="luminanceToAlpha" result="alphaNoise" />
<feComponentTransfer in="alphaNoise" result="coloredNoise1">
<feFuncA type="discrete" tableValues="1 1 1 1 1 1 1 1 1 1 1 1 1 1 1 1 1 1 1 1 1 1 1 1 1 1 1 1 1 1 1 1 1 1 1 1 1 1 1 1 1 1 1 1 1 1 1 1 1 1 1 0 0 0 0 0 0 0 0 0 0 0 0 0 0 0 0 0 0 0 0 0 0 0 0 0 0 0 0 0 0 0 0 0 0 0 0 0 0 0 0 0 0 0 0 0 0 0 0 0 "/>
</feComponentTransfer>
<feComposite operator="in" in2="effect2_innerShadow_6665_26306" in="coloredNoise1" result="noise1Clipped" />
<feFlood flood-color="rgba(0, 0, 0, 0.35)" result="color1Flood" />
<feComposite operator="in" in2="noise1Clipped" in="color1Flood" result="color1" />
<feMerge result="effect3_noise_6665_26306">
<feMergeNode in="effect2_innerShadow_6665_26306" />
<feMergeNode in="color1" />
</feMerge>
<feBlend mode="normal" in="effect3_noise_6665_26306" in2="effect1_dropShadow_6665_26306" result="effect3_noise_6665_26306"/>
</filter>
<filter id="filter1_di_6665_26306" x="1073.9" y="221.831" width="76.2942" height="185.525" filterUnits="userSpaceOnUse" color-interpolation-filters="sRGB">
<feFlood flood-opacity="0" result="BackgroundImageFix"/>
<feColorMatrix in="SourceAlpha" type="matrix" values="0 0 0 0 0 0 0 0 0 0 0 0 0 0 0 0 0 0 127 0" result="hardAlpha"/>
<feOffset/>
<feGaussianBlur stdDeviation="12.4202"/>
<feComposite in2="hardAlpha" operator="out"/>
<feColorMatrix type="matrix" values="0 0 0 0 0.768627 0 0 0 0 0.545098 0 0 0 0 0.937255 0 0 0 1 0"/>
<feBlend mode="normal" in2="BackgroundImageFix" result="effect1_dropShadow_6665_26306"/>
<feBlend mode="normal" in="SourceGraphic" in2="effect1_dropShadow_6665_26306" result="shape"/>
<feColorMatrix in="SourceAlpha" type="matrix" values="0 0 0 0 0 0 0 0 0 0 0 0 0 0 0 0 0 0 127 0" result="hardAlpha"/>
<feOffset dx="-0.88716"/>
<feGaussianBlur stdDeviation="0.44358"/>
<feComposite in2="hardAlpha" operator="arithmetic" k2="-1" k3="1"/>
<feColorMatrix type="matrix" values="0 0 0 0 0 0 0 0 0 0 0 0 0 0 0 0 0 0 0.25 0"/>
<feBlend mode="normal" in2="shape" result="effect2_innerShadow_6665_26306"/>
</filter>
<filter id="filter2_din_6665_26306" x="625.541" y="263.301" width="250.187" height="235.777" filterUnits="userSpaceOnUse" color-interpolation-filters="sRGB">
<feFlood flood-opacity="0" result="BackgroundImageFix"/>
<feColorMatrix in="SourceAlpha" type="matrix" values="0 0 0 0 0 0 0 0 0 0 0 0 0 0 0 0 0 0 127 0" result="hardAlpha"/>
<feOffset dy="5.18915"/>
<feGaussianBlur stdDeviation="33.7295"/>
<feComposite in2="hardAlpha" operator="out"/>
<feColorMatrix type="matrix" values="0 0 0 0 0 0 0 0 0 0 0 0 0 0 0 0 0 0 0.55 0"/>
<feBlend mode="normal" in2="BackgroundImageFix" result="effect1_dropShadow_6665_26306"/>
<feBlend mode="normal" in="SourceGraphic" in2="BackgroundImageFix" result="shape"/>
<feColorMatrix in="SourceAlpha" type="matrix" values="0 0 0 0 0 0 0 0 0 0 0 0 0 0 0 0 0 0 127 0" result="hardAlpha"/>
<feOffset dy="-3.89186"/>
<feGaussianBlur stdDeviation="0.518915"/>
<feComposite in2="hardAlpha" operator="arithmetic" k2="-1" k3="1"/>
<feColorMatrix type="matrix" values="0 0 0 0 0 0 0 0 0 0 0 0 0 0 0 0 0 0 0.25 0"/>
<feBlend mode="normal" in2="shape" result="effect2_innerShadow_6665_26306"/>
<feTurbulence type="fractalNoise" baseFrequency="7.7083988189697266 7.7083988189697266" stitchTiles="stitch" numOctaves="3" result="noise" seed="5938" />
<feColorMatrix in="noise" type="luminanceToAlpha" result="alphaNoise" />
<feComponentTransfer in="alphaNoise" result="coloredNoise1">
<feFuncA type="discrete" tableValues="1 1 1 1 1 1 1 1 1 1 1 1 1 1 1 1 1 1 1 1 1 1 1 1 1 1 1 1 1 1 1 1 1 1 1 1 1 1 1 1 1 1 1 1 1 1 1 1 1 1 1 0 0 0 0 0 0 0 0 0 0 0 0 0 0 0 0 0 0 0 0 0 0 0 0 0 0 0 0 0 0 0 0 0 0 0 0 0 0 0 0 0 0 0 0 0 0 0 0 0 "/>
</feComponentTransfer>
<feComposite operator="in" in2="effect2_innerShadow_6665_26306" in="coloredNoise1" result="noise1Clipped" />
<feFlood flood-color="rgba(0, 0, 0, 0.35)" result="color1Flood" />
<feComposite operator="in" in2="noise1Clipped" in="color1Flood" result="color1" />
<feMerge result="effect3_noise_6665_26306">
<feMergeNode in="effect2_innerShadow_6665_26306" />
<feMergeNode in="color1" />
</feMerge>
<feBlend mode="normal" in="effect3_noise_6665_26306" in2="effect1_dropShadow_6665_26306" result="effect3_noise_6665_26306"/>
</filter>
<filter id="filter3_di_6665_26306" x="682.218" y="375.597" width="91.9036" height="59.5403" filterUnits="userSpaceOnUse" color-interpolation-filters="sRGB">
<feFlood flood-opacity="0" result="BackgroundImageFix"/>
<feColorMatrix in="SourceAlpha" type="matrix" values="0 0 0 0 0 0 0 0 0 0 0 0 0 0 0 0 0 0 127 0" result="hardAlpha"/>
<feOffset/>
<feGaussianBlur stdDeviation="12.4202"/>
<feComposite in2="hardAlpha" operator="out"/>
<feColorMatrix type="matrix" values="0 0 0 0 0.768627 0 0 0 0 0.545098 0 0 0 0 0.937255 0 0 0 1 0"/>
<feBlend mode="normal" in2="BackgroundImageFix" result="effect1_dropShadow_6665_26306"/>
<feBlend mode="normal" in="SourceGraphic" in2="effect1_dropShadow_6665_26306" result="shape"/>
<feColorMatrix in="SourceAlpha" type="matrix" values="0 0 0 0 0 0 0 0 0 0 0 0 0 0 0 0 0 0 127 0" result="hardAlpha"/>
<feOffset dx="-0.88716"/>
<feGaussianBlur stdDeviation="0.44358"/>
<feComposite in2="hardAlpha" operator="arithmetic" k2="-1" k3="1"/>
<feColorMatrix type="matrix" values="0 0 0 0 0 0 0 0 0 0 0 0 0 0 0 0 0 0 0.25 0"/>
<feBlend mode="normal" in2="shape" result="effect2_innerShadow_6665_26306"/>
</filter>
<filter id="filter4_di_6665_26306" x="681.113" y="312.878" width="87.9661" height="81.9934" filterUnits="userSpaceOnUse" color-interpolation-filters="sRGB">
<feFlood flood-opacity="0" result="BackgroundImageFix"/>
<feColorMatrix in="SourceAlpha" type="matrix" values="0 0 0 0 0 0 0 0 0 0 0 0 0 0 0 0 0 0 127 0" result="hardAlpha"/>
<feOffset/>
<feGaussianBlur stdDeviation="12.4202"/>
<feComposite in2="hardAlpha" operator="out"/>
<feColorMatrix type="matrix" values="0 0 0 0 0.768627 0 0 0 0 0.545098 0 0 0 0 0.937255 0 0 0 1 0"/>
<feBlend mode="normal" in2="BackgroundImageFix" result="effect1_dropShadow_6665_26306"/>
<feBlend mode="normal" in="SourceGraphic" in2="effect1_dropShadow_6665_26306" result="shape"/>
<feColorMatrix in="SourceAlpha" type="matrix" values="0 0 0 0 0 0 0 0 0 0 0 0 0 0 0 0 0 0 127 0" result="hardAlpha"/>
<feOffset dx="-0.88716"/>
<feGaussianBlur stdDeviation="0.44358"/>
<feComposite in2="hardAlpha" operator="arithmetic" k2="-1" k3="1"/>
<feColorMatrix type="matrix" values="0 0 0 0 0 0 0 0 0 0 0 0 0 0 0 0 0 0 0.25 0"/>
<feBlend mode="normal" in2="shape" result="effect2_innerShadow_6665_26306"/>
</filter>
<filter id="filter5_din_6665_26306" x="625.537" y="151.238" width="250.187" height="235.777" filterUnits="userSpaceOnUse" color-interpolation-filters="sRGB">
<feFlood flood-opacity="0" result="BackgroundImageFix"/>
<feColorMatrix in="SourceAlpha" type="matrix" values="0 0 0 0 0 0 0 0 0 0 0 0 0 0 0 0 0 0 127 0" result="hardAlpha"/>
<feOffset dy="5.18915"/>
<feGaussianBlur stdDeviation="33.7295"/>
<feComposite in2="hardAlpha" operator="out"/>
<feColorMatrix type="matrix" values="0 0 0 0 0 0 0 0 0 0 0 0 0 0 0 0 0 0 0.55 0"/>
<feBlend mode="normal" in2="BackgroundImageFix" result="effect1_dropShadow_6665_26306"/>
<feBlend mode="normal" in="SourceGraphic" in2="BackgroundImageFix" result="shape"/>
<feColorMatrix in="SourceAlpha" type="matrix" values="0 0 0 0 0 0 0 0 0 0 0 0 0 0 0 0 0 0 127 0" result="hardAlpha"/>
<feOffset dy="-3.89186"/>
<feGaussianBlur stdDeviation="0.518915"/>
<feComposite in2="hardAlpha" operator="arithmetic" k2="-1" k3="1"/>
<feColorMatrix type="matrix" values="0 0 0 0 0 0 0 0 0 0 0 0 0 0 0 0 0 0 0.25 0"/>
<feBlend mode="normal" in2="shape" result="effect2_innerShadow_6665_26306"/>
<feTurbulence type="fractalNoise" baseFrequency="7.7083988189697266 7.7083988189697266" stitchTiles="stitch" numOctaves="3" result="noise" seed="5938" />
<feColorMatrix in="noise" type="luminanceToAlpha" result="alphaNoise" />
<feComponentTransfer in="alphaNoise" result="coloredNoise1">
<feFuncA type="discrete" tableValues="1 1 1 1 1 1 1 1 1 1 1 1 1 1 1 1 1 1 1 1 1 1 1 1 1 1 1 1 1 1 1 1 1 1 1 1 1 1 1 1 1 1 1 1 1 1 1 1 1 1 1 0 0 0 0 0 0 0 0 0 0 0 0 0 0 0 0 0 0 0 0 0 0 0 0 0 0 0 0 0 0 0 0 0 0 0 0 0 0 0 0 0 0 0 0 0 0 0 0 0 "/>
</feComponentTransfer>
<feComposite operator="in" in2="effect2_innerShadow_6665_26306" in="coloredNoise1" result="noise1Clipped" />
<feFlood flood-color="rgba(0, 0, 0, 0.35)" result="color1Flood" />
<feComposite operator="in" in2="noise1Clipped" in="color1Flood" result="color1" />
<feMerge result="effect3_noise_6665_26306">
<feMergeNode in="effect2_innerShadow_6665_26306" />
<feMergeNode in="color1" />
</feMerge>
<feBlend mode="normal" in="effect3_noise_6665_26306" in2="effect1_dropShadow_6665_26306" result="effect3_noise_6665_26306"/>
</filter>
<filter id="filter6_di_6665_26306" x="680.445" y="257.495" width="77.8098" height="59.6497" filterUnits="userSpaceOnUse" color-interpolation-filters="sRGB">
<feFlood flood-opacity="0" result="BackgroundImageFix"/>
<feColorMatrix in="SourceAlpha" type="matrix" values="0 0 0 0 0 0 0 0 0 0 0 0 0 0 0 0 0 0 127 0" result="hardAlpha"/>
<feOffset/>
<feGaussianBlur stdDeviation="12.4202"/>
<feComposite in2="hardAlpha" operator="out"/>
<feColorMatrix type="matrix" values="0 0 0 0 0.768627 0 0 0 0 0.545098 0 0 0 0 0.937255 0 0 0 1 0"/>
<feBlend mode="normal" in2="BackgroundImageFix" result="effect1_dropShadow_6665_26306"/>
<feBlend mode="normal" in="SourceGraphic" in2="effect1_dropShadow_6665_26306" result="shape"/>
<feColorMatrix in="SourceAlpha" type="matrix" values="0 0 0 0 0 0 0 0 0 0 0 0 0 0 0 0 0 0 127 0" result="hardAlpha"/>
<feOffset dx="-0.88716"/>
<feGaussianBlur stdDeviation="0.44358"/>
<feComposite in2="hardAlpha" operator="arithmetic" k2="-1" k3="1"/>
<feColorMatrix type="matrix" values="0 0 0 0 0 0 0 0 0 0 0 0 0 0 0 0 0 0 0.25 0"/>
<feBlend mode="normal" in2="shape" result="effect2_innerShadow_6665_26306"/>
</filter>
<filter id="filter7_di_6665_26306" x="681.109" y="201.902" width="87.9661" height="70.0872" filterUnits="userSpaceOnUse" color-interpolation-filters="sRGB">
<feFlood flood-opacity="0" result="BackgroundImageFix"/>
<feColorMatrix in="SourceAlpha" type="matrix" values="0 0 0 0 0 0 0 0 0 0 0 0 0 0 0 0 0 0 127 0" result="hardAlpha"/>
<feOffset/>
<feGaussianBlur stdDeviation="12.4202"/>
<feComposite in2="hardAlpha" operator="out"/>
<feColorMatrix type="matrix" values="0 0 0 0 0.768627 0 0 0 0 0.545098 0 0 0 0 0.937255 0 0 0 1 0"/>
<feBlend mode="normal" in2="BackgroundImageFix" result="effect1_dropShadow_6665_26306"/>
<feBlend mode="normal" in="SourceGraphic" in2="effect1_dropShadow_6665_26306" result="shape"/>
<feColorMatrix in="SourceAlpha" type="matrix" values="0 0 0 0 0 0 0 0 0 0 0 0 0 0 0 0 0 0 127 0" result="hardAlpha"/>
<feOffset dx="-0.88716"/>
<feGaussianBlur stdDeviation="0.44358"/>
<feComposite in2="hardAlpha" operator="arithmetic" k2="-1" k3="1"/>
<feColorMatrix type="matrix" values="0 0 0 0 0 0 0 0 0 0 0 0 0 0 0 0 0 0 0.25 0"/>
<feBlend mode="normal" in2="shape" result="effect2_innerShadow_6665_26306"/>
</filter>
<filter id="filter8_di_6665_26306" x="706.902" y="213.66" width="57.1809" height="57.1809" filterUnits="userSpaceOnUse" color-interpolation-filters="sRGB">
<feFlood flood-opacity="0" result="BackgroundImageFix"/>
<feColorMatrix in="SourceAlpha" type="matrix" values="0 0 0 0 0 0 0 0 0 0 0 0 0 0 0 0 0 0 127 0" result="hardAlpha"/>
<feOffset/>
<feGaussianBlur stdDeviation="12.4202"/>
<feComposite in2="hardAlpha" operator="out"/>
<feColorMatrix type="matrix" values="0 0 0 0 0.768627 0 0 0 0 0.545098 0 0 0 0 0.937255 0 0 0 1 0"/>
<feBlend mode="normal" in2="BackgroundImageFix" result="effect1_dropShadow_6665_26306"/>
<feBlend mode="normal" in="SourceGraphic" in2="effect1_dropShadow_6665_26306" result="shape"/>
<feColorMatrix in="SourceAlpha" type="matrix" values="0 0 0 0 0 0 0 0 0 0 0 0 0 0 0 0 0 0 127 0" result="hardAlpha"/>
<feOffset dx="-0.88716"/>
<feGaussianBlur stdDeviation="0.44358"/>
<feComposite in2="hardAlpha" operator="arithmetic" k2="-1" k3="1"/>
<feColorMatrix type="matrix" values="0 0 0 0 0 0 0 0 0 0 0 0 0 0 0 0 0 0 0.25 0"/>
<feBlend mode="normal" in2="shape" result="effect2_innerShadow_6665_26306"/>
</filter>
<filter id="filter9_di_6665_26306" x="710.453" y="222.535" width="57.1809" height="57.1809" filterUnits="userSpaceOnUse" color-interpolation-filters="sRGB">
<feFlood flood-opacity="0" result="BackgroundImageFix"/>
<feColorMatrix in="SourceAlpha" type="matrix" values="0 0 0 0 0 0 0 0 0 0 0 0 0 0 0 0 0 0 127 0" result="hardAlpha"/>
<feOffset/>
<feGaussianBlur stdDeviation="12.4202"/>
<feComposite in2="hardAlpha" operator="out"/>
<feColorMatrix type="matrix" values="0 0 0 0 0.768627 0 0 0 0 0.545098 0 0 0 0 0.937255 0 0 0 1 0"/>
<feBlend mode="normal" in2="BackgroundImageFix" result="effect1_dropShadow_6665_26306"/>
<feBlend mode="normal" in="SourceGraphic" in2="effect1_dropShadow_6665_26306" result="shape"/>
<feColorMatrix in="SourceAlpha" type="matrix" values="0 0 0 0 0 0 0 0 0 0 0 0 0 0 0 0 0 0 127 0" result="hardAlpha"/>
<feOffset dx="-0.88716"/>
<feGaussianBlur stdDeviation="0.44358"/>
<feComposite in2="hardAlpha" operator="arithmetic" k2="-1" k3="1"/>
<feColorMatrix type="matrix" values="0 0 0 0 0 0 0 0 0 0 0 0 0 0 0 0 0 0 0.25 0"/>
<feBlend mode="normal" in2="shape" result="effect2_innerShadow_6665_26306"/>
</filter>
<filter id="filter10_di_6665_26306" x="700.691" y="220.761" width="57.1809" height="57.1809" filterUnits="userSpaceOnUse" color-interpolation-filters="sRGB">
<feFlood flood-opacity="0" result="BackgroundImageFix"/>
<feColorMatrix in="SourceAlpha" type="matrix" values="0 0 0 0 0 0 0 0 0 0 0 0 0 0 0 0 0 0 127 0" result="hardAlpha"/>
<feOffset/>
<feGaussianBlur stdDeviation="12.4202"/>
<feComposite in2="hardAlpha" operator="out"/>
<feColorMatrix type="matrix" values="0 0 0 0 0.768627 0 0 0 0 0.545098 0 0 0 0 0.937255 0 0 0 1 0"/>
<feBlend mode="normal" in2="BackgroundImageFix" result="effect1_dropShadow_6665_26306"/>
<feBlend mode="normal" in="SourceGraphic" in2="effect1_dropShadow_6665_26306" result="shape"/>
<feColorMatrix in="SourceAlpha" type="matrix" values="0 0 0 0 0 0 0 0 0 0 0 0 0 0 0 0 0 0 127 0" result="hardAlpha"/>
<feOffset dx="-0.88716"/>
<feGaussianBlur stdDeviation="0.44358"/>
<feComposite in2="hardAlpha" operator="arithmetic" k2="-1" k3="1"/>
<feColorMatrix type="matrix" values="0 0 0 0 0 0 0 0 0 0 0 0 0 0 0 0 0 0 0.25 0"/>
<feBlend mode="normal" in2="shape" result="effect2_innerShadow_6665_26306"/>
</filter>
<filter id="filter11_din_6665_26306" x="714.144" y="110.486" width="430.781" height="430.781" filterUnits="userSpaceOnUse" color-interpolation-filters="sRGB">
<feFlood flood-opacity="0" result="BackgroundImageFix"/>
<feColorMatrix in="SourceAlpha" type="matrix" values="0 0 0 0 0 0 0 0 0 0 0 0 0 0 0 0 0 0 127 0" result="hardAlpha"/>
<feOffset dy="4.87681"/>
<feGaussianBlur stdDeviation="31.6992"/>
<feComposite in2="hardAlpha" operator="out"/>
<feColorMatrix type="matrix" values="0 0 0 0 0 0 0 0 0 0 0 0 0 0 0 0 0 0 0.55 0"/>
<feBlend mode="normal" in2="BackgroundImageFix" result="effect1_dropShadow_6665_26306"/>
<feBlend mode="normal" in="SourceGraphic" in2="BackgroundImageFix" result="shape"/>
<feColorMatrix in="SourceAlpha" type="matrix" values="0 0 0 0 0 0 0 0 0 0 0 0 0 0 0 0 0 0 127 0" result="hardAlpha"/>
<feOffset dy="-3.6576"/>
<feGaussianBlur stdDeviation="0.487681"/>
<feComposite in2="hardAlpha" operator="arithmetic" k2="-1" k3="1"/>
<feColorMatrix type="matrix" values="0 0 0 0 0 0 0 0 0 0 0 0 0 0 0 0 0 0 0.25 0"/>
<feBlend mode="normal" in2="shape" result="effect2_innerShadow_6665_26306"/>
<feTurbulence type="fractalNoise" baseFrequency="8.2020893096923828 8.2020893096923828" stitchTiles="stitch" numOctaves="3" result="noise" seed="5938" />
<feColorMatrix in="noise" type="luminanceToAlpha" result="alphaNoise" />
<feComponentTransfer in="alphaNoise" result="coloredNoise1">
<feFuncA type="discrete" tableValues="1 1 1 1 1 1 1 1 1 1 1 1 1 1 1 1 1 1 1 1 1 1 1 1 1 1 1 1 1 1 1 1 1 1 1 1 1 1 1 1 1 1 1 1 1 1 1 1 1 1 1 0 0 0 0 0 0 0 0 0 0 0 0 0 0 0 0 0 0 0 0 0 0 0 0 0 0 0 0 0 0 0 0 0 0 0 0 0 0 0 0 0 0 0 0 0 0 0 0 0 "/>
</feComponentTransfer>
<feComposite operator="in" in2="effect2_innerShadow_6665_26306" in="coloredNoise1" result="noise1Clipped" />
<feFlood flood-color="rgba(0, 0, 0, 0.35)" result="color1Flood" />
<feComposite operator="in" in2="noise1Clipped" in="color1Flood" result="color1" />
<feMerge result="effect3_noise_6665_26306">
<feMergeNode in="effect2_innerShadow_6665_26306" />
<feMergeNode in="color1" />
</feMerge>
<feBlend mode="normal" in="effect3_noise_6665_26306" in2="effect1_dropShadow_6665_26306" result="effect3_noise_6665_26306"/>
</filter>
<filter id="filter12_din_6665_26306" x="804.852" y="201.197" width="249.371" height="249.367" filterUnits="userSpaceOnUse" color-interpolation-filters="sRGB">
<feFlood flood-opacity="0" result="BackgroundImageFix"/>
<feColorMatrix in="SourceAlpha" type="matrix" values="0 0 0 0 0 0 0 0 0 0 0 0 0 0 0 0 0 0 127 0" result="hardAlpha"/>
<feOffset dy="4.87681"/>
<feGaussianBlur stdDeviation="31.6992"/>
<feComposite in2="hardAlpha" operator="out"/>
<feColorMatrix type="matrix" values="0 0 0 0 0 0 0 0 0 0 0 0 0 0 0 0 0 0 0.25 0"/>
<feBlend mode="normal" in2="BackgroundImageFix" result="effect1_dropShadow_6665_26306"/>
<feBlend mode="normal" in="SourceGraphic" in2="BackgroundImageFix" result="shape"/>
<feColorMatrix in="SourceAlpha" type="matrix" values="0 0 0 0 0 0 0 0 0 0 0 0 0 0 0 0 0 0 127 0" result="hardAlpha"/>
<feOffset dy="-3.6576"/>
<feGaussianBlur stdDeviation="0.487681"/>
<feComposite in2="hardAlpha" operator="arithmetic" k2="-1" k3="1"/>
<feColorMatrix type="matrix" values="0 0 0 0 0 0 0 0 0 0 0 0 0 0 0 0 0 0 0.25 0"/>
<feBlend mode="normal" in2="shape" result="effect2_innerShadow_6665_26306"/>
<feTurbulence type="fractalNoise" baseFrequency="8.2020893096923828 8.2020893096923828" stitchTiles="stitch" numOctaves="3" result="noise" seed="5938" />
<feColorMatrix in="noise" type="luminanceToAlpha" result="alphaNoise" />
<feComponentTransfer in="alphaNoise" result="coloredNoise1">
<feFuncA type="discrete" tableValues="1 1 1 1 1 1 1 1 1 1 1 1 1 1 1 1 1 1 1 1 1 1 1 1 1 1 1 1 1 1 1 1 1 1 1 1 1 1 1 1 1 1 1 1 1 1 1 1 1 1 1 0 0 0 0 0 0 0 0 0 0 0 0 0 0 0 0 0 0 0 0 0 0 0 0 0 0 0 0 0 0 0 0 0 0 0 0 0 0 0 0 0 0 0 0 0 0 0 0 0 "/>
</feComponentTransfer>
<feComposite operator="in" in2="effect2_innerShadow_6665_26306" in="coloredNoise1" result="noise1Clipped" />
<feFlood flood-color="rgba(0, 0, 0, 0.35)" result="color1Flood" />
<feComposite operator="in" in2="noise1Clipped" in="color1Flood" result="color1" />
<feMerge result="effect3_noise_6665_26306">
<feMergeNode in="effect2_innerShadow_6665_26306" />
<feMergeNode in="color1" />
</feMerge>
<feBlend mode="normal" in="effect3_noise_6665_26306" in2="effect1_dropShadow_6665_26306" result="effect3_noise_6665_26306"/>
</filter>
<filter id="filter13_di_6665_26306" x="883.629" y="291.047" width="92.989" height="62.8132" filterUnits="userSpaceOnUse" color-interpolation-filters="sRGB">
<feFlood flood-opacity="0" result="BackgroundImageFix"/>
<feColorMatrix in="SourceAlpha" type="matrix" values="0 0 0 0 0 0 0 0 0 0 0 0 0 0 0 0 0 0 127 0" result="hardAlpha"/>
<feOffset/>
<feGaussianBlur stdDeviation="5.79315"/>
<feComposite in2="hardAlpha" operator="out"/>
<feColorMatrix type="matrix" values="0 0 0 0 0.768627 0 0 0 0 0.545098 0 0 0 0 0.937255 0 0 0 1 0"/>
<feBlend mode="normal" in2="BackgroundImageFix" result="effect1_dropShadow_6665_26306"/>
<feBlend mode="normal" in="SourceGraphic" in2="effect1_dropShadow_6665_26306" result="shape"/>
<feColorMatrix in="SourceAlpha" type="matrix" values="0 0 0 0 0 0 0 0 0 0 0 0 0 0 0 0 0 0 127 0" result="hardAlpha"/>
<feOffset dy="3.08426"/>
<feGaussianBlur stdDeviation="0.771065"/>
<feComposite in2="hardAlpha" operator="arithmetic" k2="-1" k3="1"/>
<feColorMatrix type="matrix" values="0 0 0 0 0 0 0 0 0 0 0 0 0 0 0 0 0 0 0.25 0"/>
<feBlend mode="normal" in2="shape" result="effect2_innerShadow_6665_26306"/>
</filter>
<linearGradient id="paint0_linear_6665_26306" x1="959.5" y1="323" x2="959.5" y2="644" gradientUnits="userSpaceOnUse">
<stop stop-color="white"/>
<stop offset="1" stop-color="#999999" stop-opacity="0"/>
</linearGradient>
<linearGradient id="paint1_linear_6665_26306" x1="484.5" y1="0" x2="484.5" y2="321" gradientUnits="userSpaceOnUse">
<stop stop-color="white"/>
<stop offset="1" stop-color="#999999" stop-opacity="0"/>
</linearGradient>
<linearGradient id="paint2_linear_6665_26306" x1="1149" y1="420.963" x2="962.033" y2="279.331" gradientUnits="userSpaceOnUse">
<stop stop-color="#232323"/>
<stop offset="1" stop-color="#595959"/>
</linearGradient>
<linearGradient id="paint3_linear_6665_26306" x1="802.227" y1="419.924" x2="707.337" y2="312.863" gradientUnits="userSpaceOnUse">
<stop stop-color="#232323"/>
<stop offset="1" stop-color="#595959"/>
</linearGradient>
<linearGradient id="paint4_linear_6665_26306" x1="794.786" y1="321.804" x2="687.725" y2="226.914" gradientUnits="userSpaceOnUse">
<stop stop-color="#232323"/>
<stop offset="1" stop-color="#595959"/>
</linearGradient>
<linearGradient id="paint5_linear_6665_26306" x1="777.543" y1="472.992" x2="1061.92" y2="184.943" gradientUnits="userSpaceOnUse">
<stop stop-color="#232323"/>
<stop offset="1" stop-color="#595959"/>
</linearGradient>
<linearGradient id="paint6_linear_6665_26306" x1="868.25" y1="382.293" x2="982.916" y2="266.144" gradientUnits="userSpaceOnUse">
<stop stop-color="#232323"/>
<stop offset="1" stop-color="#595959"/>
</linearGradient>
<linearGradient id="paint7_linear_6665_26306" x1="901.673" y1="340.096" x2="907.416" y2="316.764" gradientUnits="userSpaceOnUse">
<stop stop-color="white"/>
<stop offset="1" stop-color="#343434" stop-opacity="0"/>
</linearGradient>
<clipPath id="clip0_6665_26306">
<path d="M0 16C0 7.16343 7.16344 0 16 0H1328C1336.84 0 1344 7.16344 1344 16V637C1344 645.837 1336.84 653 1328 653H16C7.16346 653 0 645.837 0 637V16Z" fill="white"/>
</clipPath>
</defs>
</svg>
