<svg width="577" height="557" viewBox="0 0 577 557" fill="none" xmlns="http://www.w3.org/2000/svg">
<rect width="577" height="557" rx="24" fill="#1D1D1D"/>
<path d="M202.918 495.391L209.849 477.856H212.062L219.042 495.391H216.902L215.102 490.77H206.76L204.961 495.391H202.918ZM207.441 488.97H214.397L210.919 480.02L207.441 488.97ZM224.567 495.585C223.561 495.585 222.678 495.399 221.916 495.026C221.17 494.637 220.578 494.118 220.14 493.469C219.719 492.805 219.484 492.075 219.435 491.28H221.308C221.356 491.978 221.665 492.594 222.232 493.129C222.799 493.648 223.578 493.907 224.567 493.907C225.41 493.907 226.083 493.713 226.585 493.323C227.104 492.934 227.364 492.464 227.364 491.913C227.364 491.345 227.177 490.916 226.804 490.624C226.447 490.316 225.985 490.089 225.418 489.943L223.132 489.335C222.581 489.189 222.062 488.994 221.575 488.751C221.105 488.492 220.724 488.143 220.432 487.705C220.14 487.251 219.995 486.676 219.995 485.979C219.995 484.99 220.392 484.179 221.186 483.547C221.981 482.898 223.018 482.574 224.299 482.574C225.596 482.574 226.674 482.914 227.534 483.595C228.393 484.26 228.904 485.16 229.066 486.295H227.169C227.088 485.663 226.78 485.16 226.245 484.787C225.726 484.398 225.077 484.203 224.299 484.203C223.586 484.203 223.01 484.365 222.572 484.69C222.135 484.998 221.916 485.427 221.916 485.979C221.916 486.4 222.07 486.757 222.378 487.049C222.686 487.324 223.099 487.527 223.618 487.657L225.904 488.24C226.52 488.386 227.08 488.589 227.582 488.848C228.101 489.092 228.515 489.456 228.823 489.943C229.147 490.413 229.309 491.07 229.309 491.913C229.309 492.999 228.871 493.883 227.996 494.564C227.137 495.245 225.994 495.585 224.567 495.585ZM235.824 495.585C234.819 495.585 233.935 495.399 233.173 495.026C232.428 494.637 231.836 494.118 231.398 493.469C230.977 492.805 230.741 492.075 230.693 491.28H232.565C232.614 491.978 232.922 492.594 233.49 493.129C234.057 493.648 234.835 493.907 235.824 493.907C236.667 493.907 237.34 493.713 237.843 493.323C238.362 492.934 238.621 492.464 238.621 491.913C238.621 491.345 238.435 490.916 238.062 490.624C237.705 490.316 237.243 490.089 236.676 489.943L234.389 489.335C233.838 489.189 233.319 488.994 232.833 488.751C232.363 488.492 231.982 488.143 231.69 487.705C231.398 487.251 231.252 486.676 231.252 485.979C231.252 484.99 231.649 484.179 232.444 483.547C233.238 482.898 234.276 482.574 235.557 482.574C236.854 482.574 237.932 482.914 238.791 483.595C239.651 484.26 240.161 485.16 240.324 486.295H238.427C238.346 485.663 238.038 485.16 237.502 484.787C236.984 484.398 236.335 484.203 235.557 484.203C234.843 484.203 234.268 484.365 233.83 484.69C233.392 484.998 233.173 485.427 233.173 485.979C233.173 486.4 233.327 486.757 233.636 487.049C233.944 487.324 234.357 487.527 234.876 487.657L237.162 488.24C237.778 488.386 238.337 488.589 238.84 488.848C239.359 489.092 239.772 489.456 240.08 489.943C240.405 490.413 240.567 491.07 240.567 491.913C240.567 492.999 240.129 493.883 239.254 494.564C238.394 495.245 237.251 495.585 235.824 495.585ZM244.091 489.311C244.139 490.77 244.545 491.905 245.307 492.715C246.069 493.526 247.058 493.931 248.274 493.931C249.198 493.931 250.009 493.713 250.706 493.275C251.403 492.837 251.824 492.213 251.97 491.402H253.77C253.543 492.78 252.919 493.826 251.897 494.539C250.876 495.237 249.668 495.585 248.274 495.585C247.041 495.585 245.963 495.301 245.039 494.734C244.131 494.15 243.426 493.364 242.923 492.375C242.437 491.386 242.194 490.283 242.194 489.067C242.194 487.851 242.437 486.757 242.923 485.784C243.41 484.795 244.107 484.017 245.015 483.449C245.923 482.866 246.993 482.574 248.225 482.574C249.392 482.574 250.398 482.833 251.241 483.352C252.084 483.871 252.732 484.576 253.186 485.468C253.657 486.343 253.884 487.341 253.867 488.459C253.867 488.654 253.859 488.832 253.843 488.994C253.827 489.14 253.819 489.246 253.819 489.311H244.091ZM248.225 484.179C247.139 484.179 246.247 484.503 245.55 485.152C244.853 485.784 244.407 486.643 244.212 487.73H251.873C251.808 486.708 251.46 485.865 250.827 485.2C250.195 484.519 249.328 484.179 248.225 484.179ZM260.749 495.585C259.63 495.585 258.739 495.285 258.074 494.685C257.425 494.085 257.101 493.169 257.101 491.937V484.398H254.693V482.768H257.101V478.901H258.95V482.768H262.233V484.398H258.95V491.864C258.95 492.561 259.112 493.072 259.436 493.396C259.776 493.721 260.247 493.883 260.847 493.883C261.155 493.883 261.422 493.867 261.649 493.834C261.892 493.785 262.087 493.737 262.233 493.688V495.391C262.071 495.423 261.852 495.464 261.576 495.512C261.317 495.561 261.041 495.585 260.749 495.585ZM269.763 495.391V482.768H271.635V485.273C271.943 484.463 272.414 483.814 273.046 483.328C273.695 482.825 274.505 482.574 275.478 482.574C276.532 482.574 277.44 482.809 278.202 483.279C278.964 483.749 279.45 484.414 279.661 485.273C280.018 484.479 280.553 483.83 281.266 483.328C281.98 482.825 282.79 482.574 283.698 482.574C285.044 482.574 286.114 482.963 286.909 483.741C287.703 484.519 288.1 485.59 288.1 486.951V495.391H286.228V487.292C286.228 486.384 285.976 485.654 285.474 485.103C284.971 484.536 284.258 484.252 283.333 484.252C282.215 484.252 281.355 484.714 280.756 485.638C280.156 486.546 279.856 487.697 279.856 489.092V495.391H277.983V487.292C277.983 486.384 277.732 485.654 277.229 485.103C276.743 484.536 276.045 484.252 275.138 484.252C274.003 484.252 273.135 484.714 272.535 485.638C271.935 486.546 271.635 487.697 271.635 489.092V495.391H269.763ZM294.662 495.585C293.413 495.585 292.392 495.261 291.597 494.612C290.803 493.964 290.406 493.096 290.406 492.01C290.406 490.924 290.778 490.056 291.524 489.408C292.27 488.743 293.308 488.33 294.637 488.168L297.653 487.778C298.48 487.649 298.893 487.26 298.893 486.611C298.893 485.914 298.618 485.338 298.066 484.884C297.515 484.43 296.737 484.203 295.732 484.203C294.824 484.203 294.078 484.422 293.494 484.86C292.911 485.281 292.578 485.906 292.497 486.733H290.576C290.705 485.468 291.232 484.463 292.157 483.717C293.081 482.955 294.272 482.574 295.732 482.574C296.737 482.574 297.612 482.76 298.358 483.133C299.12 483.49 299.712 483.984 300.134 484.617C300.555 485.249 300.766 485.971 300.766 486.781V492.886C300.766 493.291 300.847 493.558 301.009 493.688C301.188 493.802 301.406 493.858 301.666 493.858C301.796 493.858 301.925 493.842 302.055 493.81V495.391C301.941 495.407 301.812 495.431 301.666 495.464C301.536 495.496 301.39 495.512 301.228 495.512C300.58 495.512 300.044 495.334 299.623 494.977C299.218 494.62 299.007 494.037 298.991 493.226C298.65 493.94 298.083 494.515 297.288 494.953C296.494 495.374 295.618 495.585 294.662 495.585ZM294.88 493.98C296.161 493.98 297.15 493.599 297.848 492.837C298.561 492.059 298.918 491.005 298.918 489.675V489.043L294.88 489.675C293.178 489.951 292.327 490.721 292.327 491.986C292.327 492.602 292.562 493.088 293.032 493.445C293.519 493.802 294.135 493.98 294.88 493.98ZM304.106 495.391V482.768H305.978V485.273C306.448 484.43 307.065 483.774 307.827 483.303C308.605 482.817 309.464 482.574 310.405 482.574C311.28 482.574 312.05 482.76 312.715 483.133C313.396 483.49 313.923 484.001 314.296 484.665C314.685 485.33 314.88 486.108 314.88 487V495.391H313.007V487.292C313.007 486.416 312.739 485.695 312.204 485.127C311.685 484.56 310.964 484.276 310.04 484.276C308.824 484.276 307.843 484.779 307.097 485.784C306.351 486.773 305.978 488.127 305.978 489.846V495.391H304.106ZM321.452 495.585C320.203 495.585 319.182 495.261 318.388 494.612C317.593 493.964 317.196 493.096 317.196 492.01C317.196 490.924 317.569 490.056 318.315 489.408C319.06 488.743 320.098 488.33 321.428 488.168L324.443 487.778C325.27 487.649 325.684 487.26 325.684 486.611C325.684 485.914 325.408 485.338 324.857 484.884C324.305 484.43 323.527 484.203 322.522 484.203C321.614 484.203 320.868 484.422 320.285 484.86C319.701 485.281 319.368 485.906 319.287 486.733H317.366C317.496 485.468 318.023 484.463 318.947 483.717C319.871 482.955 321.063 482.574 322.522 482.574C323.527 482.574 324.403 482.76 325.149 483.133C325.911 483.49 326.502 483.984 326.924 484.617C327.346 485.249 327.556 485.971 327.556 486.781V492.886C327.556 493.291 327.637 493.558 327.799 493.688C327.978 493.802 328.197 493.858 328.456 493.858C328.586 493.858 328.716 493.842 328.845 493.81V495.391C328.732 495.407 328.602 495.431 328.456 495.464C328.326 495.496 328.181 495.512 328.018 495.512C327.37 495.512 326.835 495.334 326.413 494.977C326.008 494.62 325.797 494.037 325.781 493.226C325.44 493.94 324.873 494.515 324.078 494.953C323.284 495.374 322.408 495.585 321.452 495.585ZM321.671 493.98C322.952 493.98 323.941 493.599 324.638 492.837C325.351 492.059 325.708 491.005 325.708 489.675V489.043L321.671 489.675C319.968 489.951 319.117 490.721 319.117 491.986C319.117 492.602 319.352 493.088 319.822 493.445C320.309 493.802 320.925 493.98 321.671 493.98ZM336.295 500.133C334.576 500.133 333.214 499.768 332.209 499.039C331.22 498.325 330.653 497.28 330.507 495.901H332.404C332.501 496.712 332.874 497.344 333.523 497.798C334.187 498.269 335.111 498.504 336.295 498.504C337.543 498.504 338.5 498.187 339.165 497.555C339.83 496.923 340.162 496.015 340.162 494.831V493.007C339.87 493.558 339.343 494.004 338.581 494.345C337.835 494.669 336.992 494.831 336.052 494.831C334.787 494.831 333.709 494.564 332.817 494.029C331.926 493.494 331.245 492.764 330.774 491.84C330.32 490.916 330.093 489.878 330.093 488.727C330.093 487.559 330.32 486.514 330.774 485.59C331.245 484.665 331.917 483.936 332.793 483.401C333.685 482.849 334.755 482.574 336.003 482.574C336.863 482.574 337.673 482.76 338.435 483.133C339.197 483.506 339.773 483.984 340.162 484.568V482.768H342.035V494.685C342.035 496.436 341.532 497.782 340.527 498.723C339.538 499.663 338.127 500.133 336.295 500.133ZM336.173 493.153C337.422 493.153 338.419 492.756 339.165 491.961C339.927 491.151 340.308 490.073 340.308 488.727C340.308 487.381 339.927 486.303 339.165 485.492C338.419 484.665 337.422 484.252 336.173 484.252C334.925 484.252 333.92 484.665 333.158 485.492C332.412 486.303 332.039 487.381 332.039 488.727C332.039 490.073 332.412 491.151 333.158 491.961C333.92 492.756 334.925 493.153 336.173 493.153ZM346.407 489.311C346.455 490.77 346.861 491.905 347.623 492.715C348.385 493.526 349.374 493.931 350.59 493.931C351.514 493.931 352.325 493.713 353.022 493.275C353.719 492.837 354.141 492.213 354.287 491.402H356.086C355.859 492.78 355.235 493.826 354.214 494.539C353.192 495.237 351.984 495.585 350.59 495.585C349.358 495.585 348.279 495.301 347.355 494.734C346.447 494.15 345.742 493.364 345.239 492.375C344.753 491.386 344.51 490.283 344.51 489.067C344.51 487.851 344.753 486.757 345.239 485.784C345.726 484.795 346.423 484.017 347.331 483.449C348.239 482.866 349.309 482.574 350.541 482.574C351.709 482.574 352.714 482.833 353.557 483.352C354.4 483.871 355.049 484.576 355.503 485.468C355.973 486.343 356.2 487.341 356.184 488.459C356.184 488.654 356.175 488.832 356.159 488.994C356.143 489.14 356.135 489.246 356.135 489.311H346.407ZM350.541 484.179C349.455 484.179 348.563 484.503 347.866 485.152C347.169 485.784 346.723 486.643 346.528 487.73H354.189C354.124 486.708 353.776 485.865 353.143 485.2C352.511 484.519 351.644 484.179 350.541 484.179ZM365.639 484.446C365.51 484.414 365.331 484.382 365.104 484.349C364.894 484.301 364.634 484.276 364.326 484.276C363.645 484.276 363.013 484.511 362.429 484.982C361.862 485.436 361.408 486.125 361.067 487.049C360.727 487.973 360.556 489.14 360.556 490.551V495.391H358.684V482.768H360.556V485.371C360.767 484.836 361.075 484.357 361.481 483.936C361.902 483.514 362.38 483.182 362.916 482.939C363.451 482.695 363.994 482.574 364.545 482.574C364.837 482.574 365.064 482.582 365.226 482.598C365.388 482.614 365.526 482.639 365.639 482.671V484.446ZM371.296 495.585C370.291 495.585 369.407 495.399 368.645 495.026C367.899 494.637 367.307 494.118 366.87 493.469C366.448 492.805 366.213 492.075 366.164 491.28H368.037C368.086 491.978 368.394 492.594 368.961 493.129C369.529 493.648 370.307 493.907 371.296 493.907C372.139 493.907 372.812 493.713 373.315 493.323C373.833 492.934 374.093 492.464 374.093 491.913C374.093 491.345 373.906 490.916 373.533 490.624C373.177 490.316 372.715 490.089 372.147 489.943L369.861 489.335C369.31 489.189 368.791 488.994 368.305 488.751C367.834 488.492 367.453 488.143 367.161 487.705C366.87 487.251 366.724 486.676 366.724 485.979C366.724 484.99 367.121 484.179 367.915 483.547C368.71 482.898 369.748 482.574 371.028 482.574C372.325 482.574 373.404 482.914 374.263 483.595C375.122 484.26 375.633 485.16 375.795 486.295H373.898C373.817 485.663 373.509 485.16 372.974 484.787C372.455 484.398 371.807 484.203 371.028 484.203C370.315 484.203 369.739 484.365 369.302 484.69C368.864 484.998 368.645 485.427 368.645 485.979C368.645 486.4 368.799 486.757 369.107 487.049C369.415 487.324 369.829 487.527 370.347 487.657L372.634 488.24C373.25 488.386 373.809 488.589 374.312 488.848C374.83 489.092 375.244 489.456 375.552 489.943C375.876 490.413 376.038 491.07 376.038 491.913C376.038 492.999 375.601 493.883 374.725 494.564C373.866 495.245 372.723 495.585 371.296 495.585Z" fill="#6E6E6E"/>
<rect x="251.18" y="263.461" width="1.47711" height="103.397" rx="0.738554" fill="url(#paint0_linear_6870_26086)"/>
<rect x="251.18" y="349.133" width="1.47711" height="17.7253" rx="0.738554" fill="white"/>
<rect x="261.52" y="263.461" width="1.47711" height="103.397" rx="0.738554" fill="url(#paint1_linear_6870_26086)"/>
<rect x="261.52" y="349.133" width="1.47711" height="17.7253" rx="0.738554" fill="white"/>
<rect x="271.859" y="263.461" width="1.47711" height="103.397" rx="0.738554" fill="url(#paint2_linear_6870_26086)"/>
<rect x="271.859" y="349.133" width="1.47711" height="17.7253" rx="0.738554" fill="white"/>
<rect x="282.199" y="263.461" width="1.47711" height="103.397" rx="0.738554" fill="url(#paint3_linear_6870_26086)"/>
<rect x="282.199" y="349.133" width="1.47711" height="17.7253" rx="0.738554" fill="white"/>
<rect x="292.539" y="263.461" width="1.47711" height="103.397" rx="0.738554" fill="url(#paint4_linear_6870_26086)"/>
<rect x="292.539" y="349.133" width="1.47711" height="17.7253" rx="0.738554" fill="white"/>
<rect x="302.879" y="263.461" width="1.47711" height="103.397" rx="0.738554" fill="url(#paint5_linear_6870_26086)"/>
<rect x="302.879" y="349.133" width="1.47711" height="17.7253" rx="0.738554" fill="white"/>
<rect x="313.219" y="263.461" width="1.47711" height="103.397" rx="0.738554" fill="url(#paint6_linear_6870_26086)"/>
<rect x="313.219" y="349.133" width="1.47711" height="17.7253" rx="0.738554" fill="white"/>
<rect x="323.559" y="263.461" width="1.47711" height="103.397" rx="0.738554" fill="url(#paint7_linear_6870_26086)"/>
<rect x="323.559" y="349.133" width="1.47711" height="17.7253" rx="0.738554" fill="white"/>
<g filter="url(#filter0_din_6870_26086)">
<path d="M167.336 373.106C170.66 369.782 175.169 367.914 179.87 367.914H397.93C402.631 367.914 407.14 369.782 410.464 373.106L429.807 392.449C433.131 395.773 434.999 400.282 434.999 404.983V449.821C434.999 459.61 427.063 467.546 417.274 467.546H397.307H172.528H160.526C150.737 467.546 142.801 459.61 142.801 449.821V404.983C142.801 400.282 144.668 395.773 147.992 392.449L167.336 373.106Z" fill="url(#paint8_linear_6870_26086)"/>
</g>
<g filter="url(#filter1_din_6870_26086)">
<path d="M371.635 59.2188C375.704 59.2188 379.606 60.8356 382.483 63.7129L386.19 67.4196C387.688 68.9175 387.688 71.3462 386.19 72.8441L378.786 80.2487C377.288 81.7466 377.288 84.1753 378.786 85.6732L381.498 88.3854C382.996 89.8833 385.424 89.8833 386.922 88.3854L394.327 80.9808C395.825 79.4829 398.253 79.4829 399.751 80.9808L403.223 84.4521C406.1 87.3295 407.717 91.2317 407.717 95.3008V260.951C407.717 265.02 406.1 268.922 403.223 271.8L399.63 275.392C398.132 276.889 395.704 276.889 394.206 275.392L386.922 268.109C385.424 266.611 382.996 266.611 381.498 268.109L378.786 270.821C377.288 272.319 377.288 274.748 378.786 276.245L386.069 283.528C387.567 285.026 387.567 287.455 386.069 288.953L382.483 292.539C379.606 295.416 375.704 297.033 371.635 297.033H205.984C201.915 297.033 198.012 295.416 195.135 292.539L191.664 289.068C190.166 287.57 190.166 285.141 191.664 283.643L199.062 276.245C200.56 274.748 200.56 272.319 199.062 270.821L196.35 268.109C194.852 266.611 192.423 266.611 190.925 268.108L183.527 275.506C182.029 277.004 179.6 277.004 178.102 275.506L174.396 271.8C171.519 268.922 169.902 265.02 169.902 260.951V95.3008C169.902 91.2316 171.519 87.3295 174.396 84.4521L177.981 80.8664C179.479 79.3681 181.908 79.3679 183.406 80.866L190.925 88.3854C192.423 89.8833 194.852 89.8833 196.35 88.3854L199.062 85.6732C200.56 84.1753 200.56 81.7466 199.062 80.2487L191.543 72.7291C190.045 71.2311 190.045 68.8022 191.543 67.3043L195.135 63.7129C198.012 60.8355 201.915 59.2188 205.984 59.2188H371.635ZM240.863 107.172C228.153 107.172 217.849 117.475 217.849 130.186V226.079C217.849 238.789 228.153 249.093 240.863 249.093H336.756C349.466 249.093 359.77 238.789 359.771 226.079V130.186C359.77 117.475 349.466 107.172 336.756 107.172H240.863Z" fill="url(#paint9_linear_6870_26086)"/>
</g>
<rect x="217.844" y="107.172" width="141.921" height="141.921" rx="23.0143" fill="#1D1D1D"/>
<g filter="url(#filter2_din_6870_26086)">
<rect x="240.863" y="130.18" width="95.8929" height="95.8929" rx="3.83571" fill="url(#paint10_linear_6870_26086)"/>
</g>
<g filter="url(#filter3_di_6870_26086)">
<path d="M273.196 171.594L266.836 192.917" stroke="url(#paint11_linear_6870_26086)" stroke-width="3.68293" stroke-linecap="round"/>
<mask id="mask0_6870_26086" style="mask-type:alpha" maskUnits="userSpaceOnUse" x="270" y="163" width="47" height="30">
<mask id="path-24-inside-1_6870_26086" fill="white">
<path d="M291.516 175.904C291.516 169.191 296.957 163.75 303.669 163.75H304.426C311.139 163.75 316.58 169.191 316.58 175.904V190.566H291.516V175.904Z"/>
</mask>
<path d="M287.833 175.904C287.833 167.157 294.923 160.067 303.669 160.067H304.426C313.173 160.067 320.263 167.157 320.263 175.904H312.897C312.897 171.225 309.105 167.433 304.426 167.433H303.669C298.991 167.433 295.199 171.225 295.199 175.904H287.833ZM316.58 190.566H291.516H316.58ZM287.833 190.566V175.904C287.833 167.157 294.923 160.067 303.669 160.067V167.433C298.991 167.433 295.199 171.225 295.199 175.904V190.566H287.833ZM304.426 160.067C313.173 160.067 320.263 167.157 320.263 175.904V190.566H312.897V175.904C312.897 171.225 309.105 167.433 304.426 167.433V160.067Z" fill="white" mask="url(#path-24-inside-1_6870_26086)"/>
<ellipse cx="314.71" cy="190.553" rx="1.87049" ry="1.61542" fill="#A66CFF"/>
<mask id="path-27-inside-2_6870_26086" fill="white">
<path d="M270.199 175.904C270.199 169.191 275.641 163.75 282.353 163.75H283.11C289.822 163.75 295.264 169.191 295.264 175.904V190.566H270.199V175.904Z"/>
</mask>
<path d="M266.516 175.904C266.516 167.157 273.607 160.067 282.353 160.067H283.11C291.856 160.067 298.947 167.157 298.947 175.904H291.581C291.581 171.225 287.788 167.433 283.11 167.433H282.353C277.675 167.433 273.882 171.225 273.882 175.904H266.516ZM295.264 190.566H270.199H295.264ZM266.516 190.566V175.904C266.516 167.157 273.607 160.067 282.353 160.067V167.433C277.675 167.433 273.882 171.225 273.882 175.904V190.566H266.516ZM283.11 160.067C291.856 160.067 298.947 167.157 298.947 175.904V190.566H291.581V175.904C291.581 171.225 287.788 167.433 283.11 167.433V160.067Z" fill="#A66CFF" mask="url(#path-27-inside-2_6870_26086)"/>
<ellipse cx="293.386" cy="190.553" rx="1.87049" ry="1.61542" fill="#A66CFF"/>
</mask>
<g mask="url(#mask0_6870_26086)">
<path d="M271.653 162.781L318.54 163.284V193.467L312.786 192.029V177.165C312.786 177.165 313.266 167.576 304.156 167.576C294.567 167.576 295.256 177.165 295.256 177.165V193.467H291.423V174.726C290.138 167.758 285.645 166.937 282.984 166.763C281.088 166.638 279.864 166.775 278.214 167.758C276.842 168.576 275.208 170.247 274.731 171.242C273.586 173.632 268.676 170.654 268.676 170.654L271.653 162.781Z" fill="white"/>
</g>
<circle cx="271.13" cy="179.595" r="7.32392" stroke="white" stroke-width="3.68293"/>
</g>
<g clip-path="url(#clip0_6870_26086)">
<g clip-path="url(#clip1_6870_26086)">
<path d="M175.945 400.995C175.945 397.419 178.177 395.625 180.93 395.625C183.679 395.625 185.912 397.419 185.912 400.995C185.912 404.58 183.679 406.365 180.93 406.365C178.177 406.365 175.945 404.597 175.945 400.995ZM180.93 405.003C182.286 405.003 183.385 403.583 183.385 400.995C183.385 398.43 182.286 396.987 180.93 396.987C179.571 396.987 178.468 398.43 178.468 400.995C178.468 403.568 179.571 405.003 180.93 405.003Z" fill="white"/>
<path d="M166.281 396.023V405.978H168.013V399.291L173.354 405.978H174.809V396.023H173.163V401.511L168.725 396.023H166.281Z" fill="white"/>
<path d="M222.006 396.023L217.969 405.978H219.713L220.824 403.24H224.491L225.618 405.978H228.447L224.368 396.023H222.006ZM221.389 401.811L222.65 398.691L223.915 401.811H221.389Z" fill="white"/>
<path d="M205.767 402.546C205.72 403.458 205.649 404.36 204.64 404.699C204.19 404.846 203.364 404.843 202.896 404.657C202.673 404.566 202.535 404.49 202.361 404.316C202.026 403.984 201.891 403.278 201.879 402.82V396.023H199.285V402.546C199.309 403.446 199.456 404.352 200.041 405.078C201.044 406.325 202.888 406.501 204.379 406.316C205.305 406.201 206.117 405.896 206.769 405.213C207.219 404.743 207.499 404.002 207.578 403.364C207.628 402.993 207.634 402.931 207.634 402.546V396.023H205.767L205.767 402.546Z" fill="white"/>
<path d="M211.891 397.426C213.035 397.426 214.17 397.232 214.667 398.42C214.861 398.891 214.875 399.955 214.417 400.408C213.873 400.946 213.037 400.999 212.317 401.061L214.981 405.978H217.713L215.296 401.593C216.737 401.087 217.413 400.273 217.343 398.717C217.266 397.038 215.846 396.023 214.226 396.023H209.309V405.978H211.891V397.426Z" fill="white"/>
<path d="M195.075 405.978L191.232 396.023H189.211L185.477 405.978H187.291L189.802 399.249L192.355 405.978H195.075Z" fill="white"/>
<path d="M195.2 396.023H193.085L192.441 397.726L193.359 400.108L193.691 399.249L196.176 405.978H199.046L195.2 396.023Z" fill="white"/>
<path d="M190.49 402.516L189.199 405.988H190.849L191.328 404.68L190.49 402.516Z" fill="white"/>
</g>
</g>
<g clip-path="url(#clip2_6870_26086)">
<g clip-path="url(#clip3_6870_26086)">
<path d="M265.042 405.563V396.562H267.092V405.563H265.042ZM304.893 402.2C304.893 400.025 303.206 398.675 301.231 398.675C299.243 398.675 297.568 400.038 297.568 402.2C297.568 404.375 299.256 405.738 301.231 405.738C303.206 405.738 304.893 404.363 304.893 402.2ZM302.868 402.2C302.868 403.338 302.106 403.975 301.218 403.975C300.331 403.975 299.568 403.338 299.568 402.2C299.568 401.05 300.331 400.438 301.218 400.438C302.106 400.438 302.868 401.05 302.868 402.2ZM264.217 402.975C264.217 401.963 263.692 401.188 262.755 400.838C263.642 400.35 263.955 399.713 263.955 398.963C263.955 397.65 263.005 396.562 260.88 396.575H256.805V405.575H261.055C263.192 405.563 264.217 404.5 264.217 402.975ZM261.78 399.225C261.78 399.838 261.392 400.188 260.642 400.188H258.942V398.313H260.642C261.33 398.313 261.78 398.613 261.78 399.225ZM261.967 402.838C261.967 403.425 261.555 403.813 260.792 403.813H258.942V401.863H260.792C261.53 401.863 261.967 402.238 261.967 402.838ZM282.068 400.513C281.505 399.338 280.455 398.688 278.868 398.688C276.993 398.688 275.318 399.863 275.318 402.2C275.318 404.475 276.793 405.738 278.843 405.738C280.28 405.738 281.493 405.163 282.068 403.925L280.418 403.075C280.118 403.625 279.655 403.975 278.918 403.975C277.968 403.975 277.355 403.3 277.355 402.2C277.355 401.1 278.055 400.438 278.905 400.438C279.568 400.438 280.068 400.738 280.38 401.388L282.068 400.513ZM312.281 400.513C311.718 399.338 310.668 398.688 309.081 398.688C307.206 398.688 305.531 399.863 305.531 402.2C305.531 404.475 307.006 405.738 309.056 405.738C310.493 405.738 311.706 405.163 312.281 403.925L310.631 403.075C310.331 403.625 309.868 403.975 309.131 403.975C308.181 403.975 307.568 403.3 307.568 402.2C307.568 401.1 308.268 400.438 309.118 400.438C309.781 400.438 310.281 400.738 310.593 401.388L312.281 400.513ZM295.093 405.563L293.38 402.538H292.068V405.563H289.955V396.562H293.768C295.83 396.562 297.268 397.55 297.268 399.488C297.268 400.725 296.655 401.6 295.568 402.138L297.543 405.563H295.093ZM292.08 400.75H293.655C294.63 400.75 295.105 400.2 295.105 399.55C295.105 398.775 294.655 398.35 293.655 398.35H292.08V400.75ZM274.98 405.45V404.038C274.893 404.063 274.768 404.088 274.63 404.088C274.368 404.088 274.23 403.95 274.23 403.713V401.375C274.23 399.625 273.055 398.7 271.117 398.7C269.855 398.7 268.78 399.163 268.105 399.763L269.242 401.038C269.692 400.638 270.292 400.388 270.88 400.388C271.78 400.388 272.205 400.838 272.205 401.575V401.788C271.78 401.688 271.242 401.588 270.592 401.588C268.955 401.588 267.892 402.375 267.892 403.675C267.892 405.013 268.78 405.713 270.155 405.713C271.092 405.713 271.93 405.325 272.367 404.825C272.63 405.488 273.205 405.663 273.768 405.663C274.155 405.675 274.605 405.613 274.98 405.45ZM272.217 403.338C272.217 403.95 271.63 404.35 270.955 404.35C270.317 404.35 270.005 404.025 270.005 403.575C270.005 403.1 270.355 402.75 271.067 402.75C271.505 402.75 271.892 402.825 272.217 402.9V403.338ZM319.606 405.563L317.193 401.375L319.456 398.913H317.181L314.793 401.563V396.575H312.756V405.575H314.793V403.95L315.768 402.913L317.293 405.575H319.606V405.563ZM289.418 405.563L287.005 401.375L289.268 398.913H286.968L284.605 401.563V396.575H282.568V405.575H284.605V403.95L285.58 402.913L287.105 405.575H289.418V405.563Z" fill="white"/>
</g>
</g>
<g clip-path="url(#clip4_6870_26086)">
<g clip-path="url(#clip5_6870_26086)">
<path d="M359.148 404.033V397.993H362.186C363.365 397.993 364.082 397.635 364.254 397.539V399.389H360.85V400.836H364.042V402.248H360.899V404.033H359.148Z" fill="white"/>
<path d="M374.198 404.163C372.946 404.163 372.107 403.916 371.632 403.409C371.273 403.023 371.119 402.495 371.164 401.794H372.866C372.841 402.149 372.902 402.392 373.055 402.559C373.248 402.771 373.585 402.858 374.198 402.858C374.98 402.858 375.315 402.683 375.315 402.273C375.315 401.8 374.593 401.687 373.957 401.587C373.845 401.569 373.735 401.552 373.631 401.533C372.359 401.307 371.214 400.997 371.214 399.7C371.214 398.511 372.273 397.828 374.11 397.828C376.144 397.828 376.79 398.782 376.971 399.206L375.99 400.594C375.99 400.562 375.979 400.531 375.973 400.501C375.761 399.512 374.674 399.143 374.037 399.143C373.361 399.143 373.017 399.301 373.017 399.613C373.017 399.99 373.472 400.078 374.101 400.2L374.477 400.274C375.052 400.392 375.588 400.546 375.855 400.628C375.897 400.641 376.067 400.705 376.104 400.724C376.837 401.042 377.164 401.502 377.164 402.208C377.162 403.909 375.304 404.163 374.198 404.163Z" fill="white"/>
<path d="M388.781 404.018L386.081 400.34V400.422C386.101 400.759 386.111 401.097 386.111 401.482V404.018H384.461V397.977H386.195L388.894 401.609V401.53C388.875 401.144 388.864 400.777 388.864 400.439V397.969H390.514V404.009L388.781 404.018Z" fill="white"/>
<path d="M382.322 404.009L381.963 403.12H379.291L378.943 404.009H377.215L379.691 397.969H381.632L384.117 404.009H382.322ZM379.808 401.809H381.455L380.615 399.698L379.808 401.809Z" fill="white"/>
<path d="M395.878 404.009L395.52 403.12H392.847L392.508 404.009H390.762L393.248 397.969H395.188L397.673 404.009H395.878ZM393.351 401.809H395.008L394.169 399.698L393.351 401.809Z" fill="white"/>
<path d="M409.047 404.009L408.689 403.12H406.015L405.656 404.009H403.929L406.405 397.969H408.356L410.841 404.009H409.047ZM406.509 401.809H408.176L407.336 399.69L406.509 401.809ZM402.071 404.009L400.929 401.907H399.615V404.009H397.92V399.664C397.92 398.711 397.545 398.115 397.438 397.969H400.76C402.638 397.969 403.551 398.596 403.551 399.889C403.551 401.51 401.594 401.837 401.202 401.887H401.191V401.933H402.717L403.863 404.009H402.071ZM399.615 400.698H400.558C401.26 400.698 401.641 400.53 401.738 400.175C401.754 400.11 401.763 400.044 401.762 399.977C401.764 399.865 401.735 399.755 401.678 399.659C401.621 399.563 401.538 399.485 401.439 399.433C401.186 399.31 400.907 399.252 400.626 399.266H399.615V400.698Z" fill="white"/>
<path d="M369.337 404.009L368.969 403.12H366.306L365.957 404.009H364.211L366.696 397.969H368.647L371.122 404.009H369.337ZM366.809 401.809H368.456L367.616 399.698L366.809 401.809Z" fill="white"/>
<path d="M354.909 405.931C352.146 403.947 351.811 399.766 354.631 397.695C353.655 397.74 353.027 398.043 352.866 398.136C351.99 399.494 351.788 401.3 352.318 402.851C352.604 403.692 353.074 404.459 353.694 405.096C354.314 405.734 355.068 406.225 355.901 406.534C355.55 406.368 355.218 406.166 354.909 405.931Z" fill="white"/>
<path d="M353.764 403.264C353.574 402.583 353.531 401.644 353.804 400.844H353.14C352.988 402.152 353.412 403.639 354.26 404.503C354.04 404.114 353.873 403.697 353.764 403.264Z" fill="white"/>
<path d="M352.711 393.901C348.754 396.781 348.269 402.753 351.697 406.214C354.452 409.174 359.38 409.536 362.527 407.019C357.865 410.338 351.042 407.589 350.334 401.816C349.757 397.637 353.11 393.676 357.39 393.812L358.472 392.297C356.419 392.097 354.365 392.669 352.711 393.901Z" fill="white"/>
<path d="M357.183 394.109C353.829 394.138 350.957 396.925 350.772 400.256C350.34 404.676 354.702 408.493 359.024 407.643C354.668 408.249 350.479 403.934 351.789 399.61C352.335 397.597 354.049 395.958 356.111 395.623L357.183 394.109Z" fill="white"/>
<path d="M364.842 405.61C359.909 412.522 349.023 409.166 348.961 400.63C348.961 397.949 350.268 395.326 352.435 393.742V392.344C347.56 395.503 346.622 402.517 350.623 406.756C354.639 411.081 361.481 410.525 364.916 405.786L364.842 405.61Z" fill="white"/>
</g>
</g>
<path d="M173.742 436.973C173.742 436.527 173.687 436.366 173.088 436.295L172.543 436.223V436.062C173.161 436.062 173.687 436.08 174.323 436.08C174.941 436.08 175.467 436.062 176.085 436.062V436.223L175.54 436.295C174.959 436.384 174.886 436.545 174.886 436.973V442.1C174.886 442.546 174.941 442.707 175.54 442.779L176.085 442.85V443.011C175.467 443.011 174.941 442.993 174.323 442.993C173.706 442.993 173.179 443.011 172.543 443.011V442.85L173.088 442.779C173.669 442.689 173.742 442.529 173.742 442.1V439.563H170.436V442.1C170.436 442.546 170.491 442.707 171.09 442.779L171.617 442.85V443.011C170.999 443.011 170.473 442.993 169.855 442.993C169.238 442.993 168.711 443.011 168.094 443.011V442.85L168.639 442.779C169.22 442.689 169.292 442.529 169.292 442.1V436.973C169.292 436.527 169.238 436.366 168.639 436.295L168.094 436.223V436.062C168.711 436.062 169.238 436.08 169.855 436.08C170.473 436.08 170.999 436.062 171.617 436.062V436.223L171.09 436.295C170.509 436.384 170.436 436.545 170.436 436.973V439.349H173.742V436.973Z" fill="white"/>
<path d="M182.053 443.176C180.11 443.176 178.512 441.747 178.512 439.55C178.53 437.335 180.11 435.906 182.053 435.906C183.996 435.906 185.577 437.335 185.577 439.55C185.577 441.747 183.996 443.176 182.053 443.176ZM182.053 443.033C183.633 443.033 184.269 441.461 184.269 439.55C184.269 437.639 183.651 436.067 182.053 436.067C180.419 436.067 179.819 437.639 179.819 439.55C179.819 441.461 180.437 443.033 182.053 443.033Z" fill="white"/>
<path d="M188.862 437.312C188.608 436.562 188.408 436.329 187.936 436.276L187.555 436.222V436.061C188.154 436.079 188.753 436.079 189.353 436.079C189.952 436.079 190.533 436.079 191.151 436.061V436.222L190.551 436.294C189.97 436.365 189.897 436.704 190.025 437.097L191.423 441.634L193.058 436.008H193.602L195.491 441.634L196.653 437.776C196.998 436.651 196.762 436.419 196.09 436.294L195.636 436.204V436.061C196.109 436.079 196.562 436.079 197.035 436.079C197.488 436.079 197.961 436.079 198.415 436.061V436.222L198.051 436.311C197.434 436.436 197.198 436.776 196.871 437.865L195.672 441.795L195.328 443.081H194.801L192.876 437.472L191.623 441.759L191.278 443.063H190.751L188.862 437.312Z" fill="white"/>
<path d="M205.15 443.01C204.569 443.01 204.06 443.028 203.479 443.028V442.867L204.078 442.795C204.641 442.724 204.623 442.438 204.441 441.992L203.969 440.777H201.227L201.009 441.331C200.61 442.349 200.61 442.653 201.318 442.778L201.845 442.867V443.028C201.39 443.028 201.045 443.01 200.591 443.01C200.137 443.01 199.72 443.028 199.266 443.028V442.867L199.61 442.778C200.155 442.635 200.373 442.349 200.791 441.241L202.389 437.187L202.807 436.008H203.352L205.622 441.759C205.931 442.545 206.058 442.76 206.494 442.813L206.857 442.867V443.028C206.221 443.028 205.731 443.01 205.15 443.01ZM201.3 440.545H203.878L202.589 437.205L201.3 440.545Z" fill="white"/>
<path d="M214.68 443.029C214.026 443.029 213.954 442.886 213.718 442.439L212.301 439.724C212.21 439.742 212.137 439.742 212.065 439.742C211.774 439.742 211.502 439.724 211.284 439.724V442.118C211.284 442.564 211.339 442.725 211.938 442.796L212.483 442.868V443.029C211.865 443.029 211.339 443.011 210.721 443.011C210.104 443.011 209.577 443.029 208.941 443.029V442.868L209.486 442.796C210.067 442.707 210.14 442.546 210.14 442.118V436.973C210.14 436.527 210.085 436.366 209.486 436.295L208.941 436.223V436.062H212.011C213.863 436.062 215.044 436.563 215.044 437.884C215.044 438.885 214.153 439.385 213.318 439.546C213.445 439.706 213.609 439.921 213.79 440.242L214.735 441.921C215.062 442.511 215.188 442.689 215.661 442.796L216.042 442.886V443.047H214.68V443.029ZM211.284 439.528C211.574 439.546 211.811 439.546 212.083 439.546C213.227 439.546 213.809 439.081 213.809 437.902C213.809 436.616 213.209 436.223 212.011 436.223H211.284V439.528Z" fill="white"/>
<path d="M218.549 442.85L219.094 442.779C219.675 442.689 219.748 442.529 219.748 442.1V436.973C219.748 436.527 219.694 436.366 219.094 436.295L218.549 436.223V436.062H221.8C223.78 436.062 225.596 437.045 225.596 439.546C225.596 442.046 223.78 443.029 221.782 443.029H218.531V442.85H218.549ZM221.782 442.832C223.38 442.832 224.27 441.903 224.27 439.546C224.27 437.152 223.344 436.241 221.782 436.241H220.874V442.225C220.874 442.654 221.056 442.832 221.528 442.832H221.782Z" fill="white"/>
<path d="M170.367 432.764L170.912 432.693C171.493 432.603 171.566 432.443 171.566 432.014V426.888C171.566 426.441 171.511 426.28 170.912 426.209L170.367 426.137V425.977H173.582C174.926 425.977 176.269 426.352 176.269 427.584C176.269 428.567 175.38 429.085 174.163 429.245V429.281C175.616 429.37 176.596 429.853 176.596 430.978C176.596 432.264 175.452 432.925 173.691 432.925H170.367V432.764ZM173.455 429.192C174.599 429.192 175.035 428.656 175.035 427.584C175.035 426.423 174.526 426.155 173.473 426.155H172.71V429.192H173.455ZM172.71 432.139C172.71 432.568 172.892 432.746 173.364 432.746H173.654C174.744 432.746 175.271 432.246 175.271 430.978C175.271 429.799 174.599 429.37 173.436 429.37H172.71V432.139Z" fill="white"/>
<path d="M185.657 432.943C185.003 432.943 184.93 432.8 184.694 432.353L183.278 429.638C183.187 429.656 183.114 429.656 183.042 429.656C182.751 429.656 182.479 429.638 182.261 429.638V432.032C182.261 432.478 182.315 432.639 182.915 432.711L183.459 432.782V432.943C182.842 432.943 182.315 432.925 181.698 432.925C181.08 432.925 180.554 432.943 179.918 432.943V432.782L180.463 432.711C181.044 432.621 181.117 432.46 181.117 432.032V426.888C181.117 426.441 181.062 426.28 180.463 426.209L179.918 426.137V425.977H182.987C184.84 425.977 186.02 426.477 186.02 427.798C186.02 428.799 185.13 429.299 184.295 429.46C184.422 429.62 184.585 429.835 184.767 430.156L185.711 431.835C186.038 432.425 186.165 432.603 186.638 432.711L187.019 432.8V432.961H185.657V432.943ZM182.261 429.442C182.551 429.46 182.787 429.46 183.06 429.46C184.204 429.46 184.785 428.995 184.785 427.816C184.785 426.53 184.186 426.137 182.987 426.137H182.261V429.442Z" fill="white"/>
<path d="M192.802 429.245C193.474 429.245 193.692 428.799 194.037 427.709H194.219C194.201 428.245 194.201 428.799 194.201 429.335C194.201 429.87 194.201 430.424 194.219 430.96H194.037C193.656 429.799 193.474 429.406 192.802 429.406H192.039V432.121C192.039 432.55 192.221 432.728 192.693 432.728H193.365C194.582 432.728 194.873 432.282 195.563 430.478H195.781L195.672 432.907H189.715V432.746L190.26 432.675C190.841 432.586 190.913 432.425 190.913 431.996V426.888C190.913 426.441 190.859 426.28 190.26 426.209L189.715 426.137V425.977H195.363L195.472 428.209H195.254C194.636 426.637 194.328 426.173 193.311 426.173H192.058V429.263H192.802V429.245Z" fill="white"/>
<path d="M199.719 427.245C199.428 426.459 199.21 426.244 198.756 426.191L198.375 426.137V425.977C198.974 425.994 199.574 425.994 200.173 425.994C200.772 425.994 201.353 425.994 201.971 425.977V426.137L201.372 426.209C200.809 426.28 200.754 426.566 200.918 427.013L202.661 431.764L204.187 427.673C204.568 426.673 204.477 426.334 203.769 426.209L203.242 426.137V425.977C203.714 425.994 204.168 425.994 204.622 425.994C205.095 425.994 205.549 425.994 206.021 425.977V426.137L205.621 426.244C205.022 426.37 204.804 426.691 204.368 427.781L202.824 431.8L202.407 432.978H201.916L199.719 427.245Z" fill="white"/>
<path d="M212.369 432.932C211.787 432.932 211.279 432.949 210.698 432.949V432.789L211.297 432.717C211.86 432.646 211.842 432.36 211.66 431.913L211.188 430.699H208.446L208.228 431.253C207.828 432.271 207.828 432.574 208.537 432.699L209.063 432.789V432.949C208.609 432.949 208.264 432.932 207.81 432.932C207.356 432.932 206.938 432.949 206.484 432.949V432.789L206.829 432.699C207.374 432.556 207.592 432.271 208.01 431.163L209.608 427.109L210.026 425.93H210.571L212.841 431.681C213.149 432.467 213.277 432.682 213.712 432.735L214.076 432.789V432.949C213.458 432.949 212.968 432.932 212.369 432.932ZM208.518 430.467H211.097L209.808 427.126L208.518 430.467Z" fill="white"/>
<path d="M217.638 426.816V431.46C217.638 432.353 217.819 432.603 218.382 432.693L218.818 432.764V432.925C218.346 432.925 217.983 432.907 217.511 432.907C217.038 432.907 216.657 432.925 216.203 432.925V432.764L216.639 432.693C217.22 432.603 217.402 432.335 217.402 431.46V426.888C217.402 426.441 217.347 426.28 216.748 426.209L216.203 426.137V425.977H218.473L222.269 431.478V427.441C222.269 426.548 222.087 426.298 221.506 426.209L221.07 426.137V425.977C221.542 425.977 221.924 425.994 222.378 425.994C222.85 425.994 223.213 425.977 223.685 425.977V426.137L223.249 426.209C222.686 426.298 222.505 426.548 222.505 427.441V432.961H221.851L217.638 426.816Z" fill="white"/>
<g clip-path="url(#clip6_6870_26086)">
<path d="M292.263 430.213C292.179 429.985 292.04 429.779 291.849 429.588C291.511 429.249 291.047 429.078 290.456 429.078H285.524C285.524 429.711 286.033 430.226 286.659 430.226H287.314H290.094C290.109 430.226 290.126 430.226 290.141 430.226C290.372 430.233 290.565 430.291 290.714 430.427C290.873 430.56 290.955 430.75 290.955 430.989V432.297C290.955 432.531 290.873 432.717 290.709 432.857C290.553 432.995 290.349 433.066 290.094 433.071H286.924V432.365V432.257V431.109H285.52V432.365V434.236H290.451C291.032 434.236 291.496 434.065 291.844 433.716C292.186 433.374 292.357 432.978 292.357 432.533V430.783C292.357 430.58 292.325 430.391 292.258 430.213H292.263Z" fill="white"/>
<path d="M298.609 433.071C298.594 433.071 298.581 433.071 298.566 433.073H295.881C295.633 433.068 295.429 433 295.268 432.86C295.109 432.719 295.027 432.533 295.027 432.3V431.561V431.037C295.027 431.037 295.039 430.233 295.906 430.226H298.715C299.433 430.226 300.073 429.766 300.309 429.078H295.682C293.962 429.078 293.617 430.241 293.617 431.029V432.516C293.617 432.968 293.786 433.364 294.131 433.713C294.486 434.06 294.945 434.231 295.518 434.231H298.896C299.356 434.223 299.748 434.075 300.068 433.786C300.301 433.578 300.45 433.337 300.512 433.063H298.604L298.609 433.071Z" fill="white"/>
<path d="M297.41 431.18H299.15H299.525C300.096 431.18 300.557 431.647 300.557 432.222H298.832C298.185 432.222 297.611 431.802 297.41 431.18Z" fill="white"/>
<path d="M302.957 432.175H305.382C306.037 432.175 306.618 431.753 306.826 431.125H301.555V434.246H306.901L307.283 433.099H302.955V432.175H302.957Z" fill="white"/>
<path d="M307.03 430.226L307.412 429.078H301.555C301.555 429.711 302.061 430.226 302.686 430.226H307.027H307.03Z" fill="white"/>
<path d="M280.23 432.175H282.655C283.311 432.175 283.891 431.753 284.1 431.125H278.828V434.246H284.174L284.557 433.099H280.228V432.175H280.23Z" fill="white"/>
<path d="M284.303 430.226L284.686 429.078H278.828C278.828 429.711 279.334 430.226 279.96 430.226H284.301H284.303Z" fill="white"/>
<path d="M301.875 436.117V441.272H300.473V436.117H301.875Z" fill="white"/>
<path d="M321.482 440.107L321.087 441.272H315.902V436.117H317.31V440.11H321.485L321.482 440.107Z" fill="white"/>
<path d="M280.488 439.899C280.329 439.758 280.247 439.572 280.247 439.339V438.857V438.601V438.076C280.247 438.076 280.26 437.275 281.121 437.267H283.399C284.117 437.267 284.754 436.805 284.988 436.117H281.935C281.9 436.117 281.87 436.122 281.841 436.125V436.117H280.905C279.185 436.117 278.84 437.28 278.84 438.068V438.149V438.771V439.017V439.555C278.84 440.007 279.011 440.403 279.356 440.75C279.711 441.099 280.17 441.27 280.746 441.27H283.017C283.739 441.27 284.382 440.8 284.608 440.105H281.106C280.858 440.1 280.654 440.029 280.49 439.891L280.488 439.899Z" fill="white"/>
<path d="M290.87 441.272H292.496L289.421 436.117H287.864L284.789 441.272H286.395L286.938 440.343H287.743C288.368 440.343 288.874 439.828 288.874 439.196H287.609L288.624 437.456L290.872 441.272H290.87Z" fill="white"/>
<path d="M313.667 441.272H315.293L312.217 436.117H310.661L307.586 441.272H309.192L309.735 440.343H310.539C311.165 440.343 311.672 439.828 311.672 439.196H310.406L311.421 437.456L313.669 441.272H313.667Z" fill="white"/>
<path d="M309.012 436.117H303.964C303.336 436.117 302.827 436.629 302.824 437.265H305.115V441.272H306.52V437.265H307.875C308.503 437.265 309.012 436.752 309.015 436.117H309.012Z" fill="white"/>
<path d="M297.543 436.117H293.1C293.1 436.75 293.606 437.265 294.232 437.265H294.512H297.431C297.605 437.265 297.955 437.277 297.955 437.712C297.955 438.146 297.622 438.146 297.409 438.146H294.515H293.098V441.275H294.502V439.291H297.543C298.218 439.291 299.38 439.276 299.38 437.669C299.38 436.326 298.26 436.12 297.543 436.12V436.117Z" fill="white"/>
<path fill-rule="evenodd" clip-rule="evenodd" d="M276.246 441.279H271.056C270.816 441.279 270.592 441.151 270.471 440.94L269.523 439.305L265.591 432.53L261.66 439.302H264.797C266.199 439.302 267.497 440.053 268.207 441.276H260.515H259.446C258.922 441.276 258.594 440.699 258.86 440.242L265.005 429.655C265.268 429.203 265.914 429.203 266.177 429.655L266.718 430.589L271.776 439.305H274.03L270.098 432.533C269.403 431.333 269.403 429.846 270.098 428.648L276.83 440.247C277.095 440.704 276.77 441.281 276.244 441.281L276.246 441.279Z" fill="white"/>
</g>
<g clip-path="url(#clip7_6870_26086)">
<path d="M350.211 431.728H350.655V432.734C350.655 432.879 350.641 433.024 350.612 433.167H350.633C350.897 432.353 351.489 431.688 352.324 431.688C352.427 431.689 352.529 431.699 352.63 431.719V432.163C352.55 432.15 352.469 432.143 352.387 432.142C351.563 432.142 351.044 432.841 350.814 433.621C350.706 433.981 350.652 434.355 350.655 434.731V437.014H350.211V431.728Z" fill="white"/>
<path d="M358.653 431.602C359.013 431.599 359.37 431.668 359.703 431.805C360.037 431.941 360.339 432.143 360.594 432.398C360.849 432.652 361.05 432.955 361.187 433.288C361.324 433.622 361.393 433.979 361.39 434.339C361.399 434.704 361.335 435.068 361.202 435.408C361.068 435.748 360.868 436.058 360.613 436.32C360.358 436.581 360.053 436.789 359.716 436.931C359.38 437.073 359.018 437.146 358.653 437.146C358.287 437.146 357.925 437.073 357.589 436.931C357.252 436.789 356.947 436.581 356.692 436.32C356.437 436.058 356.237 435.748 356.103 435.408C355.97 435.068 355.906 434.704 355.915 434.339C355.912 433.979 355.981 433.621 356.118 433.288C356.255 432.955 356.456 432.652 356.711 432.397C356.966 432.143 357.269 431.941 357.602 431.805C357.936 431.668 358.293 431.599 358.653 431.602ZM358.653 436.706C358.959 436.703 359.26 436.639 359.541 436.518C359.822 436.396 360.075 436.22 360.287 436C360.498 435.779 360.664 435.519 360.774 435.234C360.883 434.949 360.935 434.644 360.926 434.339C360.926 433.736 360.686 433.158 360.26 432.732C359.834 432.305 359.256 432.066 358.653 432.066C358.05 432.066 357.472 432.305 357.046 432.732C356.619 433.158 356.38 433.736 356.38 434.339C356.371 434.644 356.422 434.949 356.532 435.234C356.642 435.519 356.807 435.779 357.019 436C357.231 436.22 357.484 436.396 357.765 436.518C358.045 436.639 358.347 436.703 358.653 436.706Z" fill="white"/>
<path d="M367.862 431.603C368.212 431.591 368.561 431.652 368.886 431.781C369.212 431.91 369.507 432.105 369.754 432.353L369.479 432.712C369.051 432.282 368.469 432.039 367.862 432.036C367.255 432.055 366.679 432.309 366.256 432.745C365.833 433.181 365.597 433.764 365.597 434.372C365.597 434.979 365.833 435.563 366.256 435.999C366.679 436.435 367.255 436.689 367.862 436.707C368.193 436.713 368.522 436.649 368.826 436.517C369.131 436.386 369.403 436.192 369.626 435.947L369.86 436.317C369.602 436.584 369.291 436.796 368.947 436.938C368.603 437.08 368.234 437.149 367.862 437.141C367.498 437.151 367.137 437.086 366.799 436.951C366.462 436.815 366.156 436.612 365.9 436.353C365.645 436.095 365.445 435.786 365.313 435.448C365.181 435.109 365.121 434.746 365.135 434.383C365.122 434.019 365.184 433.656 365.315 433.317C365.447 432.977 365.647 432.668 365.902 432.408C366.157 432.148 366.462 431.942 366.799 431.804C367.136 431.666 367.498 431.597 367.862 431.603Z" fill="white"/>
<path d="M373.977 429.617H374.421V433.813H375.361L377.073 431.731H377.655L375.742 434.004V434.026L377.834 437.016H377.274L375.361 434.226H374.421V437.016H373.977V429.617Z" fill="white"/>
<path d="M384.537 433.789H384.886V433.61C384.886 432.437 384.283 432.036 383.438 432.036C382.892 432.035 382.361 432.213 381.927 432.543L381.673 432.184C382.182 431.788 382.814 431.582 383.459 431.603C384.675 431.603 385.33 432.279 385.33 433.6V437.014H384.886V436.317C384.885 436.157 384.899 435.998 384.929 435.841H384.909C384.764 436.217 384.51 436.54 384.181 436.772C383.852 437.003 383.461 437.132 383.059 437.141C382.202 437.141 381.262 436.666 381.262 435.609C381.26 433.81 383.596 433.789 384.537 433.789ZM383.078 436.728C384.23 436.728 384.886 435.533 384.886 434.487V434.202H384.549C383.65 434.202 381.727 434.202 381.727 435.575C381.735 435.742 381.777 435.904 381.85 436.054C381.924 436.203 382.027 436.336 382.153 436.444C382.28 436.552 382.427 436.632 382.586 436.681C382.745 436.73 382.913 436.746 383.078 436.728Z" fill="white"/>
<path d="M389.043 431.75H389.519L390.956 435.893C391.043 436.146 391.136 436.464 391.136 436.464H391.157C391.157 436.464 391.252 436.146 391.337 435.893L392.785 431.771H393.282L394.729 435.893C394.814 436.146 394.909 436.464 394.909 436.464H394.93C394.93 436.464 395.015 436.158 395.11 435.893L396.547 431.75H397.023L395.163 437.034H394.687L393.218 432.934C393.123 432.681 393.038 432.363 393.038 432.363H393.017C393.017 432.363 392.933 432.681 392.837 432.934L391.379 437.034H390.903L389.043 431.75Z" fill="white"/>
<path d="M403.657 433.789H404.006V433.61C404.006 432.437 403.404 432.036 402.558 432.036C402.012 432.035 401.481 432.213 401.046 432.543L400.793 432.184C401.302 431.788 401.934 431.582 402.579 431.603C403.795 431.603 404.45 432.279 404.45 433.6V437.014H404.006V436.317C404.005 436.157 404.02 435.998 404.05 435.841H404.03C403.885 436.217 403.632 436.541 403.302 436.772C402.973 437.003 402.582 437.132 402.18 437.141C401.324 437.141 400.383 436.666 400.383 435.609C400.38 433.81 402.716 433.789 403.657 433.789ZM402.198 436.728C403.35 436.728 404.006 435.533 404.006 434.487V434.202H403.667C402.769 434.202 400.845 434.202 400.845 435.575C400.853 435.742 400.895 435.905 400.968 436.054C401.042 436.203 401.145 436.336 401.272 436.444C401.399 436.552 401.546 436.633 401.705 436.682C401.865 436.73 402.033 436.746 402.198 436.728Z" fill="white"/>
<path d="M408.235 438.578C408.422 438.73 408.651 438.818 408.891 438.832C409.398 438.832 409.715 438.377 409.927 437.88L410.308 437.003L408.12 431.75H408.596L410.339 435.967C410.444 436.221 410.53 436.464 410.53 436.464H410.55C410.55 436.464 410.625 436.221 410.731 435.967L412.474 431.75H412.95L410.234 438.271C410.138 438.553 409.958 438.799 409.717 438.974C409.477 439.15 409.189 439.248 408.891 439.254C408.581 439.251 408.281 439.147 408.035 438.959L408.235 438.578Z" fill="white"/>
</g>
<defs>
<filter id="filter0_din_6870_26086" x="104.75" y="333.699" width="368.3" height="175.733" filterUnits="userSpaceOnUse" color-interpolation-filters="sRGB">
<feFlood flood-opacity="0" result="BackgroundImageFix"/>
<feColorMatrix in="SourceAlpha" type="matrix" values="0 0 0 0 0 0 0 0 0 0 0 0 0 0 0 0 0 0 127 0" result="hardAlpha"/>
<feOffset dy="3.83571"/>
<feGaussianBlur stdDeviation="19.0251"/>
<feComposite in2="hardAlpha" operator="out"/>
<feColorMatrix type="matrix" values="0 0 0 0 0 0 0 0 0 0 0 0 0 0 0 0 0 0 0.4 0"/>
<feBlend mode="normal" in2="BackgroundImageFix" result="effect1_dropShadow_6870_26086"/>
<feBlend mode="normal" in="SourceGraphic" in2="BackgroundImageFix" result="shape"/>
<feColorMatrix in="SourceAlpha" type="matrix" values="0 0 0 0 0 0 0 0 0 0 0 0 0 0 0 0 0 0 127 0" result="hardAlpha"/>
<feOffset dy="-2.87679"/>
<feGaussianBlur stdDeviation="0.383571"/>
<feComposite in2="hardAlpha" operator="arithmetic" k2="-1" k3="1"/>
<feColorMatrix type="matrix" values="0 0 0 0 0 0 0 0 0 0 0 0 0 0 0 0 0 0 0.25 0"/>
<feBlend mode="normal" in2="shape" result="effect2_innerShadow_6870_26086"/>
<feTurbulence type="fractalNoise" baseFrequency="10.428308486938477 10.428308486938477" stitchTiles="stitch" numOctaves="3" result="noise" seed="5938" />
<feColorMatrix in="noise" type="luminanceToAlpha" result="alphaNoise" />
<feComponentTransfer in="alphaNoise" result="coloredNoise1">
<feFuncA type="discrete" tableValues="1 1 1 1 1 1 1 1 1 1 1 1 1 1 1 1 1 1 1 1 1 1 1 1 1 1 1 1 1 1 1 1 1 1 1 1 1 1 1 1 1 1 1 1 1 1 1 1 1 1 1 0 0 0 0 0 0 0 0 0 0 0 0 0 0 0 0 0 0 0 0 0 0 0 0 0 0 0 0 0 0 0 0 0 0 0 0 0 0 0 0 0 0 0 0 0 0 0 0 0 "/>
</feComponentTransfer>
<feComposite operator="in" in2="effect2_innerShadow_6870_26086" in="coloredNoise1" result="noise1Clipped" />
<feFlood flood-color="rgba(0, 0, 0, 0.35)" result="color1Flood" />
<feComposite operator="in" in2="noise1Clipped" in="color1Flood" result="color1" />
<feMerge result="effect3_noise_6870_26086">
<feMergeNode in="effect2_innerShadow_6870_26086" />
<feMergeNode in="color1" />
</feMerge>
<feBlend mode="normal" in="effect3_noise_6870_26086" in2="effect1_dropShadow_6870_26086" result="effect3_noise_6870_26086"/>
</filter>
<filter id="filter1_din_6870_26086" x="120.038" y="13.1902" width="337.545" height="337.541" filterUnits="userSpaceOnUse" color-interpolation-filters="sRGB">
<feFlood flood-opacity="0" result="BackgroundImageFix"/>
<feColorMatrix in="SourceAlpha" type="matrix" values="0 0 0 0 0 0 0 0 0 0 0 0 0 0 0 0 0 0 127 0" result="hardAlpha"/>
<feOffset dy="3.83571"/>
<feGaussianBlur stdDeviation="24.9321"/>
<feComposite in2="hardAlpha" operator="out"/>
<feColorMatrix type="matrix" values="0 0 0 0 0 0 0 0 0 0 0 0 0 0 0 0 0 0 0.55 0"/>
<feBlend mode="normal" in2="BackgroundImageFix" result="effect1_dropShadow_6870_26086"/>
<feBlend mode="normal" in="SourceGraphic" in2="BackgroundImageFix" result="shape"/>
<feColorMatrix in="SourceAlpha" type="matrix" values="0 0 0 0 0 0 0 0 0 0 0 0 0 0 0 0 0 0 127 0" result="hardAlpha"/>
<feOffset dy="-2.87679"/>
<feGaussianBlur stdDeviation="0.383571"/>
<feComposite in2="hardAlpha" operator="arithmetic" k2="-1" k3="1"/>
<feColorMatrix type="matrix" values="0 0 0 0 0 0 0 0 0 0 0 0 0 0 0 0 0 0 0.25 0"/>
<feBlend mode="normal" in2="shape" result="effect2_innerShadow_6870_26086"/>
<feTurbulence type="fractalNoise" baseFrequency="10.428308486938477 10.428308486938477" stitchTiles="stitch" numOctaves="3" result="noise" seed="5938" />
<feColorMatrix in="noise" type="luminanceToAlpha" result="alphaNoise" />
<feComponentTransfer in="alphaNoise" result="coloredNoise1">
<feFuncA type="discrete" tableValues="1 1 1 1 1 1 1 1 1 1 1 1 1 1 1 1 1 1 1 1 1 1 1 1 1 1 1 1 1 1 1 1 1 1 1 1 1 1 1 1 1 1 1 1 1 1 1 1 1 1 1 0 0 0 0 0 0 0 0 0 0 0 0 0 0 0 0 0 0 0 0 0 0 0 0 0 0 0 0 0 0 0 0 0 0 0 0 0 0 0 0 0 0 0 0 0 0 0 0 0 "/>
</feComponentTransfer>
<feComposite operator="in" in2="effect2_innerShadow_6870_26086" in="coloredNoise1" result="noise1Clipped" />
<feFlood flood-color="rgba(0, 0, 0, 0.35)" result="color1Flood" />
<feComposite operator="in" in2="noise1Clipped" in="color1Flood" result="color1" />
<feMerge result="effect3_noise_6870_26086">
<feMergeNode in="effect2_innerShadow_6870_26086" />
<feMergeNode in="color1" />
</feMerge>
<feBlend mode="normal" in="effect3_noise_6870_26086" in2="effect1_dropShadow_6870_26086" result="effect3_noise_6870_26086"/>
</filter>
<filter id="filter2_din_6870_26086" x="190.999" y="84.1511" width="195.623" height="195.619" filterUnits="userSpaceOnUse" color-interpolation-filters="sRGB">
<feFlood flood-opacity="0" result="BackgroundImageFix"/>
<feColorMatrix in="SourceAlpha" type="matrix" values="0 0 0 0 0 0 0 0 0 0 0 0 0 0 0 0 0 0 127 0" result="hardAlpha"/>
<feOffset dy="3.83571"/>
<feGaussianBlur stdDeviation="24.9321"/>
<feComposite in2="hardAlpha" operator="out"/>
<feColorMatrix type="matrix" values="0 0 0 0 0 0 0 0 0 0 0 0 0 0 0 0 0 0 0.25 0"/>
<feBlend mode="normal" in2="BackgroundImageFix" result="effect1_dropShadow_6870_26086"/>
<feBlend mode="normal" in="SourceGraphic" in2="BackgroundImageFix" result="shape"/>
<feColorMatrix in="SourceAlpha" type="matrix" values="0 0 0 0 0 0 0 0 0 0 0 0 0 0 0 0 0 0 127 0" result="hardAlpha"/>
<feOffset dy="-2.87679"/>
<feGaussianBlur stdDeviation="0.383571"/>
<feComposite in2="hardAlpha" operator="arithmetic" k2="-1" k3="1"/>
<feColorMatrix type="matrix" values="0 0 0 0 0 0 0 0 0 0 0 0 0 0 0 0 0 0 0.25 0"/>
<feBlend mode="normal" in2="shape" result="effect2_innerShadow_6870_26086"/>
<feTurbulence type="fractalNoise" baseFrequency="10.428308486938477 10.428308486938477" stitchTiles="stitch" numOctaves="3" result="noise" seed="5938" />
<feColorMatrix in="noise" type="luminanceToAlpha" result="alphaNoise" />
<feComponentTransfer in="alphaNoise" result="coloredNoise1">
<feFuncA type="discrete" tableValues="1 1 1 1 1 1 1 1 1 1 1 1 1 1 1 1 1 1 1 1 1 1 1 1 1 1 1 1 1 1 1 1 1 1 1 1 1 1 1 1 1 1 1 1 1 1 1 1 1 1 1 0 0 0 0 0 0 0 0 0 0 0 0 0 0 0 0 0 0 0 0 0 0 0 0 0 0 0 0 0 0 0 0 0 0 0 0 0 0 0 0 0 0 0 0 0 0 0 0 0 "/>
</feComponentTransfer>
<feComposite operator="in" in2="effect2_innerShadow_6870_26086" in="coloredNoise1" result="noise1Clipped" />
<feFlood flood-color="rgba(0, 0, 0, 0.35)" result="color1Flood" />
<feComposite operator="in" in2="noise1Clipped" in="color1Flood" result="color1" />
<feMerge result="effect3_noise_6870_26086">
<feMergeNode in="effect2_innerShadow_6870_26086" />
<feMergeNode in="color1" />
</feMerge>
<feBlend mode="normal" in="effect3_noise_6870_26086" in2="effect1_dropShadow_6870_26086" result="effect3_noise_6870_26086"/>
</filter>
<filter id="filter3_di_6870_26086" x="252.855" y="154.64" width="72.8368" height="49.2275" filterUnits="userSpaceOnUse" color-interpolation-filters="sRGB">
<feFlood flood-opacity="0" result="BackgroundImageFix"/>
<feColorMatrix in="SourceAlpha" type="matrix" values="0 0 0 0 0 0 0 0 0 0 0 0 0 0 0 0 0 0 127 0" result="hardAlpha"/>
<feOffset/>
<feGaussianBlur stdDeviation="4.55491"/>
<feComposite in2="hardAlpha" operator="out"/>
<feColorMatrix type="matrix" values="0 0 0 0 0.768627 0 0 0 0 0.545098 0 0 0 0 0.937255 0 0 0 1 0"/>
<feBlend mode="normal" in2="BackgroundImageFix" result="effect1_dropShadow_6870_26086"/>
<feBlend mode="normal" in="SourceGraphic" in2="effect1_dropShadow_6870_26086" result="shape"/>
<feColorMatrix in="SourceAlpha" type="matrix" values="0 0 0 0 0 0 0 0 0 0 0 0 0 0 0 0 0 0 127 0" result="hardAlpha"/>
<feOffset dy="2.42584"/>
<feGaussianBlur stdDeviation="0.606459"/>
<feComposite in2="hardAlpha" operator="arithmetic" k2="-1" k3="1"/>
<feColorMatrix type="matrix" values="0 0 0 0 0 0 0 0 0 0 0 0 0 0 0 0 0 0 0.25 0"/>
<feBlend mode="normal" in2="shape" result="effect2_innerShadow_6870_26086"/>
</filter>
<linearGradient id="paint0_linear_6870_26086" x1="251.918" y1="263.461" x2="251.918" y2="414.126" gradientUnits="userSpaceOnUse">
<stop offset="0.0927945" stop-color="#E5E5E5" stop-opacity="0"/>
<stop offset="1" stop-color="#7F7F7F"/>
</linearGradient>
<linearGradient id="paint1_linear_6870_26086" x1="262.258" y1="263.461" x2="262.258" y2="414.126" gradientUnits="userSpaceOnUse">
<stop offset="0.0927945" stop-color="#E5E5E5" stop-opacity="0"/>
<stop offset="1" stop-color="#7F7F7F"/>
</linearGradient>
<linearGradient id="paint2_linear_6870_26086" x1="272.598" y1="263.461" x2="272.598" y2="414.126" gradientUnits="userSpaceOnUse">
<stop offset="0.0927945" stop-color="#E5E5E5" stop-opacity="0"/>
<stop offset="1" stop-color="#7F7F7F"/>
</linearGradient>
<linearGradient id="paint3_linear_6870_26086" x1="282.938" y1="263.461" x2="282.938" y2="414.126" gradientUnits="userSpaceOnUse">
<stop offset="0.0927945" stop-color="#E5E5E5" stop-opacity="0"/>
<stop offset="1" stop-color="#7F7F7F"/>
</linearGradient>
<linearGradient id="paint4_linear_6870_26086" x1="293.278" y1="263.461" x2="293.278" y2="414.126" gradientUnits="userSpaceOnUse">
<stop offset="0.0927945" stop-color="#E5E5E5" stop-opacity="0"/>
<stop offset="1" stop-color="#7F7F7F"/>
</linearGradient>
<linearGradient id="paint5_linear_6870_26086" x1="303.617" y1="263.461" x2="303.617" y2="414.126" gradientUnits="userSpaceOnUse">
<stop offset="0.0927945" stop-color="#E5E5E5" stop-opacity="0"/>
<stop offset="1" stop-color="#7F7F7F"/>
</linearGradient>
<linearGradient id="paint6_linear_6870_26086" x1="313.957" y1="263.461" x2="313.957" y2="414.126" gradientUnits="userSpaceOnUse">
<stop offset="0.0927945" stop-color="#E5E5E5" stop-opacity="0"/>
<stop offset="1" stop-color="#7F7F7F"/>
</linearGradient>
<linearGradient id="paint7_linear_6870_26086" x1="324.297" y1="263.461" x2="324.297" y2="414.126" gradientUnits="userSpaceOnUse">
<stop offset="0.0927945" stop-color="#E5E5E5" stop-opacity="0"/>
<stop offset="1" stop-color="#7F7F7F"/>
</linearGradient>
<linearGradient id="paint8_linear_6870_26086" x1="142.801" y1="605.728" x2="304.476" y2="230.39" gradientUnits="userSpaceOnUse">
<stop stop-color="#232323"/>
<stop offset="1" stop-color="#595959"/>
</linearGradient>
<linearGradient id="paint9_linear_6870_26086" x1="169.902" y1="297.033" x2="392.374" y2="71.6848" gradientUnits="userSpaceOnUse">
<stop stop-color="#232323"/>
<stop offset="1" stop-color="#595959"/>
</linearGradient>
<linearGradient id="paint10_linear_6870_26086" x1="240.863" y1="226.073" x2="330.57" y2="135.206" gradientUnits="userSpaceOnUse">
<stop stop-color="#232323"/>
<stop offset="1" stop-color="#595959"/>
</linearGradient>
<linearGradient id="paint11_linear_6870_26086" x1="267.02" y1="193.049" x2="271.514" y2="174.795" gradientUnits="userSpaceOnUse">
<stop stop-color="white"/>
<stop offset="1" stop-color="#343434" stop-opacity="0"/>
</linearGradient>
<clipPath id="clip0_6870_26086">
<rect width="61.6823" height="33.4548" fill="white" transform="translate(166.535 384.344)"/>
</clipPath>
<clipPath id="clip1_6870_26086">
<rect width="62.7291" height="11.3107" fill="white" transform="translate(166.008 395.336)"/>
</clipPath>
<clipPath id="clip2_6870_26086">
<rect width="62.7278" height="33.4548" fill="white" transform="translate(256.805 384.344)"/>
</clipPath>
<clipPath id="clip3_6870_26086">
<rect width="62.7278" height="10.1174" fill="white" transform="translate(256.805 396.18)"/>
</clipPath>
<clipPath id="clip4_6870_26086">
<rect width="62.7278" height="33.4548" fill="white" transform="translate(348.121 384.344)"/>
</clipPath>
<clipPath id="clip5_6870_26086">
<rect width="62.7278" height="17.427" fill="white" transform="translate(348.121 392.258)"/>
</clipPath>
<clipPath id="clip6_6870_26086">
<rect width="63.2505" height="33.4548" fill="white" transform="translate(258.375 417.797)"/>
</clipPath>
<clipPath id="clip7_6870_26086">
<rect width="62.7278" height="33.4548" fill="white" transform="translate(350.211 417.797)"/>
</clipPath>
</defs>
</svg>
