<svg width="121" height="28" viewBox="0 0 121 28" fill="none" xmlns="http://www.w3.org/2000/svg">
<path d="M63.2793 21.7845H60.3239V19.0729C59.9177 20.0276 59.2779 20.7588 58.4044 21.2666C57.5513 21.7744 56.5459 22.0283 55.3881 22.0283C53.6616 22.0283 52.2702 21.4596 51.214 20.3221C50.1781 19.1846 49.6602 17.7019 49.6602 15.8738V6.42873H52.6155V15.2949C52.6155 16.5136 52.9405 17.4987 53.5905 18.2503C54.2608 19.0018 55.1342 19.3776 56.2108 19.3776C57.4092 19.3776 58.3943 18.9409 59.1661 18.0675C59.938 17.1941 60.3239 16.0871 60.3239 14.7465V6.42873H63.2793V21.7845Z" fill="#252525"/>
<path d="M67.2185 0H70.1739V21.7845H67.2185V0Z" fill="#252525"/>
<path d="M78.8106 1.6148V6.42873H83.3503V8.98803H78.8106V16.6659C78.8106 17.4784 79.0137 18.1081 79.4199 18.555C79.8465 19.0018 80.4355 19.2252 81.187 19.2252H83.3503V21.7845H80.9433C79.3793 21.7845 78.1403 21.3377 77.2262 20.444C76.3122 19.5502 75.8552 18.3214 75.8552 16.7573V8.98803H72.717V6.42873H75.8552V1.6148H78.8106Z" fill="#252525"/>
<path d="M85.8705 6.42873H88.8259V21.7845H85.8705V6.42873ZM88.9783 0V3.71708H85.6877V0H88.9783Z" fill="#252525"/>
<path d="M92.7175 6.42873H95.6729V8.71382C96.14 7.94197 96.8103 7.33261 97.6837 6.88575C98.5572 6.41857 99.522 6.18498 100.578 6.18498C102.081 6.18498 103.381 6.53029 104.478 7.22089C105.575 7.89119 106.408 8.82553 106.976 10.0239C107.565 11.2223 107.86 12.5832 107.86 14.1066C107.86 15.63 107.555 16.9909 106.946 18.1893C106.357 19.3877 105.504 20.3322 104.387 21.0229C103.27 21.6931 101.949 22.0283 100.426 22.0283C99.4103 22.0283 98.4759 21.815 97.6228 21.3885C96.7697 20.9416 96.1197 20.3526 95.6729 19.6213V28H92.7175V6.42873ZM95.4291 14.1066C95.4291 15.7113 95.8557 17.0011 96.7088 17.9761C97.5822 18.951 98.7298 19.4385 100.152 19.4385C101.573 19.4385 102.711 18.951 103.564 17.9761C104.437 17.0011 104.874 15.7113 104.874 14.1066C104.874 12.502 104.437 11.2122 103.564 10.2372C102.711 9.26224 101.573 8.77476 100.152 8.77476C98.7298 8.77476 97.5822 9.26224 96.7088 10.2372C95.8557 11.2122 95.4291 12.502 95.4291 14.1066Z" fill="#252525"/>
<path d="M110.897 0H113.852V21.7845H110.897V0Z" fill="#252525"/>
<path d="M117.767 6.42873H120.722V21.7845H117.767V6.42873ZM120.874 0V3.71708H117.584V0H120.874Z" fill="#252525"/>
<path d="M9.25889 6.96094L4.01562 24.5413" stroke="url(#paint0_linear_6564_1370)" stroke-width="3.03642" stroke-linecap="round"/>
<mask id="mask0_6564_1370" style="mask-type:alpha" maskUnits="userSpaceOnUse" x="6" y="0" width="40" height="24">
<mask id="path-3-inside-1_6564_1370" fill="white">
<path d="M24.3711 10.5046C24.3711 4.97056 28.8573 0.484375 34.3913 0.484375H35.0155C40.5495 0.484375 45.0357 4.97056 45.0357 10.5046V22.593H24.3711V10.5046Z"/>
</mask>
<path d="M21.3347 10.5046C21.3347 3.2936 27.1803 -2.55204 34.3913 -2.55204H35.0155C42.2265 -2.55204 48.0721 3.2936 48.0721 10.5046H41.9993C41.9993 6.64753 38.8726 3.52079 35.0155 3.52079H34.3913C30.5343 3.52079 27.4075 6.64753 27.4075 10.5046H21.3347ZM45.0357 22.593H24.3711H45.0357ZM21.3347 22.593V10.5046C21.3347 3.2936 27.1803 -2.55204 34.3913 -2.55204V3.52079C30.5343 3.52079 27.4075 6.64753 27.4075 10.5046V22.593H21.3347ZM35.0155 -2.55204C42.2265 -2.55204 48.0721 3.2936 48.0721 10.5046V22.593H41.9993V10.5046C41.9993 6.64753 38.8726 3.52079 35.0155 3.52079V-2.55204Z" fill="white" mask="url(#path-3-inside-1_6564_1370)"/>
<ellipse cx="43.4914" cy="22.5897" rx="1.54214" ry="1.33185" fill="#A66CFF"/>
<mask id="path-6-inside-2_6564_1370" fill="white">
<path d="M6.78906 10.5046C6.78906 4.97056 11.2753 0.484375 16.8092 0.484375H17.4335C22.9675 0.484375 27.4537 4.97056 27.4537 10.5046V22.593H6.78906V10.5046Z"/>
</mask>
<path d="M3.75264 10.5046C3.75264 3.2936 9.59828 -2.55204 16.8092 -2.55204H17.4335C24.6445 -2.55204 30.4901 3.2936 30.4901 10.5046H24.4173C24.4173 6.64753 21.2905 3.52079 17.4335 3.52079H16.8092C12.9522 3.52079 9.82548 6.64753 9.82548 10.5046H3.75264ZM27.4537 22.593H6.78906H27.4537ZM3.75264 22.593V10.5046C3.75264 3.2936 9.59828 -2.55204 16.8092 -2.55204V3.52079C12.9522 3.52079 9.82548 6.64753 9.82548 10.5046V22.593H3.75264ZM17.4335 -2.55204C24.6445 -2.55204 30.4901 3.2936 30.4901 10.5046V22.593H24.4173V10.5046C24.4173 6.64753 21.2905 3.52079 17.4335 3.52079V-2.55204Z" fill="#A66CFF" mask="url(#path-6-inside-2_6564_1370)"/>
<ellipse cx="25.9132" cy="22.5897" rx="1.54214" ry="1.33185" fill="#A66CFF"/>
</mask>
<g mask="url(#mask0_6564_1370)">
<path d="M7.86976 0.0859375L46.7316 0.485491V24.4587H21.9032L10.0843 6.33942H5.40234L7.86976 0.0859375Z" fill="#252525"/>
</g>
<circle cx="7.55647" cy="13.5565" r="6.03826" stroke="#252525" stroke-width="3.03642"/>
<defs>
<linearGradient id="paint0_linear_6564_1370" x1="4.16757" y1="24.6501" x2="7.87208" y2="9.6005" gradientUnits="userSpaceOnUse">
<stop stop-color="#252525"/>
<stop offset="1" stop-opacity="0"/>
</linearGradient>
</defs>
</svg>
