<svg width="82" height="14" viewBox="0 0 82 14" fill="none" xmlns="http://www.w3.org/2000/svg">
<path d="M17.4501 11.3066V4.99031H14.9492V3.16406H22.2426V4.99031H19.7533V11.3066H17.4501Z" fill="#808080"/>
<path d="M25.5192 11.4094C25.0073 11.4094 24.5459 11.3085 24.1349 11.1069C23.7317 10.9053 23.4137 10.5912 23.1811 10.1647C22.9562 9.73045 22.8438 9.18371 22.8438 8.52457V5H25.0539V8.16396C25.0539 8.65253 25.1431 9.00147 25.3214 9.21087C25.5075 9.42026 25.7673 9.52492 26.1008 9.52492C26.3179 9.52492 26.5157 9.47454 26.694 9.37371C26.8724 9.27291 27.0158 9.11393 27.1244 8.89681C27.233 8.67192 27.2873 8.38499 27.2873 8.03601V5H29.4974V11.3047H27.392V9.52492L27.7991 10.0251C27.5819 10.4904 27.2679 10.8394 26.8569 11.072C26.4459 11.2969 26 11.4094 25.5192 11.4094Z" fill="#808080"/>
<path d="M30.9219 11.3078V5.0031H33.0273V6.84099L32.7133 6.31754C32.8994 5.84451 33.2018 5.49166 33.6205 5.25901C34.0391 5.01863 34.5471 4.89844 35.1443 4.89844V6.88754C35.0436 6.87202 34.9545 6.86425 34.8769 6.86425C34.8069 6.85652 34.7296 6.85262 34.6443 6.85262C34.1944 6.85262 33.8299 6.97671 33.5508 7.22486C33.2716 7.46528 33.132 7.86074 33.132 8.41135V11.3078H30.9219Z" fill="#808080"/>
<path d="M39.0639 11.4106C38.2575 11.4106 37.6294 11.2128 37.1795 10.8173C36.7297 10.4141 36.5048 9.80923 36.5048 9.00271V3.59375H38.715V8.97945C38.715 9.20434 38.777 9.38271 38.9013 9.51453C39.0252 9.63862 39.1844 9.70067 39.3779 9.70067C39.6419 9.70067 39.8668 9.63476 40.0527 9.5029L40.5994 11.05C40.4134 11.1741 40.1847 11.2633 39.9131 11.3175C39.6419 11.3796 39.3588 11.4106 39.0639 11.4106ZM35.5859 6.88568V5.23389H40.1575V6.88568H35.5859Z" fill="#808080"/>
<path d="M41.4531 11.303V2.67188H43.6634V11.303H41.4531Z" fill="#808080"/>
<path d="M48.4022 11.4125C47.6578 11.4125 47.0063 11.2728 46.4478 10.9937C45.8974 10.7068 45.467 10.319 45.1568 9.83049C44.8542 9.33416 44.7031 8.77195 44.7031 8.14381C44.7031 7.51566 44.8504 6.95732 45.1453 6.46876C45.4475 5.97246 45.8626 5.5886 46.3897 5.31719C46.9172 5.03802 47.5105 4.89844 48.1696 4.89844C48.79 4.89844 49.3562 5.02639 49.868 5.28227C50.3795 5.53045 50.7868 5.89879 51.0891 6.38735C51.3916 6.87588 51.5427 7.46914 51.5427 8.16706C51.5427 8.2446 51.5389 8.33381 51.5312 8.4346C51.5236 8.53544 51.5156 8.62847 51.5079 8.71377H46.5178V7.55055H50.3332L49.4955 7.87627C49.5035 7.58933 49.4491 7.34119 49.3328 7.13179C49.2242 6.92243 49.0689 6.75959 48.8673 6.64326C48.6738 6.52694 48.4446 6.46876 48.1811 6.46876C47.9175 6.46876 47.6849 6.52694 47.4833 6.64326C47.2894 6.75959 47.1383 6.9263 47.0297 7.14342C46.921 7.35281 46.8667 7.60096 46.8667 7.8879V8.22525C46.8667 8.53544 46.9287 8.80298 47.053 9.02786C47.1846 9.25275 47.3709 9.42723 47.6111 9.55132C47.8517 9.66761 48.1386 9.72579 48.4718 9.72579C48.782 9.72579 49.0459 9.68314 49.2629 9.59783C49.4878 9.50477 49.7089 9.36518 49.9261 9.17908L51.0891 10.3888C50.7868 10.7223 50.4146 10.9782 49.9725 11.1566C49.5306 11.3272 49.007 11.4125 48.4022 11.4125Z" fill="#808080"/>
<path d="M58.4939 11.4058C57.8501 11.4058 57.253 11.3049 56.7025 11.1033C56.1597 10.8939 55.6865 10.5992 55.2833 10.2193C54.8878 9.83928 54.5776 9.39337 54.3527 8.88155C54.1281 8.36199 54.0156 7.79203 54.0156 7.17164C54.0156 6.55126 54.1281 5.98516 54.3527 5.47333C54.5776 4.95375 54.8878 4.50397 55.2833 4.12399C55.6865 3.744 56.1597 3.45319 56.7025 3.25157C57.253 3.04219 57.8501 2.9375 58.4939 2.9375C59.246 2.9375 59.9169 3.06933 60.5064 3.333C61.1035 3.59666 61.5996 3.97664 61.9952 4.47295L60.5293 5.79902C60.2658 5.48883 59.975 5.25231 59.6572 5.08947C59.3469 4.92662 58.9981 4.84519 58.6102 4.84519C58.2766 4.84519 57.9706 4.89947 57.6913 5.00803C57.4121 5.11659 57.1715 5.27557 56.9699 5.48496C56.7763 5.68659 56.621 5.93088 56.5048 6.21777C56.3961 6.50471 56.3418 6.82266 56.3418 7.17164C56.3418 7.52059 56.3961 7.83854 56.5048 8.12548C56.621 8.41241 56.7763 8.66056 56.9699 8.86992C57.1715 9.07155 57.4121 9.22666 57.6913 9.33522C57.9706 9.44378 58.2766 9.49806 58.6102 9.49806C58.9981 9.49806 59.3469 9.41666 59.6572 9.25378C59.975 9.09094 60.2658 8.85442 60.5293 8.54423L61.9952 9.8703C61.5996 10.3589 61.1035 10.7388 60.5064 11.0103C59.9169 11.2739 59.246 11.4058 58.4939 11.4058Z" fill="#808080"/>
<path d="M62.918 11.2483V2.61719H65.1279V11.2483H62.918Z" fill="#808080"/>
<path d="M69.2145 11.3468C68.7026 11.3468 68.2413 11.246 67.8301 11.0444C67.4269 10.8428 67.109 10.5287 66.8765 10.1022C66.6515 9.66792 66.5391 9.12121 66.5391 8.46204V4.9375H68.7489V8.10146C68.7489 8.58999 68.8384 8.93897 69.0167 9.14833C69.2026 9.35773 69.4624 9.46242 69.7959 9.46242C70.0132 9.46242 70.2109 9.41201 70.3892 9.31121C70.5675 9.21038 70.7109 9.0514 70.8196 8.83427C70.9282 8.60939 70.9825 8.32245 70.9825 7.97351V4.9375H73.1927V11.2421H71.0873V9.46242L71.4943 9.96261C71.2771 10.4279 70.963 10.7769 70.5522 11.0095C70.141 11.2344 69.6953 11.3468 69.2145 11.3468Z" fill="#808080"/>
<path d="M78.584 11.353C78.0178 11.353 77.5447 11.2367 77.1648 11.004C76.7926 10.7714 76.5134 10.4146 76.3271 9.93384C76.1412 9.45304 76.0482 8.83655 76.0482 8.08431C76.0482 7.34764 76.145 6.73889 76.3389 6.25809C76.5405 5.77729 76.8313 5.42054 77.2111 5.18789C77.5913 4.95527 78.0488 4.83895 78.584 4.83895C79.1578 4.83895 79.6773 4.97077 80.1424 5.23444C80.6156 5.49808 80.9878 5.87422 81.2594 6.36275C81.5383 6.84355 81.6779 7.41741 81.6779 8.08431C81.6779 8.75898 81.5383 9.34061 81.2594 9.82917C80.9878 10.31 80.6156 10.6861 80.1424 10.9575C79.6773 11.2212 79.1578 11.353 78.584 11.353ZM74.6172 11.2483V2.61719H76.8274V6.00218L76.7111 8.08431L76.7226 10.1665V11.2483H74.6172ZM78.1185 9.59652C78.3667 9.59652 78.5878 9.53834 78.7818 9.42205C78.9833 9.30572 79.1421 9.13512 79.2584 8.91023C79.3827 8.67758 79.4447 8.40227 79.4447 8.08431C79.4447 7.76639 79.3827 7.49885 79.2584 7.28169C79.1421 7.05681 78.9833 6.8862 78.7818 6.76987C78.5878 6.65358 78.3667 6.5954 78.1185 6.5954C77.8706 6.5954 77.6456 6.65358 77.444 6.76987C77.2501 6.8862 77.091 7.05681 76.967 7.28169C76.8508 7.49885 76.7926 7.76639 76.7926 8.08431C76.7926 8.40227 76.8508 8.67758 76.967 8.91023C77.091 9.13512 77.2501 9.30572 77.444 9.42205C77.6456 9.53834 77.8706 9.59652 78.1185 9.59652Z" fill="#808080"/>
<path d="M3.39453 3.82842C3.98497 3.50425 4.66301 3.31989 5.38413 3.31989C6.15903 3.31989 6.88418 3.53277 7.50432 3.90323C7.48507 2.7841 6.57183 1.88281 5.44812 1.88281C4.34955 1.88281 3.45215 2.74421 3.39453 3.82842Z" fill="#808080"/>
<path d="M9.48259 8.04322C9.50926 7.85339 9.52305 7.65942 9.52305 7.46222C9.52305 6.20132 8.95939 5.07208 8.07031 4.31274C8.10053 4.29192 8.13246 4.27364 8.1661 4.258C8.74313 3.98964 9.59951 4.60764 10.0788 5.63835C10.5581 6.66903 10.4789 7.72213 9.90183 7.99047C9.7735 8.05015 9.63133 8.06599 9.48259 8.04322Z" fill="#808080"/>
<path d="M6.68359 11.3898C7.8972 10.9877 8.86187 10.0393 9.28616 8.83594C9.43942 9.30368 9.36652 9.99426 9.04992 10.675C8.57062 11.7058 7.71427 12.3237 7.1372 12.0554C6.90173 11.9459 6.74916 11.7058 6.68359 11.3898Z" fill="#808080"/>
<path d="M1.50566 8.92188C1.95066 10.1024 2.91959 11.026 4.12899 11.4093C4.06137 11.7162 3.91019 11.9491 3.67932 12.0565C3.10224 12.3249 2.24589 11.7068 1.76658 10.6762C1.46861 10.0354 1.3865 9.38603 1.50566 8.92188Z" fill="#808080"/>
<path d="M2.7192 4.29178C1.81711 5.05122 1.24391 6.18886 1.24391 7.46037C1.24391 7.66047 1.2581 7.85726 1.28554 8.0498C1.15634 8.0615 1.0329 8.04291 0.920136 7.99047C0.343076 7.72213 0.263834 6.66903 0.743143 5.63836C1.22245 4.60764 2.07881 3.98964 2.65587 4.258C2.6777 4.26814 2.6988 4.27942 2.7192 4.29178Z" fill="#808080"/>
<path d="M4.51005 9.20592C4.59337 9.09126 4.72655 9.02344 4.86826 9.02344L5.96481 9.02347C6.10655 9.02347 6.2397 9.0913 6.32301 9.20595L7.00694 10.1469C7.15561 10.3514 7.10429 10.6418 6.87919 10.7571C6.02017 11.1969 5.11034 11.2536 3.99757 10.7485C3.75607 10.6389 3.69009 10.334 3.84604 10.1195L4.51005 9.20592Z" fill="#808080"/>
<path d="M6.81182 8.81837C6.72781 8.7034 6.70424 8.55504 6.74846 8.41967L7.09193 7.36814C7.13594 7.2334 7.24183 7.12786 7.37671 7.08427L8.48949 6.72467C8.73575 6.64511 8.99999 6.79302 9.02526 7.05057C9.03665 7.16707 9.04253 7.28517 9.04253 7.40463C9.04253 8.07888 9.0425 8.37688 8.55571 9.21369C8.43158 9.42702 8.28605 9.62632 8.12216 9.80901C7.94971 10.0012 7.64975 9.96544 7.49742 9.75692L6.81182 8.81837Z" fill="#808080"/>
<path d="M8.30442 6.18525C8.55023 6.10493 8.67707 5.83025 8.54689 5.60686C8.45591 5.45077 8.35376 5.30207 8.24143 5.16192C8.22427 5.14048 8.20919 5.1176 8.19429 5.09452C7.97643 4.75765 7.17246 4.18008 6.80189 4.0717C6.77884 4.06497 6.7559 4.05804 6.73354 4.04927C6.55869 3.98055 6.37722 3.9251 6.19039 3.8841C5.93736 3.82858 5.71495 4.03469 5.71491 4.29371L5.71484 5.46846C5.71484 5.60982 5.78232 5.74269 5.89645 5.82607L6.79719 6.4841C6.91219 6.56811 7.06059 6.59168 7.19596 6.54746L8.30442 6.18525Z" fill="#808080"/>
<path d="M2.7095 9.80902C2.54558 9.6263 2.40001 9.427 2.2759 9.21367C1.93229 8.65847 1.78906 8.04369 1.78906 7.40457C1.78906 7.28511 1.79493 7.16701 1.80635 7.05055C1.83162 6.79303 2.09588 6.64509 2.34211 6.72469L3.45488 7.08425C3.58977 7.12784 3.69565 7.23337 3.73966 7.36812L4.08314 8.41969C4.12735 8.55506 4.10378 8.70342 4.0198 8.81839L3.33424 9.75693C3.18191 9.96546 2.88192 10.0013 2.7095 9.80902Z" fill="#808080"/>
<path d="M3.6334 6.54282C3.76877 6.58704 3.91716 6.56347 4.03217 6.47945L4.93287 5.8215C5.047 5.73811 5.11448 5.60521 5.11448 5.46385L5.11437 4.28913C5.11437 4.0301 4.89199 3.82594 4.63984 3.88537C4.44256 3.93188 4.25072 3.99293 4.06232 4.05797C3.45088 4.26915 2.89313 4.7847 2.6139 5.12525C2.4913 5.27469 2.38039 5.43415 2.28244 5.60218C2.15224 5.82561 2.27909 6.10025 2.52487 6.18058L3.6334 6.54282Z" fill="#808080"/>
<path d="M5.0313 8.41722C4.83876 8.41722 4.66829 8.29282 4.60955 8.10947L4.36879 7.35768C4.31082 7.17667 4.37481 6.97887 4.5278 6.86612L5.15125 6.40667C5.30748 6.29153 5.52046 6.29153 5.67668 6.40667L6.3001 6.86612C6.45312 6.97887 6.51708 7.17667 6.45911 7.35768L6.21834 8.10947C6.15964 8.29282 5.98914 8.41722 5.79663 8.41722H5.0313Z" fill="#808080"/>
</svg>
