<svg width="66" height="13" viewBox="0 0 66 13" fill="none" xmlns="http://www.w3.org/2000/svg">
<g clip-path="url(#clip0_6636_10258)">
<path d="M6.19286 0.421875C4.4045 0.421875 0 4.74116 0 6.49505C0 8.24896 4.4045 12.5683 6.19286 12.5683C7.9812 12.5683 12.3858 8.24889 12.3858 6.49505C12.3858 4.74124 7.98127 0.421875 6.19286 0.421875ZM5.22781 9.96793C4.47368 9.76638 2.44612 6.28821 2.65165 5.54864C2.85719 4.80904 6.40383 2.82071 7.15796 3.02227C7.91212 3.22381 9.9397 6.70191 9.73418 7.44151C9.52865 8.18114 5.98194 10.1695 5.22781 9.96793Z" fill="#808080"/>
<path d="M21.0409 7.84448V7.84223L17.5221 1.4775C17.4528 1.35222 17.2614 1.38222 17.2354 1.52243L15.483 10.9751C15.4658 11.0678 15.5384 11.153 15.6343 11.153H16.9902C17.0646 11.153 17.1283 11.1008 17.1416 11.0291L18.1621 5.51359L20.9052 10.642C20.9629 10.7497 21.1202 10.7497 21.1778 10.642L23.9208 5.51359L24.9414 11.0291C24.9547 11.1008 25.0184 11.153 25.0928 11.153H26.4486C26.5446 11.153 26.6172 11.0678 26.6 10.9751L24.8476 1.52243C24.8216 1.38222 24.6302 1.35222 24.5609 1.4775L21.0409 7.84448Z" fill="#808080"/>
<path d="M32.302 1.65625C29.5107 1.65625 27.3242 3.78337 27.3242 6.49937C27.3242 9.2154 29.5107 11.3437 32.302 11.3437C35.086 11.3437 37.2671 9.21596 37.2671 6.49937C37.2671 3.78277 35.086 1.65625 32.302 1.65625ZM32.302 9.72202C30.4818 9.72202 29.0557 8.30629 29.0557 6.49937C29.0557 4.69245 30.4818 3.27792 32.302 3.27792C34.1149 3.27792 35.5356 4.69304 35.5356 6.49937C35.5356 8.30573 34.1149 9.72202 32.302 9.72202Z" fill="#808080"/>
<path d="M44.9392 7.60783L39.1025 1.44694C39.0073 1.34646 38.8359 1.41252 38.8359 1.54965V11.0003C38.8359 11.0837 38.9048 11.1512 38.9898 11.1512H40.4008C40.4858 11.1512 40.5547 11.0837 40.5547 11.0003V5.37534L46.3785 11.5478C46.4736 11.6486 46.6453 11.5826 46.6453 11.4454V1.99468C46.6453 1.91133 46.5764 1.84376 46.4914 1.84376H45.0931C45.0081 1.84376 44.9392 1.91133 44.9392 1.99468V7.60783Z" fill="#808080"/>
<path d="M48.1423 11.1504H49.6575C49.7174 11.1504 49.772 11.1161 49.7971 11.0627L50.9321 8.65216H54.5617L55.6711 11.0615C55.6959 11.1156 55.7508 11.1504 55.8113 11.1504H57.4552C57.5687 11.1504 57.6432 11.034 57.5937 10.9338L52.9373 1.48369C52.8814 1.37002 52.7162 1.37002 52.6602 1.48369L48.0038 10.9338C47.9544 11.034 48.0289 11.1504 48.1423 11.1504ZM51.6437 7.15652L52.7716 4.75596L53.8784 7.15652H51.6437Z" fill="#808080"/>
<path d="M61.2713 1.84375H58.9429C58.8579 1.84375 58.7891 1.91132 58.7891 1.99466V11.0003C58.7891 11.0836 58.8579 11.1512 58.9429 11.1512H61.2713C64.1579 11.1512 65.9515 9.36795 65.9515 6.49689C65.9515 3.62582 64.1579 1.84375 61.2713 1.84375ZM61.2713 9.5544H60.5205V3.42814H61.2713C63.1452 3.42814 64.2201 4.54674 64.2201 6.49689C64.2201 8.43995 63.1452 9.5544 61.2713 9.5544Z" fill="#808080"/>
</g>
<defs>
<clipPath id="clip0_6636_10258">
<rect width="66" height="12.1579" fill="white" transform="translate(0 0.421875)"/>
</clipPath>
</defs>
</svg>
