<svg width="34" height="46" viewBox="0 0 34 46" fill="none" xmlns="http://www.w3.org/2000/svg">
<g clip-path="url(#clip0_6636_10305)">
<path d="M25.191 22.4559C23.9729 22.655 23.3882 23.5513 23.3882 25.1447C23.3882 26.7381 24.2165 27.8336 25.4347 27.8336C26.6528 27.8336 26.5554 27.6344 27.676 27.0867V28.3813C26.3604 29.0286 25.5808 29.178 24.4602 29.178C23.3395 29.178 22.4624 28.8792 21.829 28.1821C21.1468 27.485 20.8058 26.5389 20.8058 25.5431C20.8058 23.2526 22.4624 21.709 24.8987 21.709C27.335 21.709 27.6273 22.4559 27.6273 23.5513C27.6273 24.6468 27.0913 24.7464 26.3604 24.7464C25.6296 24.7464 25.6296 24.6468 25.2398 24.3978V22.4559H25.191ZM19.2953 25.4933C20.3672 24.0991 20.757 23.5513 20.757 22.8542C20.757 22.1571 20.221 21.6094 19.5389 21.6094C18.8567 21.6094 18.7106 21.8085 18.5157 22.0575V24.8958L16.7615 27.2858V21.8085H15.1049L12.3275 26.5389V21.8085H11.353L8.8193 22.4559V23.1032L10.1836 23.2526V29.0286H11.9865L14.6663 24.5472V29.0286H16.6154L19.344 25.4933H19.2953ZM3.50823 23.3024C3.89803 23.3024 4.14166 23.2028 4.33656 23.2028C5.50597 23.2028 6.1394 23.9995 6.1394 25.4933C6.1394 26.9871 5.3598 28.1821 3.94676 28.1821C2.53372 28.1821 3.75186 28.1821 3.55696 28.1821V23.3521L3.50823 23.3024ZM3.50823 28.9788C3.94676 28.9788 4.43401 28.9788 4.67764 28.9788C7.06519 28.9788 8.57567 27.4352 8.57567 25.0949C8.57567 22.7546 7.45499 21.6592 5.89578 21.6592C4.33656 21.6592 4.77509 21.8085 3.50823 22.6052V21.6592H2.77735L0 22.5057V23.2028H1.16941V31.2693L0.146176 31.5183V32.1656H4.67764V31.5183L3.50823 31.2693V28.929V28.9788Z" fill="#808080"/>
<path d="M23.9235 19.7178H16.3711L17.638 17.5269H25.1904L23.9235 19.7178ZM34.0584 15.3359H26.506L25.2391 17.5269H32.7916L34.0584 15.3359Z" fill="#808080"/>
</g>
<defs>
<clipPath id="clip0_6636_10305">
<rect width="34" height="46" fill="white"/>
</clipPath>
</defs>
</svg>
