<svg width="80" height="36" viewBox="0 0 80 36" fill="none" xmlns="http://www.w3.org/2000/svg">
<g clip-path="url(#clip0_6636_10209)">
<path d="M74.3047 23.2972V13.3672H76.2155V17.5598L77.9066 13.3672H79.7597L77.9992 17.8295L79.8872 23.2972H77.9644L76.5167 18.8471L76.2155 19.411V23.2972H74.3047Z" fill="#808080"/>
<path d="M70.8124 23.4374C70.2333 23.4374 69.7505 23.3271 69.3647 23.1064C68.9785 22.8776 68.685 22.5384 68.4845 22.0889C68.2912 21.6312 68.1793 21.0509 68.1484 20.3481L69.793 20.0539C69.8086 20.4625 69.8471 20.8058 69.9089 21.0837C69.9783 21.3533 70.0789 21.5577 70.2101 21.6966C70.3492 21.8274 70.5188 21.8928 70.7197 21.8928C70.9668 21.8928 71.1328 21.8111 71.2178 21.6476C71.3104 21.4841 71.3566 21.2962 71.3566 21.0837C71.3566 20.6668 71.2603 20.3195 71.067 20.0416C70.8818 19.7556 70.6347 19.4695 70.3259 19.1835L69.3531 18.2885C69.0054 17.978 68.7199 17.6266 68.4961 17.2343C68.28 16.842 68.1717 16.3598 68.1717 15.7877C68.1717 14.9704 68.3955 14.3452 68.8434 13.912C69.299 13.4707 69.9205 13.25 70.7081 13.25C71.1789 13.25 71.5651 13.3317 71.8662 13.4952C72.1674 13.6586 72.3992 13.8793 72.5612 14.1572C72.7308 14.4269 72.8467 14.7252 72.9085 15.0521C72.9783 15.3708 73.0208 15.6896 73.036 16.0083L71.4031 16.2658C71.3874 15.9634 71.3606 15.6978 71.3221 15.4689C71.2912 15.2401 71.2214 15.0603 71.1135 14.9295C71.0129 14.7987 70.8585 14.7334 70.6504 14.7334C70.4262 14.7334 70.2602 14.8233 70.1523 15.0031C70.044 15.1747 69.9899 15.3668 69.9899 15.5793C69.9899 15.9307 70.0633 16.2208 70.2101 16.4497C70.3644 16.6703 70.573 16.9033 70.8356 17.1484L71.7852 18.0311C72.179 18.3907 72.5147 18.8034 72.793 19.2693C73.0785 19.727 73.2213 20.295 73.2213 20.9733C73.2213 21.4392 73.121 21.8601 72.9201 22.236C72.7196 22.612 72.4377 22.9062 72.0748 23.1187C71.7195 23.3312 71.2988 23.4374 70.8124 23.4374Z" fill="#808080"/>
<path d="M64.9688 23.2972V13.3672H66.868V23.2972H64.9688Z" fill="#808080"/>
<path d="M58.1172 23.2972V13.3672H60.5493C61.1821 13.3672 61.7227 13.4448 62.1707 13.6001C62.6262 13.7472 62.9735 14.0128 63.2129 14.397C63.4599 14.7811 63.5834 15.3123 63.5834 15.9907C63.5834 16.3993 63.5489 16.763 63.4792 17.0817C63.4174 17.3923 63.3019 17.6661 63.1319 17.9031C62.9699 18.1319 62.7381 18.3158 62.4369 18.4548L63.7342 23.2972H61.7768L60.6997 18.798H60.028V23.2972H58.1172ZM60.028 17.5966H60.5838C60.8926 17.5966 61.136 17.5435 61.3137 17.4373C61.4913 17.331 61.6148 17.1716 61.6842 16.9591C61.7612 16.7385 61.8001 16.4688 61.8001 16.15C61.8001 15.6924 61.7191 15.345 61.5567 15.108C61.4023 14.8628 61.1088 14.7402 60.6765 14.7402H60.028V17.5966Z" fill="#808080"/>
<path d="M49.0586 23.2972V13.3672H50.3904L52.4752 18.5406V13.3672H54.05V23.2972H52.7764L50.6915 17.8051V23.2972H49.0586Z" fill="#808080"/>
<path d="M45.6484 23.2972V13.3672H47.5476V23.2972H45.6484Z" fill="#808080"/>
<path d="M38.8555 23.2972L40.6738 13.3672H42.7933L44.5999 23.2972H42.8282L42.4921 21.115H41.0097L40.6507 23.2972H38.8555ZM41.1836 19.8768H42.3068L41.7394 15.8681L41.1836 19.8768Z" fill="#808080"/>
<path d="M32.3203 23.2972V13.3672H34.2313V17.4495H35.8875V13.3672H37.7985V23.2972H35.8875V18.8961H34.2313V23.2972H32.3203Z" fill="#808080"/>
<path d="M28.4285 23.4374C27.7336 23.4374 27.1815 23.2985 26.7723 23.0206C26.3708 22.7427 26.089 22.3586 25.9268 21.8682C25.7647 21.3697 25.6836 20.7935 25.6836 20.1397V16.5723C25.6836 15.8857 25.7647 15.2973 25.9268 14.8069C26.089 14.3084 26.3708 13.9243 26.7723 13.6546C27.1815 13.3849 27.7336 13.25 28.4285 13.25C29.1002 13.25 29.6253 13.3685 30.0036 13.6055C30.3897 13.8425 30.6599 14.1776 30.8143 14.6108C30.9765 15.0439 31.0575 15.5466 31.0575 16.1187V16.9523H29.2045V16.0206C29.2045 15.7918 29.1929 15.5793 29.1697 15.3831C29.1466 15.1788 29.0809 15.0153 28.9728 14.8927C28.8724 14.762 28.6949 14.6966 28.4401 14.6966C28.1852 14.6966 27.9999 14.762 27.8841 14.8927C27.7683 15.0235 27.695 15.1951 27.6641 15.4076C27.6332 15.6119 27.6178 15.8408 27.6178 16.0941V20.6055C27.6178 20.8834 27.6371 21.1286 27.6757 21.3411C27.722 21.5454 27.8031 21.7048 27.9189 21.8192C28.0424 21.9255 28.2162 21.9786 28.4401 21.9786C28.6871 21.9786 28.8609 21.9173 28.9613 21.7947C29.0693 21.6639 29.135 21.4923 29.1581 21.2798C29.189 21.0673 29.2045 20.8426 29.2045 20.6055V19.6371H31.0575V20.4584C31.0575 21.0387 30.9803 21.5536 30.8259 22.0031C30.6715 22.4444 30.4051 22.7958 30.0268 23.0574C29.6484 23.3107 29.1156 23.4374 28.4285 23.4374Z" fill="#808080"/>
<path opacity="0.5" d="M5.6314 13.25H4.02734V23.4374H5.6314V13.25Z" fill="#808080"/>
<path opacity="0.3" d="M2.82281 13.25H1.21875V23.4374H2.82281V13.25Z" fill="#808080"/>
<path opacity="0.6" d="M8.43609 13.25H6.83203V23.4374H8.43609V13.25Z" fill="#808080"/>
<path opacity="0.7" d="M11.2447 13.25H9.64062V23.4374H11.2447V13.25Z" fill="#808080"/>
<path opacity="0.8" d="M14.0533 13.25H12.4492V23.4374H14.0533V13.25Z" fill="#808080"/>
<path opacity="0.9" d="M16.858 13.25H15.2539V23.4374H16.858V13.25Z" fill="#808080"/>
<path d="M19.6666 13.25H18.0625V23.4374H19.6666V13.25Z" fill="#808080"/>
<path d="M22.4752 13.25H20.8711V23.4374H22.4752V13.25Z" fill="#808080"/>
</g>
<defs>
<clipPath id="clip0_6636_10209">
<rect width="79" height="10.6119" fill="white" transform="translate(1 13.1953)"/>
</clipPath>
</defs>
</svg>
