<svg width="58" height="16" viewBox="0 0 58 16" fill="none" xmlns="http://www.w3.org/2000/svg">
<g clip-path="url(#clip0_6636_10252)">
<path d="M12.1953 8.3362L4.51929 12.7679C3.98918 13.074 3.80747 13.7517 4.11342 14.2816C4.41937 14.8116 5.09713 14.993 5.62722 14.687L13.3032 10.2552C13.8334 9.94917 14.0151 9.2715 13.7091 8.74153C13.4032 8.21167 12.7254 8.03016 12.1953 8.3362Z" fill="#808080"/>
<path d="M6.88566 6.91435L1.12866 10.2381C0.598566 10.5442 0.416845 11.2219 0.722791 11.7518C1.02874 12.2818 1.7065 12.4632 2.23661 12.1571L7.99363 8.83336C8.5237 8.52728 8.70541 7.8496 8.39948 7.31969C8.09355 6.78978 7.41578 6.60827 6.88566 6.91435Z" fill="#808080"/>
<path d="M8.30858 1.60184L0.632569 6.03361C0.102464 6.33964 -0.0792467 7.01731 0.2267 7.54728C0.532647 8.07719 1.2104 8.25864 1.74051 7.95261L9.4165 3.52084C9.94662 3.21479 10.1283 2.53709 9.8224 2.00718C9.51642 1.47726 8.8387 1.29579 8.30858 1.60184Z" fill="#808080"/>
<path d="M25.3515 14.8819H15.9805V1.73552H25.1826V3.76397H18.2156V7.14445H24.5254V9.11661H18.2156V12.8535H25.3522V14.8819H25.3515ZM30.4095 15.1634C28.0432 15.1634 26.6719 13.6795 26.6719 11.5199V4.9286H28.8878V11.4266C28.8878 12.5534 29.6768 13.2106 30.8599 13.2106C32.3809 13.2106 33.2825 12.2156 33.301 10.9383V4.9286H35.5169V14.8819H33.7329L33.564 13.4358C32.9817 14.5063 31.7985 15.1634 30.4095 15.1634ZM39.6494 14.8819H37.4335V0.796875H39.6494V14.8819ZM46.1697 15.1634C43.1278 15.1634 41.0431 12.9854 41.0431 9.94265C41.0431 6.65625 43.2026 4.6278 45.9823 4.6278C48.762 4.6278 50.6771 6.59994 50.7333 9.83007V10.3561H43.259C43.4093 12.1022 44.4984 13.2854 46.1883 13.2854C47.3336 13.2854 48.1974 12.7223 48.536 11.7266H50.6956C50.1888 13.8677 48.5175 15.1634 46.1697 15.1634ZM43.353 8.7973H48.4427C48.1612 7.36966 47.2781 6.50584 45.9823 6.50584C44.6866 6.50584 43.6916 7.36966 43.353 8.7973ZM54.3034 14.8819H52.0875V4.9286H53.8719L54.1349 6.88146C54.7731 5.52942 55.9382 4.81599 57.5899 4.81599H57.9656V6.97556H57.5899C55.5246 6.97556 54.3034 8.08389 54.3034 9.96118V14.8811V14.8819Z" fill="#808080"/>
</g>
<defs>
<clipPath id="clip0_6636_10252">
<rect width="58" height="15.4667" fill="white" transform="translate(0 0.265625)"/>
</clipPath>
</defs>
</svg>
