<svg width="80" height="16" viewBox="0 0 80 16" fill="none" xmlns="http://www.w3.org/2000/svg">
<g clip-path="url(#clip0_6636_10229)">
<path fill-rule="evenodd" clip-rule="evenodd" d="M23.3338 9.99766C23.3338 11.1291 22.6869 11.7786 21.4145 11.7786H18.3711V10.4377H21.0539C21.4462 10.4377 21.6371 10.3015 21.6371 9.9558C21.6371 9.67294 21.4251 9.49484 20.9585 9.17007L19.3679 7.95481C18.562 7.34718 18.2227 6.78145 18.2227 6.11096C18.2227 4.96908 18.9013 4.44531 20.2374 4.44531H23.2065V5.78624H20.5343C20.1208 5.78624 19.9193 5.92244 19.9193 6.27863C19.9193 6.55102 20.1314 6.72912 20.6085 7.04336L22.1885 8.13291C22.9944 8.67768 23.3338 9.33769 23.3338 9.99766Z" fill="#808080"/>
<path fill-rule="evenodd" clip-rule="evenodd" d="M29.5556 5.78628H27.6325V11.7786H25.9231V5.78628H24V4.44531H29.5556V5.78628Z" fill="#808080"/>
<path fill-rule="evenodd" clip-rule="evenodd" d="M34.1401 9.13864L33.1202 6.23668L32.0899 9.13864H34.1401ZM34.5772 10.3643H31.6424L31.1429 11.7786H29.332L32.2356 4.44531H33.984L36.8876 11.7786H35.0768L34.5772 10.3643Z" fill="#808080"/>
<path fill-rule="evenodd" clip-rule="evenodd" d="M39.7705 7.90243C40.7035 7.90243 40.9792 7.57766 40.9792 6.80245C40.9792 6.0272 40.7035 5.70243 39.7705 5.70243H39.0284V7.90243H39.7705ZM42.8876 11.7786H41.1807L40.852 10.3748C40.6399 9.40055 40.4491 9.13864 39.7069 9.12812H39.0284V11.7786H37.332V4.44531H40.3749C41.9546 4.44531 42.6755 5.13671 42.6755 6.64526C42.6755 7.66152 42.2726 8.27958 41.4563 8.53101C42.0394 8.8034 42.3257 9.34817 42.5589 10.3748L42.8876 11.7786Z" fill="#808080"/>
<path fill-rule="evenodd" clip-rule="evenodd" d="M45.6524 7.99676L48.2859 4.44531H50.2585L47.4907 7.99676L50.4444 11.7786H48.4718L45.6524 7.99676ZM44 11.7786H45.6524V4.44531H44V11.7786Z" fill="#808080"/>
<path fill-rule="evenodd" clip-rule="evenodd" d="M61.332 4.44531L59.1144 11.7786H58.0781L56.3268 5.91196L54.5755 11.7786H53.5289L51.332 4.44531H52.3476L54.0781 10.6367L55.9124 4.44531H56.7414L58.5756 10.6367L60.3165 4.44531H61.332Z" fill="#808080"/>
<path fill-rule="evenodd" clip-rule="evenodd" d="M65.7286 9.17007L64.3403 5.4929L62.9415 9.17007H65.7286ZM65.9916 9.87199H62.6785L61.9529 11.7786H60.8906L63.8249 4.44531H64.8451L67.7795 11.7786H66.7172L65.9916 9.87199Z" fill="#808080"/>
<path fill-rule="evenodd" clip-rule="evenodd" d="M70.969 8.03862C72.1354 8.03862 72.5702 7.58818 72.5702 6.6034C72.5702 5.63957 72.1354 5.17866 70.969 5.17866H69.6435V8.03862H70.969ZM73.7791 11.7786H72.7929L72.5278 10.5215C72.2627 9.21198 71.934 8.77197 70.9372 8.75102H69.6435V11.7786H68.668V4.44531H71.2978C72.8566 4.44531 73.5458 5.12623 73.5458 6.51959C73.5458 7.56718 73.111 8.20624 72.1991 8.41577C72.9201 8.68816 73.2489 9.30626 73.5034 10.5215L73.7791 11.7786Z" fill="#808080"/>
<path d="M76.3012 5.22052V7.45194H79.5668V8.17481H76.3012V9.74627C76.3012 10.6158 76.6804 11.0034 77.5442 11.0034H79.9987V11.7786H77.3967C75.8588 11.7786 75.332 11.2758 75.332 9.83008V4.44531H79.9987V5.22052H76.3012Z" fill="#808080"/>
<path fill-rule="evenodd" clip-rule="evenodd" d="M7.1007 8.9379L5.84398 10.2339C5.84317 10.2346 5.84241 10.2355 5.84146 10.236C5.83838 10.2381 5.83469 10.2393 5.83075 10.2393C5.81985 10.2393 5.81098 10.2301 5.81098 10.2188C5.81098 10.2166 5.81131 10.2143 5.81203 10.2123C5.81203 10.2122 5.81203 10.2123 5.81203 10.2123L6.29008 8.37318C6.33085 8.24133 6.30056 8.09124 6.19911 7.98666L4.94238 6.69062C4.94167 6.68979 4.94091 6.68901 4.9403 6.68803C4.93835 6.6849 4.93717 6.68109 4.93717 6.67703C4.93717 6.66574 4.94603 6.65659 4.95699 6.65659C4.95921 6.65659 4.96135 6.65698 4.96334 6.65767L6.74676 7.15071C6.87457 7.19276 7.02011 7.16152 7.12151 7.0569L8.37828 5.76095C8.37909 5.76017 8.37985 5.75934 8.38079 5.75875C8.38387 5.7567 8.38753 5.75552 8.39151 5.75552C8.40241 5.75552 8.41128 5.76466 8.41128 5.77596C8.41128 5.77826 8.4109 5.78046 8.41023 5.78251L7.93218 7.62161C7.89141 7.75342 7.9217 7.90355 8.0231 8.00813L9.27983 9.30417C9.28059 9.305 9.28134 9.30579 9.28191 9.30671C9.2839 9.30989 9.28509 9.3137 9.28509 9.31776C9.28509 9.32901 9.27618 9.33815 9.26527 9.33815C9.26304 9.33815 9.26091 9.33781 9.25892 9.33712C9.25887 9.33712 9.25897 9.33712 9.25892 9.33712L7.4755 8.84408C7.34769 8.80203 7.2021 8.83332 7.1007 8.9379ZM14.168 7.86234L11.1662 4.76679C11.0648 4.66222 10.9193 4.63093 10.7915 4.67298L8.81751 5.21887C8.81727 5.21882 8.81723 5.21853 8.81685 5.21867C8.815 5.21926 8.81301 5.2196 8.81092 5.2196C8.80002 5.2196 8.79115 5.21046 8.79115 5.19917C8.79115 5.19193 8.79475 5.18562 8.80025 5.18201C9.01572 5.03422 9.34226 4.76679 10.1233 3.96135C10.1956 3.88679 10.1956 3.76584 10.1233 3.69124L7.24207 0.720016C7.16977 0.645411 7.05249 0.645411 6.98019 0.720016L3.9784 3.81556C3.877 3.92014 3.8467 4.07027 3.88748 4.20208L4.41678 6.23766C4.41673 6.23791 4.41649 6.23796 4.41659 6.2384C4.41721 6.2403 4.41749 6.24236 4.41749 6.24446C4.41749 6.25575 4.40862 6.2649 4.39767 6.2649C4.3907 6.2649 4.38454 6.26113 4.38103 6.25546C4.23772 6.03326 3.9784 5.69656 3.19741 4.89112C3.12507 4.81651 3.00778 4.81651 2.93549 4.89112L0.0542577 7.86234C-0.0180859 7.93694 -0.0180859 8.0579 0.0542577 8.13245L3.056 11.228C3.1574 11.3326 3.30299 11.3639 3.4308 11.3218L5.40475 10.7759C5.40499 10.776 5.40498 10.7763 5.40541 10.7761C5.40726 10.7755 5.40925 10.7752 5.41129 10.7752C5.42224 10.7752 5.43111 10.7843 5.43111 10.7956C5.43111 10.8028 5.4275 10.8092 5.422 10.8128C5.42196 10.8128 5.422 10.8128 5.422 10.8128C5.20649 10.9606 4.88 11.228 4.09896 12.0334C4.02662 12.108 4.02662 12.2289 4.09896 12.3036L6.98019 15.2748C7.05249 15.3494 7.16977 15.3494 7.24207 15.2748L10.2438 12.1792C10.3452 12.0747 10.3756 11.9245 10.3348 11.7927L9.80548 9.75713C9.80548 9.75683 9.80576 9.75683 9.80562 9.75644C9.80505 9.75449 9.80477 9.75248 9.80477 9.75033C9.80477 9.73904 9.81363 9.7299 9.82454 9.7299C9.83155 9.7299 9.83772 9.73366 9.84122 9.73933C9.98449 9.96153 10.2438 10.2983 11.0248 11.1037C11.0972 11.1783 11.2144 11.1783 11.2868 11.1037L14.168 8.13245C14.2403 8.0579 14.2403 7.93694 14.168 7.86234Z" fill="#808080"/>
</g>
<defs>
<clipPath id="clip0_6636_10229">
<rect width="80" height="14.6667" fill="white" transform="translate(0 0.664062)"/>
</clipPath>
</defs>
</svg>
