<svg width="121" height="28" viewBox="0 0 121 28" fill="none" xmlns="http://www.w3.org/2000/svg">
<path d="M63.2832 21.7845H60.3278V19.0729C59.9216 20.0276 59.2818 20.7588 58.4083 21.2666C57.5552 21.7744 56.5498 22.0283 55.392 22.0283C53.6655 22.0283 52.2741 21.4596 51.2179 20.3221C50.182 19.1846 49.6641 17.7019 49.6641 15.8738V6.42873H52.6194V15.2949C52.6194 16.5136 52.9444 17.4987 53.5944 18.2503C54.2647 19.0018 55.1381 19.3776 56.2147 19.3776C57.4131 19.3776 58.3982 18.9409 59.17 18.0675C59.9419 17.1941 60.3278 16.0871 60.3278 14.7465V6.42873H63.2832V21.7845Z" fill="black"/>
<path d="M67.2224 0H70.1778V21.7845H67.2224V0Z" fill="black"/>
<path d="M78.8145 1.6148V6.42873H83.3542V8.98803H78.8145V16.6659C78.8145 17.4784 79.0176 18.1081 79.4238 18.555C79.8504 19.0018 80.4394 19.2252 81.191 19.2252H83.3542V21.7845H80.9472C79.3832 21.7845 78.1442 21.3377 77.2301 20.444C76.3161 19.5502 75.8591 18.3214 75.8591 16.7573V8.98803H72.7209V6.42873H75.8591V1.6148H78.8145Z" fill="black"/>
<path d="M85.8744 6.42873H88.8298V21.7845H85.8744V6.42873ZM88.9822 0V3.71708H85.6916V0H88.9822Z" fill="black"/>
<path d="M92.7214 6.42873H95.6768V8.71382C96.1439 7.94197 96.8142 7.33261 97.6877 6.88575C98.5611 6.41857 99.5259 6.18498 100.582 6.18498C102.085 6.18498 103.385 6.53029 104.482 7.22089C105.579 7.89119 106.412 8.82553 106.98 10.0239C107.569 11.2223 107.864 12.5832 107.864 14.1066C107.864 15.63 107.559 16.9909 106.95 18.1893C106.361 19.3877 105.508 20.3322 104.391 21.0229C103.273 21.6931 101.953 22.0283 100.43 22.0283C99.4142 22.0283 98.4798 21.815 97.6267 21.3885C96.7736 20.9416 96.1236 20.3526 95.6768 19.6213V28H92.7214V6.42873ZM95.433 14.1066C95.433 15.7113 95.8596 17.0011 96.7127 17.9761C97.5861 18.951 98.7337 19.4385 100.156 19.4385C101.577 19.4385 102.715 18.951 103.568 17.9761C104.441 17.0011 104.878 15.7113 104.878 14.1066C104.878 12.502 104.441 11.2122 103.568 10.2372C102.715 9.26224 101.577 8.77476 100.156 8.77476C98.7337 8.77476 97.5861 9.26224 96.7127 10.2372C95.8596 11.2122 95.433 12.502 95.433 14.1066Z" fill="black"/>
<path d="M110.901 0H113.856V21.7845H110.901V0Z" fill="black"/>
<path d="M117.771 6.42873H120.726V21.7845H117.771V6.42873ZM120.878 0V3.71708H117.588V0H120.878Z" fill="black"/>
<path d="M9.25889 6.96094L4.01562 24.5413" stroke="url(#paint0_linear_6614_22373)" stroke-width="3.03642" stroke-linecap="round"/>
<mask id="mask0_6614_22373" style="mask-type:alpha" maskUnits="userSpaceOnUse" x="6" y="0" width="40" height="24">
<mask id="path-3-inside-1_6614_22373" fill="white">
<path d="M24.3672 10.5046C24.3672 4.97056 28.8534 0.484375 34.3874 0.484375H35.0116C40.5456 0.484375 45.0318 4.97056 45.0318 10.5046V22.593H24.3672V10.5046Z"/>
</mask>
<path d="M21.3308 10.5046C21.3308 3.2936 27.1764 -2.55204 34.3874 -2.55204H35.0116C42.2226 -2.55204 48.0682 3.2936 48.0682 10.5046H41.9954C41.9954 6.64753 38.8687 3.52079 35.0116 3.52079H34.3874C30.5303 3.52079 27.4036 6.64753 27.4036 10.5046H21.3308ZM45.0318 22.593H24.3672H45.0318ZM21.3308 22.593V10.5046C21.3308 3.2936 27.1764 -2.55204 34.3874 -2.55204V3.52079C30.5303 3.52079 27.4036 6.64753 27.4036 10.5046V22.593H21.3308ZM35.0116 -2.55204C42.2226 -2.55204 48.0682 3.2936 48.0682 10.5046V22.593H41.9954V10.5046C41.9954 6.64753 38.8687 3.52079 35.0116 3.52079V-2.55204Z" fill="white" mask="url(#path-3-inside-1_6614_22373)"/>
<ellipse cx="43.4953" cy="22.5897" rx="1.54214" ry="1.33185" fill="#A66CFF"/>
<mask id="path-6-inside-2_6614_22373" fill="white">
<path d="M6.78906 10.5046C6.78906 4.97056 11.2753 0.484375 16.8092 0.484375H17.4335C22.9675 0.484375 27.4537 4.97056 27.4537 10.5046V22.593H6.78906V10.5046Z"/>
</mask>
<path d="M3.75264 10.5046C3.75264 3.2936 9.59828 -2.55204 16.8092 -2.55204H17.4335C24.6445 -2.55204 30.4901 3.2936 30.4901 10.5046H24.4173C24.4173 6.64753 21.2905 3.52079 17.4335 3.52079H16.8092C12.9522 3.52079 9.82548 6.64753 9.82548 10.5046H3.75264ZM27.4537 22.593H6.78906H27.4537ZM3.75264 22.593V10.5046C3.75264 3.2936 9.59828 -2.55204 16.8092 -2.55204V3.52079C12.9522 3.52079 9.82548 6.64753 9.82548 10.5046V22.593H3.75264ZM17.4335 -2.55204C24.6445 -2.55204 30.4901 3.2936 30.4901 10.5046V22.593H24.4173V10.5046C24.4173 6.64753 21.2905 3.52079 17.4335 3.52079V-2.55204Z" fill="#A66CFF" mask="url(#path-6-inside-2_6614_22373)"/>
<ellipse cx="25.9093" cy="22.5897" rx="1.54214" ry="1.33185" fill="#A66CFF"/>
</mask>
<g mask="url(#mask0_6614_22373)">
<path d="M7.86586 0.0859375L46.7277 0.485491V24.4587H21.8993L10.0803 6.33942H5.39844L7.86586 0.0859375Z" fill="black"/>
</g>
<circle cx="7.55647" cy="13.5565" r="6.03826" stroke="black" stroke-width="3.03642"/>
<defs>
<linearGradient id="paint0_linear_6614_22373" x1="4.16757" y1="24.6501" x2="7.87208" y2="9.6005" gradientUnits="userSpaceOnUse">
<stop/>
<stop offset="1" stop-opacity="0"/>
</linearGradient>
</defs>
</svg>
