<svg width="87" height="20" viewBox="0 0 87 20" fill="none" xmlns="http://www.w3.org/2000/svg">
<path d="M45.2009 15.5607H43.0898V13.6238C42.7997 14.3057 42.3426 14.828 41.7188 15.1907C41.1094 15.5535 40.3912 15.7348 39.5642 15.7348C38.3309 15.7348 37.3371 15.3286 36.5826 14.5161C35.8426 13.7036 35.4727 12.6444 35.4727 11.3386V4.59204H37.5837V10.9251C37.5837 11.7957 37.8158 12.4994 38.2801 13.0362C38.7589 13.573 39.3828 13.8414 40.1518 13.8414C41.0078 13.8414 41.7115 13.5295 42.2628 12.9056C42.8142 12.2817 43.0898 11.491 43.0898 10.5334V4.59204H45.2009V15.5607Z" fill="white"/>
<path d="M48.0147 0H50.1257V15.5607H48.0147V0Z" fill="white"/>
<path d="M56.295 1.15345V4.59204H59.5377V6.42016H56.295V11.9045C56.295 12.4848 56.44 12.9346 56.7302 13.2538C57.0349 13.573 57.4557 13.7326 57.9925 13.7326H59.5377V15.5607H57.8184C56.7012 15.5607 55.8162 15.2415 55.1633 14.6031C54.5104 13.9647 54.1839 13.087 54.1839 11.9698V6.42016H51.9423V4.59204H54.1839V1.15345H56.295Z" fill="white"/>
<path d="M61.3379 4.59204H63.449V15.5607H61.3379V4.59204ZM63.5578 0V2.65512H61.2074V0H63.5578Z" fill="white"/>
<path d="M66.2288 4.59204H68.3398V6.22429C68.6735 5.67295 69.1523 5.23769 69.7762 4.91849C70.4001 4.58479 71.0893 4.41794 71.8437 4.41794C72.9174 4.41794 73.8459 4.66459 74.6294 5.15789C75.4129 5.63668 76.0078 6.30409 76.414 7.16011C76.8348 8.01613 77.0452 8.98822 77.0452 10.0764C77.0452 11.1645 76.8275 12.1366 76.3923 12.9927C75.9715 13.8487 75.3621 14.5233 74.5641 15.0166C73.7662 15.4954 72.8231 15.7348 71.7349 15.7348C71.0095 15.7348 70.342 15.5825 69.7327 15.2778C69.1233 14.9586 68.659 14.5378 68.3398 14.0155V20.0004H66.2288V4.59204ZM68.1657 10.0764C68.1657 11.2226 68.4704 12.1439 69.0798 12.8403C69.7036 13.5367 70.5234 13.8849 71.539 13.8849C72.5547 13.8849 73.3672 13.5367 73.9765 12.8403C74.6004 12.1439 74.9124 11.2226 74.9124 10.0764C74.9124 8.93018 74.6004 8.00887 73.9765 7.31245C73.3672 6.61603 72.5547 6.26781 71.539 6.26781C70.5234 6.26781 69.7036 6.61603 69.0798 7.31245C68.4704 8.00887 68.1657 8.93018 68.1657 10.0764Z" fill="white"/>
<path d="M79.2145 0H81.3256V15.5607H79.2145V0Z" fill="white"/>
<path d="M84.1215 4.59204H86.2326V15.5607H84.1215V4.59204ZM86.3414 0V2.65512H83.9909V0H86.3414Z" fill="white"/>
<path d="M6.61639 4.97656L2.87109 17.5342" stroke="url(#paint0_linear_6614_22204)" stroke-width="2.16892" stroke-linecap="round"/>
<mask id="mask0_6614_22204" style="mask-type:alpha" maskUnits="userSpaceOnUse" x="4" y="0" width="29" height="18">
<mask id="path-3-inside-1_6614_22204" fill="white">
<path d="M17.4102 7.50902C17.4102 3.55607 20.6147 0.351562 24.5676 0.351562H25.0136C28.9665 0.351562 32.171 3.55606 32.171 7.50901V16.1438H17.4102V7.50902Z"/>
</mask>
<path d="M15.2412 7.50901C15.2412 2.3582 19.4168 -1.81736 24.5676 -1.81736H25.0136C30.1644 -1.81736 34.3399 2.3582 34.3399 7.50901L30.0021 7.50901C30.0021 4.75393 27.7687 2.52049 25.0136 2.52049H24.5676C21.8125 2.52049 19.5791 4.75393 19.5791 7.50901L15.2412 7.50901ZM32.171 16.1438H17.4102H32.171ZM15.2412 16.1438V7.50901C15.2412 2.3582 19.4168 -1.81736 24.5676 -1.81736L24.5676 2.52049C21.8125 2.52049 19.5791 4.75393 19.5791 7.50901V16.1438H15.2412ZM25.0136 -1.81736C30.1644 -1.81736 34.3399 2.3582 34.3399 7.50901V16.1438H30.0021V7.50901C30.0021 4.75393 27.7687 2.52049 25.0136 2.52049L25.0136 -1.81736Z" fill="white" mask="url(#path-3-inside-1_6614_22204)"/>
<ellipse cx="31.0664" cy="16.131" rx="1.10156" ry="0.951338" fill="#A66CFF"/>
<mask id="path-6-inside-2_6614_22204" fill="white">
<path d="M4.85156 7.50902C4.85156 3.55607 8.05606 0.351562 12.009 0.351562H12.455C16.4079 0.351562 19.6124 3.55606 19.6124 7.50901V16.1438H4.85156V7.50902Z"/>
</mask>
<path d="M2.68264 7.50901C2.68264 2.3582 6.8582 -1.81736 12.009 -1.81736H12.455C17.6058 -1.81736 21.7814 2.3582 21.7814 7.50901L17.4435 7.50901C17.4435 4.75393 15.2101 2.52049 12.455 2.52049H12.009C9.25393 2.52049 7.02049 4.75393 7.02049 7.50901L2.68264 7.50901ZM19.6124 16.1438H4.85156H19.6124ZM2.68264 16.1438V7.50901C2.68264 2.3582 6.8582 -1.81736 12.009 -1.81736L12.009 2.52049C9.25393 2.52049 7.02049 4.75393 7.02049 7.50901V16.1438H2.68264ZM12.455 -1.81736C17.6058 -1.81736 21.7814 2.3582 21.7814 7.50901V16.1438H17.4435V7.50901C17.4435 4.75393 15.2101 2.52049 12.455 2.52049L12.455 -1.81736Z" fill="#A66CFF" mask="url(#path-6-inside-2_6614_22204)"/>
<ellipse cx="18.5117" cy="16.131" rx="1.10156" ry="0.951338" fill="#A66CFF"/>
</mask>
<g mask="url(#mask0_6614_22204)">
<path d="M5.62577 0.0625L33.385 0.347901V17.472H15.6499L7.2076 4.52936H3.86328L5.62577 0.0625Z" fill="white"/>
</g>
<path d="M5.39746 5.36523C7.77952 5.36523 9.71087 7.2967 9.71094 9.67871C9.71094 12.0608 7.77957 13.9922 5.39746 13.9922C3.01543 13.9921 1.08398 12.0607 1.08398 9.67871C1.08406 7.29676 3.01548 5.36533 5.39746 5.36523Z" stroke="white" stroke-width="2.16892"/>
<defs>
<linearGradient id="paint0_linear_6614_22204" x1="2.97963" y1="17.6119" x2="5.62575" y2="6.86199" gradientUnits="userSpaceOnUse">
<stop stop-color="white"/>
<stop offset="1" stop-color="white" stop-opacity="0"/>
</linearGradient>
</defs>
</svg>
