<svg width="345" height="653" viewBox="0 0 345 653" fill="none" xmlns="http://www.w3.org/2000/svg">
<g clip-path="url(#clip0_6803_30248)">
<circle opacity="0.1" cx="172.5" cy="632.5" r="215.606" fill="#D9D9D9" fill-opacity="0.05" stroke="url(#paint0_linear_6803_30248)" stroke-width="1.78741"/>
<circle opacity="0.1" cx="216.5" cy="216.5" r="216.277" transform="matrix(1 0 0 -1 -44 416)" fill="#D9D9D9" fill-opacity="0.05" stroke="url(#paint1_linear_6803_30248)" stroke-width="0.446852"/>
<path d="M116.413 603.625L120.915 592.235H122.353L126.887 603.625H125.496L124.327 600.623H118.909L117.74 603.625H116.413ZM119.351 599.454H123.869L121.61 593.641L119.351 599.454ZM130.475 603.751C129.822 603.751 129.248 603.63 128.753 603.388C128.269 603.135 127.884 602.798 127.6 602.377C127.326 601.945 127.173 601.471 127.142 600.955H128.358C128.39 601.408 128.59 601.808 128.958 602.156C129.327 602.493 129.833 602.661 130.475 602.661C131.023 602.661 131.46 602.535 131.786 602.282C132.123 602.029 132.292 601.724 132.292 601.366C132.292 600.997 132.171 600.718 131.928 600.529C131.697 600.329 131.397 600.181 131.028 600.086L129.543 599.691C129.185 599.597 128.848 599.47 128.532 599.312C128.227 599.144 127.979 598.917 127.789 598.633C127.6 598.338 127.505 597.964 127.505 597.511C127.505 596.869 127.763 596.342 128.279 595.932C128.795 595.51 129.469 595.3 130.301 595.3C131.144 595.3 131.844 595.521 132.402 595.963C132.961 596.395 133.292 596.979 133.398 597.717H132.165C132.113 597.306 131.913 596.979 131.565 596.737C131.228 596.484 130.807 596.358 130.301 596.358C129.838 596.358 129.464 596.463 129.18 596.674C128.895 596.874 128.753 597.153 128.753 597.511C128.753 597.785 128.853 598.017 129.053 598.206C129.253 598.385 129.522 598.517 129.859 598.601L131.344 598.981C131.744 599.075 132.107 599.207 132.434 599.375C132.771 599.533 133.04 599.77 133.24 600.086C133.45 600.392 133.556 600.818 133.556 601.366C133.556 602.072 133.271 602.646 132.703 603.088C132.144 603.53 131.402 603.751 130.475 603.751ZM137.788 603.751C137.135 603.751 136.561 603.63 136.066 603.388C135.581 603.135 135.197 602.798 134.912 602.377C134.639 601.945 134.486 601.471 134.454 600.955H135.671C135.702 601.408 135.902 601.808 136.271 602.156C136.64 602.493 137.145 602.661 137.788 602.661C138.335 602.661 138.772 602.535 139.099 602.282C139.436 602.029 139.604 601.724 139.604 601.366C139.604 600.997 139.483 600.718 139.241 600.529C139.009 600.329 138.709 600.181 138.341 600.086L136.856 599.691C136.497 599.597 136.16 599.47 135.844 599.312C135.539 599.144 135.292 598.917 135.102 598.633C134.912 598.338 134.818 597.964 134.818 597.511C134.818 596.869 135.076 596.342 135.592 595.932C136.108 595.51 136.782 595.3 137.614 595.3C138.456 595.3 139.157 595.521 139.715 595.963C140.273 596.395 140.605 596.979 140.71 597.717H139.478C139.425 597.306 139.225 596.979 138.878 596.737C138.541 596.484 138.119 596.358 137.614 596.358C137.15 596.358 136.777 596.463 136.492 596.674C136.208 596.874 136.066 597.153 136.066 597.511C136.066 597.785 136.166 598.017 136.366 598.206C136.566 598.385 136.834 598.517 137.171 598.601L138.656 598.981C139.057 599.075 139.42 599.207 139.747 599.375C140.084 599.533 140.352 599.77 140.552 600.086C140.763 600.392 140.868 600.818 140.868 601.366C140.868 602.072 140.584 602.646 140.015 603.088C139.457 603.53 138.714 603.751 137.788 603.751ZM143.157 599.676C143.189 600.623 143.452 601.361 143.947 601.887C144.442 602.414 145.084 602.677 145.874 602.677C146.475 602.677 147.001 602.535 147.454 602.251C147.907 601.966 148.181 601.561 148.275 601.034H149.445C149.297 601.929 148.892 602.609 148.228 603.072C147.565 603.525 146.78 603.751 145.874 603.751C145.074 603.751 144.373 603.567 143.773 603.198C143.183 602.819 142.725 602.309 142.399 601.666C142.083 601.024 141.925 600.308 141.925 599.518C141.925 598.728 142.083 598.017 142.399 597.385C142.715 596.743 143.168 596.237 143.757 595.868C144.347 595.489 145.042 595.3 145.843 595.3C146.601 595.3 147.254 595.468 147.802 595.805C148.349 596.142 148.77 596.6 149.065 597.18C149.371 597.748 149.518 598.396 149.508 599.123C149.508 599.249 149.502 599.365 149.492 599.47C149.481 599.565 149.476 599.633 149.476 599.676H143.157ZM145.843 596.342C145.137 596.342 144.558 596.553 144.105 596.974C143.652 597.385 143.362 597.943 143.236 598.649H148.212C148.17 597.985 147.944 597.438 147.533 597.006C147.122 596.563 146.559 596.342 145.843 596.342ZM153.978 603.751C153.251 603.751 152.672 603.557 152.24 603.167C151.819 602.777 151.608 602.182 151.608 601.382V596.484H150.044V595.426H151.608V592.914H152.809V595.426H154.942V596.484H152.809V601.334C152.809 601.787 152.914 602.119 153.125 602.33C153.346 602.54 153.651 602.646 154.041 602.646C154.241 602.646 154.415 602.635 154.562 602.614C154.72 602.582 154.847 602.551 154.942 602.519V603.625C154.836 603.646 154.694 603.672 154.515 603.704C154.347 603.736 154.168 603.751 153.978 603.751ZM159.833 603.625V595.426H161.049V597.053C161.249 596.527 161.555 596.105 161.965 595.789C162.387 595.463 162.913 595.3 163.545 595.3C164.23 595.3 164.82 595.452 165.315 595.758C165.81 596.063 166.126 596.495 166.262 597.053C166.494 596.537 166.842 596.116 167.305 595.789C167.768 595.463 168.295 595.3 168.885 595.3C169.759 595.3 170.454 595.552 170.97 596.058C171.486 596.563 171.744 597.259 171.744 598.143V603.625H170.528V598.364C170.528 597.775 170.365 597.301 170.038 596.943C169.712 596.574 169.248 596.39 168.648 596.39C167.921 596.39 167.363 596.69 166.973 597.29C166.584 597.88 166.389 598.628 166.389 599.533V603.625H165.172V598.364C165.172 597.775 165.009 597.301 164.683 596.943C164.367 596.574 163.914 596.39 163.324 596.39C162.587 596.39 162.023 596.69 161.634 597.29C161.244 597.88 161.049 598.628 161.049 599.533V603.625H159.833ZM176.006 603.751C175.195 603.751 174.532 603.541 174.016 603.119C173.5 602.698 173.242 602.135 173.242 601.429C173.242 600.724 173.484 600.16 173.968 599.739C174.453 599.307 175.127 599.038 175.99 598.933L177.949 598.68C178.486 598.596 178.755 598.343 178.755 597.922C178.755 597.469 178.576 597.095 178.218 596.8C177.86 596.506 177.354 596.358 176.701 596.358C176.112 596.358 175.627 596.5 175.248 596.785C174.869 597.058 174.653 597.464 174.6 598.001H173.352C173.436 597.18 173.779 596.527 174.379 596.042C174.979 595.547 175.753 595.3 176.701 595.3C177.354 595.3 177.923 595.421 178.407 595.663C178.902 595.895 179.287 596.216 179.561 596.627C179.835 597.037 179.971 597.506 179.971 598.033V601.998C179.971 602.261 180.024 602.435 180.129 602.519C180.245 602.593 180.387 602.63 180.556 602.63C180.64 602.63 180.724 602.619 180.809 602.598V603.625C180.735 603.636 180.651 603.651 180.556 603.672C180.472 603.693 180.377 603.704 180.272 603.704C179.85 603.704 179.503 603.588 179.229 603.356C178.966 603.125 178.829 602.746 178.818 602.219C178.597 602.682 178.228 603.056 177.712 603.341C177.196 603.614 176.628 603.751 176.006 603.751ZM176.148 602.709C176.98 602.709 177.623 602.461 178.076 601.966C178.539 601.461 178.771 600.776 178.771 599.913V599.502L176.148 599.913C175.043 600.092 174.49 600.592 174.49 601.413C174.49 601.814 174.642 602.129 174.948 602.361C175.264 602.593 175.664 602.709 176.148 602.709ZM182.141 603.625V595.426H183.357V597.053C183.663 596.506 184.063 596.079 184.558 595.774C185.063 595.458 185.622 595.3 186.232 595.3C186.801 595.3 187.301 595.421 187.733 595.663C188.175 595.895 188.518 596.226 188.76 596.658C189.013 597.09 189.139 597.596 189.139 598.175V603.625H187.923V598.364C187.923 597.796 187.749 597.327 187.401 596.958C187.064 596.59 186.596 596.405 185.995 596.405C185.206 596.405 184.568 596.732 184.084 597.385C183.599 598.027 183.357 598.907 183.357 600.023V603.625H182.141ZM193.408 603.751C192.597 603.751 191.934 603.541 191.418 603.119C190.902 602.698 190.644 602.135 190.644 601.429C190.644 600.724 190.886 600.16 191.37 599.739C191.855 599.307 192.529 599.038 193.392 598.933L195.351 598.68C195.889 598.596 196.157 598.343 196.157 597.922C196.157 597.469 195.978 597.095 195.62 596.8C195.262 596.506 194.756 596.358 194.103 596.358C193.514 596.358 193.029 596.5 192.65 596.785C192.271 597.058 192.055 597.464 192.002 598.001H190.754C190.839 597.18 191.181 596.527 191.781 596.042C192.381 595.547 193.156 595.3 194.103 595.3C194.756 595.3 195.325 595.421 195.81 595.663C196.305 595.895 196.689 596.216 196.963 596.627C197.237 597.037 197.373 597.506 197.373 598.033V601.998C197.373 602.261 197.426 602.435 197.531 602.519C197.647 602.593 197.79 602.63 197.958 602.63C198.042 602.63 198.127 602.619 198.211 602.598V603.625C198.137 603.636 198.053 603.651 197.958 603.672C197.874 603.693 197.779 603.704 197.674 603.704C197.252 603.704 196.905 603.588 196.631 603.356C196.368 603.125 196.231 602.746 196.22 602.219C195.999 602.682 195.63 603.056 195.114 603.341C194.598 603.614 194.03 603.751 193.408 603.751ZM193.55 602.709C194.382 602.709 195.025 602.461 195.478 601.966C195.941 601.461 196.173 600.776 196.173 599.913V599.502L193.55 599.913C192.445 600.092 191.892 600.592 191.892 601.413C191.892 601.814 192.044 602.129 192.35 602.361C192.666 602.593 193.066 602.709 193.55 602.709ZM203.05 606.706C201.934 606.706 201.049 606.469 200.396 605.995C199.753 605.531 199.385 604.852 199.29 603.957H200.522C200.585 604.483 200.828 604.894 201.249 605.189C201.681 605.494 202.281 605.647 203.05 605.647C203.861 605.647 204.482 605.442 204.914 605.031C205.346 604.62 205.562 604.03 205.562 603.262V602.077C205.372 602.435 205.03 602.725 204.535 602.946C204.05 603.156 203.503 603.262 202.892 603.262C202.07 603.262 201.37 603.088 200.791 602.74C200.212 602.393 199.769 601.919 199.464 601.319C199.169 600.718 199.022 600.044 199.022 599.296C199.022 598.538 199.169 597.859 199.464 597.259C199.769 596.658 200.206 596.184 200.775 595.837C201.354 595.479 202.049 595.3 202.86 595.3C203.419 595.3 203.945 595.421 204.44 595.663C204.935 595.905 205.309 596.216 205.562 596.595V595.426H206.778V603.167C206.778 604.304 206.452 605.178 205.799 605.789C205.156 606.4 204.24 606.706 203.05 606.706ZM202.971 602.172C203.782 602.172 204.43 601.914 204.914 601.398C205.409 600.871 205.657 600.171 205.657 599.296C205.657 598.422 205.409 597.722 204.914 597.195C204.43 596.658 203.782 596.39 202.971 596.39C202.16 596.39 201.507 596.658 201.012 597.195C200.528 597.722 200.285 598.422 200.285 599.296C200.285 600.171 200.528 600.871 201.012 601.398C201.507 601.914 202.16 602.172 202.971 602.172ZM209.618 599.676C209.65 600.623 209.913 601.361 210.408 601.887C210.903 602.414 211.545 602.677 212.335 602.677C212.936 602.677 213.462 602.535 213.915 602.251C214.368 601.966 214.642 601.561 214.737 601.034H215.906C215.758 601.929 215.353 602.609 214.689 603.072C214.026 603.525 213.241 603.751 212.335 603.751C211.535 603.751 210.835 603.567 210.234 603.198C209.644 602.819 209.186 602.309 208.86 601.666C208.544 601.024 208.386 600.308 208.386 599.518C208.386 598.728 208.544 598.017 208.86 597.385C209.176 596.743 209.629 596.237 210.218 595.868C210.808 595.489 211.503 595.3 212.304 595.3C213.062 595.3 213.715 595.468 214.263 595.805C214.81 596.142 215.232 596.6 215.526 597.18C215.832 597.748 215.979 598.396 215.969 599.123C215.969 599.249 215.964 599.365 215.953 599.47C215.942 599.565 215.937 599.633 215.937 599.676H209.618ZM212.304 596.342C211.598 596.342 211.019 596.553 210.566 596.974C210.113 597.385 209.824 597.943 209.697 598.649H214.673C214.631 597.985 214.405 597.438 213.994 597.006C213.583 596.563 213.02 596.342 212.304 596.342ZM222.111 596.516C222.027 596.495 221.911 596.474 221.763 596.453C221.626 596.421 221.458 596.405 221.258 596.405C220.816 596.405 220.405 596.558 220.026 596.864C219.657 597.159 219.362 597.606 219.141 598.206C218.92 598.807 218.809 599.565 218.809 600.481V603.625H217.593V595.426H218.809V597.116C218.946 596.769 219.146 596.458 219.41 596.184C219.683 595.91 219.994 595.695 220.342 595.537C220.689 595.379 221.042 595.3 221.4 595.3C221.59 595.3 221.737 595.305 221.842 595.315C221.948 595.326 222.037 595.342 222.111 595.363V596.516ZM225.785 603.751C225.132 603.751 224.558 603.63 224.063 603.388C223.579 603.135 223.194 602.798 222.91 602.377C222.636 601.945 222.484 601.471 222.452 600.955H223.668C223.7 601.408 223.9 601.808 224.269 602.156C224.637 602.493 225.143 602.661 225.785 602.661C226.333 602.661 226.77 602.535 227.096 602.282C227.433 602.029 227.602 601.724 227.602 601.366C227.602 600.997 227.481 600.718 227.239 600.529C227.007 600.329 226.707 600.181 226.338 600.086L224.853 599.691C224.495 599.597 224.158 599.47 223.842 599.312C223.537 599.144 223.289 598.917 223.1 598.633C222.91 598.338 222.815 597.964 222.815 597.511C222.815 596.869 223.073 596.342 223.589 595.932C224.105 595.51 224.779 595.3 225.611 595.3C226.454 595.3 227.154 595.521 227.713 595.963C228.271 596.395 228.603 596.979 228.708 597.717H227.476C227.423 597.306 227.223 596.979 226.875 596.737C226.538 596.484 226.117 596.358 225.611 596.358C225.148 596.358 224.774 596.463 224.49 596.674C224.205 596.874 224.063 597.153 224.063 597.511C224.063 597.785 224.163 598.017 224.363 598.206C224.564 598.385 224.832 598.517 225.169 598.601L226.654 598.981C227.054 599.075 227.418 599.207 227.744 599.375C228.081 599.533 228.35 599.77 228.55 600.086C228.76 600.392 228.866 600.818 228.866 601.366C228.866 602.072 228.581 602.646 228.013 603.088C227.455 603.53 226.712 603.751 225.785 603.751Z" fill="#6E6E6E"/>
<rect x="147.598" y="452.664" width="0.959478" height="67.1635" rx="0.479739" fill="url(#paint2_linear_6803_30248)"/>
<rect x="147.598" y="508.312" width="0.959478" height="11.5137" rx="0.479739" fill="white"/>
<rect x="154.312" y="452.664" width="0.959478" height="67.1635" rx="0.479739" fill="url(#paint3_linear_6803_30248)"/>
<rect x="154.312" y="508.312" width="0.959478" height="11.5137" rx="0.479739" fill="white"/>
<rect x="161.031" y="452.664" width="0.959478" height="67.1635" rx="0.479739" fill="url(#paint4_linear_6803_30248)"/>
<rect x="161.031" y="508.312" width="0.959478" height="11.5137" rx="0.479739" fill="white"/>
<rect x="167.746" y="452.664" width="0.959478" height="67.1635" rx="0.479739" fill="url(#paint5_linear_6803_30248)"/>
<rect x="167.746" y="508.312" width="0.959478" height="11.5137" rx="0.479739" fill="white"/>
<rect x="174.465" y="452.664" width="0.959478" height="67.1635" rx="0.479739" fill="url(#paint6_linear_6803_30248)"/>
<rect x="174.465" y="508.312" width="0.959478" height="11.5137" rx="0.479739" fill="white"/>
<rect x="181.18" y="452.664" width="0.959478" height="67.1635" rx="0.479739" fill="url(#paint7_linear_6803_30248)"/>
<rect x="181.18" y="508.312" width="0.959478" height="11.5137" rx="0.479739" fill="white"/>
<rect x="187.895" y="452.664" width="0.959478" height="67.1635" rx="0.479739" fill="url(#paint8_linear_6803_30248)"/>
<rect x="187.895" y="508.312" width="0.959478" height="11.5137" rx="0.479739" fill="white"/>
<rect x="194.613" y="452.664" width="0.959478" height="67.1635" rx="0.479739" fill="url(#paint9_linear_6803_30248)"/>
<rect x="194.613" y="508.312" width="0.959478" height="11.5137" rx="0.479739" fill="white"/>
<g filter="url(#filter0_din_6803_30248)">
<path d="M93.1364 523.888C95.2957 521.729 98.2242 520.516 101.278 520.516H242.922C245.976 520.516 248.905 521.729 251.064 523.888L263.629 536.453C265.788 538.612 267.001 541.541 267.001 544.594V573.719C267.001 580.078 261.846 585.233 255.487 585.233H242.518H96.5087H88.7129C82.3541 585.233 77.1992 580.078 77.1992 573.719V544.594C77.1992 541.541 78.4123 538.612 80.5715 536.453L93.1364 523.888Z" fill="url(#paint10_linear_6803_30248)"/>
</g>
<g filter="url(#filter1_din_6803_30248)">
<path d="M225.839 320C228.482 320 231.017 321.05 232.886 322.919L235.293 325.326C236.266 326.299 236.266 327.877 235.293 328.85L230.484 333.659C229.511 334.632 229.511 336.21 230.484 337.183L232.246 338.944C233.219 339.917 234.797 339.917 235.77 338.944L240.578 334.135C241.551 333.162 243.129 333.162 244.102 334.135L246.357 336.391C248.226 338.26 249.276 340.794 249.276 343.438V451.038C249.276 453.681 248.226 456.217 246.357 458.086L244.024 460.418C243.051 461.391 241.474 461.391 240.501 460.418L235.77 455.687C234.797 454.714 233.219 454.714 232.246 455.687L230.484 457.448C229.511 458.421 229.511 459.999 230.484 460.972L235.215 465.703C236.188 466.676 236.188 468.254 235.215 469.227L232.886 471.557C231.017 473.426 228.482 474.477 225.839 474.477H118.238C115.595 474.477 113.06 473.426 111.191 471.557L108.936 469.302C107.963 468.329 107.963 466.751 108.936 465.778L113.743 460.972C114.716 459.999 114.716 458.421 113.743 457.448L111.98 455.686C111.007 454.713 109.43 454.713 108.457 455.686L103.65 460.493C102.677 461.465 101.1 461.465 100.127 460.493L97.7197 458.086C95.8507 456.217 94.8008 453.681 94.8008 451.038V343.438C94.8009 340.794 95.8508 338.26 97.7197 336.391L100.05 334.061C101.023 333.088 102.6 333.088 103.573 334.061L108.457 338.944C109.43 339.917 111.008 339.917 111.981 338.945L113.743 337.183C114.716 336.21 114.716 334.632 113.743 333.659L108.859 328.775C107.886 327.802 107.886 326.224 108.859 325.251L111.191 322.919C113.06 321.05 115.595 320 118.238 320H225.839ZM140.893 351.148C132.636 351.149 125.943 357.841 125.943 366.098V428.387C125.944 436.643 132.637 443.336 140.893 443.336H203.182C211.438 443.336 218.131 436.643 218.131 428.387V366.098C218.131 357.841 211.438 351.148 203.182 351.148H140.893Z" fill="url(#paint11_linear_6803_30248)"/>
</g>
<rect x="125.941" y="351.148" width="92.1872" height="92.1872" rx="14.9493" fill="#1D1D1D"/>
<g filter="url(#filter2_din_6803_30248)">
<rect x="140.895" y="366.094" width="62.2887" height="62.2887" rx="2.49155" fill="url(#paint12_linear_6803_30248)"/>
</g>
<g filter="url(#filter3_di_6803_30248)">
<path d="M161.897 392.992L157.766 406.843" stroke="url(#paint13_linear_6803_30248)" stroke-width="2.3923" stroke-linecap="round"/>
<mask id="mask0_6803_30248" style="mask-type:alpha" maskUnits="userSpaceOnUse" x="159" y="387" width="32" height="20">
<mask id="path-26-inside-1_6803_30248" fill="white">
<path d="M173.797 395.793C173.797 391.433 177.331 387.898 181.691 387.898H182.183C186.543 387.898 190.078 391.433 190.078 395.793V405.317H173.797V395.793Z"/>
</mask>
<path d="M171.405 395.793C171.405 390.112 176.01 385.506 181.691 385.506H182.183C187.865 385.506 192.47 390.112 192.47 395.793L187.686 395.793C187.686 392.754 185.222 390.291 182.183 390.291H181.691C178.653 390.291 176.189 392.754 176.189 395.793L171.405 395.793ZM190.078 405.317H173.797H190.078ZM171.405 405.317V395.793C171.405 390.112 176.01 385.506 181.691 385.506L181.691 390.291C178.653 390.291 176.189 392.754 176.189 395.793V405.317H171.405ZM182.183 385.506C187.865 385.506 192.47 390.112 192.47 395.793V405.317H187.686V395.793C187.686 392.754 185.222 390.291 182.183 390.291L182.183 385.506Z" fill="white" mask="url(#path-26-inside-1_6803_30248)"/>
<ellipse cx="188.863" cy="405.307" rx="1.215" ry="1.04932" fill="#A66CFF"/>
<mask id="path-29-inside-2_6803_30248" fill="white">
<path d="M159.949 395.793C159.949 391.433 163.484 387.898 167.844 387.898H168.336C172.696 387.898 176.23 391.433 176.23 395.793V405.317H159.949V395.793Z"/>
</mask>
<path d="M157.557 395.793C157.557 390.112 162.163 385.506 167.844 385.506H168.336C174.017 385.506 178.623 390.112 178.623 395.793L173.838 395.793C173.838 392.754 171.374 390.291 168.336 390.291H167.844C164.805 390.291 162.342 392.754 162.342 395.793L157.557 395.793ZM176.23 405.317H159.949H176.23ZM157.557 405.317V395.793C157.557 390.112 162.163 385.506 167.844 385.506L167.844 390.291C164.805 390.291 162.342 392.754 162.342 395.793V405.317H157.557ZM168.336 385.506C174.017 385.506 178.623 390.112 178.623 395.793V405.317H173.838V395.793C173.838 392.754 171.374 390.291 168.336 390.291L168.336 385.506Z" fill="#A66CFF" mask="url(#path-29-inside-2_6803_30248)"/>
<ellipse cx="175.012" cy="405.307" rx="1.215" ry="1.04932" fill="#A66CFF"/>
</mask>
<g mask="url(#mask0_6803_30248)">
<path d="M160.895 387.266L191.351 387.592V407.198L187.614 406.264V396.609C187.614 396.609 187.925 390.38 182.008 390.38C175.779 390.38 176.227 396.609 176.227 396.609V407.198H173.737V395.024C172.902 390.498 169.984 389.965 168.255 389.852C167.024 389.771 166.228 389.86 165.157 390.498C164.266 391.03 163.204 392.115 162.894 392.761C162.15 394.314 158.961 392.38 158.961 392.38L160.895 387.266Z" fill="white"/>
</g>
<circle cx="160.555" cy="398.188" r="4.75737" stroke="white" stroke-width="2.3923"/>
</g>
<g clip-path="url(#clip1_6803_30248)">
<g clip-path="url(#clip2_6803_30248)">
<path d="M98.7266 542.004C98.7266 539.681 100.176 538.516 101.964 538.516C103.75 538.516 105.2 539.681 105.2 542.004C105.2 544.332 103.75 545.492 101.964 545.492C100.176 545.492 98.7266 544.344 98.7266 542.004ZM101.964 544.607C102.845 544.607 103.559 543.685 103.559 542.004C103.559 540.338 102.845 539.4 101.964 539.4C101.082 539.4 100.366 540.338 100.366 542.004C100.366 543.675 101.082 544.607 101.964 544.607Z" fill="white"/>
<path d="M92.4492 538.773V545.24H93.5743V540.896L97.0433 545.24H97.9888V538.773H96.9191V542.338L94.0366 538.773H92.4492Z" fill="white"/>
<path d="M128.646 538.773L126.023 545.24H127.156L127.878 543.461H130.26L130.992 545.24H132.83L130.18 538.773H128.646ZM128.245 542.533L129.064 540.506L129.886 542.533H128.245Z" fill="white"/>
<path d="M118.097 543.01C118.066 543.602 118.02 544.189 117.365 544.409C117.073 544.504 116.536 544.502 116.232 544.382C116.087 544.323 115.998 544.273 115.885 544.16C115.667 543.944 115.579 543.486 115.572 543.188V538.773H113.887V543.01C113.902 543.595 113.998 544.183 114.378 544.655C115.029 545.465 116.227 545.58 117.195 545.459C117.797 545.385 118.324 545.186 118.748 544.743C119.04 544.437 119.222 543.956 119.274 543.541C119.306 543.301 119.31 543.261 119.31 543.01V538.773H118.097L118.097 543.01Z" fill="white"/>
<path d="M122.076 539.685C122.819 539.685 123.556 539.559 123.879 540.33C124.005 540.636 124.014 541.327 123.716 541.622C123.363 541.971 122.821 542.006 122.353 542.046L124.083 545.24H125.858L124.288 542.391C125.224 542.063 125.663 541.534 125.617 540.523C125.567 539.432 124.645 538.773 123.592 538.773H120.398V545.24H122.076V539.685Z" fill="white"/>
<path d="M111.153 545.24L108.656 538.773H107.344L104.918 545.24H106.097L107.728 540.869L109.386 545.24H111.153Z" fill="white"/>
<path d="M111.233 538.773H109.86L109.441 539.879L110.037 541.427L110.253 540.869L111.867 545.24H113.732L111.233 538.773Z" fill="white"/>
<path d="M108.174 542.992L107.336 545.248H108.407L108.719 544.398L108.174 542.992Z" fill="white"/>
</g>
</g>
<g clip-path="url(#clip3_6803_30248)">
<g clip-path="url(#clip4_6803_30248)">
<path d="M156.601 544.971V539.125H157.933V544.971H156.601ZM182.487 542.787C182.487 541.374 181.39 540.497 180.108 540.497C178.816 540.497 177.728 541.382 177.728 542.787C177.728 544.2 178.825 545.085 180.108 545.085C181.39 545.085 182.487 544.192 182.487 542.787ZM181.171 542.787C181.171 543.526 180.676 543.94 180.099 543.94C179.523 543.94 179.028 543.526 179.028 542.787C179.028 542.04 179.523 541.642 180.099 541.642C180.676 541.642 181.171 542.04 181.171 542.787ZM156.065 543.29C156.065 542.633 155.724 542.129 155.115 541.902C155.691 541.585 155.894 541.171 155.894 540.684C155.894 539.831 155.277 539.125 153.897 539.133H151.25V544.979H154.011C155.399 544.971 156.065 544.281 156.065 543.29ZM154.482 540.855C154.482 541.252 154.23 541.48 153.743 541.48H152.638V540.262H153.743C154.189 540.262 154.482 540.457 154.482 540.855ZM154.603 543.201C154.603 543.583 154.335 543.834 153.84 543.834H152.638V542.568H153.84C154.319 542.568 154.603 542.811 154.603 543.201ZM167.66 541.691C167.295 540.928 166.613 540.505 165.581 540.505C164.363 540.505 163.275 541.269 163.275 542.787C163.275 544.265 164.233 545.085 165.565 545.085C166.499 545.085 167.286 544.711 167.66 543.908L166.588 543.355C166.393 543.713 166.093 543.94 165.614 543.94C164.997 543.94 164.599 543.502 164.599 542.787C164.599 542.072 165.054 541.642 165.606 541.642C166.036 541.642 166.361 541.837 166.564 542.259L167.66 541.691ZM187.285 541.691C186.92 540.928 186.238 540.505 185.207 540.505C183.989 540.505 182.901 541.269 182.901 542.787C182.901 544.265 183.859 545.085 185.19 545.085C186.124 545.085 186.912 544.711 187.285 543.908L186.214 543.355C186.019 543.713 185.718 543.94 185.239 543.94C184.622 543.94 184.224 543.502 184.224 542.787C184.224 542.072 184.679 541.642 185.231 541.642C185.661 541.642 185.986 541.837 186.189 542.259L187.285 541.691ZM176.121 544.971L175.008 543.006H174.156V544.971H172.784V539.125H175.26C176.6 539.125 177.534 539.766 177.534 541.025C177.534 541.829 177.136 542.397 176.429 542.746L177.712 544.971H176.121ZM174.164 541.845H175.187C175.82 541.845 176.129 541.488 176.129 541.066C176.129 540.562 175.837 540.286 175.187 540.286H174.164V541.845ZM163.056 544.898V543.981C162.999 543.997 162.918 544.013 162.829 544.013C162.658 544.013 162.569 543.924 162.569 543.769V542.251C162.569 541.114 161.806 540.513 160.547 540.513C159.727 540.513 159.029 540.814 158.59 541.204L159.329 542.032C159.621 541.772 160.011 541.61 160.393 541.61C160.977 541.61 161.254 541.902 161.254 542.381V542.519C160.977 542.454 160.628 542.389 160.206 542.389C159.142 542.389 158.452 542.901 158.452 543.745C158.452 544.614 159.029 545.069 159.922 545.069C160.531 545.069 161.075 544.817 161.359 544.492C161.53 544.922 161.903 545.036 162.268 545.036C162.52 545.044 162.812 545.004 163.056 544.898ZM161.262 543.526C161.262 543.924 160.88 544.184 160.442 544.184C160.027 544.184 159.824 543.972 159.824 543.68C159.824 543.372 160.052 543.144 160.515 543.144C160.799 543.144 161.051 543.193 161.262 543.242V543.526ZM192.044 544.971L190.476 542.251L191.946 540.652H190.468L188.917 542.373V539.133H187.594V544.979H188.917V543.924L189.551 543.25L190.541 544.979H192.044V544.971ZM172.434 544.971L170.867 542.251L172.337 540.652H170.843L169.308 542.373V539.133H167.985V544.979H169.308V543.924L169.942 543.25L170.932 544.979H172.434V544.971Z" fill="white"/>
</g>
</g>
<g clip-path="url(#clip5_6803_30248)">
<g clip-path="url(#clip6_6803_30248)">
<path d="M217.73 543.976V540.052H219.703C220.469 540.052 220.935 539.82 221.047 539.758V540.96H218.836V541.899H220.909V542.817H218.868V543.976H217.73Z" fill="white"/>
<path d="M227.507 544.06C226.694 544.06 226.149 543.9 225.84 543.57C225.607 543.32 225.507 542.977 225.536 542.521H226.642C226.626 542.752 226.665 542.91 226.765 543.018C226.89 543.156 227.109 543.212 227.507 543.212C228.015 543.212 228.232 543.099 228.232 542.832C228.232 542.525 227.764 542.452 227.351 542.387C227.278 542.375 227.206 542.364 227.139 542.352C226.313 542.205 225.568 542.003 225.568 541.161C225.568 540.389 226.257 539.945 227.45 539.945C228.771 539.945 229.191 540.565 229.308 540.84L228.671 541.742C228.671 541.721 228.664 541.701 228.66 541.681C228.522 541.039 227.816 540.8 227.402 540.8C226.963 540.8 226.74 540.902 226.74 541.105C226.74 541.35 227.035 541.407 227.444 541.486L227.689 541.534C228.062 541.61 228.41 541.711 228.583 541.764C228.611 541.772 228.721 541.814 228.745 541.827C229.222 542.033 229.434 542.332 229.434 542.79C229.432 543.895 228.226 544.06 227.507 544.06Z" fill="white"/>
<path d="M236.978 543.968L235.224 541.58V541.633C235.237 541.852 235.244 542.071 235.244 542.321V543.968H234.172V540.045H235.298L237.051 542.404V542.353C237.039 542.101 237.032 541.863 237.032 541.644V540.039H238.104V543.963L236.978 543.968Z" fill="white"/>
<path d="M232.782 543.963L232.549 543.385H230.813L230.588 543.963H229.465L231.074 540.039H232.334L233.948 543.963H232.782ZM231.149 542.534H232.219L231.674 541.162L231.149 542.534Z" fill="white"/>
<path d="M241.589 543.963L241.356 543.385H239.62L239.4 543.963H238.266L239.881 540.039H241.141L242.755 543.963H241.589ZM239.947 542.534H241.024L240.479 541.162L239.947 542.534Z" fill="white"/>
<path d="M250.142 543.963L249.91 543.385H248.173L247.94 543.963H246.818L248.426 540.039H249.694L251.308 543.963H250.142ZM248.494 542.534H249.577L249.031 541.157L248.494 542.534ZM245.611 543.963L244.87 542.597H244.016V543.963H242.915V541.14C242.915 540.521 242.671 540.134 242.602 540.039H244.76C245.979 540.039 246.573 540.447 246.573 541.286C246.573 542.34 245.301 542.552 245.047 542.584H245.04V542.614H246.031L246.775 543.963H245.611ZM244.016 541.812H244.629C245.084 541.812 245.332 541.703 245.395 541.472C245.406 541.43 245.411 541.387 245.411 541.343C245.412 541.271 245.393 541.199 245.356 541.137C245.319 541.075 245.265 541.024 245.201 540.99C245.037 540.91 244.855 540.873 244.673 540.882H244.016V541.812Z" fill="white"/>
<path d="M224.349 543.963L224.11 543.385H222.38L222.154 543.963H221.02L222.634 540.039H223.901L225.509 543.963H224.349ZM222.707 542.534H223.777L223.231 541.162L222.707 542.534Z" fill="white"/>
<path d="M214.977 545.209C213.183 543.92 212.965 541.204 214.797 539.859C214.163 539.888 213.755 540.085 213.65 540.146C213.081 541.028 212.95 542.201 213.294 543.208C213.48 543.755 213.786 544.253 214.188 544.667C214.591 545.081 215.08 545.4 215.621 545.601C215.394 545.493 215.178 545.361 214.977 545.209Z" fill="white"/>
<path d="M214.234 543.478C214.11 543.036 214.082 542.426 214.26 541.906H213.828C213.73 542.756 214.005 543.722 214.556 544.283C214.413 544.031 214.305 543.76 214.234 543.478Z" fill="white"/>
<path d="M213.549 537.396C210.979 539.267 210.664 543.145 212.89 545.394C214.68 547.316 217.881 547.552 219.925 545.917C216.897 548.073 212.465 546.287 212.005 542.537C211.63 539.822 213.808 537.25 216.588 537.338L217.291 536.353C215.958 536.224 214.624 536.595 213.549 537.396Z" fill="white"/>
<path d="M216.453 537.531C214.275 537.55 212.409 539.36 212.289 541.524C212.009 544.395 214.842 546.874 217.649 546.322C214.82 546.716 212.099 543.913 212.95 541.105C213.304 539.797 214.418 538.732 215.757 538.514L216.453 537.531Z" fill="white"/>
<path d="M221.428 545C218.223 549.49 211.152 547.31 211.112 541.765C211.112 540.024 211.961 538.32 213.368 537.291V536.383C210.202 538.435 209.593 542.991 212.192 545.744C214.8 548.554 219.245 548.193 221.476 545.115L221.428 545Z" fill="white"/>
</g>
</g>
<path d="M97.2978 565.381C97.2978 565.091 97.2624 564.986 96.8731 564.94L96.5192 564.893V564.789C96.9203 564.789 97.2624 564.801 97.6753 564.801C98.0764 564.801 98.4184 564.789 98.8195 564.789V564.893L98.4657 564.94C98.0882 564.998 98.041 565.102 98.041 565.381V568.711C98.041 569.001 98.0764 569.105 98.4657 569.152L98.8195 569.198V569.302C98.4184 569.302 98.0764 569.291 97.6753 569.291C97.2742 569.291 96.9321 569.302 96.5192 569.302V569.198L96.8731 569.152C97.2506 569.094 97.2978 568.989 97.2978 568.711V567.063H95.1506V568.711C95.1506 569.001 95.1861 569.105 95.5754 569.152L95.9174 569.198V569.302C95.5163 569.302 95.1743 569.291 94.7732 569.291C94.3721 569.291 94.03 569.302 93.6289 569.302V569.198L93.9828 569.152C94.3603 569.094 94.4075 568.989 94.4075 568.711V565.381C94.4075 565.091 94.3721 564.986 93.9828 564.94L93.6289 564.893V564.789C94.03 564.789 94.3721 564.801 94.7732 564.801C95.1743 564.801 95.5163 564.789 95.9174 564.789V564.893L95.5754 564.94C95.1979 564.998 95.1506 565.102 95.1506 565.381V566.924H97.2978V565.381Z" fill="white"/>
<path d="M102.695 569.41C101.433 569.41 100.395 568.482 100.395 567.054C100.406 565.616 101.433 564.688 102.695 564.688C103.957 564.688 104.984 565.616 104.984 567.054C104.984 568.482 103.957 569.41 102.695 569.41ZM102.695 569.317C103.721 569.317 104.134 568.296 104.134 567.054C104.134 565.813 103.733 564.792 102.695 564.792C101.633 564.792 101.244 565.813 101.244 567.054C101.244 568.296 101.645 569.317 102.695 569.317Z" fill="white"/>
<path d="M107.119 565.597C106.954 565.11 106.824 564.959 106.517 564.924L106.27 564.889V564.785C106.659 564.796 107.048 564.796 107.437 564.796C107.827 564.796 108.204 564.796 108.605 564.785V564.889L108.216 564.936C107.838 564.982 107.791 565.202 107.874 565.458L108.782 568.405L109.844 564.75H110.198L111.425 568.405L112.18 565.899C112.404 565.168 112.25 565.017 111.814 564.936L111.519 564.878V564.785C111.826 564.796 112.121 564.796 112.427 564.796C112.722 564.796 113.029 564.796 113.324 564.785V564.889L113.088 564.947C112.687 565.028 112.534 565.249 112.321 565.957L111.543 568.509L111.318 569.345H110.976L109.726 565.701L108.912 568.486L108.688 569.333H108.346L107.119 565.597Z" fill="white"/>
<path d="M117.697 569.298C117.32 569.298 116.989 569.31 116.612 569.31V569.205L117.001 569.159C117.367 569.113 117.355 568.927 117.237 568.637L116.93 567.848H115.149L115.007 568.208C114.748 568.869 114.748 569.066 115.208 569.147L115.55 569.205V569.31C115.255 569.31 115.031 569.298 114.736 569.298C114.441 569.298 114.17 569.31 113.875 569.31V569.205L114.099 569.147C114.453 569.055 114.595 568.869 114.866 568.15L115.904 565.516L116.175 564.75H116.529L118.004 568.486C118.204 568.997 118.287 569.136 118.57 569.171L118.806 569.205V569.31C118.393 569.31 118.075 569.298 117.697 569.298ZM115.196 567.697H116.871L116.034 565.527L115.196 567.697Z" fill="white"/>
<path d="M123.888 569.314C123.463 569.314 123.416 569.221 123.263 568.931L122.342 567.168C122.283 567.179 122.236 567.179 122.189 567.179C122 567.179 121.823 567.168 121.682 567.168V568.722C121.682 569.012 121.717 569.117 122.107 569.163L122.46 569.21V569.314C122.059 569.314 121.717 569.302 121.316 569.302C120.915 569.302 120.573 569.314 120.16 569.314V569.21L120.514 569.163C120.892 569.105 120.939 569.001 120.939 568.722V565.381C120.939 565.091 120.903 564.986 120.514 564.94L120.16 564.893V564.789H122.154C123.357 564.789 124.124 565.114 124.124 565.973C124.124 566.622 123.546 566.947 123.003 567.052C123.086 567.156 123.192 567.295 123.31 567.504L123.923 568.595C124.136 568.978 124.218 569.094 124.525 569.163L124.773 569.221V569.326H123.888V569.314ZM121.682 567.04C121.87 567.052 122.024 567.052 122.201 567.052C122.944 567.052 123.322 566.75 123.322 565.984C123.322 565.149 122.932 564.893 122.154 564.893H121.682V567.04Z" fill="white"/>
<path d="M126.402 569.198L126.756 569.152C127.134 569.094 127.181 568.989 127.181 568.711V565.381C127.181 565.091 127.146 564.986 126.756 564.94L126.402 564.893V564.789H128.514C129.8 564.789 130.979 565.427 130.979 567.052C130.979 568.676 129.8 569.314 128.502 569.314H126.391V569.198H126.402ZM128.502 569.186C129.54 569.186 130.119 568.583 130.119 567.052C130.119 565.497 129.517 564.905 128.502 564.905H127.912V568.792C127.912 569.07 128.03 569.186 128.337 569.186H128.502Z" fill="white"/>
<path d="M95.1055 562.643L95.4594 562.597C95.8369 562.539 95.8841 562.434 95.8841 562.156V558.826C95.8841 558.536 95.8487 558.432 95.4594 558.385L95.1055 558.339V558.234H97.1935C98.0665 558.234 98.9394 558.478 98.9394 559.279C98.9394 559.917 98.3614 560.253 97.571 560.358V560.381C98.5147 560.439 99.1518 560.752 99.1518 561.483C99.1518 562.318 98.4086 562.748 97.2643 562.748H95.1055V562.643ZM97.1109 560.323C97.8541 560.323 98.1372 559.975 98.1372 559.279C98.1372 558.524 97.8069 558.35 97.1227 558.35H96.6272V560.323H97.1109ZM96.6272 562.237C96.6272 562.516 96.7452 562.632 97.0519 562.632H97.2407C97.9485 562.632 98.2906 562.307 98.2906 561.483C98.2906 560.717 97.8541 560.439 97.0991 560.439H96.6272V562.237Z" fill="white"/>
<path d="M105.036 562.759C104.612 562.759 104.564 562.667 104.411 562.377L103.491 560.613C103.432 560.625 103.385 560.625 103.338 560.625C103.149 560.625 102.972 560.613 102.83 560.613V562.168C102.83 562.458 102.866 562.562 103.255 562.609L103.609 562.655V562.759C103.208 562.759 102.866 562.748 102.465 562.748C102.064 562.748 101.721 562.759 101.309 562.759V562.655L101.662 562.609C102.04 562.551 102.087 562.446 102.087 562.168V558.826C102.087 558.536 102.052 558.432 101.662 558.385L101.309 558.339V558.234H103.302C104.506 558.234 105.272 558.559 105.272 559.418C105.272 560.068 104.694 560.392 104.152 560.497C104.234 560.601 104.34 560.741 104.458 560.949L105.072 562.04C105.284 562.423 105.367 562.539 105.673 562.609L105.921 562.667V562.771H105.036V562.759ZM102.83 560.485C103.019 560.497 103.172 560.497 103.349 560.497C104.093 560.497 104.47 560.195 104.47 559.429C104.47 558.594 104.081 558.339 103.302 558.339H102.83V560.485Z" fill="white"/>
<path d="M109.677 560.358C110.114 560.358 110.255 560.068 110.479 559.36H110.597C110.586 559.708 110.586 560.068 110.586 560.416C110.586 560.764 110.586 561.123 110.597 561.471H110.479C110.232 560.717 110.114 560.462 109.677 560.462H109.182V562.226C109.182 562.504 109.3 562.62 109.607 562.62H110.043C110.833 562.62 111.022 562.33 111.47 561.158H111.612L111.541 562.736H107.672V562.632L108.026 562.585C108.403 562.527 108.45 562.423 108.45 562.144V558.826C108.45 558.536 108.415 558.432 108.026 558.385L107.672 558.339V558.234H111.341L111.411 559.685H111.27C110.869 558.664 110.668 558.362 110.008 558.362H109.194V560.369H109.677V560.358Z" fill="white"/>
<path d="M114.17 559.058C113.981 558.548 113.84 558.408 113.545 558.374L113.297 558.339V558.234C113.686 558.246 114.075 558.246 114.465 558.246C114.854 558.246 115.232 558.246 115.633 558.234V558.339L115.243 558.385C114.878 558.432 114.842 558.617 114.948 558.907L116.081 561.994L117.072 559.337C117.32 558.687 117.261 558.466 116.801 558.385L116.458 558.339V558.234C116.765 558.246 117.06 558.246 117.355 558.246C117.662 558.246 117.957 558.246 118.263 558.234V558.339L118.004 558.408C117.614 558.49 117.473 558.698 117.19 559.406L116.187 562.017L115.916 562.783H115.597L114.17 559.058Z" fill="white"/>
<path d="M122.389 562.751C122.011 562.751 121.681 562.763 121.303 562.763V562.659L121.693 562.612C122.058 562.566 122.046 562.38 121.928 562.09L121.622 561.301H119.84L119.699 561.661C119.439 562.322 119.439 562.519 119.899 562.6L120.242 562.659V562.763C119.947 562.763 119.722 562.751 119.428 562.751C119.133 562.751 118.861 562.763 118.566 562.763V562.659L118.791 562.6C119.144 562.508 119.286 562.322 119.557 561.603L120.595 558.969L120.867 558.203H121.221L122.695 561.939C122.896 562.45 122.978 562.589 123.261 562.624L123.497 562.659V562.763C123.096 562.763 122.778 562.751 122.389 562.751ZM119.888 561.15H121.563L120.725 558.98L119.888 561.15Z" fill="white"/>
<path d="M125.811 558.78V561.796C125.811 562.377 125.929 562.539 126.294 562.597L126.577 562.643V562.748C126.271 562.748 126.035 562.736 125.728 562.736C125.421 562.736 125.174 562.748 124.879 562.748V562.643L125.162 562.597C125.539 562.539 125.657 562.365 125.657 561.796V558.826C125.657 558.536 125.622 558.432 125.233 558.385L124.879 558.339V558.234H126.353L128.819 561.808V559.186C128.819 558.606 128.701 558.443 128.323 558.385L128.04 558.339V558.234C128.347 558.234 128.595 558.246 128.89 558.246C129.197 558.246 129.432 558.234 129.739 558.234V558.339L129.456 558.385C129.09 558.443 128.972 558.606 128.972 559.186V562.771H128.547L125.811 558.78Z" fill="white"/>
<g clip-path="url(#clip7_6803_30248)">
<path d="M174.283 560.987C174.228 560.839 174.138 560.705 174.014 560.581C173.794 560.361 173.493 560.25 173.109 560.25H169.906C169.906 560.661 170.236 560.995 170.642 560.995H171.068H172.874C172.883 560.995 172.895 560.995 172.904 560.995C173.054 561 173.18 561.038 173.277 561.126C173.38 561.212 173.433 561.336 173.433 561.491V562.341C173.433 562.493 173.38 562.613 173.273 562.705C173.172 562.794 173.04 562.84 172.874 562.843H170.815V562.385V562.315V561.57H169.902V562.385V563.6H173.106C173.483 563.6 173.785 563.489 174.01 563.263C174.233 563.041 174.344 562.783 174.344 562.494V561.357C174.344 561.225 174.323 561.103 174.28 560.987H174.283Z" fill="white"/>
<path d="M178.402 562.843C178.393 562.843 178.385 562.843 178.375 562.845H176.631C176.469 562.842 176.337 562.798 176.232 562.706C176.129 562.615 176.076 562.494 176.076 562.343V561.863V561.522C176.076 561.522 176.084 561 176.647 560.995H178.472C178.938 560.995 179.354 560.697 179.507 560.25H176.502C175.384 560.25 175.16 561.005 175.16 561.517V562.483C175.16 562.776 175.27 563.034 175.494 563.261C175.724 563.486 176.023 563.597 176.395 563.597H178.589C178.888 563.592 179.142 563.496 179.35 563.308C179.502 563.173 179.599 563.016 179.639 562.838H178.399L178.402 562.843Z" fill="white"/>
<path d="M177.625 561.617H178.755H178.999C179.369 561.617 179.669 561.921 179.669 562.294H178.549C178.128 562.294 177.756 562.022 177.625 561.617Z" fill="white"/>
<path d="M181.227 562.26H182.802C183.228 562.26 183.605 561.986 183.741 561.578H180.316V563.606H183.789L184.037 562.86H181.226V562.26H181.227Z" fill="white"/>
<path d="M183.873 560.995L184.121 560.25H180.316C180.316 560.661 180.645 560.995 181.052 560.995H183.871H183.873Z" fill="white"/>
<path d="M166.466 562.26H168.041C168.466 562.26 168.844 561.986 168.979 561.578H165.555V563.606H169.027L169.276 562.86H166.464V562.26H166.466Z" fill="white"/>
<path d="M169.111 560.995L169.36 560.25H165.555C165.555 560.661 165.884 560.995 166.29 560.995H169.11H169.111Z" fill="white"/>
<path d="M180.524 564.82V568.169H179.613V564.82H180.524Z" fill="white"/>
<path d="M193.261 567.412L193.005 568.169H189.637V564.82H190.551V567.414H193.263L193.261 567.412Z" fill="white"/>
<path d="M166.633 567.277C166.53 567.185 166.477 567.065 166.477 566.913V566.6V566.433V566.093C166.477 566.093 166.485 565.572 167.044 565.567H168.524C168.99 565.567 169.404 565.267 169.556 564.82H167.573C167.55 564.82 167.531 564.824 167.512 564.825V564.82H166.904C165.787 564.82 165.562 565.575 165.562 566.088V566.14V566.544V566.704V567.053C165.562 567.347 165.674 567.604 165.898 567.83C166.128 568.056 166.427 568.167 166.801 568.167H168.276C168.745 568.167 169.163 567.862 169.309 567.41H167.034C166.873 567.407 166.741 567.361 166.635 567.272L166.633 567.277Z" fill="white"/>
<path d="M173.376 568.169H174.432L172.434 564.82H171.423L169.426 568.169H170.469L170.822 567.565H171.344C171.751 567.565 172.08 567.231 172.08 566.82H171.257L171.917 565.69L173.377 568.169H173.376Z" fill="white"/>
<path d="M188.184 568.169H189.24L187.243 564.82H186.232L184.234 568.169H185.278L185.63 567.565H186.153C186.559 567.565 186.888 567.231 186.888 566.82H186.066L186.725 565.69L188.186 568.169H188.184Z" fill="white"/>
<path d="M185.16 564.82H181.881C181.473 564.82 181.142 565.153 181.141 565.566H182.629V568.169H183.541V565.566H184.422C184.83 565.566 185.16 565.233 185.162 564.82H185.16Z" fill="white"/>
<path d="M177.712 564.82H174.826C174.826 565.231 175.155 565.566 175.561 565.566H175.743H177.639C177.752 565.566 177.979 565.574 177.979 565.856C177.979 566.138 177.763 566.138 177.625 566.138H175.745H174.824V568.17H175.737V566.882H177.712C178.15 566.882 178.905 566.872 178.905 565.828C178.905 564.956 178.178 564.822 177.712 564.822V564.82Z" fill="white"/>
<path fill-rule="evenodd" clip-rule="evenodd" d="M163.878 568.173H160.507C160.351 568.173 160.206 568.09 160.127 567.953L159.511 566.891L156.957 562.49L154.403 566.889H156.441C157.352 566.889 158.195 567.377 158.656 568.171H153.66H152.965C152.625 568.171 152.412 567.796 152.585 567.499L156.577 560.623C156.747 560.329 157.167 560.329 157.337 560.623L157.689 561.23L160.975 566.891H162.439L159.885 562.492C159.433 561.712 159.433 560.747 159.885 559.969L164.257 567.503C164.43 567.799 164.218 568.175 163.877 568.175L163.878 568.173Z" fill="white"/>
</g>
<g clip-path="url(#clip8_6803_30248)">
<path d="M211.926 561.972H212.215V562.625C212.214 562.719 212.205 562.814 212.186 562.906H212.2C212.372 562.378 212.756 561.945 213.298 561.945C213.365 561.946 213.432 561.953 213.497 561.965V562.254C213.445 562.246 213.392 562.241 213.339 562.24C212.804 562.24 212.467 562.695 212.317 563.201C212.247 563.435 212.212 563.678 212.214 563.922V565.405H211.926V561.972Z" fill="white"/>
<path d="M217.408 561.891C217.642 561.889 217.874 561.934 218.09 562.023C218.307 562.111 218.503 562.242 218.669 562.408C218.834 562.573 218.965 562.77 219.054 562.986C219.143 563.203 219.188 563.435 219.186 563.669C219.192 563.906 219.15 564.142 219.064 564.363C218.977 564.584 218.847 564.785 218.681 564.955C218.516 565.125 218.318 565.26 218.099 565.353C217.88 565.445 217.645 565.492 217.408 565.492C217.17 565.492 216.935 565.445 216.717 565.353C216.498 565.26 216.3 565.125 216.134 564.955C215.968 564.785 215.838 564.584 215.752 564.363C215.665 564.142 215.623 563.906 215.629 563.669C215.628 563.435 215.673 563.203 215.761 562.986C215.85 562.77 215.981 562.573 216.147 562.408C216.312 562.242 216.509 562.111 216.725 562.022C216.942 561.934 217.174 561.889 217.408 561.891ZM217.408 565.206C217.607 565.204 217.803 565.163 217.985 565.084C218.167 565.005 218.332 564.891 218.469 564.748C218.607 564.604 218.714 564.435 218.786 564.25C218.857 564.065 218.89 563.867 218.884 563.669C218.884 563.277 218.729 562.902 218.452 562.625C218.175 562.348 217.8 562.192 217.408 562.192C217.016 562.192 216.641 562.348 216.364 562.625C216.087 562.902 215.932 563.277 215.932 563.669C215.926 563.867 215.959 564.065 216.03 564.25C216.102 564.435 216.209 564.604 216.347 564.748C216.484 564.891 216.649 565.005 216.831 565.084C217.013 565.163 217.209 565.204 217.408 565.206Z" fill="white"/>
<path d="M223.39 561.892C223.617 561.884 223.844 561.923 224.055 562.007C224.267 562.091 224.459 562.218 224.619 562.379L224.44 562.612C224.162 562.333 223.784 562.175 223.39 562.173C222.996 562.185 222.621 562.35 222.347 562.633C222.072 562.916 221.918 563.296 221.918 563.69C221.918 564.085 222.072 564.464 222.347 564.747C222.621 565.03 222.996 565.195 223.39 565.207C223.605 565.211 223.819 565.169 224.016 565.084C224.214 564.999 224.391 564.872 224.536 564.713L224.688 564.953C224.52 565.127 224.318 565.265 224.095 565.357C223.871 565.449 223.631 565.494 223.39 565.489C223.154 565.495 222.919 565.453 222.7 565.365C222.481 565.277 222.282 565.145 222.116 564.977C221.95 564.809 221.82 564.609 221.734 564.389C221.649 564.169 221.609 563.933 221.618 563.697C221.61 563.461 221.65 563.225 221.736 563.005C221.821 562.784 221.951 562.583 222.117 562.414C222.282 562.245 222.481 562.112 222.7 562.022C222.918 561.932 223.153 561.888 223.39 561.892Z" fill="white"/>
<path d="M227.363 560.602H227.652V563.327H228.262L229.375 561.975H229.753L228.51 563.451V563.465L229.869 565.408H229.505L228.262 563.596H227.652V565.408H227.363V560.602Z" fill="white"/>
<path d="M234.221 563.311H234.448V563.195C234.448 562.433 234.057 562.173 233.507 562.173C233.153 562.172 232.808 562.288 232.526 562.502L232.361 562.269C232.692 562.012 233.102 561.878 233.521 561.892C234.311 561.892 234.737 562.331 234.737 563.189V565.406H234.448V564.953C234.447 564.85 234.457 564.746 234.476 564.645H234.463C234.369 564.888 234.204 565.099 233.99 565.249C233.776 565.399 233.522 565.483 233.261 565.489C232.705 565.489 232.094 565.18 232.094 564.494C232.093 563.325 233.61 563.311 234.221 563.311ZM233.273 565.22C234.022 565.22 234.448 564.445 234.448 563.765V563.58H234.229C233.645 563.58 232.396 563.579 232.396 564.472C232.401 564.58 232.428 564.686 232.476 564.783C232.524 564.88 232.591 564.966 232.673 565.036C232.755 565.106 232.851 565.158 232.954 565.19C233.057 565.222 233.166 565.232 233.273 565.22Z" fill="white"/>
<path d="M237.148 561.984H237.457L238.391 564.675C238.448 564.84 238.508 565.047 238.508 565.047H238.522C238.522 565.047 238.583 564.84 238.638 564.675L239.579 561.998H239.902L240.842 564.675C240.897 564.84 240.959 565.047 240.959 565.047H240.973C240.973 565.047 241.027 564.848 241.089 564.675L242.023 561.984H242.332L241.124 565.417H240.815L239.861 562.754C239.799 562.589 239.744 562.382 239.744 562.382H239.73C239.73 562.382 239.675 562.589 239.613 562.754L238.666 565.417H238.357L237.148 561.984Z" fill="white"/>
<path d="M246.642 563.311H246.869V563.195C246.869 562.433 246.478 562.173 245.929 562.173C245.574 562.172 245.229 562.288 244.947 562.502L244.782 562.269C245.113 562.012 245.523 561.878 245.942 561.892C246.732 561.892 247.158 562.331 247.158 563.189V565.406H246.869V564.953C246.869 564.85 246.878 564.746 246.898 564.645H246.885C246.79 564.888 246.626 565.099 246.412 565.249C246.198 565.4 245.944 565.483 245.683 565.489C245.127 565.489 244.516 565.18 244.516 564.494C244.514 563.325 246.031 563.311 246.642 563.311ZM245.695 565.22C246.443 565.22 246.869 564.445 246.869 563.765V563.58H246.649C246.066 563.58 244.816 563.579 244.816 564.472C244.821 564.58 244.848 564.686 244.896 564.783C244.944 564.88 245.011 564.966 245.093 565.036C245.176 565.106 245.271 565.159 245.375 565.191C245.478 565.222 245.587 565.232 245.695 565.22Z" fill="white"/>
<path d="M249.614 566.42C249.735 566.518 249.885 566.576 250.04 566.584C250.37 566.584 250.576 566.289 250.713 565.966L250.961 565.396L249.539 561.984H249.848L250.981 564.724C251.049 564.888 251.105 565.047 251.105 565.047H251.118C251.118 565.047 251.166 564.888 251.235 564.724L252.368 561.984H252.677L250.913 566.22C250.85 566.403 250.733 566.563 250.577 566.677C250.421 566.791 250.234 566.855 250.04 566.859C249.839 566.857 249.644 566.789 249.484 566.667L249.614 566.42Z" fill="white"/>
</g>
</g>
<defs>
<filter id="filter0_din_6803_30248" x="52.4831" y="498.291" width="239.233" height="114.151" filterUnits="userSpaceOnUse" color-interpolation-filters="sRGB">
<feFlood flood-opacity="0" result="BackgroundImageFix"/>
<feColorMatrix in="SourceAlpha" type="matrix" values="0 0 0 0 0 0 0 0 0 0 0 0 0 0 0 0 0 0 127 0" result="hardAlpha"/>
<feOffset dy="2.49155"/>
<feGaussianBlur stdDeviation="12.3581"/>
<feComposite in2="hardAlpha" operator="out"/>
<feColorMatrix type="matrix" values="0 0 0 0 0 0 0 0 0 0 0 0 0 0 0 0 0 0 0.4 0"/>
<feBlend mode="normal" in2="BackgroundImageFix" result="effect1_dropShadow_6803_30248"/>
<feBlend mode="normal" in="SourceGraphic" in2="BackgroundImageFix" result="shape"/>
<feColorMatrix in="SourceAlpha" type="matrix" values="0 0 0 0 0 0 0 0 0 0 0 0 0 0 0 0 0 0 127 0" result="hardAlpha"/>
<feOffset dy="-1.86866"/>
<feGaussianBlur stdDeviation="0.249155"/>
<feComposite in2="hardAlpha" operator="arithmetic" k2="-1" k3="1"/>
<feColorMatrix type="matrix" values="0 0 0 0 0 0 0 0 0 0 0 0 0 0 0 0 0 0 0.25 0"/>
<feBlend mode="normal" in2="shape" result="effect2_innerShadow_6803_30248"/>
<feTurbulence type="fractalNoise" baseFrequency="16.054281234741211 16.054281234741211" stitchTiles="stitch" numOctaves="3" result="noise" seed="5938" />
<feColorMatrix in="noise" type="luminanceToAlpha" result="alphaNoise" />
<feComponentTransfer in="alphaNoise" result="coloredNoise1">
<feFuncA type="discrete" tableValues="1 1 1 1 1 1 1 1 1 1 1 1 1 1 1 1 1 1 1 1 1 1 1 1 1 1 1 1 1 1 1 1 1 1 1 1 1 1 1 1 1 1 1 1 1 1 1 1 1 1 1 0 0 0 0 0 0 0 0 0 0 0 0 0 0 0 0 0 0 0 0 0 0 0 0 0 0 0 0 0 0 0 0 0 0 0 0 0 0 0 0 0 0 0 0 0 0 0 0 0 "/>
</feComponentTransfer>
<feComposite operator="in" in2="effect2_innerShadow_6803_30248" in="coloredNoise1" result="noise1Clipped" />
<feFlood flood-color="rgba(0, 0, 0, 0.35)" result="color1Flood" />
<feComposite operator="in" in2="noise1Clipped" in="color1Flood" result="color1" />
<feMerge result="effect3_noise_6803_30248">
<feMergeNode in="effect2_innerShadow_6803_30248" />
<feMergeNode in="color1" />
</feMerge>
<feBlend mode="normal" in="effect3_noise_6803_30248" in2="effect1_dropShadow_6803_30248" result="effect3_noise_6803_30248"/>
</filter>
<filter id="filter1_din_6803_30248" x="62.4107" y="290.101" width="219.257" height="219.257" filterUnits="userSpaceOnUse" color-interpolation-filters="sRGB">
<feFlood flood-opacity="0" result="BackgroundImageFix"/>
<feColorMatrix in="SourceAlpha" type="matrix" values="0 0 0 0 0 0 0 0 0 0 0 0 0 0 0 0 0 0 127 0" result="hardAlpha"/>
<feOffset dy="2.49155"/>
<feGaussianBlur stdDeviation="16.1951"/>
<feComposite in2="hardAlpha" operator="out"/>
<feColorMatrix type="matrix" values="0 0 0 0 0 0 0 0 0 0 0 0 0 0 0 0 0 0 0.55 0"/>
<feBlend mode="normal" in2="BackgroundImageFix" result="effect1_dropShadow_6803_30248"/>
<feBlend mode="normal" in="SourceGraphic" in2="BackgroundImageFix" result="shape"/>
<feColorMatrix in="SourceAlpha" type="matrix" values="0 0 0 0 0 0 0 0 0 0 0 0 0 0 0 0 0 0 127 0" result="hardAlpha"/>
<feOffset dy="-1.86866"/>
<feGaussianBlur stdDeviation="0.249155"/>
<feComposite in2="hardAlpha" operator="arithmetic" k2="-1" k3="1"/>
<feColorMatrix type="matrix" values="0 0 0 0 0 0 0 0 0 0 0 0 0 0 0 0 0 0 0.25 0"/>
<feBlend mode="normal" in2="shape" result="effect2_innerShadow_6803_30248"/>
<feTurbulence type="fractalNoise" baseFrequency="16.054281234741211 16.054281234741211" stitchTiles="stitch" numOctaves="3" result="noise" seed="5938" />
<feColorMatrix in="noise" type="luminanceToAlpha" result="alphaNoise" />
<feComponentTransfer in="alphaNoise" result="coloredNoise1">
<feFuncA type="discrete" tableValues="1 1 1 1 1 1 1 1 1 1 1 1 1 1 1 1 1 1 1 1 1 1 1 1 1 1 1 1 1 1 1 1 1 1 1 1 1 1 1 1 1 1 1 1 1 1 1 1 1 1 1 0 0 0 0 0 0 0 0 0 0 0 0 0 0 0 0 0 0 0 0 0 0 0 0 0 0 0 0 0 0 0 0 0 0 0 0 0 0 0 0 0 0 0 0 0 0 0 0 0 "/>
</feComponentTransfer>
<feComposite operator="in" in2="effect2_innerShadow_6803_30248" in="coloredNoise1" result="noise1Clipped" />
<feFlood flood-color="rgba(0, 0, 0, 0.35)" result="color1Flood" />
<feComposite operator="in" in2="noise1Clipped" in="color1Flood" result="color1" />
<feMerge result="effect3_noise_6803_30248">
<feMergeNode in="effect2_innerShadow_6803_30248" />
<feMergeNode in="color1" />
</feMerge>
<feBlend mode="normal" in="effect3_noise_6803_30248" in2="effect1_dropShadow_6803_30248" result="effect3_noise_6803_30248"/>
</filter>
<filter id="filter2_din_6803_30248" x="108.504" y="336.195" width="127.069" height="127.069" filterUnits="userSpaceOnUse" color-interpolation-filters="sRGB">
<feFlood flood-opacity="0" result="BackgroundImageFix"/>
<feColorMatrix in="SourceAlpha" type="matrix" values="0 0 0 0 0 0 0 0 0 0 0 0 0 0 0 0 0 0 127 0" result="hardAlpha"/>
<feOffset dy="2.49155"/>
<feGaussianBlur stdDeviation="16.1951"/>
<feComposite in2="hardAlpha" operator="out"/>
<feColorMatrix type="matrix" values="0 0 0 0 0 0 0 0 0 0 0 0 0 0 0 0 0 0 0.25 0"/>
<feBlend mode="normal" in2="BackgroundImageFix" result="effect1_dropShadow_6803_30248"/>
<feBlend mode="normal" in="SourceGraphic" in2="BackgroundImageFix" result="shape"/>
<feColorMatrix in="SourceAlpha" type="matrix" values="0 0 0 0 0 0 0 0 0 0 0 0 0 0 0 0 0 0 127 0" result="hardAlpha"/>
<feOffset dy="-1.86866"/>
<feGaussianBlur stdDeviation="0.249155"/>
<feComposite in2="hardAlpha" operator="arithmetic" k2="-1" k3="1"/>
<feColorMatrix type="matrix" values="0 0 0 0 0 0 0 0 0 0 0 0 0 0 0 0 0 0 0.25 0"/>
<feBlend mode="normal" in2="shape" result="effect2_innerShadow_6803_30248"/>
<feTurbulence type="fractalNoise" baseFrequency="16.054281234741211 16.054281234741211" stitchTiles="stitch" numOctaves="3" result="noise" seed="5938" />
<feColorMatrix in="noise" type="luminanceToAlpha" result="alphaNoise" />
<feComponentTransfer in="alphaNoise" result="coloredNoise1">
<feFuncA type="discrete" tableValues="1 1 1 1 1 1 1 1 1 1 1 1 1 1 1 1 1 1 1 1 1 1 1 1 1 1 1 1 1 1 1 1 1 1 1 1 1 1 1 1 1 1 1 1 1 1 1 1 1 1 1 0 0 0 0 0 0 0 0 0 0 0 0 0 0 0 0 0 0 0 0 0 0 0 0 0 0 0 0 0 0 0 0 0 0 0 0 0 0 0 0 0 0 0 0 0 0 0 0 0 "/>
</feComponentTransfer>
<feComposite operator="in" in2="effect2_innerShadow_6803_30248" in="coloredNoise1" result="noise1Clipped" />
<feFlood flood-color="rgba(0, 0, 0, 0.35)" result="color1Flood" />
<feComposite operator="in" in2="noise1Clipped" in="color1Flood" result="color1" />
<feMerge result="effect3_noise_6803_30248">
<feMergeNode in="effect2_innerShadow_6803_30248" />
<feMergeNode in="color1" />
</feMerge>
<feBlend mode="normal" in="effect3_noise_6803_30248" in2="effect1_dropShadow_6803_30248" result="effect3_noise_6803_30248"/>
</filter>
<filter id="filter3_di_6803_30248" x="148.684" y="381.981" width="47.3114" height="31.9755" filterUnits="userSpaceOnUse" color-interpolation-filters="sRGB">
<feFlood flood-opacity="0" result="BackgroundImageFix"/>
<feColorMatrix in="SourceAlpha" type="matrix" values="0 0 0 0 0 0 0 0 0 0 0 0 0 0 0 0 0 0 127 0" result="hardAlpha"/>
<feOffset/>
<feGaussianBlur stdDeviation="2.95871"/>
<feComposite in2="hardAlpha" operator="out"/>
<feColorMatrix type="matrix" values="0 0 0 0 0.768627 0 0 0 0 0.545098 0 0 0 0 0.937255 0 0 0 1 0"/>
<feBlend mode="normal" in2="BackgroundImageFix" result="effect1_dropShadow_6803_30248"/>
<feBlend mode="normal" in="SourceGraphic" in2="effect1_dropShadow_6803_30248" result="shape"/>
<feColorMatrix in="SourceAlpha" type="matrix" values="0 0 0 0 0 0 0 0 0 0 0 0 0 0 0 0 0 0 127 0" result="hardAlpha"/>
<feOffset dy="1.57574"/>
<feGaussianBlur stdDeviation="0.393935"/>
<feComposite in2="hardAlpha" operator="arithmetic" k2="-1" k3="1"/>
<feColorMatrix type="matrix" values="0 0 0 0 0 0 0 0 0 0 0 0 0 0 0 0 0 0 0.25 0"/>
<feBlend mode="normal" in2="shape" result="effect2_innerShadow_6803_30248"/>
</filter>
<linearGradient id="paint0_linear_6803_30248" x1="172.5" y1="416" x2="172.5" y2="559.44" gradientUnits="userSpaceOnUse">
<stop stop-color="white"/>
<stop offset="1" stop-color="#999999" stop-opacity="0"/>
</linearGradient>
<linearGradient id="paint1_linear_6803_30248" x1="216.5" y1="0" x2="216.5" y2="143.44" gradientUnits="userSpaceOnUse">
<stop stop-color="white"/>
<stop offset="1" stop-color="#999999" stop-opacity="0"/>
</linearGradient>
<linearGradient id="paint2_linear_6803_30248" x1="148.077" y1="452.664" x2="148.077" y2="550.531" gradientUnits="userSpaceOnUse">
<stop offset="0.0927945" stop-color="#E5E5E5" stop-opacity="0"/>
<stop offset="1" stop-color="#7F7F7F"/>
</linearGradient>
<linearGradient id="paint3_linear_6803_30248" x1="154.792" y1="452.664" x2="154.792" y2="550.531" gradientUnits="userSpaceOnUse">
<stop offset="0.0927945" stop-color="#E5E5E5" stop-opacity="0"/>
<stop offset="1" stop-color="#7F7F7F"/>
</linearGradient>
<linearGradient id="paint4_linear_6803_30248" x1="161.511" y1="452.664" x2="161.511" y2="550.531" gradientUnits="userSpaceOnUse">
<stop offset="0.0927945" stop-color="#E5E5E5" stop-opacity="0"/>
<stop offset="1" stop-color="#7F7F7F"/>
</linearGradient>
<linearGradient id="paint5_linear_6803_30248" x1="168.226" y1="452.664" x2="168.226" y2="550.531" gradientUnits="userSpaceOnUse">
<stop offset="0.0927945" stop-color="#E5E5E5" stop-opacity="0"/>
<stop offset="1" stop-color="#7F7F7F"/>
</linearGradient>
<linearGradient id="paint6_linear_6803_30248" x1="174.945" y1="452.664" x2="174.945" y2="550.531" gradientUnits="userSpaceOnUse">
<stop offset="0.0927945" stop-color="#E5E5E5" stop-opacity="0"/>
<stop offset="1" stop-color="#7F7F7F"/>
</linearGradient>
<linearGradient id="paint7_linear_6803_30248" x1="181.659" y1="452.664" x2="181.659" y2="550.531" gradientUnits="userSpaceOnUse">
<stop offset="0.0927945" stop-color="#E5E5E5" stop-opacity="0"/>
<stop offset="1" stop-color="#7F7F7F"/>
</linearGradient>
<linearGradient id="paint8_linear_6803_30248" x1="188.374" y1="452.664" x2="188.374" y2="550.531" gradientUnits="userSpaceOnUse">
<stop offset="0.0927945" stop-color="#E5E5E5" stop-opacity="0"/>
<stop offset="1" stop-color="#7F7F7F"/>
</linearGradient>
<linearGradient id="paint9_linear_6803_30248" x1="195.093" y1="452.664" x2="195.093" y2="550.531" gradientUnits="userSpaceOnUse">
<stop offset="0.0927945" stop-color="#E5E5E5" stop-opacity="0"/>
<stop offset="1" stop-color="#7F7F7F"/>
</linearGradient>
<linearGradient id="paint10_linear_6803_30248" x1="77.1993" y1="674.992" x2="182.218" y2="431.185" gradientUnits="userSpaceOnUse">
<stop stop-color="#232323"/>
<stop offset="1" stop-color="#595959"/>
</linearGradient>
<linearGradient id="paint11_linear_6803_30248" x1="94.8008" y1="474.477" x2="239.311" y2="328.098" gradientUnits="userSpaceOnUse">
<stop stop-color="#232323"/>
<stop offset="1" stop-color="#595959"/>
</linearGradient>
<linearGradient id="paint12_linear_6803_30248" x1="140.895" y1="428.382" x2="199.165" y2="369.359" gradientUnits="userSpaceOnUse">
<stop stop-color="#232323"/>
<stop offset="1" stop-color="#595959"/>
</linearGradient>
<linearGradient id="paint13_linear_6803_30248" x1="157.885" y1="406.929" x2="160.804" y2="395.072" gradientUnits="userSpaceOnUse">
<stop stop-color="white"/>
<stop offset="1" stop-color="#343434" stop-opacity="0"/>
</linearGradient>
<clipPath id="clip0_6803_30248">
<path d="M0 16C0 7.16343 7.16344 0 16 0H329C337.837 0 345 7.16344 345 16V637C345 645.837 337.837 653 329 653H16C7.16345 653 0 645.837 0 637V16Z" fill="white"/>
</clipPath>
<clipPath id="clip1_6803_30248">
<rect width="40.0667" height="21.7311" fill="white" transform="translate(92.6133 531.188)"/>
</clipPath>
<clipPath id="clip2_6803_30248">
<rect width="40.7467" height="7.34703" fill="white" transform="translate(92.2695 538.328)"/>
</clipPath>
<clipPath id="clip3_6803_30248">
<rect width="40.7458" height="21.7311" fill="white" transform="translate(151.25 531.188)"/>
</clipPath>
<clipPath id="clip4_6803_30248">
<rect width="40.7458" height="6.5719" fill="white" transform="translate(151.25 538.875)"/>
</clipPath>
<clipPath id="clip5_6803_30248">
<rect width="40.7458" height="21.7311" fill="white" transform="translate(210.566 531.188)"/>
</clipPath>
<clipPath id="clip6_6803_30248">
<rect width="40.7458" height="11.32" fill="white" transform="translate(210.566 536.328)"/>
</clipPath>
<clipPath id="clip7_6803_30248">
<rect width="41.0854" height="21.7311" fill="white" transform="translate(152.27 552.922)"/>
</clipPath>
<clipPath id="clip8_6803_30248">
<rect width="40.7458" height="21.7311" fill="white" transform="translate(211.926 552.922)"/>
</clipPath>
</defs>
</svg>
