<svg width="345" height="653" viewBox="0 0 345 653" fill="none" xmlns="http://www.w3.org/2000/svg">
<g clip-path="url(#clip0_6803_30378)">
<circle opacity="0.1" cx="202.5" cy="737.5" r="282.33" fill="#D9D9D9" fill-opacity="0.05" stroke="url(#paint0_linear_6803_30378)" stroke-width="2.34056"/>
<circle opacity="0.1" cx="283.5" cy="283.5" r="283.207" transform="matrix(1 0 0 -1 -81 454)" fill="#D9D9D9" fill-opacity="0.05" stroke="url(#paint1_linear_6803_30378)" stroke-width="0.585139"/>
<g filter="url(#filter0_din_6803_30378)">
<path d="M234.926 573.272L234.926 498.442C234.926 496.765 233.566 495.405 231.889 495.405L215.673 495.405L128.638 495.405L116.49 495.405C114.813 495.405 113.454 496.765 113.454 498.442L113.454 571.873C113.454 572.761 113.842 573.604 114.517 574.181L127.786 585.522C128.335 585.992 129.035 586.25 129.758 586.25L231.889 586.25C233.566 586.25 234.926 584.891 234.926 583.214L234.926 573.272Z" fill="url(#paint2_linear_6803_30378)"/>
</g>
<g filter="url(#filter1_di_6803_30378)">
<path d="M153.025 569.891V557.472H157.952C159.169 557.472 160.122 557.788 160.811 558.419C161.5 559.039 161.844 559.906 161.844 561.02C161.844 561.79 161.661 562.45 161.293 563.001C160.937 563.541 160.409 563.937 159.708 564.189C160.202 564.373 160.57 564.637 160.811 564.982C161.063 565.326 161.247 565.814 161.362 566.446L161.775 568.564C161.821 568.76 161.873 568.978 161.93 569.219C161.999 569.46 162.097 569.684 162.223 569.891H160.742C160.627 569.73 160.541 569.563 160.484 569.391C160.438 569.219 160.403 569.058 160.38 568.909L160.001 566.756C159.863 565.975 159.553 565.412 159.071 565.068C158.6 564.723 157.837 564.551 156.78 564.551H154.438V569.891H153.025ZM157.848 563.277C158.641 563.277 159.261 563.076 159.708 562.674C160.168 562.272 160.397 561.721 160.397 561.02C160.397 560.308 160.168 559.751 159.708 559.349C159.261 558.948 158.641 558.747 157.848 558.747H154.438V563.277H157.848ZM164.528 565.585C164.563 566.618 164.85 567.422 165.39 567.996C165.929 568.57 166.63 568.857 167.491 568.857C168.146 568.857 168.72 568.702 169.213 568.392C169.707 568.082 170.006 567.64 170.109 567.066H171.384C171.223 568.042 170.781 568.783 170.057 569.288C169.334 569.782 168.479 570.028 167.491 570.028C166.618 570.028 165.855 569.827 165.2 569.426C164.557 569.012 164.058 568.455 163.702 567.755C163.357 567.054 163.185 566.274 163.185 565.412C163.185 564.551 163.357 563.776 163.702 563.087C164.046 562.387 164.54 561.835 165.183 561.434C165.826 561.02 166.584 560.813 167.457 560.813C168.283 560.813 168.995 560.997 169.592 561.365C170.189 561.732 170.649 562.232 170.97 562.863C171.303 563.483 171.464 564.189 171.453 564.982C171.453 565.12 171.447 565.246 171.435 565.361C171.424 565.464 171.418 565.539 171.418 565.585H164.528ZM167.457 561.95C166.687 561.95 166.056 562.18 165.562 562.639C165.068 563.087 164.752 563.696 164.615 564.465H170.04C169.994 563.742 169.747 563.144 169.3 562.674C168.852 562.191 168.237 561.95 167.457 561.95ZM176.909 570.028C176.002 570.028 175.227 569.822 174.584 569.408C173.952 568.995 173.47 568.444 173.137 567.755C172.816 567.054 172.655 566.274 172.655 565.412C172.655 564.551 172.821 563.776 173.154 563.087C173.487 562.387 173.97 561.835 174.601 561.434C175.233 561.02 176.002 560.813 176.909 560.813C177.495 560.813 178.063 560.957 178.614 561.244C179.166 561.52 179.579 561.876 179.855 562.312V557.334H181.181V569.891H179.855V568.53C179.671 568.943 179.303 569.299 178.752 569.598C178.201 569.885 177.587 570.028 176.909 570.028ZM177.013 568.84C177.897 568.84 178.614 568.53 179.166 567.91C179.717 567.278 179.992 566.446 179.992 565.412C179.992 564.39 179.717 563.569 179.166 562.949C178.614 562.318 177.897 562.002 177.013 562.002C176.117 562.002 175.394 562.318 174.842 562.949C174.303 563.569 174.033 564.39 174.033 565.412C174.033 566.434 174.303 567.261 174.842 567.893C175.394 568.524 176.117 568.84 177.013 568.84ZM184.293 565.585C184.327 566.618 184.614 567.422 185.154 567.996C185.693 568.57 186.394 568.857 187.255 568.857C187.91 568.857 188.484 568.702 188.978 568.392C189.471 568.082 189.77 567.64 189.873 567.066H191.148C190.987 568.042 190.545 568.783 189.821 569.288C189.098 569.782 188.243 570.028 187.255 570.028C186.382 570.028 185.619 569.827 184.964 569.426C184.321 569.012 183.822 568.455 183.466 567.755C183.121 567.054 182.949 566.274 182.949 565.412C182.949 564.551 183.121 563.776 183.466 563.087C183.81 562.387 184.304 561.835 184.947 561.434C185.59 561.02 186.348 560.813 187.221 560.813C188.047 560.813 188.759 560.997 189.356 561.365C189.954 561.732 190.413 562.232 190.734 562.863C191.067 563.483 191.228 564.189 191.217 564.982C191.217 565.12 191.211 565.246 191.199 565.361C191.188 565.464 191.182 565.539 191.182 565.585H184.293ZM187.221 561.95C186.451 561.95 185.82 562.18 185.326 562.639C184.832 563.087 184.516 563.696 184.379 564.465H189.804C189.758 563.742 189.511 563.144 189.064 562.674C188.616 562.191 188.001 561.95 187.221 561.95ZM193.762 565.585C193.797 566.618 194.084 567.422 194.624 567.996C195.163 568.57 195.864 568.857 196.725 568.857C197.38 568.857 197.954 568.702 198.447 568.392C198.941 568.082 199.24 567.64 199.343 567.066H200.618C200.457 568.042 200.015 568.783 199.291 569.288C198.568 569.782 197.713 570.028 196.725 570.028C195.852 570.028 195.089 569.827 194.434 569.426C193.791 569.012 193.292 568.455 192.936 567.755C192.591 567.054 192.419 566.274 192.419 565.412C192.419 564.551 192.591 563.776 192.936 563.087C193.28 562.387 193.774 561.835 194.417 561.434C195.06 561.02 195.818 560.813 196.691 560.813C197.517 560.813 198.229 560.997 198.826 561.365C199.424 561.732 199.883 562.232 200.204 562.863C200.537 563.483 200.698 564.189 200.687 564.982C200.687 565.12 200.681 565.246 200.669 565.361C200.658 565.464 200.652 565.539 200.652 565.585H193.762ZM196.691 561.95C195.921 561.95 195.29 562.18 194.796 562.639C194.302 563.087 193.986 563.696 193.849 564.465H199.274C199.228 563.742 198.981 563.144 198.534 562.674C198.086 562.191 197.471 561.95 196.691 561.95ZM202.457 569.891V560.951H203.784V562.725C204.002 562.151 204.335 561.692 204.783 561.347C205.242 560.991 205.816 560.813 206.505 560.813C207.251 560.813 207.894 560.98 208.434 561.313C208.974 561.646 209.318 562.117 209.468 562.725C209.72 562.163 210.099 561.703 210.604 561.347C211.11 560.991 211.684 560.813 212.327 560.813C213.28 560.813 214.038 561.089 214.6 561.64C215.163 562.191 215.444 562.949 215.444 563.914V569.891H214.118V564.155C214.118 563.512 213.94 562.995 213.584 562.605C213.228 562.203 212.723 562.002 212.068 562.002C211.276 562.002 210.668 562.329 210.243 562.984C209.818 563.627 209.605 564.442 209.605 565.43V569.891H208.279V564.155C208.279 563.512 208.101 562.995 207.745 562.605C207.401 562.203 206.907 562.002 206.264 562.002C205.46 562.002 204.846 562.329 204.421 562.984C203.996 563.627 203.784 564.442 203.784 565.43V569.891H202.457Z" fill="#B480DC"/>
<path d="M147.374 563.065H142.702L143.74 556.836L135.953 566.18H140.625L139.587 572.409L147.374 563.065Z" fill="#C48BEF"/>
</g>
<g filter="url(#filter2_din_6803_30378)">
<path d="M160.842 386.875L113.292 386.875C111.615 386.875 110.256 385.516 110.256 383.839L110.256 376.185L110.256 327.857L110.256 322.462C110.256 320.785 111.615 319.426 113.292 319.426L159.585 319.426C160.39 319.426 161.162 319.746 161.732 320.315L168.384 326.968C168.954 327.537 169.273 328.309 169.273 329.115L169.273 383.839C169.273 385.516 167.914 386.875 166.237 386.875L160.842 386.875Z" fill="url(#paint3_linear_6803_30378)"/>
</g>
<g filter="url(#filter3_di_6803_30378)">
<path d="M115.613 362V356.294H117.639C118.188 356.294 118.613 356.421 118.913 356.674C119.219 356.922 119.372 357.283 119.372 357.758C119.372 358.011 119.306 358.236 119.174 358.431C119.043 358.626 118.853 358.774 118.605 358.874C118.927 358.985 119.174 359.167 119.349 359.42C119.523 359.668 119.61 359.977 119.61 360.346C119.61 360.884 119.449 361.296 119.127 361.581C118.81 361.86 118.357 362 117.766 362H115.613ZM117.631 361.414C118.059 361.414 118.383 361.322 118.605 361.137C118.832 360.953 118.945 360.684 118.945 360.33C118.945 359.982 118.832 359.716 118.605 359.531C118.383 359.346 118.059 359.254 117.631 359.254H116.262V361.414H117.631ZM117.608 358.668C117.966 358.668 118.238 358.592 118.423 358.439C118.607 358.286 118.7 358.064 118.7 357.774C118.7 357.479 118.605 357.254 118.415 357.101C118.23 356.943 117.961 356.864 117.608 356.864H116.262V358.668H117.608ZM122.183 362.063C121.792 362.063 121.447 361.974 121.146 361.794C120.845 361.61 120.608 361.359 120.434 361.042C120.265 360.721 120.18 360.354 120.18 359.942C120.18 359.531 120.265 359.167 120.434 358.85C120.608 358.534 120.845 358.286 121.146 358.106C121.447 357.922 121.792 357.829 122.183 357.829C122.573 357.829 122.919 357.919 123.219 358.098C123.52 358.278 123.758 358.528 123.932 358.85C124.106 359.167 124.193 359.531 124.193 359.942C124.193 360.354 124.106 360.721 123.932 361.042C123.758 361.359 123.52 361.61 123.219 361.794C122.919 361.974 122.573 362.063 122.183 362.063ZM122.183 361.517C122.457 361.517 122.697 361.451 122.903 361.319C123.109 361.182 123.27 360.995 123.386 360.758C123.507 360.52 123.568 360.248 123.568 359.942C123.568 359.636 123.507 359.367 123.386 359.135C123.27 358.898 123.106 358.713 122.895 358.581C122.689 358.444 122.452 358.375 122.183 358.375C121.908 358.375 121.668 358.444 121.463 358.581C121.257 358.713 121.096 358.898 120.98 359.135C120.869 359.367 120.814 359.636 120.814 359.942C120.814 360.248 120.869 360.52 120.98 360.758C121.096 360.995 121.257 361.182 121.463 361.319C121.668 361.451 121.908 361.517 122.183 361.517ZM127.273 358.439C127.23 358.428 127.172 358.418 127.099 358.407C127.03 358.391 126.946 358.383 126.845 358.383C126.624 358.383 126.418 358.46 126.228 358.613C126.043 358.761 125.896 358.985 125.785 359.286C125.674 359.586 125.619 359.966 125.619 360.425V362H125.009V357.893H125.619V358.74C125.687 358.565 125.787 358.41 125.919 358.273C126.057 358.135 126.212 358.027 126.386 357.948C126.56 357.869 126.737 357.829 126.916 357.829C127.011 357.829 127.085 357.832 127.138 357.837C127.191 357.843 127.236 357.851 127.273 357.861V358.439ZM130.155 358.439C130.113 358.428 130.055 358.418 129.981 358.407C129.913 358.391 129.828 358.383 129.728 358.383C129.506 358.383 129.301 358.46 129.111 358.613C128.926 358.761 128.778 358.985 128.667 359.286C128.557 359.586 128.501 359.966 128.501 360.425V362H127.892V357.893H128.501V358.74C128.57 358.565 128.67 358.41 128.802 358.273C128.939 358.135 129.095 358.027 129.269 357.948C129.443 357.869 129.62 357.829 129.799 357.829C129.894 357.829 129.968 357.832 130.021 357.837C130.074 357.843 130.118 357.851 130.155 357.861V358.439ZM132.268 362.063C131.878 362.063 131.532 361.974 131.231 361.794C130.931 361.61 130.693 361.359 130.519 361.042C130.35 360.721 130.266 360.354 130.266 359.942C130.266 359.531 130.35 359.167 130.519 358.85C130.693 358.534 130.931 358.286 131.231 358.106C131.532 357.922 131.878 357.829 132.268 357.829C132.659 357.829 133.004 357.919 133.305 358.098C133.606 358.278 133.843 358.528 134.017 358.85C134.191 359.167 134.278 359.531 134.278 359.942C134.278 360.354 134.191 360.721 134.017 361.042C133.843 361.359 133.606 361.61 133.305 361.794C133.004 361.974 132.659 362.063 132.268 362.063ZM132.268 361.517C132.543 361.517 132.783 361.451 132.988 361.319C133.194 361.182 133.355 360.995 133.471 360.758C133.592 360.52 133.653 360.248 133.653 359.942C133.653 359.636 133.592 359.367 133.471 359.135C133.355 358.898 133.191 358.713 132.98 358.581C132.775 358.444 132.537 358.375 132.268 358.375C131.994 358.375 131.754 358.444 131.548 358.581C131.342 358.713 131.181 358.898 131.065 359.135C130.954 359.367 130.899 359.636 130.899 359.942C130.899 360.248 130.954 360.52 131.065 360.758C131.181 360.995 131.342 361.182 131.548 361.319C131.754 361.451 131.994 361.517 132.268 361.517ZM135.856 362L134.59 357.893H135.215L135.927 360.346C136.012 360.62 136.07 360.847 136.101 361.027C136.138 361.201 136.157 361.288 136.157 361.288C136.157 361.288 136.175 361.201 136.212 361.027C136.254 360.852 136.318 360.626 136.402 360.346L137.154 357.893H137.763L138.523 360.362C138.613 360.636 138.676 360.863 138.713 361.042C138.75 361.217 138.768 361.304 138.768 361.304C138.768 361.304 138.787 361.217 138.824 361.042C138.861 360.863 138.919 360.634 138.998 360.354L139.702 357.893H140.32L139.061 362H138.444L137.7 359.578C137.616 359.299 137.552 359.072 137.51 358.898C137.473 358.724 137.455 358.637 137.455 358.637C137.455 358.637 137.434 358.724 137.391 358.898C137.355 359.072 137.291 359.299 137.202 359.578L136.458 362H135.856Z" fill="#B480DC"/>
</g>
<g filter="url(#filter4_di_6803_30378)">
<path d="M125.296 335.444H127.455C128.043 335.444 128.625 335.56 129.168 335.785C129.712 336.01 130.205 336.34 130.621 336.756C131.037 337.171 131.366 337.665 131.591 338.208C131.816 338.752 131.932 339.334 131.932 339.922H124.967V340.917H132.926V339.922C132.922 338.863 132.617 337.828 132.046 336.937H134.917C135.858 336.937 136.779 337.203 137.574 337.705C138.37 338.208 139.006 338.925 139.41 339.774C137.057 342.879 133.248 344.898 128.947 344.898C126.2 344.898 123.873 344.31 121.983 343.281V334.024C123.193 334.197 124.336 334.687 125.296 335.444ZM120.988 342.907C120.988 343.17 120.883 343.424 120.696 343.61C120.51 343.797 120.257 343.902 119.993 343.902H118.003C117.739 343.902 117.486 343.797 117.299 343.61C117.113 343.424 117.008 343.17 117.008 342.907V333.952C117.008 333.688 117.113 333.435 117.299 333.248C117.486 333.062 117.739 332.957 118.003 332.957H119.993C120.257 332.957 120.51 333.062 120.696 333.248C120.883 333.435 120.988 333.688 120.988 333.952V342.907ZM133.922 328.977C134.714 328.977 135.473 329.292 136.033 329.851C136.593 330.411 136.907 331.17 136.907 331.962C136.907 332.754 136.593 333.513 136.033 334.073C135.473 334.632 134.714 334.947 133.922 334.947C133.131 334.947 132.371 334.632 131.812 334.073C131.252 333.513 130.937 332.754 130.937 331.962C130.937 331.17 131.252 330.411 131.812 329.851C132.371 329.292 133.131 328.977 133.922 328.977ZM126.957 325.992C127.749 325.992 128.508 326.307 129.068 326.866C129.628 327.426 129.942 328.185 129.942 328.977C129.942 329.769 129.628 330.528 129.068 331.088C128.508 331.647 127.749 331.962 126.957 331.962C126.166 331.962 125.407 331.647 124.847 331.088C124.287 330.528 123.973 329.769 123.973 328.977C123.973 328.185 124.287 327.426 124.847 326.866C125.407 326.307 126.166 325.992 126.957 325.992Z" fill="#C48BEF"/>
</g>
<g filter="url(#filter5_din_6803_30378)">
<path d="M184.248 386.867L231.798 386.867C233.475 386.867 234.834 385.508 234.834 383.831L234.834 376.177L234.834 327.849L234.834 322.454C234.834 320.778 233.475 319.418 231.798 319.418L185.505 319.418C184.7 319.418 183.928 319.738 183.358 320.307L176.706 326.96C176.136 327.529 175.816 328.302 175.816 329.107L175.816 383.831C175.816 385.508 177.176 386.867 178.853 386.867L184.248 386.867Z" fill="url(#paint4_linear_6803_30378)"/>
</g>
<g filter="url(#filter6_di_6803_30378)">
<path d="M211.605 361.992L211.605 356.286L212.254 356.286L212.254 361.399L215.127 361.399L215.127 361.992L211.605 361.992ZM215.878 360.014C215.894 360.489 216.026 360.858 216.274 361.122C216.522 361.385 216.844 361.517 217.239 361.517C217.54 361.517 217.804 361.446 218.031 361.304C218.258 361.161 218.395 360.958 218.442 360.694L219.028 360.694C218.954 361.143 218.751 361.483 218.419 361.715C218.086 361.942 217.693 362.055 217.239 362.055C216.838 362.055 216.488 361.963 216.187 361.779C215.891 361.589 215.662 361.333 215.498 361.011C215.34 360.689 215.261 360.33 215.261 359.935C215.261 359.539 215.34 359.183 215.498 358.866C215.657 358.544 215.883 358.291 216.179 358.106C216.474 357.917 216.823 357.822 217.224 357.822C217.603 357.822 217.93 357.906 218.205 358.075C218.479 358.244 218.69 358.473 218.838 358.763C218.991 359.048 219.065 359.373 219.06 359.737C219.06 359.8 219.057 359.858 219.052 359.911C219.046 359.958 219.044 359.993 219.044 360.014L215.878 360.014ZM217.224 358.344C216.87 358.344 216.58 358.449 216.353 358.66C216.126 358.866 215.981 359.146 215.918 359.499L218.411 359.499C218.39 359.167 218.276 358.893 218.07 358.676C217.865 358.455 217.582 358.344 217.224 358.344ZM219.873 361.992L219.873 357.885L220.482 357.885L220.482 358.7C220.635 358.426 220.836 358.212 221.084 358.059C221.337 357.901 221.617 357.822 221.923 357.822C222.208 357.822 222.458 357.882 222.675 358.004C222.896 358.12 223.068 358.286 223.189 358.502C223.316 358.719 223.379 358.972 223.379 359.262L223.379 361.992L222.77 361.992L222.77 359.357C222.77 359.072 222.683 358.837 222.508 358.653C222.34 358.468 222.105 358.376 221.804 358.376C221.408 358.376 221.089 358.539 220.847 358.866C220.604 359.188 220.482 359.629 220.482 360.188L220.482 361.992L219.873 361.992ZM226.103 362.055C225.686 362.055 225.33 361.961 225.035 361.771C224.745 361.581 224.523 361.327 224.37 361.011C224.222 360.689 224.148 360.33 224.148 359.935C224.148 359.539 224.225 359.183 224.378 358.866C224.531 358.544 224.753 358.291 225.043 358.107C225.333 357.917 225.686 357.822 226.103 357.822C226.372 357.822 226.633 357.888 226.887 358.019C227.14 358.146 227.33 358.31 227.456 358.51L227.456 356.223L228.066 356.223L228.066 361.992L227.456 361.992L227.456 361.367C227.372 361.557 227.203 361.72 226.95 361.858C226.697 361.99 226.414 362.055 226.103 362.055ZM226.151 361.509C226.557 361.509 226.887 361.367 227.14 361.082C227.393 360.792 227.52 360.409 227.52 359.935C227.52 359.465 227.393 359.088 227.14 358.803C226.887 358.513 226.557 358.368 226.151 358.368C225.739 358.368 225.407 358.513 225.154 358.803C224.906 359.088 224.782 359.465 224.782 359.935C224.782 360.404 224.906 360.784 225.154 361.074C225.407 361.364 225.739 361.509 226.151 361.509Z" fill="#B480DC"/>
</g>
<g filter="url(#filter7_di_6803_30378)">
<path d="M211.975 337.855C213.185 337.682 214.328 337.192 215.288 336.435L217.447 336.435C218.035 336.435 218.617 336.319 219.16 336.094C219.703 335.869 220.198 335.539 220.613 335.123C221.029 334.707 221.359 334.213 221.584 333.67C221.809 333.127 221.925 332.545 221.925 331.957L214.959 331.957L214.959 330.962L222.919 330.962L222.919 331.957C222.917 332.373 222.867 332.786 222.774 333.187C223.237 332.944 223.756 332.812 224.288 332.812C225.149 332.813 225.974 333.154 226.582 333.763C226.784 333.964 226.955 334.19 227.096 334.433C227.256 334.354 227.414 334.269 227.566 334.173C228.362 333.671 228.998 332.954 229.402 332.104C227.049 329 223.24 326.981 218.939 326.981C216.192 326.981 213.865 327.568 211.975 328.598L211.975 337.855ZM209.985 338.922C210.249 338.922 210.502 338.816 210.688 338.63C210.875 338.443 210.979 338.191 210.979 337.927L210.979 328.972C210.979 328.708 210.875 328.455 210.688 328.269C210.502 328.082 210.249 327.977 209.985 327.977L207.995 327.977C207.731 327.977 207.479 328.082 207.292 328.269C207.105 328.455 207 328.708 207 328.972L207 337.927C207 338.191 207.105 338.443 207.292 338.63C207.479 338.816 207.731 338.922 207.995 338.922L209.985 338.922Z" fill="#C48BEF"/>
</g>
<g filter="url(#filter8_di_6803_30378)">
<path d="M225.837 337.599C225.425 338.011 224.867 338.242 224.285 338.242C223.703 338.242 223.144 338.011 222.733 337.599C222.321 337.188 222.09 336.63 222.09 336.047C222.09 335.465 222.321 334.907 222.733 334.495C223.144 334.084 223.703 333.853 224.285 333.853C224.867 333.853 225.425 334.084 225.837 334.495C226.248 334.907 226.479 335.465 226.479 336.047C226.479 336.63 226.248 337.188 225.837 337.599Z" fill="#C48BEF"/>
</g>
<g filter="url(#filter9_di_6803_30378)">
<path d="M227.915 342.795C227.503 343.206 226.945 343.437 226.363 343.437C225.781 343.437 225.222 343.206 224.811 342.795C224.399 342.383 224.168 341.825 224.168 341.243C224.168 340.661 224.399 340.102 224.811 339.691C225.222 339.279 225.781 339.048 226.363 339.048C226.945 339.048 227.503 339.279 227.915 339.691C228.326 340.102 228.558 340.661 228.558 341.243C228.558 341.825 228.326 342.383 227.915 342.795Z" fill="#C48BEF"/>
</g>
<g filter="url(#filter10_di_6803_30378)">
<path d="M222.204 341.756C221.792 342.167 221.234 342.398 220.652 342.398C220.07 342.398 219.511 342.167 219.1 341.756C218.688 341.344 218.457 340.786 218.457 340.204C218.457 339.622 218.688 339.063 219.1 338.652C219.511 338.24 220.07 338.009 220.652 338.009C221.234 338.009 221.792 338.24 222.204 338.652C222.615 339.063 222.847 339.622 222.847 340.204C222.847 340.786 222.615 341.344 222.204 341.756Z" fill="#C48BEF"/>
</g>
<g filter="url(#filter11_din_6803_30378)">
<path d="M233.91 368.891C236.937 368.891 239.841 370.093 241.981 372.233L244.782 375.034C245.896 376.148 245.897 377.955 244.782 379.07L239.22 384.633C238.105 385.747 238.105 387.554 239.22 388.668L241.27 390.718C242.385 391.833 244.192 391.833 245.306 390.718L250.868 385.156C251.982 384.041 253.789 384.041 254.904 385.156L257.529 387.781C259.67 389.922 260.872 392.825 260.872 395.853V519.801C260.872 522.828 259.67 525.731 257.529 527.872L241.981 543.42C239.841 545.561 236.937 546.763 233.91 546.763H109.962C106.935 546.763 104.031 545.56 101.891 543.42L99.2611 540.79C98.1466 539.676 98.1467 537.869 99.2612 536.755L104.817 531.199C105.931 530.085 105.931 528.278 104.817 527.164L102.767 525.113C101.652 523.999 99.8456 523.999 98.7312 525.113L93.175 530.669C92.0606 531.783 90.2539 531.783 89.1395 530.669L86.3428 527.872C84.2022 525.731 83 522.828 83 519.801V395.853C83 392.825 84.2022 389.922 86.3428 387.781L101.891 372.233C104.031 370.093 106.935 368.891 109.962 368.891H233.91ZM135.979 404.753C126.524 404.753 118.858 412.418 118.857 421.874V493.781C118.857 503.237 126.524 510.902 135.979 510.902H207.886C217.342 510.902 225.008 503.237 225.008 493.781V421.874C225.008 412.418 217.342 404.753 207.886 404.753H135.979Z" fill="url(#paint5_linear_6803_30378)"/>
</g>
<rect x="118.859" y="404.758" width="106.15" height="106.15" rx="17.1217" fill="#1D1D1D"/>
<g filter="url(#filter12_din_6803_30378)">
<rect x="136.078" y="421.969" width="71.723" height="71.723" rx="2.85361" fill="url(#paint6_linear_6803_30378)"/>
</g>
<g filter="url(#filter13_di_6803_30378)">
<path d="M160.253 452.945L155.496 468.894" stroke="url(#paint7_linear_6803_30378)" stroke-width="2.73995" stroke-linecap="round"/>
<mask id="mask0_6803_30378" style="mask-type:alpha" maskUnits="userSpaceOnUse" x="158" y="447" width="35" height="22">
<mask id="path-20-inside-1_6803_30378" fill="white">
<path d="M173.961 456.12C173.961 451.126 178.009 447.078 183.003 447.078H183.666C188.66 447.078 192.708 451.126 192.708 456.12V467.135H173.961V456.12Z"/>
</mask>
<path d="M171.221 456.12C171.221 449.613 176.496 444.338 183.003 444.338H183.666C190.173 444.338 195.448 449.613 195.448 456.12H189.968C189.968 452.64 187.147 449.818 183.666 449.818H183.003C179.522 449.818 176.701 452.64 176.701 456.12H171.221ZM192.708 467.135H173.961H192.708ZM171.221 467.135V456.12C171.221 449.613 176.496 444.338 183.003 444.338V449.818C179.522 449.818 176.701 452.64 176.701 456.12V467.135H171.221ZM183.666 444.338C190.173 444.338 195.448 449.613 195.448 456.12V467.135H189.968V456.12C189.968 452.64 187.147 449.818 183.666 449.818V444.338Z" fill="white" mask="url(#path-20-inside-1_6803_30378)"/>
<ellipse cx="191.309" cy="467.13" rx="1.3989" ry="1.20814" fill="#A66CFF"/>
<mask id="path-23-inside-2_6803_30378" fill="white">
<path d="M158.016 456.12C158.016 451.126 162.064 447.078 167.057 447.078H167.721C172.714 447.078 176.763 451.126 176.763 456.12V467.135H158.016V456.12Z"/>
</mask>
<path d="M155.276 456.12C155.276 449.613 160.551 444.338 167.057 444.338H167.721C174.228 444.338 179.503 449.613 179.503 456.12H174.023C174.023 452.64 171.201 449.818 167.721 449.818H167.057C163.577 449.818 160.756 452.64 160.756 456.12H155.276ZM176.763 467.135H158.016H176.763ZM155.276 467.135V456.12C155.276 449.613 160.551 444.338 167.057 444.338V449.818C163.577 449.818 160.756 452.64 160.756 456.12V467.135H155.276ZM167.721 444.338C174.228 444.338 179.503 449.613 179.503 456.12V467.135H174.023V456.12C174.023 452.64 171.201 449.818 167.721 449.818V444.338Z" fill="#A66CFF" mask="url(#path-23-inside-2_6803_30378)"/>
<ellipse cx="175.36" cy="467.13" rx="1.3989" ry="1.20814" fill="#A66CFF"/>
</mask>
<g mask="url(#mask0_6803_30378)">
<path d="M159.098 446.352L194.167 446.728V469.303L189.864 468.227V457.11C189.864 457.11 190.222 449.938 183.409 449.938C176.236 449.938 176.752 457.11 176.752 457.11V469.303H173.885V455.285C172.924 450.074 169.563 449.46 167.573 449.33C166.155 449.236 165.239 449.338 164.006 450.074C162.979 450.686 161.756 451.935 161.4 452.68C160.543 454.467 156.871 452.24 156.871 452.24L159.098 446.352Z" fill="white"/>
</g>
<circle cx="158.711" cy="458.925" r="5.48506" stroke="white" stroke-width="2.73995"/>
</g>
</g>
<defs>
<filter id="filter0_din_6803_30378" x="73.9803" y="458.97" width="200.418" height="169.789" filterUnits="userSpaceOnUse" color-interpolation-filters="sRGB">
<feFlood flood-opacity="0" result="BackgroundImageFix"/>
<feColorMatrix in="SourceAlpha" type="matrix" values="0 0 0 0 0 0 0 0 0 0 0 0 0 0 0 0 0 0 127 0" result="hardAlpha"/>
<feOffset dy="3.03637"/>
<feGaussianBlur stdDeviation="19.7364"/>
<feComposite in2="hardAlpha" operator="out"/>
<feColorMatrix type="matrix" values="0 0 0 0 0 0 0 0 0 0 0 0 0 0 0 0 0 0 0.55 0"/>
<feBlend mode="normal" in2="BackgroundImageFix" result="effect1_dropShadow_6803_30378"/>
<feBlend mode="normal" in="SourceGraphic" in2="BackgroundImageFix" result="shape"/>
<feColorMatrix in="SourceAlpha" type="matrix" values="0 0 0 0 0 0 0 0 0 0 0 0 0 0 0 0 0 0 127 0" result="hardAlpha"/>
<feOffset dy="-2.27728"/>
<feGaussianBlur stdDeviation="0.303637"/>
<feComposite in2="hardAlpha" operator="arithmetic" k2="-1" k3="1"/>
<feColorMatrix type="matrix" values="0 0 0 0 0 0 0 0 0 0 0 0 0 0 0 0 0 0 0.25 0"/>
<feBlend mode="normal" in2="shape" result="effect2_innerShadow_6803_30378"/>
<feTurbulence type="fractalNoise" baseFrequency="13.173612594604492 13.173612594604492" stitchTiles="stitch" numOctaves="3" result="noise" seed="5938" />
<feColorMatrix in="noise" type="luminanceToAlpha" result="alphaNoise" />
<feComponentTransfer in="alphaNoise" result="coloredNoise1">
<feFuncA type="discrete" tableValues="1 1 1 1 1 1 1 1 1 1 1 1 1 1 1 1 1 1 1 1 1 1 1 1 1 1 1 1 1 1 1 1 1 1 1 1 1 1 1 1 1 1 1 1 1 1 1 1 1 1 1 0 0 0 0 0 0 0 0 0 0 0 0 0 0 0 0 0 0 0 0 0 0 0 0 0 0 0 0 0 0 0 0 0 0 0 0 0 0 0 0 0 0 0 0 0 0 0 0 0 "/>
</feComponentTransfer>
<feComposite operator="in" in2="effect2_innerShadow_6803_30378" in="coloredNoise1" result="noise1Clipped" />
<feFlood flood-color="rgba(0, 0, 0, 0.35)" result="color1Flood" />
<feComposite operator="in" in2="noise1Clipped" in="color1Flood" result="color1" />
<feMerge result="effect3_noise_6803_30378">
<feMergeNode in="effect2_innerShadow_6803_30378" />
<feMergeNode in="color1" />
</feMerge>
<feBlend mode="normal" in="effect3_noise_6803_30378" in2="effect1_dropShadow_6803_30378" result="effect3_noise_6803_30378"/>
</filter>
<filter id="filter1_di_6803_30378" x="121.418" y="542.301" width="108.562" height="44.6406" filterUnits="userSpaceOnUse" color-interpolation-filters="sRGB">
<feFlood flood-opacity="0" result="BackgroundImageFix"/>
<feColorMatrix in="SourceAlpha" type="matrix" values="0 0 0 0 0 0 0 0 0 0 0 0 0 0 0 0 0 0 127 0" result="hardAlpha"/>
<feOffset/>
<feGaussianBlur stdDeviation="7.26757"/>
<feComposite in2="hardAlpha" operator="out"/>
<feColorMatrix type="matrix" values="0 0 0 0 0.768627 0 0 0 0 0.545098 0 0 0 0 0.937255 0 0 0 1 0"/>
<feBlend mode="normal" in2="BackgroundImageFix" result="effect1_dropShadow_6803_30378"/>
<feBlend mode="normal" in="SourceGraphic" in2="effect1_dropShadow_6803_30378" result="shape"/>
<feColorMatrix in="SourceAlpha" type="matrix" values="0 0 0 0 0 0 0 0 0 0 0 0 0 0 0 0 0 0 127 0" result="hardAlpha"/>
<feOffset dx="-0.519112"/>
<feGaussianBlur stdDeviation="0.259556"/>
<feComposite in2="hardAlpha" operator="arithmetic" k2="-1" k3="1"/>
<feColorMatrix type="matrix" values="0 0 0 0 0 0 0 0 0 0 0 0 0 0 0 0 0 0 0.25 0"/>
<feBlend mode="normal" in2="shape" result="effect2_innerShadow_6803_30378"/>
</filter>
<filter id="filter2_din_6803_30378" x="70.7811" y="282.993" width="137.965" height="146.391" filterUnits="userSpaceOnUse" color-interpolation-filters="sRGB">
<feFlood flood-opacity="0" result="BackgroundImageFix"/>
<feColorMatrix in="SourceAlpha" type="matrix" values="0 0 0 0 0 0 0 0 0 0 0 0 0 0 0 0 0 0 127 0" result="hardAlpha"/>
<feOffset dy="3.03637"/>
<feGaussianBlur stdDeviation="19.7364"/>
<feComposite in2="hardAlpha" operator="out"/>
<feColorMatrix type="matrix" values="0 0 0 0 0 0 0 0 0 0 0 0 0 0 0 0 0 0 0.55 0"/>
<feBlend mode="normal" in2="BackgroundImageFix" result="effect1_dropShadow_6803_30378"/>
<feBlend mode="normal" in="SourceGraphic" in2="BackgroundImageFix" result="shape"/>
<feColorMatrix in="SourceAlpha" type="matrix" values="0 0 0 0 0 0 0 0 0 0 0 0 0 0 0 0 0 0 127 0" result="hardAlpha"/>
<feOffset dy="-2.27728"/>
<feGaussianBlur stdDeviation="0.303637"/>
<feComposite in2="hardAlpha" operator="arithmetic" k2="-1" k3="1"/>
<feColorMatrix type="matrix" values="0 0 0 0 0 0 0 0 0 0 0 0 0 0 0 0 0 0 0.25 0"/>
<feBlend mode="normal" in2="shape" result="effect2_innerShadow_6803_30378"/>
<feTurbulence type="fractalNoise" baseFrequency="13.173612594604492 13.173612594604492" stitchTiles="stitch" numOctaves="3" result="noise" seed="5938" />
<feColorMatrix in="noise" type="luminanceToAlpha" result="alphaNoise" />
<feComponentTransfer in="alphaNoise" result="coloredNoise1">
<feFuncA type="discrete" tableValues="1 1 1 1 1 1 1 1 1 1 1 1 1 1 1 1 1 1 1 1 1 1 1 1 1 1 1 1 1 1 1 1 1 1 1 1 1 1 1 1 1 1 1 1 1 1 1 1 1 1 1 0 0 0 0 0 0 0 0 0 0 0 0 0 0 0 0 0 0 0 0 0 0 0 0 0 0 0 0 0 0 0 0 0 0 0 0 0 0 0 0 0 0 0 0 0 0 0 0 0 "/>
</feComponentTransfer>
<feComposite operator="in" in2="effect2_innerShadow_6803_30378" in="coloredNoise1" result="noise1Clipped" />
<feFlood flood-color="rgba(0, 0, 0, 0.35)" result="color1Flood" />
<feComposite operator="in" in2="noise1Clipped" in="color1Flood" result="color1" />
<feMerge result="effect3_noise_6803_30378">
<feMergeNode in="effect2_innerShadow_6803_30378" />
<feMergeNode in="color1" />
</feMerge>
<feBlend mode="normal" in="effect3_noise_6803_30378" in2="effect1_dropShadow_6803_30378" result="effect3_noise_6803_30378"/>
</filter>
<filter id="filter3_di_6803_30378" x="101.078" y="341.762" width="53.7773" height="34.8359" filterUnits="userSpaceOnUse" color-interpolation-filters="sRGB">
<feFlood flood-opacity="0" result="BackgroundImageFix"/>
<feColorMatrix in="SourceAlpha" type="matrix" values="0 0 0 0 0 0 0 0 0 0 0 0 0 0 0 0 0 0 127 0" result="hardAlpha"/>
<feOffset/>
<feGaussianBlur stdDeviation="7.26757"/>
<feComposite in2="hardAlpha" operator="out"/>
<feColorMatrix type="matrix" values="0 0 0 0 0.768627 0 0 0 0 0.545098 0 0 0 0 0.937255 0 0 0 1 0"/>
<feBlend mode="normal" in2="BackgroundImageFix" result="effect1_dropShadow_6803_30378"/>
<feBlend mode="normal" in="SourceGraphic" in2="effect1_dropShadow_6803_30378" result="shape"/>
<feColorMatrix in="SourceAlpha" type="matrix" values="0 0 0 0 0 0 0 0 0 0 0 0 0 0 0 0 0 0 127 0" result="hardAlpha"/>
<feOffset dx="-0.519112"/>
<feGaussianBlur stdDeviation="0.259556"/>
<feComposite in2="hardAlpha" operator="arithmetic" k2="-1" k3="1"/>
<feColorMatrix type="matrix" values="0 0 0 0 0 0 0 0 0 0 0 0 0 0 0 0 0 0 0.25 0"/>
<feBlend mode="normal" in2="shape" result="effect2_innerShadow_6803_30378"/>
</filter>
<filter id="filter4_di_6803_30378" x="102.473" y="311.457" width="51.4726" height="47.9765" filterUnits="userSpaceOnUse" color-interpolation-filters="sRGB">
<feFlood flood-opacity="0" result="BackgroundImageFix"/>
<feColorMatrix in="SourceAlpha" type="matrix" values="0 0 0 0 0 0 0 0 0 0 0 0 0 0 0 0 0 0 127 0" result="hardAlpha"/>
<feOffset/>
<feGaussianBlur stdDeviation="7.26757"/>
<feComposite in2="hardAlpha" operator="out"/>
<feColorMatrix type="matrix" values="0 0 0 0 0.768627 0 0 0 0 0.545098 0 0 0 0 0.937255 0 0 0 1 0"/>
<feBlend mode="normal" in2="BackgroundImageFix" result="effect1_dropShadow_6803_30378"/>
<feBlend mode="normal" in="SourceGraphic" in2="effect1_dropShadow_6803_30378" result="shape"/>
<feColorMatrix in="SourceAlpha" type="matrix" values="0 0 0 0 0 0 0 0 0 0 0 0 0 0 0 0 0 0 127 0" result="hardAlpha"/>
<feOffset dx="-0.519112"/>
<feGaussianBlur stdDeviation="0.259556"/>
<feComposite in2="hardAlpha" operator="arithmetic" k2="-1" k3="1"/>
<feColorMatrix type="matrix" values="0 0 0 0 0 0 0 0 0 0 0 0 0 0 0 0 0 0 0.25 0"/>
<feBlend mode="normal" in2="shape" result="effect2_innerShadow_6803_30378"/>
</filter>
<filter id="filter5_din_6803_30378" x="136.344" y="282.985" width="137.965" height="146.391" filterUnits="userSpaceOnUse" color-interpolation-filters="sRGB">
<feFlood flood-opacity="0" result="BackgroundImageFix"/>
<feColorMatrix in="SourceAlpha" type="matrix" values="0 0 0 0 0 0 0 0 0 0 0 0 0 0 0 0 0 0 127 0" result="hardAlpha"/>
<feOffset dy="3.03637"/>
<feGaussianBlur stdDeviation="19.7364"/>
<feComposite in2="hardAlpha" operator="out"/>
<feColorMatrix type="matrix" values="0 0 0 0 0 0 0 0 0 0 0 0 0 0 0 0 0 0 0.55 0"/>
<feBlend mode="normal" in2="BackgroundImageFix" result="effect1_dropShadow_6803_30378"/>
<feBlend mode="normal" in="SourceGraphic" in2="BackgroundImageFix" result="shape"/>
<feColorMatrix in="SourceAlpha" type="matrix" values="0 0 0 0 0 0 0 0 0 0 0 0 0 0 0 0 0 0 127 0" result="hardAlpha"/>
<feOffset dy="-2.27728"/>
<feGaussianBlur stdDeviation="0.303637"/>
<feComposite in2="hardAlpha" operator="arithmetic" k2="-1" k3="1"/>
<feColorMatrix type="matrix" values="0 0 0 0 0 0 0 0 0 0 0 0 0 0 0 0 0 0 0.25 0"/>
<feBlend mode="normal" in2="shape" result="effect2_innerShadow_6803_30378"/>
<feTurbulence type="fractalNoise" baseFrequency="13.173612594604492 13.173612594604492" stitchTiles="stitch" numOctaves="3" result="noise" seed="5938" />
<feColorMatrix in="noise" type="luminanceToAlpha" result="alphaNoise" />
<feComponentTransfer in="alphaNoise" result="coloredNoise1">
<feFuncA type="discrete" tableValues="1 1 1 1 1 1 1 1 1 1 1 1 1 1 1 1 1 1 1 1 1 1 1 1 1 1 1 1 1 1 1 1 1 1 1 1 1 1 1 1 1 1 1 1 1 1 1 1 1 1 1 0 0 0 0 0 0 0 0 0 0 0 0 0 0 0 0 0 0 0 0 0 0 0 0 0 0 0 0 0 0 0 0 0 0 0 0 0 0 0 0 0 0 0 0 0 0 0 0 0 "/>
</feComponentTransfer>
<feComposite operator="in" in2="effect2_innerShadow_6803_30378" in="coloredNoise1" result="noise1Clipped" />
<feFlood flood-color="rgba(0, 0, 0, 0.35)" result="color1Flood" />
<feComposite operator="in" in2="noise1Clipped" in="color1Flood" result="color1" />
<feMerge result="effect3_noise_6803_30378">
<feMergeNode in="effect2_innerShadow_6803_30378" />
<feMergeNode in="color1" />
</feMerge>
<feBlend mode="normal" in="effect3_noise_6803_30378" in2="effect1_dropShadow_6803_30378" result="effect3_noise_6803_30378"/>
</filter>
<filter id="filter6_di_6803_30378" x="197.07" y="341.691" width="45.5312" height="34.8984" filterUnits="userSpaceOnUse" color-interpolation-filters="sRGB">
<feFlood flood-opacity="0" result="BackgroundImageFix"/>
<feColorMatrix in="SourceAlpha" type="matrix" values="0 0 0 0 0 0 0 0 0 0 0 0 0 0 0 0 0 0 127 0" result="hardAlpha"/>
<feOffset/>
<feGaussianBlur stdDeviation="7.26757"/>
<feComposite in2="hardAlpha" operator="out"/>
<feColorMatrix type="matrix" values="0 0 0 0 0.768627 0 0 0 0 0.545098 0 0 0 0 0.937255 0 0 0 1 0"/>
<feBlend mode="normal" in2="BackgroundImageFix" result="effect1_dropShadow_6803_30378"/>
<feBlend mode="normal" in="SourceGraphic" in2="effect1_dropShadow_6803_30378" result="shape"/>
<feColorMatrix in="SourceAlpha" type="matrix" values="0 0 0 0 0 0 0 0 0 0 0 0 0 0 0 0 0 0 127 0" result="hardAlpha"/>
<feOffset dx="-0.519112"/>
<feGaussianBlur stdDeviation="0.259556"/>
<feComposite in2="hardAlpha" operator="arithmetic" k2="-1" k3="1"/>
<feColorMatrix type="matrix" values="0 0 0 0 0 0 0 0 0 0 0 0 0 0 0 0 0 0 0.25 0"/>
<feBlend mode="normal" in2="shape" result="effect2_innerShadow_6803_30378"/>
</filter>
<filter id="filter7_di_6803_30378" x="192.465" y="312.449" width="51.4726" height="41.0078" filterUnits="userSpaceOnUse" color-interpolation-filters="sRGB">
<feFlood flood-opacity="0" result="BackgroundImageFix"/>
<feColorMatrix in="SourceAlpha" type="matrix" values="0 0 0 0 0 0 0 0 0 0 0 0 0 0 0 0 0 0 127 0" result="hardAlpha"/>
<feOffset/>
<feGaussianBlur stdDeviation="7.26757"/>
<feComposite in2="hardAlpha" operator="out"/>
<feColorMatrix type="matrix" values="0 0 0 0 0.768627 0 0 0 0 0.545098 0 0 0 0 0.937255 0 0 0 1 0"/>
<feBlend mode="normal" in2="BackgroundImageFix" result="effect1_dropShadow_6803_30378"/>
<feBlend mode="normal" in="SourceGraphic" in2="effect1_dropShadow_6803_30378" result="shape"/>
<feColorMatrix in="SourceAlpha" type="matrix" values="0 0 0 0 0 0 0 0 0 0 0 0 0 0 0 0 0 0 127 0" result="hardAlpha"/>
<feOffset dx="-0.519112"/>
<feGaussianBlur stdDeviation="0.259556"/>
<feComposite in2="hardAlpha" operator="arithmetic" k2="-1" k3="1"/>
<feColorMatrix type="matrix" values="0 0 0 0 0 0 0 0 0 0 0 0 0 0 0 0 0 0 0.25 0"/>
<feBlend mode="normal" in2="shape" result="effect2_innerShadow_6803_30378"/>
</filter>
<filter id="filter8_di_6803_30378" x="207.555" y="319.316" width="33.4609" height="33.4609" filterUnits="userSpaceOnUse" color-interpolation-filters="sRGB">
<feFlood flood-opacity="0" result="BackgroundImageFix"/>
<feColorMatrix in="SourceAlpha" type="matrix" values="0 0 0 0 0 0 0 0 0 0 0 0 0 0 0 0 0 0 127 0" result="hardAlpha"/>
<feOffset/>
<feGaussianBlur stdDeviation="7.26757"/>
<feComposite in2="hardAlpha" operator="out"/>
<feColorMatrix type="matrix" values="0 0 0 0 0.768627 0 0 0 0 0.545098 0 0 0 0 0.937255 0 0 0 1 0"/>
<feBlend mode="normal" in2="BackgroundImageFix" result="effect1_dropShadow_6803_30378"/>
<feBlend mode="normal" in="SourceGraphic" in2="effect1_dropShadow_6803_30378" result="shape"/>
<feColorMatrix in="SourceAlpha" type="matrix" values="0 0 0 0 0 0 0 0 0 0 0 0 0 0 0 0 0 0 127 0" result="hardAlpha"/>
<feOffset dx="-0.519112"/>
<feGaussianBlur stdDeviation="0.259556"/>
<feComposite in2="hardAlpha" operator="arithmetic" k2="-1" k3="1"/>
<feColorMatrix type="matrix" values="0 0 0 0 0 0 0 0 0 0 0 0 0 0 0 0 0 0 0.25 0"/>
<feBlend mode="normal" in2="shape" result="effect2_innerShadow_6803_30378"/>
</filter>
<filter id="filter9_di_6803_30378" x="209.633" y="324.512" width="33.4609" height="33.4609" filterUnits="userSpaceOnUse" color-interpolation-filters="sRGB">
<feFlood flood-opacity="0" result="BackgroundImageFix"/>
<feColorMatrix in="SourceAlpha" type="matrix" values="0 0 0 0 0 0 0 0 0 0 0 0 0 0 0 0 0 0 127 0" result="hardAlpha"/>
<feOffset/>
<feGaussianBlur stdDeviation="7.26757"/>
<feComposite in2="hardAlpha" operator="out"/>
<feColorMatrix type="matrix" values="0 0 0 0 0.768627 0 0 0 0 0.545098 0 0 0 0 0.937255 0 0 0 1 0"/>
<feBlend mode="normal" in2="BackgroundImageFix" result="effect1_dropShadow_6803_30378"/>
<feBlend mode="normal" in="SourceGraphic" in2="effect1_dropShadow_6803_30378" result="shape"/>
<feColorMatrix in="SourceAlpha" type="matrix" values="0 0 0 0 0 0 0 0 0 0 0 0 0 0 0 0 0 0 127 0" result="hardAlpha"/>
<feOffset dx="-0.519112"/>
<feGaussianBlur stdDeviation="0.259556"/>
<feComposite in2="hardAlpha" operator="arithmetic" k2="-1" k3="1"/>
<feColorMatrix type="matrix" values="0 0 0 0 0 0 0 0 0 0 0 0 0 0 0 0 0 0 0.25 0"/>
<feBlend mode="normal" in2="shape" result="effect2_innerShadow_6803_30378"/>
</filter>
<filter id="filter10_di_6803_30378" x="203.922" y="323.473" width="33.4609" height="33.4609" filterUnits="userSpaceOnUse" color-interpolation-filters="sRGB">
<feFlood flood-opacity="0" result="BackgroundImageFix"/>
<feColorMatrix in="SourceAlpha" type="matrix" values="0 0 0 0 0 0 0 0 0 0 0 0 0 0 0 0 0 0 127 0" result="hardAlpha"/>
<feOffset/>
<feGaussianBlur stdDeviation="7.26757"/>
<feComposite in2="hardAlpha" operator="out"/>
<feColorMatrix type="matrix" values="0 0 0 0 0.768627 0 0 0 0 0.545098 0 0 0 0 0.937255 0 0 0 1 0"/>
<feBlend mode="normal" in2="BackgroundImageFix" result="effect1_dropShadow_6803_30378"/>
<feBlend mode="normal" in="SourceGraphic" in2="effect1_dropShadow_6803_30378" result="shape"/>
<feColorMatrix in="SourceAlpha" type="matrix" values="0 0 0 0 0 0 0 0 0 0 0 0 0 0 0 0 0 0 127 0" result="hardAlpha"/>
<feOffset dx="-0.519112"/>
<feGaussianBlur stdDeviation="0.259556"/>
<feComposite in2="hardAlpha" operator="arithmetic" k2="-1" k3="1"/>
<feColorMatrix type="matrix" values="0 0 0 0 0 0 0 0 0 0 0 0 0 0 0 0 0 0 0.25 0"/>
<feBlend mode="normal" in2="shape" result="effect2_innerShadow_6803_30378"/>
</filter>
<filter id="filter11_din_6803_30378" x="45.903" y="334.647" width="252.065" height="252.069" filterUnits="userSpaceOnUse" color-interpolation-filters="sRGB">
<feFlood flood-opacity="0" result="BackgroundImageFix"/>
<feColorMatrix in="SourceAlpha" type="matrix" values="0 0 0 0 0 0 0 0 0 0 0 0 0 0 0 0 0 0 127 0" result="hardAlpha"/>
<feOffset dy="2.85361"/>
<feGaussianBlur stdDeviation="18.5485"/>
<feComposite in2="hardAlpha" operator="out"/>
<feColorMatrix type="matrix" values="0 0 0 0 0 0 0 0 0 0 0 0 0 0 0 0 0 0 0.55 0"/>
<feBlend mode="normal" in2="BackgroundImageFix" result="effect1_dropShadow_6803_30378"/>
<feBlend mode="normal" in="SourceGraphic" in2="BackgroundImageFix" result="shape"/>
<feColorMatrix in="SourceAlpha" type="matrix" values="0 0 0 0 0 0 0 0 0 0 0 0 0 0 0 0 0 0 127 0" result="hardAlpha"/>
<feOffset dy="-2.14021"/>
<feGaussianBlur stdDeviation="0.285361"/>
<feComposite in2="hardAlpha" operator="arithmetic" k2="-1" k3="1"/>
<feColorMatrix type="matrix" values="0 0 0 0 0 0 0 0 0 0 0 0 0 0 0 0 0 0 0.25 0"/>
<feBlend mode="normal" in2="shape" result="effect2_innerShadow_6803_30378"/>
<feTurbulence type="fractalNoise" baseFrequency="14.017325401306152 14.017325401306152" stitchTiles="stitch" numOctaves="3" result="noise" seed="5938" />
<feColorMatrix in="noise" type="luminanceToAlpha" result="alphaNoise" />
<feComponentTransfer in="alphaNoise" result="coloredNoise1">
<feFuncA type="discrete" tableValues="1 1 1 1 1 1 1 1 1 1 1 1 1 1 1 1 1 1 1 1 1 1 1 1 1 1 1 1 1 1 1 1 1 1 1 1 1 1 1 1 1 1 1 1 1 1 1 1 1 1 1 0 0 0 0 0 0 0 0 0 0 0 0 0 0 0 0 0 0 0 0 0 0 0 0 0 0 0 0 0 0 0 0 0 0 0 0 0 0 0 0 0 0 0 0 0 0 0 0 0 "/>
</feComponentTransfer>
<feComposite operator="in" in2="effect2_innerShadow_6803_30378" in="coloredNoise1" result="noise1Clipped" />
<feFlood flood-color="rgba(0, 0, 0, 0.35)" result="color1Flood" />
<feComposite operator="in" in2="noise1Clipped" in="color1Flood" result="color1" />
<feMerge result="effect3_noise_6803_30378">
<feMergeNode in="effect2_innerShadow_6803_30378" />
<feMergeNode in="color1" />
</feMerge>
<feBlend mode="normal" in="effect3_noise_6803_30378" in2="effect1_dropShadow_6803_30378" result="effect3_noise_6803_30378"/>
</filter>
<filter id="filter12_din_6803_30378" x="98.9812" y="387.725" width="145.917" height="145.92" filterUnits="userSpaceOnUse" color-interpolation-filters="sRGB">
<feFlood flood-opacity="0" result="BackgroundImageFix"/>
<feColorMatrix in="SourceAlpha" type="matrix" values="0 0 0 0 0 0 0 0 0 0 0 0 0 0 0 0 0 0 127 0" result="hardAlpha"/>
<feOffset dy="2.85361"/>
<feGaussianBlur stdDeviation="18.5485"/>
<feComposite in2="hardAlpha" operator="out"/>
<feColorMatrix type="matrix" values="0 0 0 0 0 0 0 0 0 0 0 0 0 0 0 0 0 0 0.25 0"/>
<feBlend mode="normal" in2="BackgroundImageFix" result="effect1_dropShadow_6803_30378"/>
<feBlend mode="normal" in="SourceGraphic" in2="BackgroundImageFix" result="shape"/>
<feColorMatrix in="SourceAlpha" type="matrix" values="0 0 0 0 0 0 0 0 0 0 0 0 0 0 0 0 0 0 127 0" result="hardAlpha"/>
<feOffset dy="-2.14021"/>
<feGaussianBlur stdDeviation="0.285361"/>
<feComposite in2="hardAlpha" operator="arithmetic" k2="-1" k3="1"/>
<feColorMatrix type="matrix" values="0 0 0 0 0 0 0 0 0 0 0 0 0 0 0 0 0 0 0.25 0"/>
<feBlend mode="normal" in2="shape" result="effect2_innerShadow_6803_30378"/>
<feTurbulence type="fractalNoise" baseFrequency="14.017325401306152 14.017325401306152" stitchTiles="stitch" numOctaves="3" result="noise" seed="5938" />
<feColorMatrix in="noise" type="luminanceToAlpha" result="alphaNoise" />
<feComponentTransfer in="alphaNoise" result="coloredNoise1">
<feFuncA type="discrete" tableValues="1 1 1 1 1 1 1 1 1 1 1 1 1 1 1 1 1 1 1 1 1 1 1 1 1 1 1 1 1 1 1 1 1 1 1 1 1 1 1 1 1 1 1 1 1 1 1 1 1 1 1 0 0 0 0 0 0 0 0 0 0 0 0 0 0 0 0 0 0 0 0 0 0 0 0 0 0 0 0 0 0 0 0 0 0 0 0 0 0 0 0 0 0 0 0 0 0 0 0 0 "/>
</feComponentTransfer>
<feComposite operator="in" in2="effect2_innerShadow_6803_30378" in="coloredNoise1" result="noise1Clipped" />
<feFlood flood-color="rgba(0, 0, 0, 0.35)" result="color1Flood" />
<feComposite operator="in" in2="noise1Clipped" in="color1Flood" result="color1" />
<feMerge result="effect3_noise_6803_30378">
<feMergeNode in="effect2_innerShadow_6803_30378" />
<feMergeNode in="color1" />
</feMerge>
<feBlend mode="normal" in="effect3_noise_6803_30378" in2="effect1_dropShadow_6803_30378" result="effect3_noise_6803_30378"/>
</filter>
<filter id="filter13_di_6803_30378" x="145.076" y="440.299" width="54.4108" height="36.7467" filterUnits="userSpaceOnUse" color-interpolation-filters="sRGB">
<feFlood flood-opacity="0" result="BackgroundImageFix"/>
<feColorMatrix in="SourceAlpha" type="matrix" values="0 0 0 0 0 0 0 0 0 0 0 0 0 0 0 0 0 0 127 0" result="hardAlpha"/>
<feOffset/>
<feGaussianBlur stdDeviation="3.3898"/>
<feComposite in2="hardAlpha" operator="out"/>
<feColorMatrix type="matrix" values="0 0 0 0 0.768627 0 0 0 0 0.545098 0 0 0 0 0.937255 0 0 0 1 0"/>
<feBlend mode="normal" in2="BackgroundImageFix" result="effect1_dropShadow_6803_30378"/>
<feBlend mode="normal" in="SourceGraphic" in2="effect1_dropShadow_6803_30378" result="shape"/>
<feColorMatrix in="SourceAlpha" type="matrix" values="0 0 0 0 0 0 0 0 0 0 0 0 0 0 0 0 0 0 127 0" result="hardAlpha"/>
<feOffset dy="1.80472"/>
<feGaussianBlur stdDeviation="0.451181"/>
<feComposite in2="hardAlpha" operator="arithmetic" k2="-1" k3="1"/>
<feColorMatrix type="matrix" values="0 0 0 0 0 0 0 0 0 0 0 0 0 0 0 0 0 0 0.25 0"/>
<feBlend mode="normal" in2="shape" result="effect2_innerShadow_6803_30378"/>
</filter>
<linearGradient id="paint0_linear_6803_30378" x1="202.5" y1="454" x2="202.5" y2="641.83" gradientUnits="userSpaceOnUse">
<stop stop-color="white"/>
<stop offset="1" stop-color="#999999" stop-opacity="0"/>
</linearGradient>
<linearGradient id="paint1_linear_6803_30378" x1="283.5" y1="0" x2="283.5" y2="187.83" gradientUnits="userSpaceOnUse">
<stop stop-color="white"/>
<stop offset="1" stop-color="#999999" stop-opacity="0"/>
</linearGradient>
<linearGradient id="paint2_linear_6803_30378" x1="113.454" y1="586.25" x2="196.328" y2="476.85" gradientUnits="userSpaceOnUse">
<stop stop-color="#232323"/>
<stop offset="1" stop-color="#595959"/>
</linearGradient>
<linearGradient id="paint3_linear_6803_30378" x1="114.063" y1="383.339" x2="176.709" y2="327.815" gradientUnits="userSpaceOnUse">
<stop stop-color="#232323"/>
<stop offset="1" stop-color="#595959"/>
</linearGradient>
<linearGradient id="paint4_linear_6803_30378" x1="171.465" y1="378.98" x2="226.989" y2="316.334" gradientUnits="userSpaceOnUse">
<stop stop-color="#232323"/>
<stop offset="1" stop-color="#595959"/>
</linearGradient>
<linearGradient id="paint5_linear_6803_30378" x1="83" y1="546.763" x2="249.396" y2="378.215" gradientUnits="userSpaceOnUse">
<stop stop-color="#232323"/>
<stop offset="1" stop-color="#595959"/>
</linearGradient>
<linearGradient id="paint6_linear_6803_30378" x1="136.078" y1="493.692" x2="203.174" y2="425.728" gradientUnits="userSpaceOnUse">
<stop stop-color="#232323"/>
<stop offset="1" stop-color="#595959"/>
</linearGradient>
<linearGradient id="paint7_linear_6803_30378" x1="155.634" y1="468.992" x2="158.995" y2="455.34" gradientUnits="userSpaceOnUse">
<stop stop-color="white"/>
<stop offset="1" stop-color="#343434" stop-opacity="0"/>
</linearGradient>
<clipPath id="clip0_6803_30378">
<path d="M0 16C0 7.16343 7.16344 0 16 0H329C337.837 0 345 7.16344 345 16V637C345 645.837 337.837 653 329 653H16C7.16345 653 0 645.837 0 637V16Z" fill="white"/>
</clipPath>
</defs>
</svg>
