<svg width="66" height="12" viewBox="0 0 66 12" fill="none" xmlns="http://www.w3.org/2000/svg">
<g clip-path="url(#clip0_6564_17560)">
<path d="M10.7695 6.00951C10.7695 2.30411 13.0824 0.445312 15.9345 0.445312C18.7837 0.445312 21.0965 2.30411 21.0965 6.00951C21.0965 9.72406 18.7837 11.5737 15.9345 11.5737C13.0824 11.5737 10.7695 9.74234 10.7695 6.00951ZM15.9345 10.1629C17.3393 10.1629 18.479 8.69105 18.479 6.00951C18.479 3.35234 17.3393 1.85617 15.9345 1.85617C14.5267 1.85617 13.384 3.35234 13.384 6.00951C13.384 8.67582 14.5267 10.1629 15.9345 10.1629Z" fill="#808080"/>
<path d="M0.757812 0.84375V11.1586H2.55262V4.2292L8.08635 11.1586H9.59472V0.84375H7.88828V6.52984L3.29004 0.84375H0.757812Z" fill="#808080"/>
<path d="M58.5041 0.84375L54.3203 11.1586H56.1273L57.2792 8.3216H61.079L62.2461 11.1586H65.1775L60.951 0.84375H58.5041ZM57.8642 6.84065L59.1715 3.60757L60.4818 6.84065H57.8642Z" fill="#808080"/>
<path d="M41.6731 7.60246C41.6243 8.54709 41.5512 9.48258 40.506 9.83301C40.0398 9.98537 39.1835 9.98231 38.699 9.79035C38.4674 9.69589 38.3242 9.61666 38.1444 9.43688C37.797 9.09255 37.6569 8.36121 37.6447 7.88585V0.84375H34.957V7.60246C34.9814 8.53491 35.1338 9.47344 35.7402 10.2261C36.7793 11.5181 38.6899 11.701 40.2348 11.509C41.1947 11.3901 42.0357 11.0732 42.7122 10.3663C43.1784 9.87872 43.4679 9.11083 43.5502 8.44959C43.602 8.06564 43.608 8.00165 43.608 7.60246V0.84375H41.6731L41.6731 7.60246Z" fill="#808080"/>
<path d="M48.0192 2.29727C49.2046 2.29727 50.3808 2.09616 50.8958 3.32723C51.0969 3.81478 51.1121 4.91787 50.6368 5.38714C50.073 5.94478 49.2076 5.99963 48.461 6.06362L51.2218 11.1586H54.0527L51.5479 6.61516C53.041 6.09104 53.7419 5.24697 53.6687 3.63499C53.5895 1.89504 52.1177 0.84375 50.4387 0.84375H45.3438V11.1586H48.0192V2.29727Z" fill="#808080"/>
<path d="M30.5906 11.1586L26.6079 0.84375H24.5145L20.6445 11.1586H22.5247L25.127 4.18654L27.772 11.1586H30.5906Z" fill="#808080"/>
<path d="M30.7255 0.84375H28.5345L27.8672 2.60809L28.8179 5.07633L29.1623 4.18654L31.7371 11.1586H34.7112L30.7255 0.84375Z" fill="#808080"/>
<path d="M25.8494 7.55469L24.5117 11.1532H26.2211L26.7178 9.79729L25.8494 7.55469Z" fill="#808080"/>
</g>
<defs>
<clipPath id="clip0_6564_17560">
<rect width="65" height="11.7201" fill="white" transform="translate(0.472656 0.132812)"/>
</clipPath>
</defs>
</svg>
