<svg width="118" height="22" viewBox="0 0 118 22" fill="none" xmlns="http://www.w3.org/2000/svg">
<g clip-path="url(#clip0_6397_7640)">
<path d="M18.0078 10.8507C18.0078 4.00982 22.2778 0.578125 27.5434 0.578125C32.8035 0.578125 37.0734 4.00982 37.0734 10.8507C37.0734 17.7085 32.8035 21.1233 27.5434 21.1233C22.2778 21.1233 18.0078 17.7422 18.0078 10.8507ZM27.5434 18.5186C30.1369 18.5186 32.2409 15.8014 32.2409 10.8507C32.2409 5.94507 30.1369 3.18284 27.5434 3.18284C24.9444 3.18284 22.8347 5.94507 22.8347 10.8507C22.8347 15.7732 24.9444 18.5186 27.5434 18.5186Z" fill="white"/>
<path d="M-0.476562 1.30469V20.3478H2.837V7.55489L13.0533 20.3478H15.8381V1.30469H12.6877V11.8023L4.19842 1.30469H-0.476562Z" fill="white"/>
<path d="M106.138 1.30469L98.4141 20.3478H101.75L103.877 15.1102H110.892L113.047 20.3478H118.459L110.656 1.30469H106.138ZM104.957 12.3761L107.37 6.40724L109.789 12.3761H104.957Z" fill="white"/>
<path d="M75.0632 13.7826C74.9732 15.5265 74.8382 17.2536 72.9085 17.9006C72.0478 18.1819 70.467 18.1763 69.5725 17.8219C69.1449 17.6475 68.8805 17.5012 68.5486 17.1693C67.9073 16.5336 67.6485 15.1834 67.626 14.3058V1.30469H62.6641V13.7826C62.7091 15.5041 62.9904 17.2368 64.1099 18.6263C66.0283 21.0116 69.5556 21.3492 72.4079 20.9948C74.18 20.7754 75.7326 20.1903 76.9816 18.8851C77.8423 17.985 78.3767 16.5673 78.5286 15.3465C78.6243 14.6377 78.6355 14.5196 78.6355 13.7826V1.30469H75.0632L75.0632 13.7826Z" fill="white"/>
<path d="M86.7753 3.98817C88.9638 3.98817 91.1353 3.61688 92.086 5.88968C92.4573 6.78979 92.4855 8.82631 91.6079 9.69267C90.5671 10.7222 88.9694 10.8234 87.5911 10.9416L92.688 20.3478H97.9143L93.2899 11.9598C96.0466 10.9922 97.3405 9.43388 97.2055 6.45786C97.0592 3.24557 94.342 1.30469 91.2422 1.30469H81.8359V20.3478H86.7753V3.98817Z" fill="white"/>
<path d="M54.6046 20.3478L47.2517 1.30469H43.3869L36.2422 20.3478H39.7133L44.5176 7.47613L49.4008 20.3478H54.6046Z" fill="white"/>
<path d="M54.8472 1.30469H50.8023L49.5703 4.562L51.3255 9.11884L51.9613 7.47613L56.715 20.3478H62.2057L54.8472 1.30469Z" fill="white"/>
<path d="M45.8445 13.7109L43.375 20.3545H46.5308L47.4478 17.8512L45.8445 13.7109Z" fill="white"/>
</g>
<defs>
<clipPath id="clip0_6397_7640">
<rect width="120.003" height="21.6377" fill="white" transform="translate(-1)"/>
</clipPath>
</defs>
</svg>
