<svg width="120" height="10" viewBox="0 0 120 10" fill="none" xmlns="http://www.w3.org/2000/svg">
<g clip-path="url(#clip0_6564_20468)">
<path d="M27.5259 9.51623H25.8883L24.849 7.58689H18.7681L17.7271 9.51623H16.0913L20.8677 0.888655H22.7508L27.5259 9.51623ZM24.1228 6.29858L21.8228 2.11813L19.4939 6.29858H24.1228ZM45.8999 9.51623H44.0383L37.1452 2.44073V9.51623H35.6495V0.888655H37.5067L44.4042 7.96709V0.889073H45.8999V9.51623ZM64.1747 2.17446V0.889073H54.0493V2.17446H58.3646V3.46987H55.5449V4.75694H58.3646V9.51623H59.8607V4.75694H62.6787V3.46987H59.8607V2.17446H64.1747ZM81.7762 2.17572H73.8198V4.55537H79.1067V5.84368H73.8198V8.2321H81.7836V9.51749H72.3237V0.888655H81.7762V2.17572ZM119.398 9.51623H117.759L116.72 7.58689H110.637L109.598 9.51623H107.961L112.737 0.888655H114.619L119.398 9.51623ZM115.995 6.29858L113.693 2.11813L111.365 6.29858H115.995ZM7.11036 0.882812H-0.253906V9.51582H1.24175V6.22096H7.1108C8.65316 6.22096 9.90337 5.02028 9.90337 3.54583C9.90337 2.07222 8.65316 0.882812 7.11036 0.882812ZM7.11036 4.93097H1.24175V2.17238H7.1108C7.29967 2.17211 7.48675 2.20743 7.6613 2.27635C7.83587 2.34525 7.9945 2.44639 8.12813 2.57396C8.26168 2.70154 8.36767 2.85305 8.44 3.01982C8.51224 3.18658 8.54935 3.36533 8.54926 3.54583C8.55054 4.30622 7.90601 4.93097 7.11036 4.93097ZM100.176 9.51582L97.7849 6.17296C99.0959 5.95302 100.096 4.86169 100.096 3.54583C100.096 2.0718 98.8457 0.882812 97.3028 0.882812H89.9388V9.51582H91.4347V6.22096H95.9945L98.4354 9.51582H100.176ZM91.4329 2.1728H97.3019C97.4902 2.17258 97.6776 2.20793 97.8523 2.27683C98.0269 2.34574 98.1852 2.44684 98.319 2.57436C98.4527 2.70188 98.5583 2.85332 98.631 3.02001C98.7029 3.18671 98.7402 3.36539 98.7402 3.54583C98.7402 4.30622 98.0952 4.93097 97.3019 4.93097H91.4329V2.1728Z" fill="white"/>
</g>
<defs>
<clipPath id="clip0_6564_20468">
<rect width="121" height="9.09774" fill="white" transform="translate(-1 0.453125)"/>
</clipPath>
</defs>
</svg>
