<svg width="120" height="64" viewBox="0 0 120 64" fill="none" xmlns="http://www.w3.org/2000/svg">
<g clip-path="url(#clip0_6397_7679)">
<path d="M0 26.6637H0.850382V28.587C0.849803 28.8656 0.821815 29.1434 0.766783 29.4165H0.806898C1.3128 27.8595 2.44502 26.5859 4.04215 26.5859C4.23866 26.5879 4.43459 26.6078 4.62749 26.6453V27.4957C4.47398 27.4709 4.31889 27.4573 4.16341 27.4548C2.58635 27.4548 1.59459 28.7927 1.15308 30.2853C0.94635 30.9739 0.844052 31.6895 0.849565 32.4084V36.775H0V26.6637Z" fill="white"/>
<path d="M16.138 26.422C16.827 26.4171 17.5101 26.5492 18.1476 26.8106C18.7851 27.072 19.3643 27.4576 19.8515 27.9448C20.3387 28.432 20.7242 29.0111 20.9856 29.6486C21.247 30.2861 21.3792 30.9692 21.3743 31.6582C21.3919 32.3571 21.2695 33.0525 21.0143 33.7033C20.759 34.3541 20.3761 34.9473 19.888 35.4478C19.4 35.9484 18.8167 36.3462 18.1725 36.6178C17.5283 36.8894 16.8363 37.0293 16.1372 37.0293C15.4381 37.0293 14.746 36.8894 14.1018 36.6178C13.4576 36.3462 12.8744 35.9484 12.3863 35.4478C11.8983 34.9473 11.5153 34.3541 11.2601 33.7033C11.0048 33.0525 10.8824 32.3571 10.9001 31.6582C10.8952 30.9691 11.0273 30.2858 11.2889 29.6482C11.5504 29.0106 11.936 28.4314 12.4234 27.9442C12.9108 27.4569 13.4902 27.0714 14.1279 26.8101C14.7656 26.5488 15.4489 26.4169 16.138 26.422ZM16.138 36.1871C16.7227 36.1811 17.3002 36.0585 17.8369 35.8265C18.3736 35.5946 18.8586 35.2579 19.2636 34.8361C19.6685 34.4144 19.9852 33.9161 20.1952 33.3704C20.4051 32.8247 20.5041 32.2426 20.4862 31.6582C20.4862 30.505 20.0281 29.399 19.2126 28.5835C18.3972 27.7681 17.2912 27.31 16.138 27.31C14.9848 27.31 13.8788 27.7681 13.0634 28.5835C12.2479 29.399 11.7898 30.505 11.7898 31.6582C11.772 32.2426 11.8709 32.8247 12.0809 33.3704C12.2908 33.9161 12.6075 34.4144 13.0124 34.8361C13.4174 35.2579 13.9024 35.5946 14.4391 35.8265C14.9758 36.0585 15.5534 36.1811 16.138 36.1871Z" fill="white"/>
<path d="M33.7521 26.4245C34.4217 26.4026 35.0886 26.5186 35.7114 26.7656C36.3342 27.0126 36.8994 27.3852 37.3719 27.8602L36.846 28.5467C36.0262 27.7236 34.9138 27.2586 33.7521 27.2531C32.5907 27.2887 31.4888 27.775 30.6798 28.6091C29.8709 29.4432 29.4185 30.5594 29.4185 31.7213C29.4185 32.8833 29.8709 33.9995 30.6798 34.8336C31.4888 35.6677 32.5907 36.154 33.7521 36.1895C34.3858 36.2009 35.0148 36.0771 35.5969 35.8262C36.179 35.5753 36.7009 35.2031 37.1278 34.7346L37.5743 35.4419C37.0804 35.9542 36.4858 36.3587 35.8281 36.6301C35.1703 36.9015 34.4635 37.0339 33.7521 37.019C33.0567 37.0381 32.3649 36.9142 31.7194 36.655C31.0739 36.3958 30.4884 36.0068 29.9993 35.5122C29.5102 35.0175 29.128 34.4278 28.8761 33.7794C28.6242 33.131 28.5081 32.4378 28.5351 31.7427C28.5107 31.0463 28.6282 30.3522 28.8805 29.7026C29.1327 29.0531 29.5145 28.4615 30.0024 27.9641C30.4904 27.4666 31.0745 27.0737 31.7191 26.809C32.3637 26.5443 33.0553 26.4135 33.7521 26.4245Z" fill="white"/>
<path d="M45.4531 22.6094H46.3027V30.6368H48.1013L51.3775 26.654H52.4897L48.8296 31.0022V31.0432L52.8334 36.7636H51.7614L48.1013 31.427H46.3027V36.7636H45.4531V22.6094Z" fill="white"/>
<path d="M65.632 30.6063H66.3009V30.2636C66.3009 28.0192 65.1478 27.2532 63.5306 27.2532C62.4864 27.2505 61.4703 27.5914 60.639 28.2232L60.1541 27.5368C61.1283 26.7788 62.337 26.3853 63.5708 26.4246C65.8962 26.4246 67.1505 27.7181 67.1505 30.2451V36.7758H66.3001V35.4421C66.298 35.1368 66.326 34.8321 66.3837 34.5323H66.3444C66.0666 35.2505 65.5821 35.8701 64.952 36.3128C64.3219 36.7555 63.5746 37.0013 62.8048 37.0192C61.1667 37.0192 59.3672 36.1102 59.3672 34.0883C59.3638 30.6474 63.8325 30.6063 65.632 30.6063ZM62.8416 36.2281C65.0458 36.2281 66.3001 33.9436 66.3001 31.9418V31.3958H65.6562C63.9361 31.3958 60.2569 31.3957 60.2569 34.0239C60.2723 34.3418 60.3527 34.6531 60.493 34.9388C60.6333 35.2244 60.8306 35.4782 61.0728 35.6847C61.3149 35.8912 61.5967 36.046 61.9009 36.1395C62.2051 36.2329 62.5253 36.263 62.8416 36.2281Z" fill="white"/>
<path d="M74.2656 26.6562H75.1754L77.9248 34.5817C78.092 35.0667 78.2702 35.6746 78.2702 35.6746H78.3095C78.3095 35.6746 78.4917 35.0667 78.654 34.5817L81.4234 26.6964H82.3742L85.1436 34.5817C85.3067 35.0667 85.4881 35.6746 85.4881 35.6746H85.5283C85.5283 35.6746 85.6897 35.0893 85.872 34.5817L88.6214 26.6562H89.532L85.9731 36.765H85.0634L82.2529 28.9215C82.0707 28.4365 81.9084 27.8286 81.9084 27.8286H81.8683C81.8683 27.8286 81.7069 28.4365 81.5246 28.9215L78.7342 36.765H77.8244L74.2656 26.6562Z" fill="white"/>
<path d="M102.24 30.6063H102.909V30.2636C102.909 28.0192 101.755 27.2532 100.138 27.2532C99.0939 27.2509 98.0777 27.5917 97.2459 28.2232L96.7609 27.5368C97.7354 26.7787 98.9444 26.3852 100.178 26.4246C102.504 26.4246 103.757 27.7181 103.757 30.2451V36.7758H102.909V35.4421C102.907 35.1369 102.935 34.8322 102.992 34.5323H102.954C102.676 35.2507 102.192 35.8704 101.562 36.3131C100.931 36.7558 100.184 37.0016 99.4141 37.0192C97.7769 37.0192 95.9766 36.1102 95.9766 34.0883C95.9707 30.6474 100.439 30.6063 102.24 30.6063ZM99.4492 36.2281C101.653 36.2281 102.907 33.9436 102.907 31.9418V31.3958H102.26C100.541 31.3958 96.8604 31.3957 96.8604 34.0239C96.8759 34.342 96.9564 34.6537 97.097 34.9395C97.2375 35.2253 97.4352 35.4792 97.6776 35.6858C97.9201 35.8923 98.2023 36.047 98.5069 36.1403C98.8114 36.2336 99.1327 36.2634 99.4492 36.2281Z" fill="white"/>
<path d="M110.985 39.7184C111.341 40.0086 111.78 40.1784 112.239 40.2035C113.21 40.2035 113.816 39.3346 114.221 38.3839L114.949 36.7049L110.763 26.6562H111.674L115.009 34.7239C115.211 35.2089 115.374 35.6746 115.374 35.6746H115.413C115.413 35.6746 115.555 35.2089 115.758 34.7239L119.094 26.6562H120.004L114.808 39.1315C114.624 39.6707 114.279 40.1404 113.82 40.4768C113.36 40.8133 112.808 41.0002 112.239 41.0121C111.646 41.0057 111.072 40.8074 110.602 40.4468L110.985 39.7184Z" fill="white"/>
</g>
<defs>
<clipPath id="clip0_6397_7679">
<rect width="120" height="64" fill="white"/>
</clipPath>
</defs>
</svg>
