<svg width="168" height="168" viewBox="0 0 168 168" fill="none" xmlns="http://www.w3.org/2000/svg">
<rect x="0.375" y="0.375" width="167.25" height="167.25" rx="83.625" fill="#46CBFF" fill-opacity="0.1"/>
<rect x="0.375" y="0.375" width="167.25" height="167.25" rx="83.625" stroke="#46CBFF" stroke-width="0.75"/>
<g clip-path="url(#clip0_6666_24186)">
<mask id="mask0_6666_24186" style="mask-type:luminance" maskUnits="userSpaceOnUse" x="35" y="31" width="97" height="105">
<path d="M131.734 31.3438H35.5469V135.969H131.734V31.3438Z" fill="white"/>
</mask>
<g mask="url(#mask0_6666_24186)">
<path d="M91.707 91.609L86.4445 105.498C86.2893 105.883 86.2893 106.311 86.4445 106.696L95.4815 130.6L105.94 124.779L93.3946 91.609C93.1057 90.8387 91.9956 90.8387 91.707 91.609Z" fill="white"/>
<path d="M102.227 68.2496C101.938 67.4793 100.828 67.4793 100.539 68.2496L95.2768 82.1382C95.1213 82.5237 95.1213 82.9517 95.2768 83.3369L110.087 122.478L120.545 116.657L102.227 68.2496Z" fill="white"/>
<path d="M83.6406 37.828C83.907 37.828 84.1514 37.8922 84.3955 38.0206L124.274 60.2125C124.74 60.4693 125.029 60.9401 125.029 61.4537V105.837C125.029 106.351 124.74 106.822 124.274 107.079L84.3955 129.292C84.1736 129.42 83.907 129.485 83.6406 129.485C83.3743 129.485 83.1298 129.42 82.8857 129.292L43.0296 107.1C42.5633 106.843 42.2747 106.372 42.2747 105.859V61.4537C42.2747 60.9401 42.5633 60.4693 43.0296 60.2125L82.9079 38.0206C83.1298 37.8922 83.3965 37.828 83.6406 37.828ZM83.6406 31.3438C82.2197 31.3438 80.7985 31.7076 79.5328 32.4138L39.6546 54.6056C37.1234 56.0181 35.5469 58.6289 35.5469 61.4537V105.837C35.5469 108.662 37.1234 111.295 39.6546 112.707L79.5328 134.899C80.7985 135.605 82.2197 135.969 83.6406 135.969C85.0615 135.969 86.4828 135.605 87.7485 134.899L127.627 112.707C130.18 111.295 131.734 108.684 131.734 105.837V61.4537C131.734 58.6289 130.158 55.9966 127.627 54.5842L87.7707 32.4138C86.4828 31.7076 85.0615 31.3438 83.6406 31.3438Z" fill="white"/>
<path d="M57.2891 122.516L60.9527 112.844L68.3244 118.75L61.4412 124.828L57.2891 122.516Z" fill="white"/>
<path d="M80.2895 58.2969H70.1868C69.4319 58.2969 68.7433 58.7463 68.4992 59.4311L46.8281 116.698L57.2862 122.518L81.1555 59.4525C81.3552 58.8961 80.9333 58.2969 80.2895 58.2969Z" fill="white"/>
<path d="M97.9851 58.2969H87.8825C87.1276 58.2969 86.439 58.7463 86.1949 59.4311L61.4375 124.83L71.8954 130.651L98.8289 59.4739C99.0508 58.8961 98.607 58.2969 97.9851 58.2969Z" fill="white"/>
</g>
</g>
<defs>
<clipPath id="clip0_6666_24186">
<rect width="96.1875" height="104.625" fill="white" transform="translate(35.5469 31.3438)"/>
</clipPath>
</defs>
</svg>
