<svg width="168" height="168" viewBox="0 0 168 168" fill="none" xmlns="http://www.w3.org/2000/svg">
<rect x="0.375" y="0.375" width="167.25" height="167.25" rx="83.625" fill="#B561FF" fill-opacity="0.1"/>
<rect x="0.375" y="0.375" width="167.25" height="167.25" rx="83.625" stroke="#B561FF" stroke-width="0.75"/>
<path d="M83.1828 37.8125C79.7491 37.8296 76.3523 38.5266 73.1865 39.8638C70.0207 41.2009 67.1479 43.1522 64.7322 45.6058C62.3164 48.0593 60.4051 50.9674 59.1073 54.1637C57.8094 57.36 57.1506 60.7821 57.1683 64.2346V72.962H78.3053V60.3177C78.305 59.7239 78.4212 59.1359 78.647 58.5872C78.8729 58.0385 79.2041 57.54 79.6216 57.1201C80.0392 56.7001 80.535 56.3672 81.0807 56.14C81.6263 55.9127 82.2112 55.7959 82.8018 55.796H83.5638C84.1544 55.7959 84.7394 55.9128 85.285 56.14C85.8308 56.3672 86.3265 56.7001 86.7444 57.1201C87.1619 57.54 87.4931 58.0385 87.7192 58.5872C87.9451 59.1359 88.0613 59.7239 88.0613 60.3177V94.2138C90.837 94.2138 93.5857 93.6642 96.1501 92.5964C98.7145 91.5283 101.045 89.9628 103.008 87.9896C104.97 86.0161 106.527 83.6732 107.59 81.0949C108.652 78.5166 109.198 75.7528 109.198 72.962V64.2346C109.213 57.2395 106.474 50.5229 101.578 45.5526C99.1761 43.0999 96.3126 41.1524 93.1542 39.8236C89.9962 38.4947 86.6065 37.8111 83.1828 37.8125Z" fill="#F2F2F2"/>
<path d="M83.5648 111.37H82.8028C82.2123 111.37 81.6275 111.253 81.0819 111.026C80.5363 110.799 80.0406 110.466 79.623 110.046C79.2054 109.626 78.8742 109.128 78.6483 108.579C78.4224 108.031 78.3061 107.443 78.3063 106.849V72.9531C75.5305 72.9529 72.7818 73.5022 70.2172 74.57C67.6526 75.6381 65.3225 77.2033 63.3597 79.1768C61.3969 81.1503 59.8399 83.4932 58.7778 86.0718C57.7156 88.6501 57.1691 91.4139 57.1693 94.2047V102.811C57.1341 106.268 57.781 109.698 59.0726 112.903C60.3642 116.107 62.2748 119.023 64.694 121.48C67.1132 123.937 69.993 125.888 73.1667 127.219C76.3405 128.551 79.7453 129.236 83.1843 129.236C86.6232 129.236 90.0279 128.551 93.2018 127.219C96.3755 125.888 99.2554 123.937 101.675 121.48C104.094 119.023 106.004 116.107 107.296 112.903C108.588 109.698 109.234 106.268 109.199 102.811V94.2047H88.0624V106.849C88.0624 107.443 87.9459 108.031 87.72 108.579C87.4939 109.128 87.1625 109.626 86.7449 110.046C86.3273 110.466 85.8316 110.799 85.2858 111.026C84.7403 111.253 84.1554 111.37 83.5648 111.37Z" fill="#F2F2F2"/>
</svg>
