<svg width="168" height="168" viewBox="0 0 168 168" fill="none" xmlns="http://www.w3.org/2000/svg">
<rect x="0.375" y="0.375" width="167.25" height="167.25" rx="83.625" fill="#60FF78" fill-opacity="0.1"/>
<rect x="0.375" y="0.375" width="167.25" height="167.25" rx="83.625" stroke="#60FF78" stroke-width="0.75"/>
<path fill-rule="evenodd" clip-rule="evenodd" d="M89.3081 50.7808L91.8885 34.2052C89.3334 33.8101 86.7214 33.6094 84.116 33.6094H84.0781V67.4316H84.116C85.5446 67.4316 86.9606 67.6135 88.3264 67.9772L92.7131 51.4957C91.5929 51.2009 90.4536 50.9626 89.3018 50.787L89.3081 50.7808Z" fill="white"/>
<path fill-rule="evenodd" clip-rule="evenodd" d="M75.9301 69.6105L67.484 55.1107C66.4895 55.6877 65.5203 56.3148 64.5887 56.9859L54.5 43.2136C56.621 41.6709 58.8804 40.2848 61.2154 39.0933L68.8938 54.0257C70.4544 53.2292 72.0719 52.5582 73.7334 52.0188L68.5035 36.0704C70.9957 35.2614 73.5824 34.6405 76.1755 34.2266L78.8629 51.0656C77.7236 51.2474 76.5971 51.492 75.4832 51.7868L79.8509 67.9798C78.4789 68.3498 77.1573 68.8956 75.9238 69.6105H75.9301Z" fill="white"/>
<path fill-rule="evenodd" clip-rule="evenodd" d="M54.5377 68.7407L39.2881 61.0078C38.0923 63.341 37.079 65.7931 36.2734 68.2828L52.5552 73.5258C53.0902 71.889 53.7573 70.2771 54.5377 68.7407Z" fill="white"/>
<path fill-rule="evenodd" clip-rule="evenodd" d="M112.802 67.124L98.2578 75.5468C98.9752 76.776 99.5228 78.0929 99.8941 79.4601L116.138 75.0952C116.44 76.2051 116.686 77.3279 116.862 78.4629L133.76 75.7788C133.345 73.1886 132.722 70.6172 131.91 68.1275L115.905 73.3392C115.364 71.6834 114.691 70.0716 113.891 68.5226L128.87 60.865C127.675 58.5447 126.283 56.2932 124.735 54.1797L110.921 64.2393C111.6 65.1674 112.223 66.1333 112.809 67.124H112.802Z" fill="white"/>
<path fill-rule="evenodd" clip-rule="evenodd" d="M106.872 39.0275C104.525 37.8422 102.07 36.8325 99.5716 36.0234L94.3164 52.2478C95.9589 52.7746 97.5764 53.4394 99.1185 54.2234L106.872 39.0212V39.0275Z" fill="white"/>
<path fill-rule="evenodd" clip-rule="evenodd" d="M100.794 54.8166L92.2539 69.5922C93.4936 70.3011 94.6329 71.1729 95.6462 72.1824L119.606 48.2253C117.75 46.3815 115.729 44.6694 113.608 43.1328L103.727 56.7107C102.783 56.0333 101.808 55.3999 100.801 54.8166H100.794Z" fill="white"/>
<path fill-rule="evenodd" clip-rule="evenodd" d="M69.9508 75.5889L55.129 67.0659C55.708 66.0624 56.35 65.0904 57.0297 64.1495L43.4102 54.2971C44.9521 52.1836 46.6703 50.1704 48.5269 48.3203L72.5562 72.2021C71.5429 73.2119 70.6682 74.3534 69.957 75.5826L69.9508 75.5889Z" fill="white"/>
<path fill-rule="evenodd" clip-rule="evenodd" d="M51.7933 75.125L68.3268 79.5087C67.9618 80.8697 67.7792 82.2808 67.7792 83.7109H33.8438C33.8438 81.1082 34.0451 78.493 34.4479 75.9404L51.0822 78.5243C51.2647 77.3765 51.4975 76.2477 51.7997 75.125H51.7933Z" fill="white"/>
<path fill-rule="evenodd" clip-rule="evenodd" d="M113.703 98.6679L128.953 106.401C130.142 104.068 131.162 101.615 131.967 99.1258L115.686 93.8828C115.151 95.5196 114.484 97.1315 113.703 98.6679Z" fill="white"/>
<path fill-rule="evenodd" clip-rule="evenodd" d="M92.3062 97.8047L100.752 112.305C101.747 111.727 102.716 111.1 103.647 110.429L113.736 124.202C111.615 125.744 109.356 127.13 107.021 128.322L99.3425 113.39C97.7817 114.186 96.1705 114.857 94.5026 115.396L99.7265 131.345C97.2341 132.154 94.6474 132.775 92.0545 133.189L89.3671 116.35C90.5062 116.168 91.6326 115.923 92.7466 115.628L88.3789 99.4354C89.7509 99.0655 91.0725 98.5196 92.3062 97.8047Z" fill="white"/>
<path fill-rule="evenodd" clip-rule="evenodd" d="M55.4306 100.305L69.9754 91.8821C69.2579 90.6529 68.7104 89.336 68.3391 87.9688L52.095 92.3337C51.7929 91.2237 51.5474 90.101 51.3712 88.966L34.4727 91.6501C34.888 94.2403 35.5111 96.8116 36.323 99.3014L52.3278 94.0897C52.8691 95.7455 53.5425 97.3572 54.3418 98.9063L39.3629 106.564C40.5587 108.89 41.9496 111.136 43.4978 113.249L57.3124 103.19C56.6327 102.262 56.0097 101.296 55.4243 100.305H55.4306Z" fill="white"/>
<path fill-rule="evenodd" clip-rule="evenodd" d="M61.3672 128.399C63.7146 129.584 66.1693 130.594 68.6678 131.403L73.923 115.179C72.2802 114.652 70.6627 113.987 69.1209 113.203L61.3672 128.399Z" fill="white"/>
<path fill-rule="evenodd" clip-rule="evenodd" d="M67.433 112.609L75.9735 97.8402C74.7336 97.1313 73.5945 96.2595 72.5813 95.25L48.6211 119.207C50.4777 121.051 52.498 122.763 54.619 124.299L64.5001 110.722C65.444 111.399 66.4197 112.032 67.4267 112.616L67.433 112.609Z" fill="white"/>
<path fill-rule="evenodd" clip-rule="evenodd" d="M98.2815 91.8359L113.103 100.359C112.524 101.362 111.882 102.334 111.203 103.275L124.822 113.128C123.28 115.241 121.562 117.254 119.705 119.105L95.6758 95.2227C96.6891 94.2129 97.5641 93.0714 98.2752 91.8422L98.2815 91.8359Z" fill="white"/>
<path fill-rule="evenodd" clip-rule="evenodd" d="M79.906 99.4438L75.5195 115.925C76.6398 116.22 77.7788 116.458 78.9306 116.634L76.3439 133.21C78.8993 133.605 81.511 133.805 84.1167 133.805H84.1545V99.9831H84.1167C82.6881 99.9831 81.2718 99.8012 79.906 99.4375V99.4438Z" fill="white"/>
<path fill-rule="evenodd" clip-rule="evenodd" d="M99.9062 87.8975C100.271 86.5365 100.454 85.1254 100.454 83.6953H134.396C134.396 86.298 134.194 88.9132 133.792 91.4658L117.157 88.8819C116.975 90.0297 116.742 91.1585 116.44 92.2812L99.9062 87.8975Z" fill="white"/>
</svg>
