<svg width="168" height="168" viewBox="0 0 168 168" fill="none" xmlns="http://www.w3.org/2000/svg">
<rect x="0.375" y="0.375" width="167.25" height="167.25" rx="83.625" fill="#57DF60" fill-opacity="0.1"/>
<rect x="0.375" y="0.375" width="167.25" height="167.25" rx="83.625" stroke="#57DF60" stroke-width="0.75"/>
<path d="M107.308 48.6961C107.133 49.0455 106.714 49.1948 106.357 49.0346C101.053 46.6209 94.6061 45.8054 90.3687 45.8054C75.1333 45.8054 59.8944 53.2359 59.8944 65.45C59.8944 71.9994 64.8054 77.5404 71.9844 77.5404C79.9167 77.5404 85.8362 71.7483 90.62 66.4585C94.9011 61.6748 99.9393 56.385 107.115 56.385C114.923 56.385 120.588 62.1771 120.588 69.9862C120.588 82.3276 105.728 96.1802 85.2026 96.1802C64.678 96.1802 49.8213 85.2221 49.8213 69.9862C49.8213 55.7551 66.6948 42.9111 85.2066 42.9111C94.6534 42.9111 101.767 44.8916 107.002 47.7313C107.348 47.9206 107.482 48.3429 107.308 48.6961ZM85.2066 38C59.8944 38 39.2422 58.6531 39.2422 83.966C39.2422 109.279 59.8944 130.183 85.2066 130.183C110.518 130.183 131.422 109.53 131.422 83.966C131.422 58.4019 110.766 38 85.2066 38Z" fill="white"/>
</svg>
