<svg width="168" height="168" viewBox="0 0 168 168" fill="none" xmlns="http://www.w3.org/2000/svg">
<rect x="0.375" y="0.375" width="167.25" height="167.25" rx="83.625" fill="#FFA673" fill-opacity="0.1"/>
<rect x="0.375" y="0.375" width="167.25" height="167.25" rx="83.625" stroke="#FFA673" stroke-width="0.75"/>
<path fill-rule="evenodd" clip-rule="evenodd" d="M117.372 111.993C113.205 116.733 108.571 119.162 105.417 120.376C96.6159 123.706 87.6981 123.588 78.975 119.985C70.0572 116.302 62.074 108.664 58.1798 100.085C56.4274 96.2459 55.4928 92.2111 55.376 88.0979C55.337 87.2361 55.337 86.2568 55.337 86.061V84.7683C55.4538 78.8924 57.7904 73.2123 61.8404 68.825C63.6707 66.8663 65.7736 65.3386 68.188 64.2809C70.5635 63.2233 73.1726 62.6748 75.9764 62.5965C75.0029 63.3799 74.1072 64.2026 73.2505 65.1427C68.3827 70.3919 65.6957 77.5997 65.6957 85.4734C65.6957 93.3471 68.3827 100.555 73.2505 105.804C76.0543 108.82 79.4034 111.053 83.2197 112.385C85.9067 113.325 88.8274 113.795 91.8649 113.795C96.9663 113.795 104.326 112.424 110.362 105.843C112.426 103.61 114.101 100.986 115.347 98.087H125.316C123.603 103.297 120.916 108.076 117.372 111.993ZM50.9365 111.993C44.4721 105.06 40.8894 95.6191 40.8894 85.395C40.8894 75.1709 44.4721 65.652 50.9365 58.64C57.4788 51.5498 66.5524 47.6717 76.4048 47.6717C78.8582 47.6717 81.3115 47.9067 83.6481 48.3768C96.1096 50.923 105.923 60.1286 109.895 72.7814H99.926C98.6798 69.8826 97.0053 67.2972 94.9413 65.0252C92.1764 62.0089 88.8663 59.8152 85.0889 58.4834C82.4019 57.5432 79.4813 57.0731 76.4438 57.0731C72.7053 57.0731 69.2005 57.7782 65.9683 59.2276C62.8918 60.5987 60.1659 62.5573 57.8293 65.0644C57.2452 65.6911 56.7 66.3179 56.1938 66.9838C52.9226 70.6269 50.8197 75.4452 50.1188 81.3994C49.963 82.4571 49.8851 83.5147 49.8851 84.5724V85.395V85.6692V85.8259V85.9043C49.8851 86.5702 49.8851 87.2361 49.924 87.8629V88.1371C50.0409 92.9945 51.1312 97.7736 53.1952 102.278C56.8947 110.426 63.7875 117.791 71.8096 122.452C63.7096 121.512 56.4274 117.869 50.9365 111.993ZM114.257 55.6629C119.553 60.1286 123.213 66.0045 125.005 72.8206H115.542C112.66 62.2048 106.235 53.5476 97.6284 48.1809C103.859 49.1211 109.545 51.6673 114.257 55.6629ZM94.9024 105.765C96.9663 103.532 98.6409 100.907 99.887 98.0086H109.233C108.415 99.4972 107.442 100.829 106.312 102.043C101.756 106.979 96.2264 108.154 92.2543 108.233C93.1889 107.528 94.0846 106.666 94.9024 105.765ZM131.586 92.5636H96.1096L95.4476 94.4048C94.3962 97.3427 92.8774 99.9281 90.8913 102.083C88.9053 104.237 86.6077 105.843 83.9986 106.862C81.3894 105.804 79.0918 104.198 77.1447 102.083C73.2115 97.852 71.0697 91.9369 71.0697 85.4734C71.0697 79.0099 73.2115 73.134 77.1447 68.8641C78.975 66.9055 81.0779 65.3778 83.4923 64.3201C83.687 64.2418 83.9207 64.1242 84.1154 64.0459C86.6856 65.1035 88.9442 66.6705 90.8913 68.7858C92.8774 70.9403 94.3962 73.5257 95.4476 76.4636L96.1096 78.3048H131.625C131.625 67.5323 124.81 57.3865 117.8 51.4714C110.596 45.3997 101.6 42.2267 91.787 42.2267C89.2168 42.2267 86.6856 42.4617 84.1933 42.9318C81.662 42.4617 79.0529 42.1875 76.4048 42.1875C65.0337 42.1875 54.5582 46.6924 46.9644 54.9186C39.5264 62.9491 35.4375 73.7607 35.4375 85.395C35.4375 97.0293 39.5264 107.802 46.9644 115.715C54.5192 123.784 64.9558 128.25 76.3659 128.25C78.975 128.25 82.7913 128.25 85.6341 127.623C87.9707 128.054 90.3072 128.25 92.6437 128.25C97.5505 128.25 102.418 127.31 107.325 125.469C111.063 124.059 116.515 121.199 121.383 115.636L121.422 115.597C126.329 110.231 131.002 102.239 131.586 92.5636Z" fill="white"/>
</svg>
