<svg width="168" height="168" viewBox="0 0 168 168" fill="none" xmlns="http://www.w3.org/2000/svg">
<rect x="0.375" y="0.375" width="167.25" height="167.25" rx="83.625" fill="#FF7135" fill-opacity="0.1"/>
<rect x="0.375" y="0.375" width="167.25" height="167.25" rx="83.625" stroke="#FF7135" stroke-width="0.75"/>
<path d="M88.3349 76.1305L115.514 48.9513L105.203 38.6406L83.1794 60.6642L61.1557 38.6406L50.845 48.9513L78.0242 76.1305C79.4476 77.5542 81.3136 78.2659 83.1794 78.2659C85.0452 78.2659 86.9112 77.5544 88.3349 76.1305ZM127.681 105.165L105.657 83.1419L127.681 61.1179L117.37 50.8071L90.1906 77.9865C87.3437 80.8338 87.3437 85.4498 90.1906 88.2971L117.37 115.476L127.681 105.165ZM83.1418 105.657L105.165 127.681L115.476 117.37L88.2971 90.1908C85.4495 87.3437 80.8335 87.3437 77.9863 90.1908L50.8073 117.37L61.1179 127.681L83.1418 105.657ZM76.1306 88.335C77.4979 86.9678 78.266 85.1133 78.266 83.1795C78.266 81.246 77.4979 79.3916 76.1306 78.0244L48.9514 50.8451L38.6406 61.1559L60.6648 83.1793L38.6406 105.203L48.9514 115.514L76.1306 88.335Z" fill="white"/>
</svg>
