<svg width="168" height="168" viewBox="0 0 168 168" fill="none" xmlns="http://www.w3.org/2000/svg">
<rect x="0.375" y="0.375" width="167.25" height="167.25" rx="83.625" fill="#389CFF" fill-opacity="0.1"/>
<rect x="0.375" y="0.375" width="167.25" height="167.25" rx="83.625" stroke="#389CFF" stroke-width="0.75"/>
<path d="M83.9056 39.4844L83.3164 41.479V99.3545L83.9056 99.9403L110.861 84.0604L83.9056 39.4844Z" fill="white"/>
<path d="M83.913 39.4844L56.957 84.0604L83.913 99.9403V71.8492V39.4844Z" fill="white"/>
<path d="M83.9063 105.028L83.5742 105.432V126.048L83.9063 127.014L110.878 89.1562L83.9063 105.028Z" fill="white"/>
<path d="M83.913 127.014V105.028L56.957 89.1562L83.913 127.014Z" fill="white"/>
<path d="M83.9062 99.9505L110.862 84.0706L83.9062 71.8594V99.9505Z" fill="white"/>
<path d="M56.957 84.0706L83.913 99.9505V71.8594L56.957 84.0706Z" fill="white"/>
</svg>
