<svg width="168" height="168" viewBox="0 0 168 168" fill="none" xmlns="http://www.w3.org/2000/svg">
<rect x="0.375" y="0.375" width="167.25" height="167.25" rx="83.625" fill="#FF8439" fill-opacity="0.1"/>
<rect x="0.375" y="0.375" width="167.25" height="167.25" rx="83.625" stroke="#FF8439" stroke-width="0.75"/>
<g clip-path="url(#clip0_6666_24216)">
<path opacity="0.8" fill-rule="evenodd" clip-rule="evenodd" d="M116.335 98.8666C116.335 111.084 106.413 120.988 94.1733 120.988H52.3125V106.24H94.1733C98.2531 106.24 101.56 102.939 101.56 98.8666C101.56 94.7941 98.2531 91.4928 94.1733 91.4928H79.3989V76.7452H94.1733C98.2531 76.7452 101.56 73.4438 101.56 69.3714C101.56 65.2989 98.2531 61.9976 94.1733 61.9976H52.3125V47.25H94.1733C106.413 47.25 116.335 57.1541 116.335 69.3714C116.335 75.0371 114.201 80.2053 110.692 84.119C114.201 88.0327 116.335 93.2009 116.335 98.8666Z" fill="white"/>
<path opacity="0.12" d="M52.3125 106.24H88.2666C80.6295 115.195 68.4702 120.988 54.7749 120.988C53.9483 120.988 53.1273 120.967 52.3125 120.925V106.24ZM95.7983 91.4928H81.8613V76.7452H95.7983C96.3474 79.1277 96.6357 81.5937 96.6357 84.119C96.6357 86.6442 96.3474 89.1102 95.7983 91.4928ZM88.2666 61.9976H52.3125V47.3127C53.1273 47.2711 53.9483 47.25 54.7749 47.25C68.4702 47.25 80.6295 53.0425 88.2666 61.9976Z" fill="#FF8439"/>
<path d="M52.3125 47.25C72.7117 47.25 89.2485 63.7568 89.2485 84.119C89.2485 104.481 72.7117 120.988 52.3125 120.988V106.24C64.552 106.24 74.4741 96.3363 74.4741 84.119C74.4741 71.9017 64.552 61.9976 52.3125 61.9976V47.25Z" fill="white"/>
</g>
<defs>
<clipPath id="clip0_6666_24216">
<rect width="64.125" height="74.25" fill="white" transform="translate(52.3125 47.25)"/>
</clipPath>
</defs>
</svg>
