<svg width="118" height="16" viewBox="0 0 118 16" fill="none" xmlns="http://www.w3.org/2000/svg">
<g clip-path="url(#clip0_6564_20442)">
<path d="M41.7284 15.7138L40.2141 13.0916C40.9221 11.7346 40.9221 10.135 40.9221 8.03069C40.9221 5.40847 40.9221 3.44181 39.4078 1.84881C38.886 1.27944 38.2459 0.831228 37.5324 0.53564C36.8189 0.240053 36.0493 0.104262 35.2778 0.137805C34.5083 0.120826 33.7438 0.264181 33.0328 0.55875C32.3217 0.85332 31.6798 1.29265 31.1478 1.84881C29.6334 3.36969 29.6334 5.29703 29.6334 8.00447C29.6334 10.7119 29.5548 12.5934 31.1478 14.1798C31.6757 14.7443 32.3168 15.1911 33.0292 15.4909C33.7417 15.7829 34.5083 15.9193 35.2778 15.8908C35.7083 15.8845 36.1369 15.8317 36.5561 15.7335L41.7284 15.7138ZM33.298 12.3377C32.7473 11.6821 32.59 10.9741 32.59 8.00447C32.59 5.0348 32.7801 4.30714 33.298 3.67125C33.55 3.41976 33.8483 3.21941 34.1764 3.08125C34.5019 2.94262 34.852 2.87127 35.2057 2.87147C35.5614 2.87199 35.9135 2.9433 36.2414 3.08125C36.5676 3.21957 36.8637 3.41995 37.1133 3.67125C37.664 4.32681 37.8213 5.0348 37.8213 8.00447C37.8213 10.9741 37.664 11.6952 37.1133 12.3377C36.8696 12.5963 36.575 12.8016 36.248 12.9408C35.9164 13.0719 35.5622 13.1365 35.2057 13.1309C34.8505 13.138 34.4977 13.0711 34.1699 12.9342C33.8418 12.7966 33.5452 12.5936 33.298 12.3377Z" fill="white"/>
<path d="M76.5859 0.296875H79.5163V15.7155H76.5859V0.296875Z" fill="white"/>
<path d="M5.56567 15.8656C3.27778 15.8656 1.52089 15.387 0 13.8596L1.90767 11.9323C2.40054 12.3816 2.97758 12.7289 3.60545 12.9539C4.23331 13.179 4.89955 13.2773 5.56567 13.2434C7.316 13.2434 8.26655 12.5878 8.26655 11.316C8.27559 11.0793 8.23772 10.8432 8.15511 10.6212C8.07507 10.4011 7.95004 10.2002 7.788 10.0312C7.40872 9.70528 6.93596 9.50791 6.43756 9.46738L4.58889 9.21172C3.49202 9.11838 2.45911 8.65622 1.65856 7.9006C1.2904 7.49191 1.00538 7.0154 0.819444 6.49772C0.623742 5.97219 0.536764 5.4124 0.563778 4.85227C0.550667 2.13827 2.537 0.210938 5.9 0.210938C7.965 0.210938 9.558 0.682938 10.8363 1.97438L8.909 3.8296C8.49361 3.44519 8.00297 3.15116 7.46811 2.9661C6.93325 2.78104 6.36581 2.70899 5.80167 2.75449C4.20867 2.75449 3.422 3.64605 3.422 4.72116C3.43462 5.13856 3.60299 5.53612 3.894 5.8356C4.30604 6.17743 4.80149 6.40366 5.32967 6.49116L7.15867 6.72716C8.25147 6.75672 9.29493 7.18857 10.089 7.93994C10.4958 8.38116 10.812 8.89787 11.0199 9.46083C11.2232 10.0301 11.3145 10.6334 11.2887 11.2374C11.2887 14.1939 8.75167 15.8853 5.55911 15.8853" fill="white"/>
<path d="M15.5703 15.7155V0.296875H25.6593V2.9191H18.5793V6.55743H24.6104V9.31732H18.5859V13.0999H25.6659V15.7221H15.5703" fill="white"/>
<path d="M51.0076 15.8729C47.9003 15.8729 45.3633 13.7095 45.3633 10.4187V0.296875H48.3985V10.3269C48.3985 12.0969 49.4408 13.1327 51.0207 13.1327C52.6006 13.1327 53.643 12.0772 53.643 10.3269V0.296875H56.5733V10.4055C56.5733 13.6833 54.1346 15.8598 51.0273 15.8598" fill="white"/>
<path d="M70.707 14.1798C70.1846 14.748 69.5442 15.195 68.8308 15.4894C68.1173 15.7838 67.3481 15.9186 66.577 15.8842C65.8086 15.9052 65.0444 15.7643 64.334 15.4706C63.6236 15.177 62.9829 14.7372 62.4536 14.1798C60.9655 12.6524 60.9655 10.725 60.9655 8.00447C60.9655 5.28391 60.8868 3.41558 62.4864 1.82913C63.0037 1.26605 63.6379 0.822899 64.3445 0.530735C65.0511 0.238571 65.8131 0.10446 66.577 0.137801C67.345 0.127031 68.1072 0.272577 68.8172 0.56559C69.5272 0.858602 70.1702 1.29296 70.707 1.84224C72.2214 3.36969 72.2214 5.29702 72.2214 8.01758C72.2214 10.7381 72.2214 12.5934 70.707 14.1798ZM68.4847 3.69091C68.2354 3.43939 67.9388 3.23974 67.6119 3.10348C67.2851 2.96723 66.9344 2.89708 66.5803 2.89708C66.2262 2.89708 65.8756 2.96723 65.5487 3.10348C65.2218 3.23974 64.9252 3.43939 64.6759 3.69091C64.1187 4.34647 63.9679 5.05447 63.9679 8.02413C63.9679 10.9938 64.1187 11.7149 64.6759 12.3508C64.9243 12.6039 65.2206 12.805 65.5476 12.9422C65.8746 13.0795 66.2257 13.1502 66.5803 13.1502C66.9349 13.1502 67.286 13.0795 67.613 12.9422C67.94 12.805 68.2363 12.6039 68.4847 12.3508C69.0354 11.6952 69.1927 10.9938 69.1927 8.02413C69.1927 5.05447 69.055 4.30713 68.4847 3.67124V3.69091Z" fill="white"/>
<path d="M93.6025 15.7155L92.7306 12.9884H87.3223L86.3783 15.7155H83.2578L88.8431 0.296875H91.1245L96.6901 15.7155H93.6025ZM90.0166 4.78743L88.1089 10.4055H91.9243L90.0166 4.78743Z" fill="white"/>
<path d="M114.184 0.296875H117.999V4.15154H114.184V0.296875Z" fill="white"/>
<path d="M104.646 12.3984V0.296875H102.738V14.3454L104.646 12.3984Z" fill="white"/>
<path d="M105.986 13.7891L104.078 15.7164H118.002V13.7891H105.986Z" fill="white"/>
<path d="M108.462 8.56343V0.296875H106.555V10.4908L108.462 8.56343Z" fill="white"/>
<path d="M109.797 9.92969L107.883 11.857H117.998V9.92969H109.797Z" fill="white"/>
<path d="M112.271 4.72843V0.296875H110.363V6.6361L112.271 4.72843Z" fill="white"/>
<path d="M113.612 6.07812L111.711 8.00546H117.998V6.07812H113.612Z" fill="white"/>
</g>
<defs>
<clipPath id="clip0_6564_20442">
<rect width="118" height="15.7333" fill="white" transform="translate(0 0.132812)"/>
</clipPath>
</defs>
</svg>
