<svg width="120" height="22" viewBox="0 0 120 22" fill="none" xmlns="http://www.w3.org/2000/svg">
<g clip-path="url(#clip0_6564_20471)">
<path fill-rule="evenodd" clip-rule="evenodd" d="M34.9987 13.9926C34.9987 15.6898 34.0284 16.6641 32.1197 16.6641H27.5547V14.6526H31.5789C32.1674 14.6526 32.4538 14.4483 32.4538 13.9298C32.4538 13.5055 32.1356 13.2384 31.4358 12.7512L29.0499 10.9283C27.841 10.0169 27.332 9.16827 27.332 8.16254C27.332 6.44972 28.35 5.66406 30.3541 5.66406H34.8078V7.67546H30.7995C30.1792 7.67546 29.877 7.87975 29.877 8.41404C29.877 8.82262 30.1951 9.08977 30.9109 9.56114L33.2808 11.1955C34.4897 12.0126 34.9987 13.0026 34.9987 13.9926Z" fill="white"/>
<path fill-rule="evenodd" clip-rule="evenodd" d="M44.3333 7.67552H41.4487V16.6641H38.8846V7.67552H36V5.66406H44.3333V7.67552Z" fill="white"/>
<path fill-rule="evenodd" clip-rule="evenodd" d="M51.2121 12.7041L49.6823 8.35111L48.1368 12.7041H51.2121ZM51.8677 14.5426H47.4655L46.7163 16.6641H44L48.3554 5.66406H50.9779L55.3333 16.6641H52.6171L51.8677 14.5426Z" fill="white"/>
<path fill-rule="evenodd" clip-rule="evenodd" d="M59.6578 10.8497C61.0573 10.8497 61.4708 10.3626 61.4708 9.19977C61.4708 8.03689 61.0573 7.54974 59.6578 7.54974H58.5445V10.8497H59.6578ZM64.3333 16.6641H61.7729L61.2799 14.5583C60.9618 13.0969 60.6756 12.7041 59.5623 12.6883H58.5445V16.6641H56V5.66406H60.5643C62.9338 5.66406 64.0153 6.70115 64.0153 8.96398C64.0153 10.4884 63.4109 11.4155 62.1864 11.7926C63.0611 12.2012 63.4904 13.0183 63.8403 14.5583L64.3333 16.6641Z" fill="white"/>
<path fill-rule="evenodd" clip-rule="evenodd" d="M68.4786 10.9912L72.4289 5.66406H75.3878L71.2361 10.9912L75.6667 16.6641H72.7078L68.4786 10.9912ZM66 16.6641H68.4786V5.66406H66V16.6641Z" fill="white"/>
<path fill-rule="evenodd" clip-rule="evenodd" d="M92 5.66406L88.6736 16.6641H87.1192L84.4922 7.86403L81.8652 16.6641H80.2953L77 5.66406H78.5233L81.1192 14.9512L83.8705 5.66406H85.114L87.8653 14.9512L90.4767 5.66406H92Z" fill="white"/>
<path fill-rule="evenodd" clip-rule="evenodd" d="M98.589 12.7512L96.5066 7.23545L94.4083 12.7512H98.589ZM98.9834 13.8041H94.0139L92.9254 16.6641H91.332L95.7335 5.66406H97.2638L101.665 16.6641H100.072L98.9834 13.8041Z" fill="white"/>
<path fill-rule="evenodd" clip-rule="evenodd" d="M106.452 11.054C108.201 11.054 108.853 10.3784 108.853 8.9012C108.853 7.45545 108.201 6.76408 106.452 6.76408H104.463V11.054H106.452ZM110.667 16.6641H109.187L108.79 14.7783C108.392 12.8141 107.899 12.154 106.404 12.1226H104.463V16.6641H103V5.66406H106.945C109.283 5.66406 110.317 6.68544 110.317 8.77548C110.317 10.3469 109.665 11.3055 108.297 11.6198C109.378 12.0283 109.871 12.9555 110.253 14.7783L110.667 16.6641Z" fill="white"/>
<path d="M114.454 6.82687V10.174H119.352V11.2583H114.454V13.6155C114.454 14.9198 115.023 15.5012 116.318 15.5012H120V16.6641H116.097C113.79 16.6641 113 15.9098 113 13.7412V5.66406H120V6.82687H114.454Z" fill="white"/>
<path fill-rule="evenodd" clip-rule="evenodd" d="M10.651 12.4108L8.76597 14.3547C8.76476 14.3558 8.76362 14.3571 8.7622 14.358C8.75758 14.3611 8.75203 14.3628 8.74613 14.3628C8.72977 14.3628 8.71647 14.3491 8.71647 14.3322C8.71647 14.3288 8.71697 14.3254 8.71804 14.3223C8.71804 14.3223 8.71804 14.3224 8.71804 14.3223L9.43512 11.5637C9.49628 11.3659 9.45084 11.1408 9.29866 10.9839L7.41358 9.03984C7.41251 9.03859 7.41137 9.03742 7.41045 9.03595C7.40753 9.03126 7.40575 9.02554 7.40575 9.01945C7.40575 9.00251 7.41905 8.9888 7.43548 8.9888C7.43882 8.9888 7.44202 8.98938 7.44501 8.99041L10.1201 9.72998C10.3118 9.79304 10.5302 9.74618 10.6823 9.58925L12.5674 7.64533C12.5686 7.64416 12.5698 7.64291 12.5712 7.64203C12.5758 7.63895 12.5813 7.63719 12.5873 7.63719C12.6036 7.63719 12.6169 7.6509 12.6169 7.66784C12.6169 7.67129 12.6163 7.67459 12.6154 7.67767L11.8983 10.4363C11.8371 10.634 11.8826 10.8592 12.0347 11.0161L13.9197 12.9602C13.9209 12.9614 13.922 12.9626 13.9229 12.964C13.9259 12.9687 13.9276 12.9745 13.9276 12.9806C13.9276 12.9974 13.9143 13.0111 13.8979 13.0111C13.8946 13.0111 13.8914 13.0106 13.8884 13.0096C13.8883 13.0096 13.8885 13.0096 13.8884 13.0096L11.2133 12.27C11.0215 12.207 10.8032 12.2539 10.651 12.4108ZM21.252 10.7974L16.7493 6.1541C16.5972 5.99724 16.3789 5.9503 16.1872 6.01337L13.2263 6.83221C13.2259 6.83214 13.2258 6.8317 13.2253 6.83192C13.2225 6.8328 13.2195 6.83331 13.2164 6.83331C13.2 6.83331 13.1867 6.8196 13.1867 6.80266C13.1867 6.7918 13.1921 6.78234 13.2004 6.77692C13.5236 6.55523 14.0134 6.1541 15.1849 4.94593C15.2934 4.8341 15.2934 4.65267 15.1849 4.54076L10.8631 0.08393C10.7547 -0.0279767 10.5787 -0.0279767 10.4703 0.08393L5.9676 4.72725C5.8155 4.88411 5.77006 5.10932 5.83121 5.30702L6.62517 8.3604C6.6251 8.36077 6.62474 8.36084 6.62488 8.3615C6.62581 8.36436 6.62624 8.36744 6.62624 8.3706C6.62624 8.38754 6.61294 8.40125 6.59651 8.40125C6.58606 8.40125 6.57681 8.3956 6.57155 8.3871C6.35658 8.0538 5.9676 7.54875 4.79612 6.34058C4.6876 6.22868 4.51168 6.22868 4.40323 6.34058L0.0813866 10.7974C-0.0271289 10.9093 -0.0271289 11.0908 0.0813866 11.2026L4.584 15.8459C4.7361 16.0028 4.95448 16.0497 5.1462 15.9866L8.10712 15.1678C8.10748 15.1679 8.10748 15.1683 8.10812 15.1681C8.11089 15.1672 8.11388 15.1667 8.11694 15.1667C8.13336 15.1667 8.14666 15.1804 8.14666 15.1973C8.14666 15.2081 8.14126 15.2177 8.13301 15.2232C8.13294 15.2232 8.13301 15.2231 8.13301 15.2232C7.80974 15.4448 7.31999 15.8459 6.14844 17.0541C6.03992 17.166 6.03992 17.3473 6.14844 17.4592L10.4703 21.9161C10.5787 22.028 10.7547 22.028 10.8631 21.9161L15.3657 17.2728C15.5178 17.1159 15.5633 16.8907 15.5022 16.693L14.7082 13.6396C14.7082 13.6392 14.7086 13.6392 14.7084 13.6386C14.7076 13.6356 14.7072 13.6326 14.7072 13.6294C14.7072 13.6125 14.7204 13.5988 14.7368 13.5988C14.7473 13.5988 14.7566 13.6044 14.7618 13.6129C14.9767 13.9462 15.3657 14.4513 16.5373 15.6594C16.6458 15.7713 16.8216 15.7713 16.9302 15.6594L21.252 11.2026C21.3604 11.0908 21.3604 10.9093 21.252 10.7974Z" fill="white"/>
</g>
<defs>
<clipPath id="clip0_6564_20471">
<rect width="120" height="22" fill="white"/>
</clipPath>
</defs>
</svg>
