<svg width="24" height="24" viewBox="0 0 24 24" fill="none" xmlns="http://www.w3.org/2000/svg">
<path d="M12 24C18.65 24 24 18.65 24 12C24 5.34996 18.65 0 12 0C5.34996 0 0 5.34996 0 12C0 18.65 5.34996 24 12 24Z" fill="#2775CA"/>
<path d="M15.3015 13.9016C15.3015 12.1516 14.2515 11.5516 12.1515 11.3016C10.6515 11.1016 10.3515 10.7016 10.3515 10.0016C10.3515 9.30148 10.8516 8.8516 11.8515 8.8516C12.7515 8.8516 13.2516 9.1516 13.5015 9.9016C13.5516 10.0516 13.7016 10.1516 13.8516 10.1516H14.6515C14.8515 10.1516 15.0015 10.0016 15.0015 9.80164V9.7516C14.8015 8.65156 13.9015 7.8016 12.7515 7.70164V6.50164C12.7515 6.3016 12.6015 6.1516 12.3516 6.10156H11.6016C11.4015 6.10156 11.2515 6.25156 11.2015 6.50164V7.6516C9.70148 7.85164 8.75156 8.8516 8.75156 10.1016C8.75156 11.7516 9.75152 12.4016 11.8515 12.6516C13.2516 12.9016 13.7016 13.2016 13.7016 14.0016C13.7016 14.8017 13.0015 15.3516 12.0516 15.3516C10.7515 15.3516 10.3015 14.8016 10.1515 14.0516C10.1016 13.8516 9.95156 13.7516 9.80156 13.7516H8.95148C8.75156 13.7516 8.60156 13.9016 8.60156 14.1016V14.1516C8.80148 15.4016 9.60152 16.3016 11.2515 16.5516V17.7516C11.2515 17.9516 11.4015 18.1016 11.6515 18.1516H12.4015C12.6015 18.1516 12.7515 18.0016 12.8016 17.7516V16.5516C14.3016 16.3016 15.3015 15.2516 15.3015 13.9016Z" fill="white"/>
<path d="M9.45097 19.1499C5.55097 17.75 3.55094 13.4 5.00102 9.54992C5.75102 7.44992 7.40101 5.84996 9.45097 5.09996C9.65101 5 9.75098 4.85 9.75098 4.59992V3.89996C9.75098 3.69992 9.65101 3.54992 9.45097 3.5C9.40093 3.5 9.30098 3.5 9.25094 3.54992C4.50098 5.04992 1.90093 10.1 3.40093 14.85C4.30093 17.6499 6.45098 19.8 9.25094 20.7C9.45097 20.7999 9.65102 20.7 9.70093 20.4999C9.75098 20.45 9.75098 20.4 9.75098 20.3V19.5999C9.75098 19.4499 9.60098 19.25 9.45097 19.1499ZM14.751 3.54992C14.551 3.44996 14.3509 3.54992 14.301 3.74996C14.251 3.8 14.251 3.84992 14.251 3.95V4.64996C14.251 4.85 14.401 5.04992 14.551 5.15C18.451 6.54992 20.451 10.8999 19.0009 14.75C18.2509 16.85 16.6009 18.45 14.551 19.2C14.3509 19.2999 14.251 19.4499 14.251 19.7V20.4C14.251 20.6 14.3509 20.75 14.551 20.7999C14.601 20.7999 14.701 20.7999 14.751 20.75C19.501 19.25 22.101 14.1999 20.601 9.44996C19.701 6.59996 17.5009 4.44992 14.751 3.54992Z" fill="white"/>
</svg>
