<svg width="64" height="64" viewBox="0 0 64 64" fill="none" xmlns="http://www.w3.org/2000/svg">
<rect width="64" height="64" rx="8" fill="white"/>
<path d="M17.8765 26.0938L12.2891 44.8281" stroke="url(#paint0_linear_6698_25047)" stroke-width="3.23573" stroke-linecap="round"/>
<mask id="mask0_6698_25047" style="mask-type:alpha" maskUnits="userSpaceOnUse" x="15" y="19" width="41" height="26">
<mask id="path-3-inside-1_6698_25047" fill="white">
<path d="M33.9688 29.9123C33.9688 24.015 38.7494 19.2344 44.6467 19.2344H45.3119C51.2091 19.2344 55.9898 24.015 55.9898 29.9123V42.7942H33.9688V29.9123Z"/>
</mask>
<path d="M30.733 29.9123C30.733 22.228 36.9624 15.9986 44.6467 15.9986H45.3119C52.9962 15.9986 59.2255 22.228 59.2255 29.9123H52.7541C52.7541 25.8021 49.4221 22.4701 45.3119 22.4701H44.6467C40.5365 22.4701 37.2045 25.8021 37.2045 29.9123H30.733ZM55.9898 42.7942H33.9688H55.9898ZM30.733 42.7942V29.9123C30.733 22.228 36.9624 15.9986 44.6467 15.9986V22.4701C40.5365 22.4701 37.2045 25.8021 37.2045 29.9123V42.7942H30.733ZM45.3119 15.9986C52.9962 15.9986 59.2255 22.228 59.2255 29.9123V42.7942H52.7541V29.9123C52.7541 25.8021 49.4221 22.4701 45.3119 22.4701V15.9986Z" fill="white" mask="url(#path-3-inside-1_6698_25047)"/>
<ellipse cx="54.3582" cy="42.763" rx="1.64336" ry="1.41927" fill="#A66CFF"/>
<mask id="path-6-inside-2_6698_25047" fill="white">
<path d="M15.2344 29.9123C15.2344 24.015 20.015 19.2344 25.9123 19.2344H26.5775C32.4748 19.2344 37.2554 24.015 37.2554 29.9123V42.7942H15.2344V29.9123Z"/>
</mask>
<path d="M11.9986 29.9123C11.9986 22.228 18.228 15.9986 25.9123 15.9986H26.5775C34.2618 15.9986 40.4912 22.228 40.4912 29.9123H34.0197C34.0197 25.8021 30.6877 22.4701 26.5775 22.4701H25.9123C21.8021 22.4701 18.4701 25.8021 18.4701 29.9123H11.9986ZM37.2554 42.7942H15.2344H37.2554ZM11.9986 42.7942V29.9123C11.9986 22.228 18.228 15.9986 25.9123 15.9986V22.4701C21.8021 22.4701 18.4701 25.8021 18.4701 29.9123V42.7942H11.9986ZM26.5775 15.9986C34.2618 15.9986 40.4912 22.228 40.4912 29.9123V42.7942H34.0197V29.9123C34.0197 25.8021 30.6877 22.4701 26.5775 22.4701V15.9986Z" fill="#A66CFF" mask="url(#path-6-inside-2_6698_25047)"/>
<ellipse cx="35.6121" cy="42.763" rx="1.64336" ry="1.41927" fill="#A66CFF"/>
</mask>
<g mask="url(#mask0_6698_25047)">
<path d="M16.3794 18.75L57.7921 19.1758V44.7226H31.334L18.5 25.5L13.75 25.414L16.3794 18.75Z" fill="black"/>
</g>
<circle cx="16.0525" cy="33.1462" r="6.43461" stroke="black" stroke-width="3.23573"/>
<defs>
<linearGradient id="paint0_linear_6698_25047" x1="12.451" y1="44.944" x2="16.3987" y2="28.9066" gradientUnits="userSpaceOnUse">
<stop/>
<stop offset="1" stop-opacity="0"/>
</linearGradient>
</defs>
</svg>
